G04 EAGLE Gerber RS-274X export*
G75*
%MOMM*%
%FSLAX34Y34*%
%LPD*%
%INTop Copper*%
%IPPOS*%
%AMOC8*
5,1,8,0,0,1.08239X$1,22.5*%
G01*
%ADD10R,2.400000X2.000000*%
%ADD11R,2.308000X0.500000*%
%ADD12R,1.500000X0.400000*%
%ADD13R,1.500000X1.950000*%
%ADD14R,1.400000X1.100000*%
%ADD15R,1.200000X1.200000*%
%ADD16R,1.100000X1.400000*%
%ADD17P,1.924489X8X112.500000*%
%ADD18R,0.475000X0.250000*%
%ADD19R,0.250000X0.375000*%
%ADD20R,1.500000X1.300000*%
%ADD21R,1.300000X1.500000*%
%ADD22R,1.300000X1.900000*%
%ADD23R,1.500000X1.200000*%
%ADD24C,1.930400*%
%ADD25C,1.524000*%
%ADD26R,0.400000X1.500000*%
%ADD27R,1.950000X1.500000*%
%ADD28P,1.924489X8X22.500000*%
%ADD29C,0.019600*%
%ADD30C,1.219200*%
%ADD31C,1.485000*%
%ADD32R,1.485000X1.485000*%
%ADD33C,1.200000*%
%ADD34C,1.500000*%
%ADD35R,1.219200X2.235200*%
%ADD36R,3.600000X2.200000*%
%ADD37P,1.732040X8X112.500000*%
%ADD38C,1.600200*%
%ADD39R,1.000000X1.200000*%
%ADD40R,2.057400X0.609600*%
%ADD41C,0.705600*%
%ADD42C,0.203200*%
%ADD43C,0.406400*%
%ADD44C,0.355600*%
%ADD45C,0.254000*%
%ADD46C,0.304800*%


D10*
X934000Y422900D03*
D11*
X928360Y450900D03*
X928360Y458900D03*
X928360Y466900D03*
X928360Y474900D03*
X928360Y482900D03*
D10*
X989000Y422900D03*
X934000Y510900D03*
X989000Y510900D03*
D12*
X891610Y301910D03*
X891610Y308410D03*
X891610Y314910D03*
X891610Y321410D03*
X891610Y327910D03*
X891610Y334410D03*
X891610Y340910D03*
X891610Y347410D03*
X891610Y353910D03*
X891610Y360410D03*
X891610Y366910D03*
X891610Y373410D03*
X891610Y379910D03*
X891610Y386410D03*
X819110Y386410D03*
X819110Y379910D03*
X819110Y373410D03*
X819110Y366910D03*
X819110Y360410D03*
X819110Y353910D03*
X819110Y347410D03*
X819110Y340910D03*
X819110Y334410D03*
X819110Y327910D03*
X819110Y321410D03*
X819110Y314910D03*
X819110Y308410D03*
X819110Y301910D03*
D13*
X769360Y300910D03*
X769360Y273410D03*
D14*
X768360Y328160D03*
X768360Y348160D03*
X768360Y375160D03*
X768360Y395160D03*
D15*
X931440Y340660D03*
X931440Y319660D03*
X931440Y358660D03*
X931440Y379660D03*
D16*
X845360Y246160D03*
X865360Y246160D03*
D17*
X792260Y195860D03*
X817660Y195860D03*
X843060Y195860D03*
X868460Y195860D03*
X893860Y195860D03*
X919260Y195860D03*
D16*
X906360Y246160D03*
X886360Y246160D03*
D18*
X171775Y608580D03*
D19*
X179900Y607955D03*
X184900Y607955D03*
X189900Y607955D03*
X194900Y607955D03*
D18*
X203025Y608580D03*
X203025Y613580D03*
X203025Y618580D03*
X203025Y623580D03*
X203025Y628580D03*
X203025Y633580D03*
X203025Y638580D03*
X203025Y643580D03*
X203025Y648580D03*
X203025Y653580D03*
D19*
X194900Y654205D03*
X189900Y654205D03*
X184900Y654205D03*
X179900Y654205D03*
D18*
X171775Y653580D03*
X171775Y648580D03*
X171775Y643580D03*
X171775Y638580D03*
X171775Y633580D03*
X171775Y628580D03*
X171775Y623580D03*
X171775Y618580D03*
X171775Y613580D03*
D20*
X154000Y704500D03*
X154000Y685500D03*
X180000Y704500D03*
X180000Y685500D03*
D21*
X221200Y698620D03*
X240200Y698620D03*
D22*
X108880Y661460D03*
X53880Y661460D03*
X53880Y629460D03*
X108880Y629460D03*
D21*
X101580Y607000D03*
X120580Y607000D03*
X100200Y683460D03*
X119200Y683460D03*
D20*
X247020Y629120D03*
X247020Y610120D03*
D23*
X139080Y554960D03*
X139080Y575960D03*
D24*
X154900Y729000D03*
X180300Y729000D03*
X205700Y729000D03*
X231100Y729000D03*
D25*
X979410Y376080D02*
X994650Y376080D01*
X994650Y350680D02*
X979410Y350680D01*
X979410Y325280D02*
X994650Y325280D01*
X994650Y299880D02*
X979410Y299880D01*
X979410Y274480D02*
X994650Y274480D01*
X994650Y249080D02*
X979410Y249080D01*
X979410Y223680D02*
X994650Y223680D01*
X994650Y198280D02*
X979410Y198280D01*
X979410Y172880D02*
X994650Y172880D01*
X994650Y147480D02*
X979410Y147480D01*
X979410Y122080D02*
X994650Y122080D01*
X994650Y96680D02*
X979410Y96680D01*
X979410Y71280D02*
X994650Y71280D01*
X994650Y45880D02*
X979410Y45880D01*
X979410Y20480D02*
X994650Y20480D01*
X638288Y376334D02*
X623048Y376334D01*
X623048Y350934D02*
X638288Y350934D01*
X638288Y325534D02*
X623048Y325534D01*
X623048Y300134D02*
X638288Y300134D01*
X638288Y274734D02*
X623048Y274734D01*
X623048Y249334D02*
X638288Y249334D01*
X638288Y223934D02*
X623048Y223934D01*
X623048Y198534D02*
X638288Y198534D01*
X638288Y173134D02*
X623048Y173134D01*
X623048Y147734D02*
X638288Y147734D01*
X638288Y122334D02*
X623048Y122334D01*
X623048Y96934D02*
X638288Y96934D01*
X638288Y71534D02*
X623048Y71534D01*
X623048Y46134D02*
X638288Y46134D01*
X638288Y20734D02*
X623048Y20734D01*
D10*
X934000Y601460D03*
D11*
X928360Y629460D03*
X928360Y637460D03*
X928360Y645460D03*
X928360Y653460D03*
X928360Y661460D03*
D10*
X989000Y601460D03*
X934000Y689460D03*
X989000Y689460D03*
D26*
X803750Y605710D03*
X810250Y605710D03*
X816750Y605710D03*
X823250Y605710D03*
X829750Y605710D03*
X836250Y605710D03*
X842750Y605710D03*
X849250Y605710D03*
X855750Y605710D03*
X862250Y605710D03*
X868750Y605710D03*
X875250Y605710D03*
X881750Y605710D03*
X888250Y605710D03*
X888250Y678210D03*
X881750Y678210D03*
X875250Y678210D03*
X868750Y678210D03*
X862250Y678210D03*
X855750Y678210D03*
X849250Y678210D03*
X842750Y678210D03*
X836250Y678210D03*
X829750Y678210D03*
X823250Y678210D03*
X816750Y678210D03*
X810250Y678210D03*
X803750Y678210D03*
D27*
X794670Y705560D03*
X767170Y705560D03*
D16*
X832580Y722300D03*
X852580Y722300D03*
X876040Y732460D03*
X896040Y732460D03*
D15*
X839000Y570960D03*
X818000Y570960D03*
X858000Y570960D03*
X879000Y570960D03*
D14*
X748500Y653460D03*
X748500Y633460D03*
D28*
X688620Y720300D03*
X688620Y694900D03*
X688620Y669500D03*
X688620Y644100D03*
X688620Y618700D03*
X688620Y593300D03*
D14*
X748500Y593460D03*
X748500Y613460D03*
D25*
X451360Y654474D02*
X436120Y654474D01*
X436120Y629582D02*
X451360Y629582D01*
X451360Y604690D02*
X436120Y604690D01*
X436120Y679366D02*
X451360Y679366D01*
X451360Y704258D02*
X436120Y704258D01*
X436120Y729150D02*
X451360Y729150D01*
X354600Y680046D02*
X339360Y680046D01*
X339360Y704938D02*
X354600Y704938D01*
X354600Y729830D02*
X339360Y729830D01*
X339360Y655154D02*
X354600Y655154D01*
X354600Y630262D02*
X339360Y630262D01*
X339360Y605370D02*
X354600Y605370D01*
X485900Y132946D02*
X501140Y132946D01*
X501140Y108054D02*
X485900Y108054D01*
X485900Y83162D02*
X501140Y83162D01*
X501140Y157838D02*
X485900Y157838D01*
X417360Y133046D02*
X402120Y133046D01*
X402120Y108154D02*
X417360Y108154D01*
X417360Y83262D02*
X402120Y83262D01*
X402120Y157938D02*
X417360Y157938D01*
X657328Y449110D02*
X657328Y464350D01*
X682220Y464350D02*
X682220Y449110D01*
X707112Y449110D02*
X707112Y464350D01*
X657948Y526500D02*
X657948Y541740D01*
X682840Y541740D02*
X682840Y526500D01*
X707732Y526500D02*
X707732Y541740D01*
D29*
X395638Y496482D02*
X395638Y493878D01*
X395638Y496482D02*
X411042Y496482D01*
X411042Y493878D01*
X395638Y493878D01*
X395638Y494064D02*
X411042Y494064D01*
X411042Y494250D02*
X395638Y494250D01*
X395638Y494436D02*
X411042Y494436D01*
X411042Y494622D02*
X395638Y494622D01*
X395638Y494808D02*
X411042Y494808D01*
X411042Y494994D02*
X395638Y494994D01*
X395638Y495180D02*
X411042Y495180D01*
X411042Y495366D02*
X395638Y495366D01*
X395638Y495552D02*
X411042Y495552D01*
X411042Y495738D02*
X395638Y495738D01*
X395638Y495924D02*
X411042Y495924D01*
X411042Y496110D02*
X395638Y496110D01*
X395638Y496296D02*
X411042Y496296D01*
X411042Y496482D02*
X395638Y496482D01*
X395638Y491482D02*
X395638Y488878D01*
X395638Y491482D02*
X411042Y491482D01*
X411042Y488878D01*
X395638Y488878D01*
X395638Y489064D02*
X411042Y489064D01*
X411042Y489250D02*
X395638Y489250D01*
X395638Y489436D02*
X411042Y489436D01*
X411042Y489622D02*
X395638Y489622D01*
X395638Y489808D02*
X411042Y489808D01*
X411042Y489994D02*
X395638Y489994D01*
X395638Y490180D02*
X411042Y490180D01*
X411042Y490366D02*
X395638Y490366D01*
X395638Y490552D02*
X411042Y490552D01*
X411042Y490738D02*
X395638Y490738D01*
X395638Y490924D02*
X411042Y490924D01*
X411042Y491110D02*
X395638Y491110D01*
X395638Y491296D02*
X411042Y491296D01*
X411042Y491482D02*
X395638Y491482D01*
X395638Y486482D02*
X395638Y483878D01*
X395638Y486482D02*
X411042Y486482D01*
X411042Y483878D01*
X395638Y483878D01*
X395638Y484064D02*
X411042Y484064D01*
X411042Y484250D02*
X395638Y484250D01*
X395638Y484436D02*
X411042Y484436D01*
X411042Y484622D02*
X395638Y484622D01*
X395638Y484808D02*
X411042Y484808D01*
X411042Y484994D02*
X395638Y484994D01*
X395638Y485180D02*
X411042Y485180D01*
X411042Y485366D02*
X395638Y485366D01*
X395638Y485552D02*
X411042Y485552D01*
X411042Y485738D02*
X395638Y485738D01*
X395638Y485924D02*
X411042Y485924D01*
X411042Y486110D02*
X395638Y486110D01*
X395638Y486296D02*
X411042Y486296D01*
X411042Y486482D02*
X395638Y486482D01*
X395638Y481482D02*
X395638Y478878D01*
X395638Y481482D02*
X411042Y481482D01*
X411042Y478878D01*
X395638Y478878D01*
X395638Y479064D02*
X411042Y479064D01*
X411042Y479250D02*
X395638Y479250D01*
X395638Y479436D02*
X411042Y479436D01*
X411042Y479622D02*
X395638Y479622D01*
X395638Y479808D02*
X411042Y479808D01*
X411042Y479994D02*
X395638Y479994D01*
X395638Y480180D02*
X411042Y480180D01*
X411042Y480366D02*
X395638Y480366D01*
X395638Y480552D02*
X411042Y480552D01*
X411042Y480738D02*
X395638Y480738D01*
X395638Y480924D02*
X411042Y480924D01*
X411042Y481110D02*
X395638Y481110D01*
X395638Y481296D02*
X411042Y481296D01*
X411042Y481482D02*
X395638Y481482D01*
X395638Y476482D02*
X395638Y473878D01*
X395638Y476482D02*
X411042Y476482D01*
X411042Y473878D01*
X395638Y473878D01*
X395638Y474064D02*
X411042Y474064D01*
X411042Y474250D02*
X395638Y474250D01*
X395638Y474436D02*
X411042Y474436D01*
X411042Y474622D02*
X395638Y474622D01*
X395638Y474808D02*
X411042Y474808D01*
X411042Y474994D02*
X395638Y474994D01*
X395638Y475180D02*
X411042Y475180D01*
X411042Y475366D02*
X395638Y475366D01*
X395638Y475552D02*
X411042Y475552D01*
X411042Y475738D02*
X395638Y475738D01*
X395638Y475924D02*
X411042Y475924D01*
X411042Y476110D02*
X395638Y476110D01*
X395638Y476296D02*
X411042Y476296D01*
X411042Y476482D02*
X395638Y476482D01*
X395638Y471482D02*
X395638Y468878D01*
X395638Y471482D02*
X411042Y471482D01*
X411042Y468878D01*
X395638Y468878D01*
X395638Y469064D02*
X411042Y469064D01*
X411042Y469250D02*
X395638Y469250D01*
X395638Y469436D02*
X411042Y469436D01*
X411042Y469622D02*
X395638Y469622D01*
X395638Y469808D02*
X411042Y469808D01*
X411042Y469994D02*
X395638Y469994D01*
X395638Y470180D02*
X411042Y470180D01*
X411042Y470366D02*
X395638Y470366D01*
X395638Y470552D02*
X411042Y470552D01*
X411042Y470738D02*
X395638Y470738D01*
X395638Y470924D02*
X411042Y470924D01*
X411042Y471110D02*
X395638Y471110D01*
X395638Y471296D02*
X411042Y471296D01*
X411042Y471482D02*
X395638Y471482D01*
X395638Y466482D02*
X395638Y463878D01*
X395638Y466482D02*
X411042Y466482D01*
X411042Y463878D01*
X395638Y463878D01*
X395638Y464064D02*
X411042Y464064D01*
X411042Y464250D02*
X395638Y464250D01*
X395638Y464436D02*
X411042Y464436D01*
X411042Y464622D02*
X395638Y464622D01*
X395638Y464808D02*
X411042Y464808D01*
X411042Y464994D02*
X395638Y464994D01*
X395638Y465180D02*
X411042Y465180D01*
X411042Y465366D02*
X395638Y465366D01*
X395638Y465552D02*
X411042Y465552D01*
X411042Y465738D02*
X395638Y465738D01*
X395638Y465924D02*
X411042Y465924D01*
X411042Y466110D02*
X395638Y466110D01*
X395638Y466296D02*
X411042Y466296D01*
X411042Y466482D02*
X395638Y466482D01*
X395638Y461482D02*
X395638Y458878D01*
X395638Y461482D02*
X411042Y461482D01*
X411042Y458878D01*
X395638Y458878D01*
X395638Y459064D02*
X411042Y459064D01*
X411042Y459250D02*
X395638Y459250D01*
X395638Y459436D02*
X411042Y459436D01*
X411042Y459622D02*
X395638Y459622D01*
X395638Y459808D02*
X411042Y459808D01*
X411042Y459994D02*
X395638Y459994D01*
X395638Y460180D02*
X411042Y460180D01*
X411042Y460366D02*
X395638Y460366D01*
X395638Y460552D02*
X411042Y460552D01*
X411042Y460738D02*
X395638Y460738D01*
X395638Y460924D02*
X411042Y460924D01*
X411042Y461110D02*
X395638Y461110D01*
X395638Y461296D02*
X411042Y461296D01*
X411042Y461482D02*
X395638Y461482D01*
X395638Y456482D02*
X395638Y453878D01*
X395638Y456482D02*
X411042Y456482D01*
X411042Y453878D01*
X395638Y453878D01*
X395638Y454064D02*
X411042Y454064D01*
X411042Y454250D02*
X395638Y454250D01*
X395638Y454436D02*
X411042Y454436D01*
X411042Y454622D02*
X395638Y454622D01*
X395638Y454808D02*
X411042Y454808D01*
X411042Y454994D02*
X395638Y454994D01*
X395638Y455180D02*
X411042Y455180D01*
X411042Y455366D02*
X395638Y455366D01*
X395638Y455552D02*
X411042Y455552D01*
X411042Y455738D02*
X395638Y455738D01*
X395638Y455924D02*
X411042Y455924D01*
X411042Y456110D02*
X395638Y456110D01*
X395638Y456296D02*
X411042Y456296D01*
X411042Y456482D02*
X395638Y456482D01*
X395638Y451482D02*
X395638Y448878D01*
X395638Y451482D02*
X411042Y451482D01*
X411042Y448878D01*
X395638Y448878D01*
X395638Y449064D02*
X411042Y449064D01*
X411042Y449250D02*
X395638Y449250D01*
X395638Y449436D02*
X411042Y449436D01*
X411042Y449622D02*
X395638Y449622D01*
X395638Y449808D02*
X411042Y449808D01*
X411042Y449994D02*
X395638Y449994D01*
X395638Y450180D02*
X411042Y450180D01*
X411042Y450366D02*
X395638Y450366D01*
X395638Y450552D02*
X411042Y450552D01*
X411042Y450738D02*
X395638Y450738D01*
X395638Y450924D02*
X411042Y450924D01*
X411042Y451110D02*
X395638Y451110D01*
X395638Y451296D02*
X411042Y451296D01*
X411042Y451482D02*
X395638Y451482D01*
X395638Y446482D02*
X395638Y443878D01*
X395638Y446482D02*
X411042Y446482D01*
X411042Y443878D01*
X395638Y443878D01*
X395638Y444064D02*
X411042Y444064D01*
X411042Y444250D02*
X395638Y444250D01*
X395638Y444436D02*
X411042Y444436D01*
X411042Y444622D02*
X395638Y444622D01*
X395638Y444808D02*
X411042Y444808D01*
X411042Y444994D02*
X395638Y444994D01*
X395638Y445180D02*
X411042Y445180D01*
X411042Y445366D02*
X395638Y445366D01*
X395638Y445552D02*
X411042Y445552D01*
X411042Y445738D02*
X395638Y445738D01*
X395638Y445924D02*
X411042Y445924D01*
X411042Y446110D02*
X395638Y446110D01*
X395638Y446296D02*
X411042Y446296D01*
X411042Y446482D02*
X395638Y446482D01*
X395638Y441482D02*
X395638Y438878D01*
X395638Y441482D02*
X411042Y441482D01*
X411042Y438878D01*
X395638Y438878D01*
X395638Y439064D02*
X411042Y439064D01*
X411042Y439250D02*
X395638Y439250D01*
X395638Y439436D02*
X411042Y439436D01*
X411042Y439622D02*
X395638Y439622D01*
X395638Y439808D02*
X411042Y439808D01*
X411042Y439994D02*
X395638Y439994D01*
X395638Y440180D02*
X411042Y440180D01*
X411042Y440366D02*
X395638Y440366D01*
X395638Y440552D02*
X411042Y440552D01*
X411042Y440738D02*
X395638Y440738D01*
X395638Y440924D02*
X411042Y440924D01*
X411042Y441110D02*
X395638Y441110D01*
X395638Y441296D02*
X411042Y441296D01*
X411042Y441482D02*
X395638Y441482D01*
X416338Y433582D02*
X418942Y433582D01*
X418942Y418178D01*
X416338Y418178D01*
X416338Y433582D01*
X416338Y418364D02*
X418942Y418364D01*
X418942Y418550D02*
X416338Y418550D01*
X416338Y418736D02*
X418942Y418736D01*
X418942Y418922D02*
X416338Y418922D01*
X416338Y419108D02*
X418942Y419108D01*
X418942Y419294D02*
X416338Y419294D01*
X416338Y419480D02*
X418942Y419480D01*
X418942Y419666D02*
X416338Y419666D01*
X416338Y419852D02*
X418942Y419852D01*
X418942Y420038D02*
X416338Y420038D01*
X416338Y420224D02*
X418942Y420224D01*
X418942Y420410D02*
X416338Y420410D01*
X416338Y420596D02*
X418942Y420596D01*
X418942Y420782D02*
X416338Y420782D01*
X416338Y420968D02*
X418942Y420968D01*
X418942Y421154D02*
X416338Y421154D01*
X416338Y421340D02*
X418942Y421340D01*
X418942Y421526D02*
X416338Y421526D01*
X416338Y421712D02*
X418942Y421712D01*
X418942Y421898D02*
X416338Y421898D01*
X416338Y422084D02*
X418942Y422084D01*
X418942Y422270D02*
X416338Y422270D01*
X416338Y422456D02*
X418942Y422456D01*
X418942Y422642D02*
X416338Y422642D01*
X416338Y422828D02*
X418942Y422828D01*
X418942Y423014D02*
X416338Y423014D01*
X416338Y423200D02*
X418942Y423200D01*
X418942Y423386D02*
X416338Y423386D01*
X416338Y423572D02*
X418942Y423572D01*
X418942Y423758D02*
X416338Y423758D01*
X416338Y423944D02*
X418942Y423944D01*
X418942Y424130D02*
X416338Y424130D01*
X416338Y424316D02*
X418942Y424316D01*
X418942Y424502D02*
X416338Y424502D01*
X416338Y424688D02*
X418942Y424688D01*
X418942Y424874D02*
X416338Y424874D01*
X416338Y425060D02*
X418942Y425060D01*
X418942Y425246D02*
X416338Y425246D01*
X416338Y425432D02*
X418942Y425432D01*
X418942Y425618D02*
X416338Y425618D01*
X416338Y425804D02*
X418942Y425804D01*
X418942Y425990D02*
X416338Y425990D01*
X416338Y426176D02*
X418942Y426176D01*
X418942Y426362D02*
X416338Y426362D01*
X416338Y426548D02*
X418942Y426548D01*
X418942Y426734D02*
X416338Y426734D01*
X416338Y426920D02*
X418942Y426920D01*
X418942Y427106D02*
X416338Y427106D01*
X416338Y427292D02*
X418942Y427292D01*
X418942Y427478D02*
X416338Y427478D01*
X416338Y427664D02*
X418942Y427664D01*
X418942Y427850D02*
X416338Y427850D01*
X416338Y428036D02*
X418942Y428036D01*
X418942Y428222D02*
X416338Y428222D01*
X416338Y428408D02*
X418942Y428408D01*
X418942Y428594D02*
X416338Y428594D01*
X416338Y428780D02*
X418942Y428780D01*
X418942Y428966D02*
X416338Y428966D01*
X416338Y429152D02*
X418942Y429152D01*
X418942Y429338D02*
X416338Y429338D01*
X416338Y429524D02*
X418942Y429524D01*
X418942Y429710D02*
X416338Y429710D01*
X416338Y429896D02*
X418942Y429896D01*
X418942Y430082D02*
X416338Y430082D01*
X416338Y430268D02*
X418942Y430268D01*
X418942Y430454D02*
X416338Y430454D01*
X416338Y430640D02*
X418942Y430640D01*
X418942Y430826D02*
X416338Y430826D01*
X416338Y431012D02*
X418942Y431012D01*
X418942Y431198D02*
X416338Y431198D01*
X416338Y431384D02*
X418942Y431384D01*
X418942Y431570D02*
X416338Y431570D01*
X416338Y431756D02*
X418942Y431756D01*
X418942Y431942D02*
X416338Y431942D01*
X416338Y432128D02*
X418942Y432128D01*
X418942Y432314D02*
X416338Y432314D01*
X416338Y432500D02*
X418942Y432500D01*
X418942Y432686D02*
X416338Y432686D01*
X416338Y432872D02*
X418942Y432872D01*
X418942Y433058D02*
X416338Y433058D01*
X416338Y433244D02*
X418942Y433244D01*
X418942Y433430D02*
X416338Y433430D01*
X421338Y433582D02*
X423942Y433582D01*
X423942Y418178D01*
X421338Y418178D01*
X421338Y433582D01*
X421338Y418364D02*
X423942Y418364D01*
X423942Y418550D02*
X421338Y418550D01*
X421338Y418736D02*
X423942Y418736D01*
X423942Y418922D02*
X421338Y418922D01*
X421338Y419108D02*
X423942Y419108D01*
X423942Y419294D02*
X421338Y419294D01*
X421338Y419480D02*
X423942Y419480D01*
X423942Y419666D02*
X421338Y419666D01*
X421338Y419852D02*
X423942Y419852D01*
X423942Y420038D02*
X421338Y420038D01*
X421338Y420224D02*
X423942Y420224D01*
X423942Y420410D02*
X421338Y420410D01*
X421338Y420596D02*
X423942Y420596D01*
X423942Y420782D02*
X421338Y420782D01*
X421338Y420968D02*
X423942Y420968D01*
X423942Y421154D02*
X421338Y421154D01*
X421338Y421340D02*
X423942Y421340D01*
X423942Y421526D02*
X421338Y421526D01*
X421338Y421712D02*
X423942Y421712D01*
X423942Y421898D02*
X421338Y421898D01*
X421338Y422084D02*
X423942Y422084D01*
X423942Y422270D02*
X421338Y422270D01*
X421338Y422456D02*
X423942Y422456D01*
X423942Y422642D02*
X421338Y422642D01*
X421338Y422828D02*
X423942Y422828D01*
X423942Y423014D02*
X421338Y423014D01*
X421338Y423200D02*
X423942Y423200D01*
X423942Y423386D02*
X421338Y423386D01*
X421338Y423572D02*
X423942Y423572D01*
X423942Y423758D02*
X421338Y423758D01*
X421338Y423944D02*
X423942Y423944D01*
X423942Y424130D02*
X421338Y424130D01*
X421338Y424316D02*
X423942Y424316D01*
X423942Y424502D02*
X421338Y424502D01*
X421338Y424688D02*
X423942Y424688D01*
X423942Y424874D02*
X421338Y424874D01*
X421338Y425060D02*
X423942Y425060D01*
X423942Y425246D02*
X421338Y425246D01*
X421338Y425432D02*
X423942Y425432D01*
X423942Y425618D02*
X421338Y425618D01*
X421338Y425804D02*
X423942Y425804D01*
X423942Y425990D02*
X421338Y425990D01*
X421338Y426176D02*
X423942Y426176D01*
X423942Y426362D02*
X421338Y426362D01*
X421338Y426548D02*
X423942Y426548D01*
X423942Y426734D02*
X421338Y426734D01*
X421338Y426920D02*
X423942Y426920D01*
X423942Y427106D02*
X421338Y427106D01*
X421338Y427292D02*
X423942Y427292D01*
X423942Y427478D02*
X421338Y427478D01*
X421338Y427664D02*
X423942Y427664D01*
X423942Y427850D02*
X421338Y427850D01*
X421338Y428036D02*
X423942Y428036D01*
X423942Y428222D02*
X421338Y428222D01*
X421338Y428408D02*
X423942Y428408D01*
X423942Y428594D02*
X421338Y428594D01*
X421338Y428780D02*
X423942Y428780D01*
X423942Y428966D02*
X421338Y428966D01*
X421338Y429152D02*
X423942Y429152D01*
X423942Y429338D02*
X421338Y429338D01*
X421338Y429524D02*
X423942Y429524D01*
X423942Y429710D02*
X421338Y429710D01*
X421338Y429896D02*
X423942Y429896D01*
X423942Y430082D02*
X421338Y430082D01*
X421338Y430268D02*
X423942Y430268D01*
X423942Y430454D02*
X421338Y430454D01*
X421338Y430640D02*
X423942Y430640D01*
X423942Y430826D02*
X421338Y430826D01*
X421338Y431012D02*
X423942Y431012D01*
X423942Y431198D02*
X421338Y431198D01*
X421338Y431384D02*
X423942Y431384D01*
X423942Y431570D02*
X421338Y431570D01*
X421338Y431756D02*
X423942Y431756D01*
X423942Y431942D02*
X421338Y431942D01*
X421338Y432128D02*
X423942Y432128D01*
X423942Y432314D02*
X421338Y432314D01*
X421338Y432500D02*
X423942Y432500D01*
X423942Y432686D02*
X421338Y432686D01*
X421338Y432872D02*
X423942Y432872D01*
X423942Y433058D02*
X421338Y433058D01*
X421338Y433244D02*
X423942Y433244D01*
X423942Y433430D02*
X421338Y433430D01*
X426338Y433582D02*
X428942Y433582D01*
X428942Y418178D01*
X426338Y418178D01*
X426338Y433582D01*
X426338Y418364D02*
X428942Y418364D01*
X428942Y418550D02*
X426338Y418550D01*
X426338Y418736D02*
X428942Y418736D01*
X428942Y418922D02*
X426338Y418922D01*
X426338Y419108D02*
X428942Y419108D01*
X428942Y419294D02*
X426338Y419294D01*
X426338Y419480D02*
X428942Y419480D01*
X428942Y419666D02*
X426338Y419666D01*
X426338Y419852D02*
X428942Y419852D01*
X428942Y420038D02*
X426338Y420038D01*
X426338Y420224D02*
X428942Y420224D01*
X428942Y420410D02*
X426338Y420410D01*
X426338Y420596D02*
X428942Y420596D01*
X428942Y420782D02*
X426338Y420782D01*
X426338Y420968D02*
X428942Y420968D01*
X428942Y421154D02*
X426338Y421154D01*
X426338Y421340D02*
X428942Y421340D01*
X428942Y421526D02*
X426338Y421526D01*
X426338Y421712D02*
X428942Y421712D01*
X428942Y421898D02*
X426338Y421898D01*
X426338Y422084D02*
X428942Y422084D01*
X428942Y422270D02*
X426338Y422270D01*
X426338Y422456D02*
X428942Y422456D01*
X428942Y422642D02*
X426338Y422642D01*
X426338Y422828D02*
X428942Y422828D01*
X428942Y423014D02*
X426338Y423014D01*
X426338Y423200D02*
X428942Y423200D01*
X428942Y423386D02*
X426338Y423386D01*
X426338Y423572D02*
X428942Y423572D01*
X428942Y423758D02*
X426338Y423758D01*
X426338Y423944D02*
X428942Y423944D01*
X428942Y424130D02*
X426338Y424130D01*
X426338Y424316D02*
X428942Y424316D01*
X428942Y424502D02*
X426338Y424502D01*
X426338Y424688D02*
X428942Y424688D01*
X428942Y424874D02*
X426338Y424874D01*
X426338Y425060D02*
X428942Y425060D01*
X428942Y425246D02*
X426338Y425246D01*
X426338Y425432D02*
X428942Y425432D01*
X428942Y425618D02*
X426338Y425618D01*
X426338Y425804D02*
X428942Y425804D01*
X428942Y425990D02*
X426338Y425990D01*
X426338Y426176D02*
X428942Y426176D01*
X428942Y426362D02*
X426338Y426362D01*
X426338Y426548D02*
X428942Y426548D01*
X428942Y426734D02*
X426338Y426734D01*
X426338Y426920D02*
X428942Y426920D01*
X428942Y427106D02*
X426338Y427106D01*
X426338Y427292D02*
X428942Y427292D01*
X428942Y427478D02*
X426338Y427478D01*
X426338Y427664D02*
X428942Y427664D01*
X428942Y427850D02*
X426338Y427850D01*
X426338Y428036D02*
X428942Y428036D01*
X428942Y428222D02*
X426338Y428222D01*
X426338Y428408D02*
X428942Y428408D01*
X428942Y428594D02*
X426338Y428594D01*
X426338Y428780D02*
X428942Y428780D01*
X428942Y428966D02*
X426338Y428966D01*
X426338Y429152D02*
X428942Y429152D01*
X428942Y429338D02*
X426338Y429338D01*
X426338Y429524D02*
X428942Y429524D01*
X428942Y429710D02*
X426338Y429710D01*
X426338Y429896D02*
X428942Y429896D01*
X428942Y430082D02*
X426338Y430082D01*
X426338Y430268D02*
X428942Y430268D01*
X428942Y430454D02*
X426338Y430454D01*
X426338Y430640D02*
X428942Y430640D01*
X428942Y430826D02*
X426338Y430826D01*
X426338Y431012D02*
X428942Y431012D01*
X428942Y431198D02*
X426338Y431198D01*
X426338Y431384D02*
X428942Y431384D01*
X428942Y431570D02*
X426338Y431570D01*
X426338Y431756D02*
X428942Y431756D01*
X428942Y431942D02*
X426338Y431942D01*
X426338Y432128D02*
X428942Y432128D01*
X428942Y432314D02*
X426338Y432314D01*
X426338Y432500D02*
X428942Y432500D01*
X428942Y432686D02*
X426338Y432686D01*
X426338Y432872D02*
X428942Y432872D01*
X428942Y433058D02*
X426338Y433058D01*
X426338Y433244D02*
X428942Y433244D01*
X428942Y433430D02*
X426338Y433430D01*
X431338Y433582D02*
X433942Y433582D01*
X433942Y418178D01*
X431338Y418178D01*
X431338Y433582D01*
X431338Y418364D02*
X433942Y418364D01*
X433942Y418550D02*
X431338Y418550D01*
X431338Y418736D02*
X433942Y418736D01*
X433942Y418922D02*
X431338Y418922D01*
X431338Y419108D02*
X433942Y419108D01*
X433942Y419294D02*
X431338Y419294D01*
X431338Y419480D02*
X433942Y419480D01*
X433942Y419666D02*
X431338Y419666D01*
X431338Y419852D02*
X433942Y419852D01*
X433942Y420038D02*
X431338Y420038D01*
X431338Y420224D02*
X433942Y420224D01*
X433942Y420410D02*
X431338Y420410D01*
X431338Y420596D02*
X433942Y420596D01*
X433942Y420782D02*
X431338Y420782D01*
X431338Y420968D02*
X433942Y420968D01*
X433942Y421154D02*
X431338Y421154D01*
X431338Y421340D02*
X433942Y421340D01*
X433942Y421526D02*
X431338Y421526D01*
X431338Y421712D02*
X433942Y421712D01*
X433942Y421898D02*
X431338Y421898D01*
X431338Y422084D02*
X433942Y422084D01*
X433942Y422270D02*
X431338Y422270D01*
X431338Y422456D02*
X433942Y422456D01*
X433942Y422642D02*
X431338Y422642D01*
X431338Y422828D02*
X433942Y422828D01*
X433942Y423014D02*
X431338Y423014D01*
X431338Y423200D02*
X433942Y423200D01*
X433942Y423386D02*
X431338Y423386D01*
X431338Y423572D02*
X433942Y423572D01*
X433942Y423758D02*
X431338Y423758D01*
X431338Y423944D02*
X433942Y423944D01*
X433942Y424130D02*
X431338Y424130D01*
X431338Y424316D02*
X433942Y424316D01*
X433942Y424502D02*
X431338Y424502D01*
X431338Y424688D02*
X433942Y424688D01*
X433942Y424874D02*
X431338Y424874D01*
X431338Y425060D02*
X433942Y425060D01*
X433942Y425246D02*
X431338Y425246D01*
X431338Y425432D02*
X433942Y425432D01*
X433942Y425618D02*
X431338Y425618D01*
X431338Y425804D02*
X433942Y425804D01*
X433942Y425990D02*
X431338Y425990D01*
X431338Y426176D02*
X433942Y426176D01*
X433942Y426362D02*
X431338Y426362D01*
X431338Y426548D02*
X433942Y426548D01*
X433942Y426734D02*
X431338Y426734D01*
X431338Y426920D02*
X433942Y426920D01*
X433942Y427106D02*
X431338Y427106D01*
X431338Y427292D02*
X433942Y427292D01*
X433942Y427478D02*
X431338Y427478D01*
X431338Y427664D02*
X433942Y427664D01*
X433942Y427850D02*
X431338Y427850D01*
X431338Y428036D02*
X433942Y428036D01*
X433942Y428222D02*
X431338Y428222D01*
X431338Y428408D02*
X433942Y428408D01*
X433942Y428594D02*
X431338Y428594D01*
X431338Y428780D02*
X433942Y428780D01*
X433942Y428966D02*
X431338Y428966D01*
X431338Y429152D02*
X433942Y429152D01*
X433942Y429338D02*
X431338Y429338D01*
X431338Y429524D02*
X433942Y429524D01*
X433942Y429710D02*
X431338Y429710D01*
X431338Y429896D02*
X433942Y429896D01*
X433942Y430082D02*
X431338Y430082D01*
X431338Y430268D02*
X433942Y430268D01*
X433942Y430454D02*
X431338Y430454D01*
X431338Y430640D02*
X433942Y430640D01*
X433942Y430826D02*
X431338Y430826D01*
X431338Y431012D02*
X433942Y431012D01*
X433942Y431198D02*
X431338Y431198D01*
X431338Y431384D02*
X433942Y431384D01*
X433942Y431570D02*
X431338Y431570D01*
X431338Y431756D02*
X433942Y431756D01*
X433942Y431942D02*
X431338Y431942D01*
X431338Y432128D02*
X433942Y432128D01*
X433942Y432314D02*
X431338Y432314D01*
X431338Y432500D02*
X433942Y432500D01*
X433942Y432686D02*
X431338Y432686D01*
X431338Y432872D02*
X433942Y432872D01*
X433942Y433058D02*
X431338Y433058D01*
X431338Y433244D02*
X433942Y433244D01*
X433942Y433430D02*
X431338Y433430D01*
X436338Y433582D02*
X438942Y433582D01*
X438942Y418178D01*
X436338Y418178D01*
X436338Y433582D01*
X436338Y418364D02*
X438942Y418364D01*
X438942Y418550D02*
X436338Y418550D01*
X436338Y418736D02*
X438942Y418736D01*
X438942Y418922D02*
X436338Y418922D01*
X436338Y419108D02*
X438942Y419108D01*
X438942Y419294D02*
X436338Y419294D01*
X436338Y419480D02*
X438942Y419480D01*
X438942Y419666D02*
X436338Y419666D01*
X436338Y419852D02*
X438942Y419852D01*
X438942Y420038D02*
X436338Y420038D01*
X436338Y420224D02*
X438942Y420224D01*
X438942Y420410D02*
X436338Y420410D01*
X436338Y420596D02*
X438942Y420596D01*
X438942Y420782D02*
X436338Y420782D01*
X436338Y420968D02*
X438942Y420968D01*
X438942Y421154D02*
X436338Y421154D01*
X436338Y421340D02*
X438942Y421340D01*
X438942Y421526D02*
X436338Y421526D01*
X436338Y421712D02*
X438942Y421712D01*
X438942Y421898D02*
X436338Y421898D01*
X436338Y422084D02*
X438942Y422084D01*
X438942Y422270D02*
X436338Y422270D01*
X436338Y422456D02*
X438942Y422456D01*
X438942Y422642D02*
X436338Y422642D01*
X436338Y422828D02*
X438942Y422828D01*
X438942Y423014D02*
X436338Y423014D01*
X436338Y423200D02*
X438942Y423200D01*
X438942Y423386D02*
X436338Y423386D01*
X436338Y423572D02*
X438942Y423572D01*
X438942Y423758D02*
X436338Y423758D01*
X436338Y423944D02*
X438942Y423944D01*
X438942Y424130D02*
X436338Y424130D01*
X436338Y424316D02*
X438942Y424316D01*
X438942Y424502D02*
X436338Y424502D01*
X436338Y424688D02*
X438942Y424688D01*
X438942Y424874D02*
X436338Y424874D01*
X436338Y425060D02*
X438942Y425060D01*
X438942Y425246D02*
X436338Y425246D01*
X436338Y425432D02*
X438942Y425432D01*
X438942Y425618D02*
X436338Y425618D01*
X436338Y425804D02*
X438942Y425804D01*
X438942Y425990D02*
X436338Y425990D01*
X436338Y426176D02*
X438942Y426176D01*
X438942Y426362D02*
X436338Y426362D01*
X436338Y426548D02*
X438942Y426548D01*
X438942Y426734D02*
X436338Y426734D01*
X436338Y426920D02*
X438942Y426920D01*
X438942Y427106D02*
X436338Y427106D01*
X436338Y427292D02*
X438942Y427292D01*
X438942Y427478D02*
X436338Y427478D01*
X436338Y427664D02*
X438942Y427664D01*
X438942Y427850D02*
X436338Y427850D01*
X436338Y428036D02*
X438942Y428036D01*
X438942Y428222D02*
X436338Y428222D01*
X436338Y428408D02*
X438942Y428408D01*
X438942Y428594D02*
X436338Y428594D01*
X436338Y428780D02*
X438942Y428780D01*
X438942Y428966D02*
X436338Y428966D01*
X436338Y429152D02*
X438942Y429152D01*
X438942Y429338D02*
X436338Y429338D01*
X436338Y429524D02*
X438942Y429524D01*
X438942Y429710D02*
X436338Y429710D01*
X436338Y429896D02*
X438942Y429896D01*
X438942Y430082D02*
X436338Y430082D01*
X436338Y430268D02*
X438942Y430268D01*
X438942Y430454D02*
X436338Y430454D01*
X436338Y430640D02*
X438942Y430640D01*
X438942Y430826D02*
X436338Y430826D01*
X436338Y431012D02*
X438942Y431012D01*
X438942Y431198D02*
X436338Y431198D01*
X436338Y431384D02*
X438942Y431384D01*
X438942Y431570D02*
X436338Y431570D01*
X436338Y431756D02*
X438942Y431756D01*
X438942Y431942D02*
X436338Y431942D01*
X436338Y432128D02*
X438942Y432128D01*
X438942Y432314D02*
X436338Y432314D01*
X436338Y432500D02*
X438942Y432500D01*
X438942Y432686D02*
X436338Y432686D01*
X436338Y432872D02*
X438942Y432872D01*
X438942Y433058D02*
X436338Y433058D01*
X436338Y433244D02*
X438942Y433244D01*
X438942Y433430D02*
X436338Y433430D01*
X441338Y433582D02*
X443942Y433582D01*
X443942Y418178D01*
X441338Y418178D01*
X441338Y433582D01*
X441338Y418364D02*
X443942Y418364D01*
X443942Y418550D02*
X441338Y418550D01*
X441338Y418736D02*
X443942Y418736D01*
X443942Y418922D02*
X441338Y418922D01*
X441338Y419108D02*
X443942Y419108D01*
X443942Y419294D02*
X441338Y419294D01*
X441338Y419480D02*
X443942Y419480D01*
X443942Y419666D02*
X441338Y419666D01*
X441338Y419852D02*
X443942Y419852D01*
X443942Y420038D02*
X441338Y420038D01*
X441338Y420224D02*
X443942Y420224D01*
X443942Y420410D02*
X441338Y420410D01*
X441338Y420596D02*
X443942Y420596D01*
X443942Y420782D02*
X441338Y420782D01*
X441338Y420968D02*
X443942Y420968D01*
X443942Y421154D02*
X441338Y421154D01*
X441338Y421340D02*
X443942Y421340D01*
X443942Y421526D02*
X441338Y421526D01*
X441338Y421712D02*
X443942Y421712D01*
X443942Y421898D02*
X441338Y421898D01*
X441338Y422084D02*
X443942Y422084D01*
X443942Y422270D02*
X441338Y422270D01*
X441338Y422456D02*
X443942Y422456D01*
X443942Y422642D02*
X441338Y422642D01*
X441338Y422828D02*
X443942Y422828D01*
X443942Y423014D02*
X441338Y423014D01*
X441338Y423200D02*
X443942Y423200D01*
X443942Y423386D02*
X441338Y423386D01*
X441338Y423572D02*
X443942Y423572D01*
X443942Y423758D02*
X441338Y423758D01*
X441338Y423944D02*
X443942Y423944D01*
X443942Y424130D02*
X441338Y424130D01*
X441338Y424316D02*
X443942Y424316D01*
X443942Y424502D02*
X441338Y424502D01*
X441338Y424688D02*
X443942Y424688D01*
X443942Y424874D02*
X441338Y424874D01*
X441338Y425060D02*
X443942Y425060D01*
X443942Y425246D02*
X441338Y425246D01*
X441338Y425432D02*
X443942Y425432D01*
X443942Y425618D02*
X441338Y425618D01*
X441338Y425804D02*
X443942Y425804D01*
X443942Y425990D02*
X441338Y425990D01*
X441338Y426176D02*
X443942Y426176D01*
X443942Y426362D02*
X441338Y426362D01*
X441338Y426548D02*
X443942Y426548D01*
X443942Y426734D02*
X441338Y426734D01*
X441338Y426920D02*
X443942Y426920D01*
X443942Y427106D02*
X441338Y427106D01*
X441338Y427292D02*
X443942Y427292D01*
X443942Y427478D02*
X441338Y427478D01*
X441338Y427664D02*
X443942Y427664D01*
X443942Y427850D02*
X441338Y427850D01*
X441338Y428036D02*
X443942Y428036D01*
X443942Y428222D02*
X441338Y428222D01*
X441338Y428408D02*
X443942Y428408D01*
X443942Y428594D02*
X441338Y428594D01*
X441338Y428780D02*
X443942Y428780D01*
X443942Y428966D02*
X441338Y428966D01*
X441338Y429152D02*
X443942Y429152D01*
X443942Y429338D02*
X441338Y429338D01*
X441338Y429524D02*
X443942Y429524D01*
X443942Y429710D02*
X441338Y429710D01*
X441338Y429896D02*
X443942Y429896D01*
X443942Y430082D02*
X441338Y430082D01*
X441338Y430268D02*
X443942Y430268D01*
X443942Y430454D02*
X441338Y430454D01*
X441338Y430640D02*
X443942Y430640D01*
X443942Y430826D02*
X441338Y430826D01*
X441338Y431012D02*
X443942Y431012D01*
X443942Y431198D02*
X441338Y431198D01*
X441338Y431384D02*
X443942Y431384D01*
X443942Y431570D02*
X441338Y431570D01*
X441338Y431756D02*
X443942Y431756D01*
X443942Y431942D02*
X441338Y431942D01*
X441338Y432128D02*
X443942Y432128D01*
X443942Y432314D02*
X441338Y432314D01*
X441338Y432500D02*
X443942Y432500D01*
X443942Y432686D02*
X441338Y432686D01*
X441338Y432872D02*
X443942Y432872D01*
X443942Y433058D02*
X441338Y433058D01*
X441338Y433244D02*
X443942Y433244D01*
X443942Y433430D02*
X441338Y433430D01*
X446338Y433582D02*
X448942Y433582D01*
X448942Y418178D01*
X446338Y418178D01*
X446338Y433582D01*
X446338Y418364D02*
X448942Y418364D01*
X448942Y418550D02*
X446338Y418550D01*
X446338Y418736D02*
X448942Y418736D01*
X448942Y418922D02*
X446338Y418922D01*
X446338Y419108D02*
X448942Y419108D01*
X448942Y419294D02*
X446338Y419294D01*
X446338Y419480D02*
X448942Y419480D01*
X448942Y419666D02*
X446338Y419666D01*
X446338Y419852D02*
X448942Y419852D01*
X448942Y420038D02*
X446338Y420038D01*
X446338Y420224D02*
X448942Y420224D01*
X448942Y420410D02*
X446338Y420410D01*
X446338Y420596D02*
X448942Y420596D01*
X448942Y420782D02*
X446338Y420782D01*
X446338Y420968D02*
X448942Y420968D01*
X448942Y421154D02*
X446338Y421154D01*
X446338Y421340D02*
X448942Y421340D01*
X448942Y421526D02*
X446338Y421526D01*
X446338Y421712D02*
X448942Y421712D01*
X448942Y421898D02*
X446338Y421898D01*
X446338Y422084D02*
X448942Y422084D01*
X448942Y422270D02*
X446338Y422270D01*
X446338Y422456D02*
X448942Y422456D01*
X448942Y422642D02*
X446338Y422642D01*
X446338Y422828D02*
X448942Y422828D01*
X448942Y423014D02*
X446338Y423014D01*
X446338Y423200D02*
X448942Y423200D01*
X448942Y423386D02*
X446338Y423386D01*
X446338Y423572D02*
X448942Y423572D01*
X448942Y423758D02*
X446338Y423758D01*
X446338Y423944D02*
X448942Y423944D01*
X448942Y424130D02*
X446338Y424130D01*
X446338Y424316D02*
X448942Y424316D01*
X448942Y424502D02*
X446338Y424502D01*
X446338Y424688D02*
X448942Y424688D01*
X448942Y424874D02*
X446338Y424874D01*
X446338Y425060D02*
X448942Y425060D01*
X448942Y425246D02*
X446338Y425246D01*
X446338Y425432D02*
X448942Y425432D01*
X448942Y425618D02*
X446338Y425618D01*
X446338Y425804D02*
X448942Y425804D01*
X448942Y425990D02*
X446338Y425990D01*
X446338Y426176D02*
X448942Y426176D01*
X448942Y426362D02*
X446338Y426362D01*
X446338Y426548D02*
X448942Y426548D01*
X448942Y426734D02*
X446338Y426734D01*
X446338Y426920D02*
X448942Y426920D01*
X448942Y427106D02*
X446338Y427106D01*
X446338Y427292D02*
X448942Y427292D01*
X448942Y427478D02*
X446338Y427478D01*
X446338Y427664D02*
X448942Y427664D01*
X448942Y427850D02*
X446338Y427850D01*
X446338Y428036D02*
X448942Y428036D01*
X448942Y428222D02*
X446338Y428222D01*
X446338Y428408D02*
X448942Y428408D01*
X448942Y428594D02*
X446338Y428594D01*
X446338Y428780D02*
X448942Y428780D01*
X448942Y428966D02*
X446338Y428966D01*
X446338Y429152D02*
X448942Y429152D01*
X448942Y429338D02*
X446338Y429338D01*
X446338Y429524D02*
X448942Y429524D01*
X448942Y429710D02*
X446338Y429710D01*
X446338Y429896D02*
X448942Y429896D01*
X448942Y430082D02*
X446338Y430082D01*
X446338Y430268D02*
X448942Y430268D01*
X448942Y430454D02*
X446338Y430454D01*
X446338Y430640D02*
X448942Y430640D01*
X448942Y430826D02*
X446338Y430826D01*
X446338Y431012D02*
X448942Y431012D01*
X448942Y431198D02*
X446338Y431198D01*
X446338Y431384D02*
X448942Y431384D01*
X448942Y431570D02*
X446338Y431570D01*
X446338Y431756D02*
X448942Y431756D01*
X448942Y431942D02*
X446338Y431942D01*
X446338Y432128D02*
X448942Y432128D01*
X448942Y432314D02*
X446338Y432314D01*
X446338Y432500D02*
X448942Y432500D01*
X448942Y432686D02*
X446338Y432686D01*
X446338Y432872D02*
X448942Y432872D01*
X448942Y433058D02*
X446338Y433058D01*
X446338Y433244D02*
X448942Y433244D01*
X448942Y433430D02*
X446338Y433430D01*
X451338Y433582D02*
X453942Y433582D01*
X453942Y418178D01*
X451338Y418178D01*
X451338Y433582D01*
X451338Y418364D02*
X453942Y418364D01*
X453942Y418550D02*
X451338Y418550D01*
X451338Y418736D02*
X453942Y418736D01*
X453942Y418922D02*
X451338Y418922D01*
X451338Y419108D02*
X453942Y419108D01*
X453942Y419294D02*
X451338Y419294D01*
X451338Y419480D02*
X453942Y419480D01*
X453942Y419666D02*
X451338Y419666D01*
X451338Y419852D02*
X453942Y419852D01*
X453942Y420038D02*
X451338Y420038D01*
X451338Y420224D02*
X453942Y420224D01*
X453942Y420410D02*
X451338Y420410D01*
X451338Y420596D02*
X453942Y420596D01*
X453942Y420782D02*
X451338Y420782D01*
X451338Y420968D02*
X453942Y420968D01*
X453942Y421154D02*
X451338Y421154D01*
X451338Y421340D02*
X453942Y421340D01*
X453942Y421526D02*
X451338Y421526D01*
X451338Y421712D02*
X453942Y421712D01*
X453942Y421898D02*
X451338Y421898D01*
X451338Y422084D02*
X453942Y422084D01*
X453942Y422270D02*
X451338Y422270D01*
X451338Y422456D02*
X453942Y422456D01*
X453942Y422642D02*
X451338Y422642D01*
X451338Y422828D02*
X453942Y422828D01*
X453942Y423014D02*
X451338Y423014D01*
X451338Y423200D02*
X453942Y423200D01*
X453942Y423386D02*
X451338Y423386D01*
X451338Y423572D02*
X453942Y423572D01*
X453942Y423758D02*
X451338Y423758D01*
X451338Y423944D02*
X453942Y423944D01*
X453942Y424130D02*
X451338Y424130D01*
X451338Y424316D02*
X453942Y424316D01*
X453942Y424502D02*
X451338Y424502D01*
X451338Y424688D02*
X453942Y424688D01*
X453942Y424874D02*
X451338Y424874D01*
X451338Y425060D02*
X453942Y425060D01*
X453942Y425246D02*
X451338Y425246D01*
X451338Y425432D02*
X453942Y425432D01*
X453942Y425618D02*
X451338Y425618D01*
X451338Y425804D02*
X453942Y425804D01*
X453942Y425990D02*
X451338Y425990D01*
X451338Y426176D02*
X453942Y426176D01*
X453942Y426362D02*
X451338Y426362D01*
X451338Y426548D02*
X453942Y426548D01*
X453942Y426734D02*
X451338Y426734D01*
X451338Y426920D02*
X453942Y426920D01*
X453942Y427106D02*
X451338Y427106D01*
X451338Y427292D02*
X453942Y427292D01*
X453942Y427478D02*
X451338Y427478D01*
X451338Y427664D02*
X453942Y427664D01*
X453942Y427850D02*
X451338Y427850D01*
X451338Y428036D02*
X453942Y428036D01*
X453942Y428222D02*
X451338Y428222D01*
X451338Y428408D02*
X453942Y428408D01*
X453942Y428594D02*
X451338Y428594D01*
X451338Y428780D02*
X453942Y428780D01*
X453942Y428966D02*
X451338Y428966D01*
X451338Y429152D02*
X453942Y429152D01*
X453942Y429338D02*
X451338Y429338D01*
X451338Y429524D02*
X453942Y429524D01*
X453942Y429710D02*
X451338Y429710D01*
X451338Y429896D02*
X453942Y429896D01*
X453942Y430082D02*
X451338Y430082D01*
X451338Y430268D02*
X453942Y430268D01*
X453942Y430454D02*
X451338Y430454D01*
X451338Y430640D02*
X453942Y430640D01*
X453942Y430826D02*
X451338Y430826D01*
X451338Y431012D02*
X453942Y431012D01*
X453942Y431198D02*
X451338Y431198D01*
X451338Y431384D02*
X453942Y431384D01*
X453942Y431570D02*
X451338Y431570D01*
X451338Y431756D02*
X453942Y431756D01*
X453942Y431942D02*
X451338Y431942D01*
X451338Y432128D02*
X453942Y432128D01*
X453942Y432314D02*
X451338Y432314D01*
X451338Y432500D02*
X453942Y432500D01*
X453942Y432686D02*
X451338Y432686D01*
X451338Y432872D02*
X453942Y432872D01*
X453942Y433058D02*
X451338Y433058D01*
X451338Y433244D02*
X453942Y433244D01*
X453942Y433430D02*
X451338Y433430D01*
X456338Y433582D02*
X458942Y433582D01*
X458942Y418178D01*
X456338Y418178D01*
X456338Y433582D01*
X456338Y418364D02*
X458942Y418364D01*
X458942Y418550D02*
X456338Y418550D01*
X456338Y418736D02*
X458942Y418736D01*
X458942Y418922D02*
X456338Y418922D01*
X456338Y419108D02*
X458942Y419108D01*
X458942Y419294D02*
X456338Y419294D01*
X456338Y419480D02*
X458942Y419480D01*
X458942Y419666D02*
X456338Y419666D01*
X456338Y419852D02*
X458942Y419852D01*
X458942Y420038D02*
X456338Y420038D01*
X456338Y420224D02*
X458942Y420224D01*
X458942Y420410D02*
X456338Y420410D01*
X456338Y420596D02*
X458942Y420596D01*
X458942Y420782D02*
X456338Y420782D01*
X456338Y420968D02*
X458942Y420968D01*
X458942Y421154D02*
X456338Y421154D01*
X456338Y421340D02*
X458942Y421340D01*
X458942Y421526D02*
X456338Y421526D01*
X456338Y421712D02*
X458942Y421712D01*
X458942Y421898D02*
X456338Y421898D01*
X456338Y422084D02*
X458942Y422084D01*
X458942Y422270D02*
X456338Y422270D01*
X456338Y422456D02*
X458942Y422456D01*
X458942Y422642D02*
X456338Y422642D01*
X456338Y422828D02*
X458942Y422828D01*
X458942Y423014D02*
X456338Y423014D01*
X456338Y423200D02*
X458942Y423200D01*
X458942Y423386D02*
X456338Y423386D01*
X456338Y423572D02*
X458942Y423572D01*
X458942Y423758D02*
X456338Y423758D01*
X456338Y423944D02*
X458942Y423944D01*
X458942Y424130D02*
X456338Y424130D01*
X456338Y424316D02*
X458942Y424316D01*
X458942Y424502D02*
X456338Y424502D01*
X456338Y424688D02*
X458942Y424688D01*
X458942Y424874D02*
X456338Y424874D01*
X456338Y425060D02*
X458942Y425060D01*
X458942Y425246D02*
X456338Y425246D01*
X456338Y425432D02*
X458942Y425432D01*
X458942Y425618D02*
X456338Y425618D01*
X456338Y425804D02*
X458942Y425804D01*
X458942Y425990D02*
X456338Y425990D01*
X456338Y426176D02*
X458942Y426176D01*
X458942Y426362D02*
X456338Y426362D01*
X456338Y426548D02*
X458942Y426548D01*
X458942Y426734D02*
X456338Y426734D01*
X456338Y426920D02*
X458942Y426920D01*
X458942Y427106D02*
X456338Y427106D01*
X456338Y427292D02*
X458942Y427292D01*
X458942Y427478D02*
X456338Y427478D01*
X456338Y427664D02*
X458942Y427664D01*
X458942Y427850D02*
X456338Y427850D01*
X456338Y428036D02*
X458942Y428036D01*
X458942Y428222D02*
X456338Y428222D01*
X456338Y428408D02*
X458942Y428408D01*
X458942Y428594D02*
X456338Y428594D01*
X456338Y428780D02*
X458942Y428780D01*
X458942Y428966D02*
X456338Y428966D01*
X456338Y429152D02*
X458942Y429152D01*
X458942Y429338D02*
X456338Y429338D01*
X456338Y429524D02*
X458942Y429524D01*
X458942Y429710D02*
X456338Y429710D01*
X456338Y429896D02*
X458942Y429896D01*
X458942Y430082D02*
X456338Y430082D01*
X456338Y430268D02*
X458942Y430268D01*
X458942Y430454D02*
X456338Y430454D01*
X456338Y430640D02*
X458942Y430640D01*
X458942Y430826D02*
X456338Y430826D01*
X456338Y431012D02*
X458942Y431012D01*
X458942Y431198D02*
X456338Y431198D01*
X456338Y431384D02*
X458942Y431384D01*
X458942Y431570D02*
X456338Y431570D01*
X456338Y431756D02*
X458942Y431756D01*
X458942Y431942D02*
X456338Y431942D01*
X456338Y432128D02*
X458942Y432128D01*
X458942Y432314D02*
X456338Y432314D01*
X456338Y432500D02*
X458942Y432500D01*
X458942Y432686D02*
X456338Y432686D01*
X456338Y432872D02*
X458942Y432872D01*
X458942Y433058D02*
X456338Y433058D01*
X456338Y433244D02*
X458942Y433244D01*
X458942Y433430D02*
X456338Y433430D01*
X461338Y433582D02*
X463942Y433582D01*
X463942Y418178D01*
X461338Y418178D01*
X461338Y433582D01*
X461338Y418364D02*
X463942Y418364D01*
X463942Y418550D02*
X461338Y418550D01*
X461338Y418736D02*
X463942Y418736D01*
X463942Y418922D02*
X461338Y418922D01*
X461338Y419108D02*
X463942Y419108D01*
X463942Y419294D02*
X461338Y419294D01*
X461338Y419480D02*
X463942Y419480D01*
X463942Y419666D02*
X461338Y419666D01*
X461338Y419852D02*
X463942Y419852D01*
X463942Y420038D02*
X461338Y420038D01*
X461338Y420224D02*
X463942Y420224D01*
X463942Y420410D02*
X461338Y420410D01*
X461338Y420596D02*
X463942Y420596D01*
X463942Y420782D02*
X461338Y420782D01*
X461338Y420968D02*
X463942Y420968D01*
X463942Y421154D02*
X461338Y421154D01*
X461338Y421340D02*
X463942Y421340D01*
X463942Y421526D02*
X461338Y421526D01*
X461338Y421712D02*
X463942Y421712D01*
X463942Y421898D02*
X461338Y421898D01*
X461338Y422084D02*
X463942Y422084D01*
X463942Y422270D02*
X461338Y422270D01*
X461338Y422456D02*
X463942Y422456D01*
X463942Y422642D02*
X461338Y422642D01*
X461338Y422828D02*
X463942Y422828D01*
X463942Y423014D02*
X461338Y423014D01*
X461338Y423200D02*
X463942Y423200D01*
X463942Y423386D02*
X461338Y423386D01*
X461338Y423572D02*
X463942Y423572D01*
X463942Y423758D02*
X461338Y423758D01*
X461338Y423944D02*
X463942Y423944D01*
X463942Y424130D02*
X461338Y424130D01*
X461338Y424316D02*
X463942Y424316D01*
X463942Y424502D02*
X461338Y424502D01*
X461338Y424688D02*
X463942Y424688D01*
X463942Y424874D02*
X461338Y424874D01*
X461338Y425060D02*
X463942Y425060D01*
X463942Y425246D02*
X461338Y425246D01*
X461338Y425432D02*
X463942Y425432D01*
X463942Y425618D02*
X461338Y425618D01*
X461338Y425804D02*
X463942Y425804D01*
X463942Y425990D02*
X461338Y425990D01*
X461338Y426176D02*
X463942Y426176D01*
X463942Y426362D02*
X461338Y426362D01*
X461338Y426548D02*
X463942Y426548D01*
X463942Y426734D02*
X461338Y426734D01*
X461338Y426920D02*
X463942Y426920D01*
X463942Y427106D02*
X461338Y427106D01*
X461338Y427292D02*
X463942Y427292D01*
X463942Y427478D02*
X461338Y427478D01*
X461338Y427664D02*
X463942Y427664D01*
X463942Y427850D02*
X461338Y427850D01*
X461338Y428036D02*
X463942Y428036D01*
X463942Y428222D02*
X461338Y428222D01*
X461338Y428408D02*
X463942Y428408D01*
X463942Y428594D02*
X461338Y428594D01*
X461338Y428780D02*
X463942Y428780D01*
X463942Y428966D02*
X461338Y428966D01*
X461338Y429152D02*
X463942Y429152D01*
X463942Y429338D02*
X461338Y429338D01*
X461338Y429524D02*
X463942Y429524D01*
X463942Y429710D02*
X461338Y429710D01*
X461338Y429896D02*
X463942Y429896D01*
X463942Y430082D02*
X461338Y430082D01*
X461338Y430268D02*
X463942Y430268D01*
X463942Y430454D02*
X461338Y430454D01*
X461338Y430640D02*
X463942Y430640D01*
X463942Y430826D02*
X461338Y430826D01*
X461338Y431012D02*
X463942Y431012D01*
X463942Y431198D02*
X461338Y431198D01*
X461338Y431384D02*
X463942Y431384D01*
X463942Y431570D02*
X461338Y431570D01*
X461338Y431756D02*
X463942Y431756D01*
X463942Y431942D02*
X461338Y431942D01*
X461338Y432128D02*
X463942Y432128D01*
X463942Y432314D02*
X461338Y432314D01*
X461338Y432500D02*
X463942Y432500D01*
X463942Y432686D02*
X461338Y432686D01*
X461338Y432872D02*
X463942Y432872D01*
X463942Y433058D02*
X461338Y433058D01*
X461338Y433244D02*
X463942Y433244D01*
X463942Y433430D02*
X461338Y433430D01*
X466338Y433582D02*
X468942Y433582D01*
X468942Y418178D01*
X466338Y418178D01*
X466338Y433582D01*
X466338Y418364D02*
X468942Y418364D01*
X468942Y418550D02*
X466338Y418550D01*
X466338Y418736D02*
X468942Y418736D01*
X468942Y418922D02*
X466338Y418922D01*
X466338Y419108D02*
X468942Y419108D01*
X468942Y419294D02*
X466338Y419294D01*
X466338Y419480D02*
X468942Y419480D01*
X468942Y419666D02*
X466338Y419666D01*
X466338Y419852D02*
X468942Y419852D01*
X468942Y420038D02*
X466338Y420038D01*
X466338Y420224D02*
X468942Y420224D01*
X468942Y420410D02*
X466338Y420410D01*
X466338Y420596D02*
X468942Y420596D01*
X468942Y420782D02*
X466338Y420782D01*
X466338Y420968D02*
X468942Y420968D01*
X468942Y421154D02*
X466338Y421154D01*
X466338Y421340D02*
X468942Y421340D01*
X468942Y421526D02*
X466338Y421526D01*
X466338Y421712D02*
X468942Y421712D01*
X468942Y421898D02*
X466338Y421898D01*
X466338Y422084D02*
X468942Y422084D01*
X468942Y422270D02*
X466338Y422270D01*
X466338Y422456D02*
X468942Y422456D01*
X468942Y422642D02*
X466338Y422642D01*
X466338Y422828D02*
X468942Y422828D01*
X468942Y423014D02*
X466338Y423014D01*
X466338Y423200D02*
X468942Y423200D01*
X468942Y423386D02*
X466338Y423386D01*
X466338Y423572D02*
X468942Y423572D01*
X468942Y423758D02*
X466338Y423758D01*
X466338Y423944D02*
X468942Y423944D01*
X468942Y424130D02*
X466338Y424130D01*
X466338Y424316D02*
X468942Y424316D01*
X468942Y424502D02*
X466338Y424502D01*
X466338Y424688D02*
X468942Y424688D01*
X468942Y424874D02*
X466338Y424874D01*
X466338Y425060D02*
X468942Y425060D01*
X468942Y425246D02*
X466338Y425246D01*
X466338Y425432D02*
X468942Y425432D01*
X468942Y425618D02*
X466338Y425618D01*
X466338Y425804D02*
X468942Y425804D01*
X468942Y425990D02*
X466338Y425990D01*
X466338Y426176D02*
X468942Y426176D01*
X468942Y426362D02*
X466338Y426362D01*
X466338Y426548D02*
X468942Y426548D01*
X468942Y426734D02*
X466338Y426734D01*
X466338Y426920D02*
X468942Y426920D01*
X468942Y427106D02*
X466338Y427106D01*
X466338Y427292D02*
X468942Y427292D01*
X468942Y427478D02*
X466338Y427478D01*
X466338Y427664D02*
X468942Y427664D01*
X468942Y427850D02*
X466338Y427850D01*
X466338Y428036D02*
X468942Y428036D01*
X468942Y428222D02*
X466338Y428222D01*
X466338Y428408D02*
X468942Y428408D01*
X468942Y428594D02*
X466338Y428594D01*
X466338Y428780D02*
X468942Y428780D01*
X468942Y428966D02*
X466338Y428966D01*
X466338Y429152D02*
X468942Y429152D01*
X468942Y429338D02*
X466338Y429338D01*
X466338Y429524D02*
X468942Y429524D01*
X468942Y429710D02*
X466338Y429710D01*
X466338Y429896D02*
X468942Y429896D01*
X468942Y430082D02*
X466338Y430082D01*
X466338Y430268D02*
X468942Y430268D01*
X468942Y430454D02*
X466338Y430454D01*
X466338Y430640D02*
X468942Y430640D01*
X468942Y430826D02*
X466338Y430826D01*
X466338Y431012D02*
X468942Y431012D01*
X468942Y431198D02*
X466338Y431198D01*
X466338Y431384D02*
X468942Y431384D01*
X468942Y431570D02*
X466338Y431570D01*
X466338Y431756D02*
X468942Y431756D01*
X468942Y431942D02*
X466338Y431942D01*
X466338Y432128D02*
X468942Y432128D01*
X468942Y432314D02*
X466338Y432314D01*
X466338Y432500D02*
X468942Y432500D01*
X468942Y432686D02*
X466338Y432686D01*
X466338Y432872D02*
X468942Y432872D01*
X468942Y433058D02*
X466338Y433058D01*
X466338Y433244D02*
X468942Y433244D01*
X468942Y433430D02*
X466338Y433430D01*
X471338Y433582D02*
X473942Y433582D01*
X473942Y418178D01*
X471338Y418178D01*
X471338Y433582D01*
X471338Y418364D02*
X473942Y418364D01*
X473942Y418550D02*
X471338Y418550D01*
X471338Y418736D02*
X473942Y418736D01*
X473942Y418922D02*
X471338Y418922D01*
X471338Y419108D02*
X473942Y419108D01*
X473942Y419294D02*
X471338Y419294D01*
X471338Y419480D02*
X473942Y419480D01*
X473942Y419666D02*
X471338Y419666D01*
X471338Y419852D02*
X473942Y419852D01*
X473942Y420038D02*
X471338Y420038D01*
X471338Y420224D02*
X473942Y420224D01*
X473942Y420410D02*
X471338Y420410D01*
X471338Y420596D02*
X473942Y420596D01*
X473942Y420782D02*
X471338Y420782D01*
X471338Y420968D02*
X473942Y420968D01*
X473942Y421154D02*
X471338Y421154D01*
X471338Y421340D02*
X473942Y421340D01*
X473942Y421526D02*
X471338Y421526D01*
X471338Y421712D02*
X473942Y421712D01*
X473942Y421898D02*
X471338Y421898D01*
X471338Y422084D02*
X473942Y422084D01*
X473942Y422270D02*
X471338Y422270D01*
X471338Y422456D02*
X473942Y422456D01*
X473942Y422642D02*
X471338Y422642D01*
X471338Y422828D02*
X473942Y422828D01*
X473942Y423014D02*
X471338Y423014D01*
X471338Y423200D02*
X473942Y423200D01*
X473942Y423386D02*
X471338Y423386D01*
X471338Y423572D02*
X473942Y423572D01*
X473942Y423758D02*
X471338Y423758D01*
X471338Y423944D02*
X473942Y423944D01*
X473942Y424130D02*
X471338Y424130D01*
X471338Y424316D02*
X473942Y424316D01*
X473942Y424502D02*
X471338Y424502D01*
X471338Y424688D02*
X473942Y424688D01*
X473942Y424874D02*
X471338Y424874D01*
X471338Y425060D02*
X473942Y425060D01*
X473942Y425246D02*
X471338Y425246D01*
X471338Y425432D02*
X473942Y425432D01*
X473942Y425618D02*
X471338Y425618D01*
X471338Y425804D02*
X473942Y425804D01*
X473942Y425990D02*
X471338Y425990D01*
X471338Y426176D02*
X473942Y426176D01*
X473942Y426362D02*
X471338Y426362D01*
X471338Y426548D02*
X473942Y426548D01*
X473942Y426734D02*
X471338Y426734D01*
X471338Y426920D02*
X473942Y426920D01*
X473942Y427106D02*
X471338Y427106D01*
X471338Y427292D02*
X473942Y427292D01*
X473942Y427478D02*
X471338Y427478D01*
X471338Y427664D02*
X473942Y427664D01*
X473942Y427850D02*
X471338Y427850D01*
X471338Y428036D02*
X473942Y428036D01*
X473942Y428222D02*
X471338Y428222D01*
X471338Y428408D02*
X473942Y428408D01*
X473942Y428594D02*
X471338Y428594D01*
X471338Y428780D02*
X473942Y428780D01*
X473942Y428966D02*
X471338Y428966D01*
X471338Y429152D02*
X473942Y429152D01*
X473942Y429338D02*
X471338Y429338D01*
X471338Y429524D02*
X473942Y429524D01*
X473942Y429710D02*
X471338Y429710D01*
X471338Y429896D02*
X473942Y429896D01*
X473942Y430082D02*
X471338Y430082D01*
X471338Y430268D02*
X473942Y430268D01*
X473942Y430454D02*
X471338Y430454D01*
X471338Y430640D02*
X473942Y430640D01*
X473942Y430826D02*
X471338Y430826D01*
X471338Y431012D02*
X473942Y431012D01*
X473942Y431198D02*
X471338Y431198D01*
X471338Y431384D02*
X473942Y431384D01*
X473942Y431570D02*
X471338Y431570D01*
X471338Y431756D02*
X473942Y431756D01*
X473942Y431942D02*
X471338Y431942D01*
X471338Y432128D02*
X473942Y432128D01*
X473942Y432314D02*
X471338Y432314D01*
X471338Y432500D02*
X473942Y432500D01*
X473942Y432686D02*
X471338Y432686D01*
X471338Y432872D02*
X473942Y432872D01*
X473942Y433058D02*
X471338Y433058D01*
X471338Y433244D02*
X473942Y433244D01*
X473942Y433430D02*
X471338Y433430D01*
X479238Y438878D02*
X479238Y441482D01*
X494642Y441482D01*
X494642Y438878D01*
X479238Y438878D01*
X479238Y439064D02*
X494642Y439064D01*
X494642Y439250D02*
X479238Y439250D01*
X479238Y439436D02*
X494642Y439436D01*
X494642Y439622D02*
X479238Y439622D01*
X479238Y439808D02*
X494642Y439808D01*
X494642Y439994D02*
X479238Y439994D01*
X479238Y440180D02*
X494642Y440180D01*
X494642Y440366D02*
X479238Y440366D01*
X479238Y440552D02*
X494642Y440552D01*
X494642Y440738D02*
X479238Y440738D01*
X479238Y440924D02*
X494642Y440924D01*
X494642Y441110D02*
X479238Y441110D01*
X479238Y441296D02*
X494642Y441296D01*
X494642Y441482D02*
X479238Y441482D01*
X479238Y443878D02*
X479238Y446482D01*
X494642Y446482D01*
X494642Y443878D01*
X479238Y443878D01*
X479238Y444064D02*
X494642Y444064D01*
X494642Y444250D02*
X479238Y444250D01*
X479238Y444436D02*
X494642Y444436D01*
X494642Y444622D02*
X479238Y444622D01*
X479238Y444808D02*
X494642Y444808D01*
X494642Y444994D02*
X479238Y444994D01*
X479238Y445180D02*
X494642Y445180D01*
X494642Y445366D02*
X479238Y445366D01*
X479238Y445552D02*
X494642Y445552D01*
X494642Y445738D02*
X479238Y445738D01*
X479238Y445924D02*
X494642Y445924D01*
X494642Y446110D02*
X479238Y446110D01*
X479238Y446296D02*
X494642Y446296D01*
X494642Y446482D02*
X479238Y446482D01*
X479238Y448878D02*
X479238Y451482D01*
X494642Y451482D01*
X494642Y448878D01*
X479238Y448878D01*
X479238Y449064D02*
X494642Y449064D01*
X494642Y449250D02*
X479238Y449250D01*
X479238Y449436D02*
X494642Y449436D01*
X494642Y449622D02*
X479238Y449622D01*
X479238Y449808D02*
X494642Y449808D01*
X494642Y449994D02*
X479238Y449994D01*
X479238Y450180D02*
X494642Y450180D01*
X494642Y450366D02*
X479238Y450366D01*
X479238Y450552D02*
X494642Y450552D01*
X494642Y450738D02*
X479238Y450738D01*
X479238Y450924D02*
X494642Y450924D01*
X494642Y451110D02*
X479238Y451110D01*
X479238Y451296D02*
X494642Y451296D01*
X494642Y451482D02*
X479238Y451482D01*
X479238Y453878D02*
X479238Y456482D01*
X494642Y456482D01*
X494642Y453878D01*
X479238Y453878D01*
X479238Y454064D02*
X494642Y454064D01*
X494642Y454250D02*
X479238Y454250D01*
X479238Y454436D02*
X494642Y454436D01*
X494642Y454622D02*
X479238Y454622D01*
X479238Y454808D02*
X494642Y454808D01*
X494642Y454994D02*
X479238Y454994D01*
X479238Y455180D02*
X494642Y455180D01*
X494642Y455366D02*
X479238Y455366D01*
X479238Y455552D02*
X494642Y455552D01*
X494642Y455738D02*
X479238Y455738D01*
X479238Y455924D02*
X494642Y455924D01*
X494642Y456110D02*
X479238Y456110D01*
X479238Y456296D02*
X494642Y456296D01*
X494642Y456482D02*
X479238Y456482D01*
X479238Y458878D02*
X479238Y461482D01*
X494642Y461482D01*
X494642Y458878D01*
X479238Y458878D01*
X479238Y459064D02*
X494642Y459064D01*
X494642Y459250D02*
X479238Y459250D01*
X479238Y459436D02*
X494642Y459436D01*
X494642Y459622D02*
X479238Y459622D01*
X479238Y459808D02*
X494642Y459808D01*
X494642Y459994D02*
X479238Y459994D01*
X479238Y460180D02*
X494642Y460180D01*
X494642Y460366D02*
X479238Y460366D01*
X479238Y460552D02*
X494642Y460552D01*
X494642Y460738D02*
X479238Y460738D01*
X479238Y460924D02*
X494642Y460924D01*
X494642Y461110D02*
X479238Y461110D01*
X479238Y461296D02*
X494642Y461296D01*
X494642Y461482D02*
X479238Y461482D01*
X479238Y463878D02*
X479238Y466482D01*
X494642Y466482D01*
X494642Y463878D01*
X479238Y463878D01*
X479238Y464064D02*
X494642Y464064D01*
X494642Y464250D02*
X479238Y464250D01*
X479238Y464436D02*
X494642Y464436D01*
X494642Y464622D02*
X479238Y464622D01*
X479238Y464808D02*
X494642Y464808D01*
X494642Y464994D02*
X479238Y464994D01*
X479238Y465180D02*
X494642Y465180D01*
X494642Y465366D02*
X479238Y465366D01*
X479238Y465552D02*
X494642Y465552D01*
X494642Y465738D02*
X479238Y465738D01*
X479238Y465924D02*
X494642Y465924D01*
X494642Y466110D02*
X479238Y466110D01*
X479238Y466296D02*
X494642Y466296D01*
X494642Y466482D02*
X479238Y466482D01*
X479238Y468878D02*
X479238Y471482D01*
X494642Y471482D01*
X494642Y468878D01*
X479238Y468878D01*
X479238Y469064D02*
X494642Y469064D01*
X494642Y469250D02*
X479238Y469250D01*
X479238Y469436D02*
X494642Y469436D01*
X494642Y469622D02*
X479238Y469622D01*
X479238Y469808D02*
X494642Y469808D01*
X494642Y469994D02*
X479238Y469994D01*
X479238Y470180D02*
X494642Y470180D01*
X494642Y470366D02*
X479238Y470366D01*
X479238Y470552D02*
X494642Y470552D01*
X494642Y470738D02*
X479238Y470738D01*
X479238Y470924D02*
X494642Y470924D01*
X494642Y471110D02*
X479238Y471110D01*
X479238Y471296D02*
X494642Y471296D01*
X494642Y471482D02*
X479238Y471482D01*
X479238Y473878D02*
X479238Y476482D01*
X494642Y476482D01*
X494642Y473878D01*
X479238Y473878D01*
X479238Y474064D02*
X494642Y474064D01*
X494642Y474250D02*
X479238Y474250D01*
X479238Y474436D02*
X494642Y474436D01*
X494642Y474622D02*
X479238Y474622D01*
X479238Y474808D02*
X494642Y474808D01*
X494642Y474994D02*
X479238Y474994D01*
X479238Y475180D02*
X494642Y475180D01*
X494642Y475366D02*
X479238Y475366D01*
X479238Y475552D02*
X494642Y475552D01*
X494642Y475738D02*
X479238Y475738D01*
X479238Y475924D02*
X494642Y475924D01*
X494642Y476110D02*
X479238Y476110D01*
X479238Y476296D02*
X494642Y476296D01*
X494642Y476482D02*
X479238Y476482D01*
X479238Y478878D02*
X479238Y481482D01*
X494642Y481482D01*
X494642Y478878D01*
X479238Y478878D01*
X479238Y479064D02*
X494642Y479064D01*
X494642Y479250D02*
X479238Y479250D01*
X479238Y479436D02*
X494642Y479436D01*
X494642Y479622D02*
X479238Y479622D01*
X479238Y479808D02*
X494642Y479808D01*
X494642Y479994D02*
X479238Y479994D01*
X479238Y480180D02*
X494642Y480180D01*
X494642Y480366D02*
X479238Y480366D01*
X479238Y480552D02*
X494642Y480552D01*
X494642Y480738D02*
X479238Y480738D01*
X479238Y480924D02*
X494642Y480924D01*
X494642Y481110D02*
X479238Y481110D01*
X479238Y481296D02*
X494642Y481296D01*
X494642Y481482D02*
X479238Y481482D01*
X479238Y483878D02*
X479238Y486482D01*
X494642Y486482D01*
X494642Y483878D01*
X479238Y483878D01*
X479238Y484064D02*
X494642Y484064D01*
X494642Y484250D02*
X479238Y484250D01*
X479238Y484436D02*
X494642Y484436D01*
X494642Y484622D02*
X479238Y484622D01*
X479238Y484808D02*
X494642Y484808D01*
X494642Y484994D02*
X479238Y484994D01*
X479238Y485180D02*
X494642Y485180D01*
X494642Y485366D02*
X479238Y485366D01*
X479238Y485552D02*
X494642Y485552D01*
X494642Y485738D02*
X479238Y485738D01*
X479238Y485924D02*
X494642Y485924D01*
X494642Y486110D02*
X479238Y486110D01*
X479238Y486296D02*
X494642Y486296D01*
X494642Y486482D02*
X479238Y486482D01*
X479238Y488878D02*
X479238Y491482D01*
X494642Y491482D01*
X494642Y488878D01*
X479238Y488878D01*
X479238Y489064D02*
X494642Y489064D01*
X494642Y489250D02*
X479238Y489250D01*
X479238Y489436D02*
X494642Y489436D01*
X494642Y489622D02*
X479238Y489622D01*
X479238Y489808D02*
X494642Y489808D01*
X494642Y489994D02*
X479238Y489994D01*
X479238Y490180D02*
X494642Y490180D01*
X494642Y490366D02*
X479238Y490366D01*
X479238Y490552D02*
X494642Y490552D01*
X494642Y490738D02*
X479238Y490738D01*
X479238Y490924D02*
X494642Y490924D01*
X494642Y491110D02*
X479238Y491110D01*
X479238Y491296D02*
X494642Y491296D01*
X494642Y491482D02*
X479238Y491482D01*
X479238Y493878D02*
X479238Y496482D01*
X494642Y496482D01*
X494642Y493878D01*
X479238Y493878D01*
X479238Y494064D02*
X494642Y494064D01*
X494642Y494250D02*
X479238Y494250D01*
X479238Y494436D02*
X494642Y494436D01*
X494642Y494622D02*
X479238Y494622D01*
X479238Y494808D02*
X494642Y494808D01*
X494642Y494994D02*
X479238Y494994D01*
X479238Y495180D02*
X494642Y495180D01*
X494642Y495366D02*
X479238Y495366D01*
X479238Y495552D02*
X494642Y495552D01*
X494642Y495738D02*
X479238Y495738D01*
X479238Y495924D02*
X494642Y495924D01*
X494642Y496110D02*
X479238Y496110D01*
X479238Y496296D02*
X494642Y496296D01*
X494642Y496482D02*
X479238Y496482D01*
X473942Y517182D02*
X471338Y517182D01*
X473942Y517182D02*
X473942Y501778D01*
X471338Y501778D01*
X471338Y517182D01*
X471338Y501964D02*
X473942Y501964D01*
X473942Y502150D02*
X471338Y502150D01*
X471338Y502336D02*
X473942Y502336D01*
X473942Y502522D02*
X471338Y502522D01*
X471338Y502708D02*
X473942Y502708D01*
X473942Y502894D02*
X471338Y502894D01*
X471338Y503080D02*
X473942Y503080D01*
X473942Y503266D02*
X471338Y503266D01*
X471338Y503452D02*
X473942Y503452D01*
X473942Y503638D02*
X471338Y503638D01*
X471338Y503824D02*
X473942Y503824D01*
X473942Y504010D02*
X471338Y504010D01*
X471338Y504196D02*
X473942Y504196D01*
X473942Y504382D02*
X471338Y504382D01*
X471338Y504568D02*
X473942Y504568D01*
X473942Y504754D02*
X471338Y504754D01*
X471338Y504940D02*
X473942Y504940D01*
X473942Y505126D02*
X471338Y505126D01*
X471338Y505312D02*
X473942Y505312D01*
X473942Y505498D02*
X471338Y505498D01*
X471338Y505684D02*
X473942Y505684D01*
X473942Y505870D02*
X471338Y505870D01*
X471338Y506056D02*
X473942Y506056D01*
X473942Y506242D02*
X471338Y506242D01*
X471338Y506428D02*
X473942Y506428D01*
X473942Y506614D02*
X471338Y506614D01*
X471338Y506800D02*
X473942Y506800D01*
X473942Y506986D02*
X471338Y506986D01*
X471338Y507172D02*
X473942Y507172D01*
X473942Y507358D02*
X471338Y507358D01*
X471338Y507544D02*
X473942Y507544D01*
X473942Y507730D02*
X471338Y507730D01*
X471338Y507916D02*
X473942Y507916D01*
X473942Y508102D02*
X471338Y508102D01*
X471338Y508288D02*
X473942Y508288D01*
X473942Y508474D02*
X471338Y508474D01*
X471338Y508660D02*
X473942Y508660D01*
X473942Y508846D02*
X471338Y508846D01*
X471338Y509032D02*
X473942Y509032D01*
X473942Y509218D02*
X471338Y509218D01*
X471338Y509404D02*
X473942Y509404D01*
X473942Y509590D02*
X471338Y509590D01*
X471338Y509776D02*
X473942Y509776D01*
X473942Y509962D02*
X471338Y509962D01*
X471338Y510148D02*
X473942Y510148D01*
X473942Y510334D02*
X471338Y510334D01*
X471338Y510520D02*
X473942Y510520D01*
X473942Y510706D02*
X471338Y510706D01*
X471338Y510892D02*
X473942Y510892D01*
X473942Y511078D02*
X471338Y511078D01*
X471338Y511264D02*
X473942Y511264D01*
X473942Y511450D02*
X471338Y511450D01*
X471338Y511636D02*
X473942Y511636D01*
X473942Y511822D02*
X471338Y511822D01*
X471338Y512008D02*
X473942Y512008D01*
X473942Y512194D02*
X471338Y512194D01*
X471338Y512380D02*
X473942Y512380D01*
X473942Y512566D02*
X471338Y512566D01*
X471338Y512752D02*
X473942Y512752D01*
X473942Y512938D02*
X471338Y512938D01*
X471338Y513124D02*
X473942Y513124D01*
X473942Y513310D02*
X471338Y513310D01*
X471338Y513496D02*
X473942Y513496D01*
X473942Y513682D02*
X471338Y513682D01*
X471338Y513868D02*
X473942Y513868D01*
X473942Y514054D02*
X471338Y514054D01*
X471338Y514240D02*
X473942Y514240D01*
X473942Y514426D02*
X471338Y514426D01*
X471338Y514612D02*
X473942Y514612D01*
X473942Y514798D02*
X471338Y514798D01*
X471338Y514984D02*
X473942Y514984D01*
X473942Y515170D02*
X471338Y515170D01*
X471338Y515356D02*
X473942Y515356D01*
X473942Y515542D02*
X471338Y515542D01*
X471338Y515728D02*
X473942Y515728D01*
X473942Y515914D02*
X471338Y515914D01*
X471338Y516100D02*
X473942Y516100D01*
X473942Y516286D02*
X471338Y516286D01*
X471338Y516472D02*
X473942Y516472D01*
X473942Y516658D02*
X471338Y516658D01*
X471338Y516844D02*
X473942Y516844D01*
X473942Y517030D02*
X471338Y517030D01*
X468942Y517182D02*
X466338Y517182D01*
X468942Y517182D02*
X468942Y501778D01*
X466338Y501778D01*
X466338Y517182D01*
X466338Y501964D02*
X468942Y501964D01*
X468942Y502150D02*
X466338Y502150D01*
X466338Y502336D02*
X468942Y502336D01*
X468942Y502522D02*
X466338Y502522D01*
X466338Y502708D02*
X468942Y502708D01*
X468942Y502894D02*
X466338Y502894D01*
X466338Y503080D02*
X468942Y503080D01*
X468942Y503266D02*
X466338Y503266D01*
X466338Y503452D02*
X468942Y503452D01*
X468942Y503638D02*
X466338Y503638D01*
X466338Y503824D02*
X468942Y503824D01*
X468942Y504010D02*
X466338Y504010D01*
X466338Y504196D02*
X468942Y504196D01*
X468942Y504382D02*
X466338Y504382D01*
X466338Y504568D02*
X468942Y504568D01*
X468942Y504754D02*
X466338Y504754D01*
X466338Y504940D02*
X468942Y504940D01*
X468942Y505126D02*
X466338Y505126D01*
X466338Y505312D02*
X468942Y505312D01*
X468942Y505498D02*
X466338Y505498D01*
X466338Y505684D02*
X468942Y505684D01*
X468942Y505870D02*
X466338Y505870D01*
X466338Y506056D02*
X468942Y506056D01*
X468942Y506242D02*
X466338Y506242D01*
X466338Y506428D02*
X468942Y506428D01*
X468942Y506614D02*
X466338Y506614D01*
X466338Y506800D02*
X468942Y506800D01*
X468942Y506986D02*
X466338Y506986D01*
X466338Y507172D02*
X468942Y507172D01*
X468942Y507358D02*
X466338Y507358D01*
X466338Y507544D02*
X468942Y507544D01*
X468942Y507730D02*
X466338Y507730D01*
X466338Y507916D02*
X468942Y507916D01*
X468942Y508102D02*
X466338Y508102D01*
X466338Y508288D02*
X468942Y508288D01*
X468942Y508474D02*
X466338Y508474D01*
X466338Y508660D02*
X468942Y508660D01*
X468942Y508846D02*
X466338Y508846D01*
X466338Y509032D02*
X468942Y509032D01*
X468942Y509218D02*
X466338Y509218D01*
X466338Y509404D02*
X468942Y509404D01*
X468942Y509590D02*
X466338Y509590D01*
X466338Y509776D02*
X468942Y509776D01*
X468942Y509962D02*
X466338Y509962D01*
X466338Y510148D02*
X468942Y510148D01*
X468942Y510334D02*
X466338Y510334D01*
X466338Y510520D02*
X468942Y510520D01*
X468942Y510706D02*
X466338Y510706D01*
X466338Y510892D02*
X468942Y510892D01*
X468942Y511078D02*
X466338Y511078D01*
X466338Y511264D02*
X468942Y511264D01*
X468942Y511450D02*
X466338Y511450D01*
X466338Y511636D02*
X468942Y511636D01*
X468942Y511822D02*
X466338Y511822D01*
X466338Y512008D02*
X468942Y512008D01*
X468942Y512194D02*
X466338Y512194D01*
X466338Y512380D02*
X468942Y512380D01*
X468942Y512566D02*
X466338Y512566D01*
X466338Y512752D02*
X468942Y512752D01*
X468942Y512938D02*
X466338Y512938D01*
X466338Y513124D02*
X468942Y513124D01*
X468942Y513310D02*
X466338Y513310D01*
X466338Y513496D02*
X468942Y513496D01*
X468942Y513682D02*
X466338Y513682D01*
X466338Y513868D02*
X468942Y513868D01*
X468942Y514054D02*
X466338Y514054D01*
X466338Y514240D02*
X468942Y514240D01*
X468942Y514426D02*
X466338Y514426D01*
X466338Y514612D02*
X468942Y514612D01*
X468942Y514798D02*
X466338Y514798D01*
X466338Y514984D02*
X468942Y514984D01*
X468942Y515170D02*
X466338Y515170D01*
X466338Y515356D02*
X468942Y515356D01*
X468942Y515542D02*
X466338Y515542D01*
X466338Y515728D02*
X468942Y515728D01*
X468942Y515914D02*
X466338Y515914D01*
X466338Y516100D02*
X468942Y516100D01*
X468942Y516286D02*
X466338Y516286D01*
X466338Y516472D02*
X468942Y516472D01*
X468942Y516658D02*
X466338Y516658D01*
X466338Y516844D02*
X468942Y516844D01*
X468942Y517030D02*
X466338Y517030D01*
X463942Y517182D02*
X461338Y517182D01*
X463942Y517182D02*
X463942Y501778D01*
X461338Y501778D01*
X461338Y517182D01*
X461338Y501964D02*
X463942Y501964D01*
X463942Y502150D02*
X461338Y502150D01*
X461338Y502336D02*
X463942Y502336D01*
X463942Y502522D02*
X461338Y502522D01*
X461338Y502708D02*
X463942Y502708D01*
X463942Y502894D02*
X461338Y502894D01*
X461338Y503080D02*
X463942Y503080D01*
X463942Y503266D02*
X461338Y503266D01*
X461338Y503452D02*
X463942Y503452D01*
X463942Y503638D02*
X461338Y503638D01*
X461338Y503824D02*
X463942Y503824D01*
X463942Y504010D02*
X461338Y504010D01*
X461338Y504196D02*
X463942Y504196D01*
X463942Y504382D02*
X461338Y504382D01*
X461338Y504568D02*
X463942Y504568D01*
X463942Y504754D02*
X461338Y504754D01*
X461338Y504940D02*
X463942Y504940D01*
X463942Y505126D02*
X461338Y505126D01*
X461338Y505312D02*
X463942Y505312D01*
X463942Y505498D02*
X461338Y505498D01*
X461338Y505684D02*
X463942Y505684D01*
X463942Y505870D02*
X461338Y505870D01*
X461338Y506056D02*
X463942Y506056D01*
X463942Y506242D02*
X461338Y506242D01*
X461338Y506428D02*
X463942Y506428D01*
X463942Y506614D02*
X461338Y506614D01*
X461338Y506800D02*
X463942Y506800D01*
X463942Y506986D02*
X461338Y506986D01*
X461338Y507172D02*
X463942Y507172D01*
X463942Y507358D02*
X461338Y507358D01*
X461338Y507544D02*
X463942Y507544D01*
X463942Y507730D02*
X461338Y507730D01*
X461338Y507916D02*
X463942Y507916D01*
X463942Y508102D02*
X461338Y508102D01*
X461338Y508288D02*
X463942Y508288D01*
X463942Y508474D02*
X461338Y508474D01*
X461338Y508660D02*
X463942Y508660D01*
X463942Y508846D02*
X461338Y508846D01*
X461338Y509032D02*
X463942Y509032D01*
X463942Y509218D02*
X461338Y509218D01*
X461338Y509404D02*
X463942Y509404D01*
X463942Y509590D02*
X461338Y509590D01*
X461338Y509776D02*
X463942Y509776D01*
X463942Y509962D02*
X461338Y509962D01*
X461338Y510148D02*
X463942Y510148D01*
X463942Y510334D02*
X461338Y510334D01*
X461338Y510520D02*
X463942Y510520D01*
X463942Y510706D02*
X461338Y510706D01*
X461338Y510892D02*
X463942Y510892D01*
X463942Y511078D02*
X461338Y511078D01*
X461338Y511264D02*
X463942Y511264D01*
X463942Y511450D02*
X461338Y511450D01*
X461338Y511636D02*
X463942Y511636D01*
X463942Y511822D02*
X461338Y511822D01*
X461338Y512008D02*
X463942Y512008D01*
X463942Y512194D02*
X461338Y512194D01*
X461338Y512380D02*
X463942Y512380D01*
X463942Y512566D02*
X461338Y512566D01*
X461338Y512752D02*
X463942Y512752D01*
X463942Y512938D02*
X461338Y512938D01*
X461338Y513124D02*
X463942Y513124D01*
X463942Y513310D02*
X461338Y513310D01*
X461338Y513496D02*
X463942Y513496D01*
X463942Y513682D02*
X461338Y513682D01*
X461338Y513868D02*
X463942Y513868D01*
X463942Y514054D02*
X461338Y514054D01*
X461338Y514240D02*
X463942Y514240D01*
X463942Y514426D02*
X461338Y514426D01*
X461338Y514612D02*
X463942Y514612D01*
X463942Y514798D02*
X461338Y514798D01*
X461338Y514984D02*
X463942Y514984D01*
X463942Y515170D02*
X461338Y515170D01*
X461338Y515356D02*
X463942Y515356D01*
X463942Y515542D02*
X461338Y515542D01*
X461338Y515728D02*
X463942Y515728D01*
X463942Y515914D02*
X461338Y515914D01*
X461338Y516100D02*
X463942Y516100D01*
X463942Y516286D02*
X461338Y516286D01*
X461338Y516472D02*
X463942Y516472D01*
X463942Y516658D02*
X461338Y516658D01*
X461338Y516844D02*
X463942Y516844D01*
X463942Y517030D02*
X461338Y517030D01*
X458942Y517182D02*
X456338Y517182D01*
X458942Y517182D02*
X458942Y501778D01*
X456338Y501778D01*
X456338Y517182D01*
X456338Y501964D02*
X458942Y501964D01*
X458942Y502150D02*
X456338Y502150D01*
X456338Y502336D02*
X458942Y502336D01*
X458942Y502522D02*
X456338Y502522D01*
X456338Y502708D02*
X458942Y502708D01*
X458942Y502894D02*
X456338Y502894D01*
X456338Y503080D02*
X458942Y503080D01*
X458942Y503266D02*
X456338Y503266D01*
X456338Y503452D02*
X458942Y503452D01*
X458942Y503638D02*
X456338Y503638D01*
X456338Y503824D02*
X458942Y503824D01*
X458942Y504010D02*
X456338Y504010D01*
X456338Y504196D02*
X458942Y504196D01*
X458942Y504382D02*
X456338Y504382D01*
X456338Y504568D02*
X458942Y504568D01*
X458942Y504754D02*
X456338Y504754D01*
X456338Y504940D02*
X458942Y504940D01*
X458942Y505126D02*
X456338Y505126D01*
X456338Y505312D02*
X458942Y505312D01*
X458942Y505498D02*
X456338Y505498D01*
X456338Y505684D02*
X458942Y505684D01*
X458942Y505870D02*
X456338Y505870D01*
X456338Y506056D02*
X458942Y506056D01*
X458942Y506242D02*
X456338Y506242D01*
X456338Y506428D02*
X458942Y506428D01*
X458942Y506614D02*
X456338Y506614D01*
X456338Y506800D02*
X458942Y506800D01*
X458942Y506986D02*
X456338Y506986D01*
X456338Y507172D02*
X458942Y507172D01*
X458942Y507358D02*
X456338Y507358D01*
X456338Y507544D02*
X458942Y507544D01*
X458942Y507730D02*
X456338Y507730D01*
X456338Y507916D02*
X458942Y507916D01*
X458942Y508102D02*
X456338Y508102D01*
X456338Y508288D02*
X458942Y508288D01*
X458942Y508474D02*
X456338Y508474D01*
X456338Y508660D02*
X458942Y508660D01*
X458942Y508846D02*
X456338Y508846D01*
X456338Y509032D02*
X458942Y509032D01*
X458942Y509218D02*
X456338Y509218D01*
X456338Y509404D02*
X458942Y509404D01*
X458942Y509590D02*
X456338Y509590D01*
X456338Y509776D02*
X458942Y509776D01*
X458942Y509962D02*
X456338Y509962D01*
X456338Y510148D02*
X458942Y510148D01*
X458942Y510334D02*
X456338Y510334D01*
X456338Y510520D02*
X458942Y510520D01*
X458942Y510706D02*
X456338Y510706D01*
X456338Y510892D02*
X458942Y510892D01*
X458942Y511078D02*
X456338Y511078D01*
X456338Y511264D02*
X458942Y511264D01*
X458942Y511450D02*
X456338Y511450D01*
X456338Y511636D02*
X458942Y511636D01*
X458942Y511822D02*
X456338Y511822D01*
X456338Y512008D02*
X458942Y512008D01*
X458942Y512194D02*
X456338Y512194D01*
X456338Y512380D02*
X458942Y512380D01*
X458942Y512566D02*
X456338Y512566D01*
X456338Y512752D02*
X458942Y512752D01*
X458942Y512938D02*
X456338Y512938D01*
X456338Y513124D02*
X458942Y513124D01*
X458942Y513310D02*
X456338Y513310D01*
X456338Y513496D02*
X458942Y513496D01*
X458942Y513682D02*
X456338Y513682D01*
X456338Y513868D02*
X458942Y513868D01*
X458942Y514054D02*
X456338Y514054D01*
X456338Y514240D02*
X458942Y514240D01*
X458942Y514426D02*
X456338Y514426D01*
X456338Y514612D02*
X458942Y514612D01*
X458942Y514798D02*
X456338Y514798D01*
X456338Y514984D02*
X458942Y514984D01*
X458942Y515170D02*
X456338Y515170D01*
X456338Y515356D02*
X458942Y515356D01*
X458942Y515542D02*
X456338Y515542D01*
X456338Y515728D02*
X458942Y515728D01*
X458942Y515914D02*
X456338Y515914D01*
X456338Y516100D02*
X458942Y516100D01*
X458942Y516286D02*
X456338Y516286D01*
X456338Y516472D02*
X458942Y516472D01*
X458942Y516658D02*
X456338Y516658D01*
X456338Y516844D02*
X458942Y516844D01*
X458942Y517030D02*
X456338Y517030D01*
X453942Y517182D02*
X451338Y517182D01*
X453942Y517182D02*
X453942Y501778D01*
X451338Y501778D01*
X451338Y517182D01*
X451338Y501964D02*
X453942Y501964D01*
X453942Y502150D02*
X451338Y502150D01*
X451338Y502336D02*
X453942Y502336D01*
X453942Y502522D02*
X451338Y502522D01*
X451338Y502708D02*
X453942Y502708D01*
X453942Y502894D02*
X451338Y502894D01*
X451338Y503080D02*
X453942Y503080D01*
X453942Y503266D02*
X451338Y503266D01*
X451338Y503452D02*
X453942Y503452D01*
X453942Y503638D02*
X451338Y503638D01*
X451338Y503824D02*
X453942Y503824D01*
X453942Y504010D02*
X451338Y504010D01*
X451338Y504196D02*
X453942Y504196D01*
X453942Y504382D02*
X451338Y504382D01*
X451338Y504568D02*
X453942Y504568D01*
X453942Y504754D02*
X451338Y504754D01*
X451338Y504940D02*
X453942Y504940D01*
X453942Y505126D02*
X451338Y505126D01*
X451338Y505312D02*
X453942Y505312D01*
X453942Y505498D02*
X451338Y505498D01*
X451338Y505684D02*
X453942Y505684D01*
X453942Y505870D02*
X451338Y505870D01*
X451338Y506056D02*
X453942Y506056D01*
X453942Y506242D02*
X451338Y506242D01*
X451338Y506428D02*
X453942Y506428D01*
X453942Y506614D02*
X451338Y506614D01*
X451338Y506800D02*
X453942Y506800D01*
X453942Y506986D02*
X451338Y506986D01*
X451338Y507172D02*
X453942Y507172D01*
X453942Y507358D02*
X451338Y507358D01*
X451338Y507544D02*
X453942Y507544D01*
X453942Y507730D02*
X451338Y507730D01*
X451338Y507916D02*
X453942Y507916D01*
X453942Y508102D02*
X451338Y508102D01*
X451338Y508288D02*
X453942Y508288D01*
X453942Y508474D02*
X451338Y508474D01*
X451338Y508660D02*
X453942Y508660D01*
X453942Y508846D02*
X451338Y508846D01*
X451338Y509032D02*
X453942Y509032D01*
X453942Y509218D02*
X451338Y509218D01*
X451338Y509404D02*
X453942Y509404D01*
X453942Y509590D02*
X451338Y509590D01*
X451338Y509776D02*
X453942Y509776D01*
X453942Y509962D02*
X451338Y509962D01*
X451338Y510148D02*
X453942Y510148D01*
X453942Y510334D02*
X451338Y510334D01*
X451338Y510520D02*
X453942Y510520D01*
X453942Y510706D02*
X451338Y510706D01*
X451338Y510892D02*
X453942Y510892D01*
X453942Y511078D02*
X451338Y511078D01*
X451338Y511264D02*
X453942Y511264D01*
X453942Y511450D02*
X451338Y511450D01*
X451338Y511636D02*
X453942Y511636D01*
X453942Y511822D02*
X451338Y511822D01*
X451338Y512008D02*
X453942Y512008D01*
X453942Y512194D02*
X451338Y512194D01*
X451338Y512380D02*
X453942Y512380D01*
X453942Y512566D02*
X451338Y512566D01*
X451338Y512752D02*
X453942Y512752D01*
X453942Y512938D02*
X451338Y512938D01*
X451338Y513124D02*
X453942Y513124D01*
X453942Y513310D02*
X451338Y513310D01*
X451338Y513496D02*
X453942Y513496D01*
X453942Y513682D02*
X451338Y513682D01*
X451338Y513868D02*
X453942Y513868D01*
X453942Y514054D02*
X451338Y514054D01*
X451338Y514240D02*
X453942Y514240D01*
X453942Y514426D02*
X451338Y514426D01*
X451338Y514612D02*
X453942Y514612D01*
X453942Y514798D02*
X451338Y514798D01*
X451338Y514984D02*
X453942Y514984D01*
X453942Y515170D02*
X451338Y515170D01*
X451338Y515356D02*
X453942Y515356D01*
X453942Y515542D02*
X451338Y515542D01*
X451338Y515728D02*
X453942Y515728D01*
X453942Y515914D02*
X451338Y515914D01*
X451338Y516100D02*
X453942Y516100D01*
X453942Y516286D02*
X451338Y516286D01*
X451338Y516472D02*
X453942Y516472D01*
X453942Y516658D02*
X451338Y516658D01*
X451338Y516844D02*
X453942Y516844D01*
X453942Y517030D02*
X451338Y517030D01*
X448942Y517182D02*
X446338Y517182D01*
X448942Y517182D02*
X448942Y501778D01*
X446338Y501778D01*
X446338Y517182D01*
X446338Y501964D02*
X448942Y501964D01*
X448942Y502150D02*
X446338Y502150D01*
X446338Y502336D02*
X448942Y502336D01*
X448942Y502522D02*
X446338Y502522D01*
X446338Y502708D02*
X448942Y502708D01*
X448942Y502894D02*
X446338Y502894D01*
X446338Y503080D02*
X448942Y503080D01*
X448942Y503266D02*
X446338Y503266D01*
X446338Y503452D02*
X448942Y503452D01*
X448942Y503638D02*
X446338Y503638D01*
X446338Y503824D02*
X448942Y503824D01*
X448942Y504010D02*
X446338Y504010D01*
X446338Y504196D02*
X448942Y504196D01*
X448942Y504382D02*
X446338Y504382D01*
X446338Y504568D02*
X448942Y504568D01*
X448942Y504754D02*
X446338Y504754D01*
X446338Y504940D02*
X448942Y504940D01*
X448942Y505126D02*
X446338Y505126D01*
X446338Y505312D02*
X448942Y505312D01*
X448942Y505498D02*
X446338Y505498D01*
X446338Y505684D02*
X448942Y505684D01*
X448942Y505870D02*
X446338Y505870D01*
X446338Y506056D02*
X448942Y506056D01*
X448942Y506242D02*
X446338Y506242D01*
X446338Y506428D02*
X448942Y506428D01*
X448942Y506614D02*
X446338Y506614D01*
X446338Y506800D02*
X448942Y506800D01*
X448942Y506986D02*
X446338Y506986D01*
X446338Y507172D02*
X448942Y507172D01*
X448942Y507358D02*
X446338Y507358D01*
X446338Y507544D02*
X448942Y507544D01*
X448942Y507730D02*
X446338Y507730D01*
X446338Y507916D02*
X448942Y507916D01*
X448942Y508102D02*
X446338Y508102D01*
X446338Y508288D02*
X448942Y508288D01*
X448942Y508474D02*
X446338Y508474D01*
X446338Y508660D02*
X448942Y508660D01*
X448942Y508846D02*
X446338Y508846D01*
X446338Y509032D02*
X448942Y509032D01*
X448942Y509218D02*
X446338Y509218D01*
X446338Y509404D02*
X448942Y509404D01*
X448942Y509590D02*
X446338Y509590D01*
X446338Y509776D02*
X448942Y509776D01*
X448942Y509962D02*
X446338Y509962D01*
X446338Y510148D02*
X448942Y510148D01*
X448942Y510334D02*
X446338Y510334D01*
X446338Y510520D02*
X448942Y510520D01*
X448942Y510706D02*
X446338Y510706D01*
X446338Y510892D02*
X448942Y510892D01*
X448942Y511078D02*
X446338Y511078D01*
X446338Y511264D02*
X448942Y511264D01*
X448942Y511450D02*
X446338Y511450D01*
X446338Y511636D02*
X448942Y511636D01*
X448942Y511822D02*
X446338Y511822D01*
X446338Y512008D02*
X448942Y512008D01*
X448942Y512194D02*
X446338Y512194D01*
X446338Y512380D02*
X448942Y512380D01*
X448942Y512566D02*
X446338Y512566D01*
X446338Y512752D02*
X448942Y512752D01*
X448942Y512938D02*
X446338Y512938D01*
X446338Y513124D02*
X448942Y513124D01*
X448942Y513310D02*
X446338Y513310D01*
X446338Y513496D02*
X448942Y513496D01*
X448942Y513682D02*
X446338Y513682D01*
X446338Y513868D02*
X448942Y513868D01*
X448942Y514054D02*
X446338Y514054D01*
X446338Y514240D02*
X448942Y514240D01*
X448942Y514426D02*
X446338Y514426D01*
X446338Y514612D02*
X448942Y514612D01*
X448942Y514798D02*
X446338Y514798D01*
X446338Y514984D02*
X448942Y514984D01*
X448942Y515170D02*
X446338Y515170D01*
X446338Y515356D02*
X448942Y515356D01*
X448942Y515542D02*
X446338Y515542D01*
X446338Y515728D02*
X448942Y515728D01*
X448942Y515914D02*
X446338Y515914D01*
X446338Y516100D02*
X448942Y516100D01*
X448942Y516286D02*
X446338Y516286D01*
X446338Y516472D02*
X448942Y516472D01*
X448942Y516658D02*
X446338Y516658D01*
X446338Y516844D02*
X448942Y516844D01*
X448942Y517030D02*
X446338Y517030D01*
X443942Y517182D02*
X441338Y517182D01*
X443942Y517182D02*
X443942Y501778D01*
X441338Y501778D01*
X441338Y517182D01*
X441338Y501964D02*
X443942Y501964D01*
X443942Y502150D02*
X441338Y502150D01*
X441338Y502336D02*
X443942Y502336D01*
X443942Y502522D02*
X441338Y502522D01*
X441338Y502708D02*
X443942Y502708D01*
X443942Y502894D02*
X441338Y502894D01*
X441338Y503080D02*
X443942Y503080D01*
X443942Y503266D02*
X441338Y503266D01*
X441338Y503452D02*
X443942Y503452D01*
X443942Y503638D02*
X441338Y503638D01*
X441338Y503824D02*
X443942Y503824D01*
X443942Y504010D02*
X441338Y504010D01*
X441338Y504196D02*
X443942Y504196D01*
X443942Y504382D02*
X441338Y504382D01*
X441338Y504568D02*
X443942Y504568D01*
X443942Y504754D02*
X441338Y504754D01*
X441338Y504940D02*
X443942Y504940D01*
X443942Y505126D02*
X441338Y505126D01*
X441338Y505312D02*
X443942Y505312D01*
X443942Y505498D02*
X441338Y505498D01*
X441338Y505684D02*
X443942Y505684D01*
X443942Y505870D02*
X441338Y505870D01*
X441338Y506056D02*
X443942Y506056D01*
X443942Y506242D02*
X441338Y506242D01*
X441338Y506428D02*
X443942Y506428D01*
X443942Y506614D02*
X441338Y506614D01*
X441338Y506800D02*
X443942Y506800D01*
X443942Y506986D02*
X441338Y506986D01*
X441338Y507172D02*
X443942Y507172D01*
X443942Y507358D02*
X441338Y507358D01*
X441338Y507544D02*
X443942Y507544D01*
X443942Y507730D02*
X441338Y507730D01*
X441338Y507916D02*
X443942Y507916D01*
X443942Y508102D02*
X441338Y508102D01*
X441338Y508288D02*
X443942Y508288D01*
X443942Y508474D02*
X441338Y508474D01*
X441338Y508660D02*
X443942Y508660D01*
X443942Y508846D02*
X441338Y508846D01*
X441338Y509032D02*
X443942Y509032D01*
X443942Y509218D02*
X441338Y509218D01*
X441338Y509404D02*
X443942Y509404D01*
X443942Y509590D02*
X441338Y509590D01*
X441338Y509776D02*
X443942Y509776D01*
X443942Y509962D02*
X441338Y509962D01*
X441338Y510148D02*
X443942Y510148D01*
X443942Y510334D02*
X441338Y510334D01*
X441338Y510520D02*
X443942Y510520D01*
X443942Y510706D02*
X441338Y510706D01*
X441338Y510892D02*
X443942Y510892D01*
X443942Y511078D02*
X441338Y511078D01*
X441338Y511264D02*
X443942Y511264D01*
X443942Y511450D02*
X441338Y511450D01*
X441338Y511636D02*
X443942Y511636D01*
X443942Y511822D02*
X441338Y511822D01*
X441338Y512008D02*
X443942Y512008D01*
X443942Y512194D02*
X441338Y512194D01*
X441338Y512380D02*
X443942Y512380D01*
X443942Y512566D02*
X441338Y512566D01*
X441338Y512752D02*
X443942Y512752D01*
X443942Y512938D02*
X441338Y512938D01*
X441338Y513124D02*
X443942Y513124D01*
X443942Y513310D02*
X441338Y513310D01*
X441338Y513496D02*
X443942Y513496D01*
X443942Y513682D02*
X441338Y513682D01*
X441338Y513868D02*
X443942Y513868D01*
X443942Y514054D02*
X441338Y514054D01*
X441338Y514240D02*
X443942Y514240D01*
X443942Y514426D02*
X441338Y514426D01*
X441338Y514612D02*
X443942Y514612D01*
X443942Y514798D02*
X441338Y514798D01*
X441338Y514984D02*
X443942Y514984D01*
X443942Y515170D02*
X441338Y515170D01*
X441338Y515356D02*
X443942Y515356D01*
X443942Y515542D02*
X441338Y515542D01*
X441338Y515728D02*
X443942Y515728D01*
X443942Y515914D02*
X441338Y515914D01*
X441338Y516100D02*
X443942Y516100D01*
X443942Y516286D02*
X441338Y516286D01*
X441338Y516472D02*
X443942Y516472D01*
X443942Y516658D02*
X441338Y516658D01*
X441338Y516844D02*
X443942Y516844D01*
X443942Y517030D02*
X441338Y517030D01*
X438942Y517182D02*
X436338Y517182D01*
X438942Y517182D02*
X438942Y501778D01*
X436338Y501778D01*
X436338Y517182D01*
X436338Y501964D02*
X438942Y501964D01*
X438942Y502150D02*
X436338Y502150D01*
X436338Y502336D02*
X438942Y502336D01*
X438942Y502522D02*
X436338Y502522D01*
X436338Y502708D02*
X438942Y502708D01*
X438942Y502894D02*
X436338Y502894D01*
X436338Y503080D02*
X438942Y503080D01*
X438942Y503266D02*
X436338Y503266D01*
X436338Y503452D02*
X438942Y503452D01*
X438942Y503638D02*
X436338Y503638D01*
X436338Y503824D02*
X438942Y503824D01*
X438942Y504010D02*
X436338Y504010D01*
X436338Y504196D02*
X438942Y504196D01*
X438942Y504382D02*
X436338Y504382D01*
X436338Y504568D02*
X438942Y504568D01*
X438942Y504754D02*
X436338Y504754D01*
X436338Y504940D02*
X438942Y504940D01*
X438942Y505126D02*
X436338Y505126D01*
X436338Y505312D02*
X438942Y505312D01*
X438942Y505498D02*
X436338Y505498D01*
X436338Y505684D02*
X438942Y505684D01*
X438942Y505870D02*
X436338Y505870D01*
X436338Y506056D02*
X438942Y506056D01*
X438942Y506242D02*
X436338Y506242D01*
X436338Y506428D02*
X438942Y506428D01*
X438942Y506614D02*
X436338Y506614D01*
X436338Y506800D02*
X438942Y506800D01*
X438942Y506986D02*
X436338Y506986D01*
X436338Y507172D02*
X438942Y507172D01*
X438942Y507358D02*
X436338Y507358D01*
X436338Y507544D02*
X438942Y507544D01*
X438942Y507730D02*
X436338Y507730D01*
X436338Y507916D02*
X438942Y507916D01*
X438942Y508102D02*
X436338Y508102D01*
X436338Y508288D02*
X438942Y508288D01*
X438942Y508474D02*
X436338Y508474D01*
X436338Y508660D02*
X438942Y508660D01*
X438942Y508846D02*
X436338Y508846D01*
X436338Y509032D02*
X438942Y509032D01*
X438942Y509218D02*
X436338Y509218D01*
X436338Y509404D02*
X438942Y509404D01*
X438942Y509590D02*
X436338Y509590D01*
X436338Y509776D02*
X438942Y509776D01*
X438942Y509962D02*
X436338Y509962D01*
X436338Y510148D02*
X438942Y510148D01*
X438942Y510334D02*
X436338Y510334D01*
X436338Y510520D02*
X438942Y510520D01*
X438942Y510706D02*
X436338Y510706D01*
X436338Y510892D02*
X438942Y510892D01*
X438942Y511078D02*
X436338Y511078D01*
X436338Y511264D02*
X438942Y511264D01*
X438942Y511450D02*
X436338Y511450D01*
X436338Y511636D02*
X438942Y511636D01*
X438942Y511822D02*
X436338Y511822D01*
X436338Y512008D02*
X438942Y512008D01*
X438942Y512194D02*
X436338Y512194D01*
X436338Y512380D02*
X438942Y512380D01*
X438942Y512566D02*
X436338Y512566D01*
X436338Y512752D02*
X438942Y512752D01*
X438942Y512938D02*
X436338Y512938D01*
X436338Y513124D02*
X438942Y513124D01*
X438942Y513310D02*
X436338Y513310D01*
X436338Y513496D02*
X438942Y513496D01*
X438942Y513682D02*
X436338Y513682D01*
X436338Y513868D02*
X438942Y513868D01*
X438942Y514054D02*
X436338Y514054D01*
X436338Y514240D02*
X438942Y514240D01*
X438942Y514426D02*
X436338Y514426D01*
X436338Y514612D02*
X438942Y514612D01*
X438942Y514798D02*
X436338Y514798D01*
X436338Y514984D02*
X438942Y514984D01*
X438942Y515170D02*
X436338Y515170D01*
X436338Y515356D02*
X438942Y515356D01*
X438942Y515542D02*
X436338Y515542D01*
X436338Y515728D02*
X438942Y515728D01*
X438942Y515914D02*
X436338Y515914D01*
X436338Y516100D02*
X438942Y516100D01*
X438942Y516286D02*
X436338Y516286D01*
X436338Y516472D02*
X438942Y516472D01*
X438942Y516658D02*
X436338Y516658D01*
X436338Y516844D02*
X438942Y516844D01*
X438942Y517030D02*
X436338Y517030D01*
X433942Y517182D02*
X431338Y517182D01*
X433942Y517182D02*
X433942Y501778D01*
X431338Y501778D01*
X431338Y517182D01*
X431338Y501964D02*
X433942Y501964D01*
X433942Y502150D02*
X431338Y502150D01*
X431338Y502336D02*
X433942Y502336D01*
X433942Y502522D02*
X431338Y502522D01*
X431338Y502708D02*
X433942Y502708D01*
X433942Y502894D02*
X431338Y502894D01*
X431338Y503080D02*
X433942Y503080D01*
X433942Y503266D02*
X431338Y503266D01*
X431338Y503452D02*
X433942Y503452D01*
X433942Y503638D02*
X431338Y503638D01*
X431338Y503824D02*
X433942Y503824D01*
X433942Y504010D02*
X431338Y504010D01*
X431338Y504196D02*
X433942Y504196D01*
X433942Y504382D02*
X431338Y504382D01*
X431338Y504568D02*
X433942Y504568D01*
X433942Y504754D02*
X431338Y504754D01*
X431338Y504940D02*
X433942Y504940D01*
X433942Y505126D02*
X431338Y505126D01*
X431338Y505312D02*
X433942Y505312D01*
X433942Y505498D02*
X431338Y505498D01*
X431338Y505684D02*
X433942Y505684D01*
X433942Y505870D02*
X431338Y505870D01*
X431338Y506056D02*
X433942Y506056D01*
X433942Y506242D02*
X431338Y506242D01*
X431338Y506428D02*
X433942Y506428D01*
X433942Y506614D02*
X431338Y506614D01*
X431338Y506800D02*
X433942Y506800D01*
X433942Y506986D02*
X431338Y506986D01*
X431338Y507172D02*
X433942Y507172D01*
X433942Y507358D02*
X431338Y507358D01*
X431338Y507544D02*
X433942Y507544D01*
X433942Y507730D02*
X431338Y507730D01*
X431338Y507916D02*
X433942Y507916D01*
X433942Y508102D02*
X431338Y508102D01*
X431338Y508288D02*
X433942Y508288D01*
X433942Y508474D02*
X431338Y508474D01*
X431338Y508660D02*
X433942Y508660D01*
X433942Y508846D02*
X431338Y508846D01*
X431338Y509032D02*
X433942Y509032D01*
X433942Y509218D02*
X431338Y509218D01*
X431338Y509404D02*
X433942Y509404D01*
X433942Y509590D02*
X431338Y509590D01*
X431338Y509776D02*
X433942Y509776D01*
X433942Y509962D02*
X431338Y509962D01*
X431338Y510148D02*
X433942Y510148D01*
X433942Y510334D02*
X431338Y510334D01*
X431338Y510520D02*
X433942Y510520D01*
X433942Y510706D02*
X431338Y510706D01*
X431338Y510892D02*
X433942Y510892D01*
X433942Y511078D02*
X431338Y511078D01*
X431338Y511264D02*
X433942Y511264D01*
X433942Y511450D02*
X431338Y511450D01*
X431338Y511636D02*
X433942Y511636D01*
X433942Y511822D02*
X431338Y511822D01*
X431338Y512008D02*
X433942Y512008D01*
X433942Y512194D02*
X431338Y512194D01*
X431338Y512380D02*
X433942Y512380D01*
X433942Y512566D02*
X431338Y512566D01*
X431338Y512752D02*
X433942Y512752D01*
X433942Y512938D02*
X431338Y512938D01*
X431338Y513124D02*
X433942Y513124D01*
X433942Y513310D02*
X431338Y513310D01*
X431338Y513496D02*
X433942Y513496D01*
X433942Y513682D02*
X431338Y513682D01*
X431338Y513868D02*
X433942Y513868D01*
X433942Y514054D02*
X431338Y514054D01*
X431338Y514240D02*
X433942Y514240D01*
X433942Y514426D02*
X431338Y514426D01*
X431338Y514612D02*
X433942Y514612D01*
X433942Y514798D02*
X431338Y514798D01*
X431338Y514984D02*
X433942Y514984D01*
X433942Y515170D02*
X431338Y515170D01*
X431338Y515356D02*
X433942Y515356D01*
X433942Y515542D02*
X431338Y515542D01*
X431338Y515728D02*
X433942Y515728D01*
X433942Y515914D02*
X431338Y515914D01*
X431338Y516100D02*
X433942Y516100D01*
X433942Y516286D02*
X431338Y516286D01*
X431338Y516472D02*
X433942Y516472D01*
X433942Y516658D02*
X431338Y516658D01*
X431338Y516844D02*
X433942Y516844D01*
X433942Y517030D02*
X431338Y517030D01*
X428942Y517182D02*
X426338Y517182D01*
X428942Y517182D02*
X428942Y501778D01*
X426338Y501778D01*
X426338Y517182D01*
X426338Y501964D02*
X428942Y501964D01*
X428942Y502150D02*
X426338Y502150D01*
X426338Y502336D02*
X428942Y502336D01*
X428942Y502522D02*
X426338Y502522D01*
X426338Y502708D02*
X428942Y502708D01*
X428942Y502894D02*
X426338Y502894D01*
X426338Y503080D02*
X428942Y503080D01*
X428942Y503266D02*
X426338Y503266D01*
X426338Y503452D02*
X428942Y503452D01*
X428942Y503638D02*
X426338Y503638D01*
X426338Y503824D02*
X428942Y503824D01*
X428942Y504010D02*
X426338Y504010D01*
X426338Y504196D02*
X428942Y504196D01*
X428942Y504382D02*
X426338Y504382D01*
X426338Y504568D02*
X428942Y504568D01*
X428942Y504754D02*
X426338Y504754D01*
X426338Y504940D02*
X428942Y504940D01*
X428942Y505126D02*
X426338Y505126D01*
X426338Y505312D02*
X428942Y505312D01*
X428942Y505498D02*
X426338Y505498D01*
X426338Y505684D02*
X428942Y505684D01*
X428942Y505870D02*
X426338Y505870D01*
X426338Y506056D02*
X428942Y506056D01*
X428942Y506242D02*
X426338Y506242D01*
X426338Y506428D02*
X428942Y506428D01*
X428942Y506614D02*
X426338Y506614D01*
X426338Y506800D02*
X428942Y506800D01*
X428942Y506986D02*
X426338Y506986D01*
X426338Y507172D02*
X428942Y507172D01*
X428942Y507358D02*
X426338Y507358D01*
X426338Y507544D02*
X428942Y507544D01*
X428942Y507730D02*
X426338Y507730D01*
X426338Y507916D02*
X428942Y507916D01*
X428942Y508102D02*
X426338Y508102D01*
X426338Y508288D02*
X428942Y508288D01*
X428942Y508474D02*
X426338Y508474D01*
X426338Y508660D02*
X428942Y508660D01*
X428942Y508846D02*
X426338Y508846D01*
X426338Y509032D02*
X428942Y509032D01*
X428942Y509218D02*
X426338Y509218D01*
X426338Y509404D02*
X428942Y509404D01*
X428942Y509590D02*
X426338Y509590D01*
X426338Y509776D02*
X428942Y509776D01*
X428942Y509962D02*
X426338Y509962D01*
X426338Y510148D02*
X428942Y510148D01*
X428942Y510334D02*
X426338Y510334D01*
X426338Y510520D02*
X428942Y510520D01*
X428942Y510706D02*
X426338Y510706D01*
X426338Y510892D02*
X428942Y510892D01*
X428942Y511078D02*
X426338Y511078D01*
X426338Y511264D02*
X428942Y511264D01*
X428942Y511450D02*
X426338Y511450D01*
X426338Y511636D02*
X428942Y511636D01*
X428942Y511822D02*
X426338Y511822D01*
X426338Y512008D02*
X428942Y512008D01*
X428942Y512194D02*
X426338Y512194D01*
X426338Y512380D02*
X428942Y512380D01*
X428942Y512566D02*
X426338Y512566D01*
X426338Y512752D02*
X428942Y512752D01*
X428942Y512938D02*
X426338Y512938D01*
X426338Y513124D02*
X428942Y513124D01*
X428942Y513310D02*
X426338Y513310D01*
X426338Y513496D02*
X428942Y513496D01*
X428942Y513682D02*
X426338Y513682D01*
X426338Y513868D02*
X428942Y513868D01*
X428942Y514054D02*
X426338Y514054D01*
X426338Y514240D02*
X428942Y514240D01*
X428942Y514426D02*
X426338Y514426D01*
X426338Y514612D02*
X428942Y514612D01*
X428942Y514798D02*
X426338Y514798D01*
X426338Y514984D02*
X428942Y514984D01*
X428942Y515170D02*
X426338Y515170D01*
X426338Y515356D02*
X428942Y515356D01*
X428942Y515542D02*
X426338Y515542D01*
X426338Y515728D02*
X428942Y515728D01*
X428942Y515914D02*
X426338Y515914D01*
X426338Y516100D02*
X428942Y516100D01*
X428942Y516286D02*
X426338Y516286D01*
X426338Y516472D02*
X428942Y516472D01*
X428942Y516658D02*
X426338Y516658D01*
X426338Y516844D02*
X428942Y516844D01*
X428942Y517030D02*
X426338Y517030D01*
X423942Y517182D02*
X421338Y517182D01*
X423942Y517182D02*
X423942Y501778D01*
X421338Y501778D01*
X421338Y517182D01*
X421338Y501964D02*
X423942Y501964D01*
X423942Y502150D02*
X421338Y502150D01*
X421338Y502336D02*
X423942Y502336D01*
X423942Y502522D02*
X421338Y502522D01*
X421338Y502708D02*
X423942Y502708D01*
X423942Y502894D02*
X421338Y502894D01*
X421338Y503080D02*
X423942Y503080D01*
X423942Y503266D02*
X421338Y503266D01*
X421338Y503452D02*
X423942Y503452D01*
X423942Y503638D02*
X421338Y503638D01*
X421338Y503824D02*
X423942Y503824D01*
X423942Y504010D02*
X421338Y504010D01*
X421338Y504196D02*
X423942Y504196D01*
X423942Y504382D02*
X421338Y504382D01*
X421338Y504568D02*
X423942Y504568D01*
X423942Y504754D02*
X421338Y504754D01*
X421338Y504940D02*
X423942Y504940D01*
X423942Y505126D02*
X421338Y505126D01*
X421338Y505312D02*
X423942Y505312D01*
X423942Y505498D02*
X421338Y505498D01*
X421338Y505684D02*
X423942Y505684D01*
X423942Y505870D02*
X421338Y505870D01*
X421338Y506056D02*
X423942Y506056D01*
X423942Y506242D02*
X421338Y506242D01*
X421338Y506428D02*
X423942Y506428D01*
X423942Y506614D02*
X421338Y506614D01*
X421338Y506800D02*
X423942Y506800D01*
X423942Y506986D02*
X421338Y506986D01*
X421338Y507172D02*
X423942Y507172D01*
X423942Y507358D02*
X421338Y507358D01*
X421338Y507544D02*
X423942Y507544D01*
X423942Y507730D02*
X421338Y507730D01*
X421338Y507916D02*
X423942Y507916D01*
X423942Y508102D02*
X421338Y508102D01*
X421338Y508288D02*
X423942Y508288D01*
X423942Y508474D02*
X421338Y508474D01*
X421338Y508660D02*
X423942Y508660D01*
X423942Y508846D02*
X421338Y508846D01*
X421338Y509032D02*
X423942Y509032D01*
X423942Y509218D02*
X421338Y509218D01*
X421338Y509404D02*
X423942Y509404D01*
X423942Y509590D02*
X421338Y509590D01*
X421338Y509776D02*
X423942Y509776D01*
X423942Y509962D02*
X421338Y509962D01*
X421338Y510148D02*
X423942Y510148D01*
X423942Y510334D02*
X421338Y510334D01*
X421338Y510520D02*
X423942Y510520D01*
X423942Y510706D02*
X421338Y510706D01*
X421338Y510892D02*
X423942Y510892D01*
X423942Y511078D02*
X421338Y511078D01*
X421338Y511264D02*
X423942Y511264D01*
X423942Y511450D02*
X421338Y511450D01*
X421338Y511636D02*
X423942Y511636D01*
X423942Y511822D02*
X421338Y511822D01*
X421338Y512008D02*
X423942Y512008D01*
X423942Y512194D02*
X421338Y512194D01*
X421338Y512380D02*
X423942Y512380D01*
X423942Y512566D02*
X421338Y512566D01*
X421338Y512752D02*
X423942Y512752D01*
X423942Y512938D02*
X421338Y512938D01*
X421338Y513124D02*
X423942Y513124D01*
X423942Y513310D02*
X421338Y513310D01*
X421338Y513496D02*
X423942Y513496D01*
X423942Y513682D02*
X421338Y513682D01*
X421338Y513868D02*
X423942Y513868D01*
X423942Y514054D02*
X421338Y514054D01*
X421338Y514240D02*
X423942Y514240D01*
X423942Y514426D02*
X421338Y514426D01*
X421338Y514612D02*
X423942Y514612D01*
X423942Y514798D02*
X421338Y514798D01*
X421338Y514984D02*
X423942Y514984D01*
X423942Y515170D02*
X421338Y515170D01*
X421338Y515356D02*
X423942Y515356D01*
X423942Y515542D02*
X421338Y515542D01*
X421338Y515728D02*
X423942Y515728D01*
X423942Y515914D02*
X421338Y515914D01*
X421338Y516100D02*
X423942Y516100D01*
X423942Y516286D02*
X421338Y516286D01*
X421338Y516472D02*
X423942Y516472D01*
X423942Y516658D02*
X421338Y516658D01*
X421338Y516844D02*
X423942Y516844D01*
X423942Y517030D02*
X421338Y517030D01*
X418942Y517182D02*
X416338Y517182D01*
X418942Y517182D02*
X418942Y501778D01*
X416338Y501778D01*
X416338Y517182D01*
X416338Y501964D02*
X418942Y501964D01*
X418942Y502150D02*
X416338Y502150D01*
X416338Y502336D02*
X418942Y502336D01*
X418942Y502522D02*
X416338Y502522D01*
X416338Y502708D02*
X418942Y502708D01*
X418942Y502894D02*
X416338Y502894D01*
X416338Y503080D02*
X418942Y503080D01*
X418942Y503266D02*
X416338Y503266D01*
X416338Y503452D02*
X418942Y503452D01*
X418942Y503638D02*
X416338Y503638D01*
X416338Y503824D02*
X418942Y503824D01*
X418942Y504010D02*
X416338Y504010D01*
X416338Y504196D02*
X418942Y504196D01*
X418942Y504382D02*
X416338Y504382D01*
X416338Y504568D02*
X418942Y504568D01*
X418942Y504754D02*
X416338Y504754D01*
X416338Y504940D02*
X418942Y504940D01*
X418942Y505126D02*
X416338Y505126D01*
X416338Y505312D02*
X418942Y505312D01*
X418942Y505498D02*
X416338Y505498D01*
X416338Y505684D02*
X418942Y505684D01*
X418942Y505870D02*
X416338Y505870D01*
X416338Y506056D02*
X418942Y506056D01*
X418942Y506242D02*
X416338Y506242D01*
X416338Y506428D02*
X418942Y506428D01*
X418942Y506614D02*
X416338Y506614D01*
X416338Y506800D02*
X418942Y506800D01*
X418942Y506986D02*
X416338Y506986D01*
X416338Y507172D02*
X418942Y507172D01*
X418942Y507358D02*
X416338Y507358D01*
X416338Y507544D02*
X418942Y507544D01*
X418942Y507730D02*
X416338Y507730D01*
X416338Y507916D02*
X418942Y507916D01*
X418942Y508102D02*
X416338Y508102D01*
X416338Y508288D02*
X418942Y508288D01*
X418942Y508474D02*
X416338Y508474D01*
X416338Y508660D02*
X418942Y508660D01*
X418942Y508846D02*
X416338Y508846D01*
X416338Y509032D02*
X418942Y509032D01*
X418942Y509218D02*
X416338Y509218D01*
X416338Y509404D02*
X418942Y509404D01*
X418942Y509590D02*
X416338Y509590D01*
X416338Y509776D02*
X418942Y509776D01*
X418942Y509962D02*
X416338Y509962D01*
X416338Y510148D02*
X418942Y510148D01*
X418942Y510334D02*
X416338Y510334D01*
X416338Y510520D02*
X418942Y510520D01*
X418942Y510706D02*
X416338Y510706D01*
X416338Y510892D02*
X418942Y510892D01*
X418942Y511078D02*
X416338Y511078D01*
X416338Y511264D02*
X418942Y511264D01*
X418942Y511450D02*
X416338Y511450D01*
X416338Y511636D02*
X418942Y511636D01*
X418942Y511822D02*
X416338Y511822D01*
X416338Y512008D02*
X418942Y512008D01*
X418942Y512194D02*
X416338Y512194D01*
X416338Y512380D02*
X418942Y512380D01*
X418942Y512566D02*
X416338Y512566D01*
X416338Y512752D02*
X418942Y512752D01*
X418942Y512938D02*
X416338Y512938D01*
X416338Y513124D02*
X418942Y513124D01*
X418942Y513310D02*
X416338Y513310D01*
X416338Y513496D02*
X418942Y513496D01*
X418942Y513682D02*
X416338Y513682D01*
X416338Y513868D02*
X418942Y513868D01*
X418942Y514054D02*
X416338Y514054D01*
X416338Y514240D02*
X418942Y514240D01*
X418942Y514426D02*
X416338Y514426D01*
X416338Y514612D02*
X418942Y514612D01*
X418942Y514798D02*
X416338Y514798D01*
X416338Y514984D02*
X418942Y514984D01*
X418942Y515170D02*
X416338Y515170D01*
X416338Y515356D02*
X418942Y515356D01*
X418942Y515542D02*
X416338Y515542D01*
X416338Y515728D02*
X418942Y515728D01*
X418942Y515914D02*
X416338Y515914D01*
X416338Y516100D02*
X418942Y516100D01*
X418942Y516286D02*
X416338Y516286D01*
X416338Y516472D02*
X418942Y516472D01*
X418942Y516658D02*
X416338Y516658D01*
X416338Y516844D02*
X418942Y516844D01*
X418942Y517030D02*
X416338Y517030D01*
D21*
X150520Y356800D03*
X169520Y356800D03*
X380340Y528740D03*
X361340Y528740D03*
X150520Y404440D03*
X169520Y404440D03*
D30*
X320520Y449730D03*
X320520Y497990D03*
D21*
X381320Y457200D03*
X362320Y457200D03*
D31*
X47640Y357940D03*
D32*
X47640Y402940D03*
D31*
X112640Y357940D03*
X112640Y402940D03*
D15*
X268960Y119440D03*
D33*
X268960Y144840D03*
X268960Y170240D03*
X180960Y170240D03*
X180960Y144840D03*
X180960Y119440D03*
D20*
X273680Y83160D03*
X273680Y64160D03*
D34*
X227440Y64960D02*
X227440Y49960D01*
X202440Y49960D02*
X202440Y64960D01*
X177440Y64960D02*
X177440Y49960D01*
D25*
X93100Y176580D02*
X77860Y176580D01*
X77860Y151180D02*
X93100Y151180D01*
X93100Y125780D02*
X77860Y125780D01*
D34*
X62620Y283320D02*
X47620Y283320D01*
X47620Y258320D02*
X62620Y258320D01*
D35*
X203486Y264692D03*
X226600Y264692D03*
X249714Y264692D03*
D36*
X226600Y326670D03*
D20*
X250220Y228680D03*
X250220Y209680D03*
D21*
X213440Y226380D03*
X194440Y226380D03*
D37*
X133140Y282580D03*
D38*
X133140Y257180D03*
D39*
X402020Y203820D03*
X392520Y223820D03*
X411520Y223820D03*
D20*
X393590Y246340D03*
X393590Y265340D03*
X452480Y243800D03*
X452480Y262800D03*
D39*
X485840Y202940D03*
X476340Y222940D03*
X495340Y222940D03*
D20*
X482260Y244460D03*
X482260Y263460D03*
X537180Y243800D03*
X537180Y262800D03*
D25*
X334880Y132106D02*
X319640Y132106D01*
X319640Y107214D02*
X334880Y107214D01*
X334880Y82322D02*
X319640Y82322D01*
X319640Y156998D02*
X334880Y156998D01*
D39*
X318200Y206320D03*
X308700Y226320D03*
X327700Y226320D03*
D20*
X315460Y247000D03*
X315460Y266000D03*
X367840Y246340D03*
X367840Y265340D03*
D25*
X522700Y513360D02*
X537940Y513360D01*
X537940Y538760D02*
X522700Y538760D01*
X522700Y564160D02*
X537940Y564160D01*
X537940Y589560D02*
X522700Y589560D01*
D40*
X566166Y624840D03*
X566166Y637540D03*
X566166Y650240D03*
X566166Y662940D03*
X566166Y675640D03*
X566166Y688340D03*
X566166Y701040D03*
X518160Y701040D03*
X518160Y688340D03*
X518160Y675640D03*
X518160Y662940D03*
X518160Y650240D03*
X518160Y637540D03*
X518160Y624840D03*
D41*
X142080Y640540D03*
D42*
X184900Y680600D02*
X180000Y685500D01*
X184900Y680600D02*
X184900Y654205D01*
X630668Y122334D02*
X630668Y96934D01*
X819110Y314910D02*
X819110Y321410D01*
X819110Y347410D02*
X808110Y347410D01*
X798860Y338160D01*
X798860Y325700D01*
X798820Y325660D01*
X803070Y321410D01*
X819110Y321410D01*
D41*
X798820Y325660D03*
X798860Y368160D03*
D42*
X800110Y366910D02*
X819110Y366910D01*
X800110Y366910D02*
X798860Y368160D01*
D41*
X911400Y338160D03*
D42*
X908650Y340910D02*
X891610Y340910D01*
X908650Y340910D02*
X911400Y338160D01*
X823250Y678210D02*
X816750Y678210D01*
X849250Y678210D02*
X849250Y689990D01*
X840740Y698500D01*
X822960Y698500D01*
X823250Y698210D01*
X823250Y678210D01*
X868750Y678210D02*
X868750Y688410D01*
X876300Y695960D01*
X928360Y666540D02*
X928360Y661460D01*
X928360Y666540D02*
X898940Y695960D01*
X769360Y273410D02*
X769360Y218760D01*
X792260Y195860D01*
X768360Y395160D02*
X782140Y408940D01*
X828040Y408940D01*
X902000Y482900D01*
X928360Y482900D01*
X752430Y720300D02*
X688620Y720300D01*
X752430Y720300D02*
X767170Y705560D01*
X896040Y732460D02*
X909320Y719180D01*
X909320Y706120D01*
X899160Y695960D01*
X55120Y283320D02*
X53740Y281940D01*
D43*
X27940Y281940D01*
X17780Y271780D02*
X17780Y160020D01*
X17780Y271780D02*
X27940Y281940D01*
D42*
X85480Y151180D02*
X85300Y151000D01*
D41*
X172720Y289560D03*
X223520Y180340D03*
D42*
X250220Y207040D01*
X250220Y209680D01*
D43*
X26800Y151000D02*
X17780Y160020D01*
X26800Y151000D02*
X85300Y151000D01*
D42*
X486940Y490180D02*
X515580Y490180D01*
X530320Y504920D02*
X530320Y513360D01*
X530320Y504920D02*
X515580Y490180D01*
D43*
X55120Y318260D02*
X55120Y283320D01*
X55120Y318260D02*
X48260Y325120D01*
X48260Y357320D01*
D42*
X47640Y357940D01*
D41*
X167640Y378460D03*
D43*
X167640Y402560D01*
D42*
X169520Y404440D01*
D43*
X189840Y448920D02*
X190500Y449580D01*
X189840Y424760D02*
X169520Y404440D01*
D41*
X190500Y449580D03*
D42*
X657948Y457350D02*
X657948Y534120D01*
X657860Y457262D02*
X657328Y456730D01*
X646430Y701040D02*
X566166Y701040D01*
X665690Y720300D02*
X688620Y720300D01*
X665690Y720300D02*
X646430Y701040D01*
D44*
X566166Y701040D02*
X566166Y713994D01*
X551180Y728980D01*
D41*
X462280Y447040D03*
D42*
X462280Y440690D01*
X467640Y435330D02*
X467640Y425880D01*
X467640Y435330D02*
X462280Y440690D01*
X469860Y490180D02*
X486940Y490180D01*
X414460Y460180D02*
X403340Y460180D01*
X414460Y460180D02*
X424180Y469900D01*
X439420Y469900D01*
X422640Y499380D02*
X422640Y509480D01*
D41*
X402590Y515620D03*
D42*
X422640Y519700D02*
X422640Y509480D01*
X422640Y519700D02*
X419100Y523240D01*
X408940Y523240D01*
X402590Y516890D01*
X402590Y515620D01*
D41*
X353060Y421640D03*
D42*
X360680Y457200D02*
X362320Y457200D01*
X360680Y457200D02*
X353060Y449580D01*
X353060Y421640D01*
X422640Y499380D02*
X439420Y482600D01*
X439420Y469900D01*
X449580Y469900D02*
X469860Y490180D01*
X449580Y469900D02*
X439420Y469900D01*
X439420Y459740D01*
X452120Y447040D01*
X462280Y447040D01*
X630668Y350934D02*
X648114Y350934D01*
X657860Y360680D01*
X657860Y457262D01*
X657948Y457350D01*
D41*
X739140Y350520D03*
D42*
X741500Y348160D01*
X768360Y348160D01*
X751840Y363220D02*
X739140Y350520D01*
X751840Y363220D02*
X751840Y386080D01*
X760920Y395160D01*
X768360Y395160D01*
X739140Y303630D02*
X769360Y273410D01*
X739140Y303630D02*
X739140Y350520D01*
X852580Y722300D02*
X852580Y735740D01*
X866140Y749300D01*
X889000Y749300D01*
X896620Y741680D01*
X896040Y741100D01*
X896040Y732460D01*
X800750Y739140D02*
X767170Y705560D01*
X849180Y739140D02*
X852580Y735740D01*
X849180Y739140D02*
X800750Y739140D01*
D41*
X815340Y647700D03*
D42*
X842750Y632990D02*
X842750Y605710D01*
X842750Y632990D02*
X828040Y647700D01*
X815340Y647700D01*
D41*
X777240Y675640D03*
D42*
X767170Y685710D01*
X767170Y705560D01*
D41*
X822960Y698500D03*
D42*
X967580Y20480D02*
X987030Y20480D01*
X967580Y20480D02*
X955040Y33020D01*
X955040Y55880D01*
X970440Y71280D01*
X987030Y71280D01*
X259080Y717500D02*
X240200Y698620D01*
D41*
X259080Y731520D03*
D42*
X259080Y717500D01*
X247020Y629120D02*
X246480Y628580D01*
X203025Y628580D01*
X139080Y556260D02*
X139080Y554960D01*
X134000Y556260D02*
X134000Y551180D01*
X134000Y450200D01*
X134620Y449580D01*
D41*
X134620Y449580D03*
D42*
X179900Y591380D02*
X179900Y607955D01*
X179900Y591380D02*
X144780Y556260D01*
X139080Y556260D01*
X134000Y556260D01*
X195525Y653580D02*
X194900Y654205D01*
X195525Y653580D02*
X203025Y653580D01*
X100200Y683460D02*
X86360Y669620D01*
X86360Y619760D01*
X99120Y607000D01*
X101580Y607000D01*
X154000Y685500D02*
X180000Y685500D01*
X240200Y677080D02*
X240200Y698620D01*
X216700Y653580D02*
X203025Y653580D01*
X216700Y653580D02*
X240200Y677080D01*
X171775Y628580D02*
X154040Y628580D01*
X142080Y640540D01*
D45*
X149560Y685500D02*
X154000Y685500D01*
D42*
X149560Y685500D02*
X134620Y670560D01*
X134620Y647700D01*
X141780Y640540D01*
X142080Y640540D01*
X100200Y683460D02*
X100200Y689480D01*
X109220Y698500D01*
X146380Y685500D02*
X154000Y685500D01*
X146380Y685500D02*
X133380Y698500D01*
X109220Y698500D01*
X180000Y685500D02*
X182580Y685500D01*
X200660Y703580D01*
D41*
X200660Y703580D03*
D42*
X101580Y607000D02*
X101580Y563900D01*
X114300Y551180D01*
X134000Y551180D01*
X247020Y629120D02*
X284480Y666580D01*
X284480Y713740D01*
X266700Y731520D01*
X259080Y731520D01*
X898940Y695960D02*
X899160Y695960D01*
X898940Y695960D02*
X876300Y695960D01*
D41*
X236220Y525780D03*
D42*
X264160Y553720D01*
X264160Y622300D01*
X257880Y628580D01*
X246480Y628580D01*
X194440Y255646D02*
X194440Y226380D01*
X194440Y255646D02*
X203077Y264283D01*
D41*
X340360Y538480D03*
D42*
X203486Y264692D02*
X203077Y264283D01*
X340360Y538480D02*
X351600Y538480D01*
X361340Y528740D01*
X203077Y264283D02*
X197997Y264283D01*
X172720Y289560D01*
D41*
X551180Y728980D03*
D43*
X189840Y448920D02*
X189840Y424760D01*
D42*
X822020Y386410D02*
X902970Y467360D01*
X822020Y386410D02*
X819110Y386410D01*
X902970Y467360D02*
X927900Y467360D01*
X928360Y466900D01*
X819360Y380160D02*
X819110Y379910D01*
X828220Y379910D02*
X906780Y458470D01*
X927930Y458470D02*
X928360Y458900D01*
X927930Y458470D02*
X906780Y458470D01*
X828220Y379910D02*
X819610Y379910D01*
X819360Y380160D01*
X226600Y239540D02*
X213440Y226380D01*
X226600Y239540D02*
X226600Y264692D01*
D41*
X226060Y297180D03*
X314960Y297180D03*
X368300Y297180D03*
X393700Y297180D03*
X452120Y297180D03*
X535940Y297180D03*
X480060Y297180D03*
D42*
X315460Y296680D02*
X314960Y297180D01*
X315460Y296680D02*
X315460Y266000D01*
X368300Y265800D02*
X368300Y297180D01*
X368300Y265800D02*
X367840Y265340D01*
X393700Y265450D02*
X393700Y297180D01*
X393700Y265450D02*
X393590Y265340D01*
X452120Y263160D02*
X452120Y297180D01*
X452120Y263160D02*
X452480Y262800D01*
X480060Y265660D02*
X480060Y297180D01*
X480060Y265660D02*
X482260Y263460D01*
X535940Y264040D02*
X535940Y297180D01*
X535940Y264040D02*
X537180Y262800D01*
X327700Y253760D02*
X315460Y266000D01*
X327700Y253760D02*
X327700Y226320D01*
X340360Y238980D01*
X340360Y243840D01*
D41*
X340360Y243840D03*
D42*
X393590Y265340D02*
X411520Y247410D01*
X411520Y223820D01*
D41*
X426720Y236220D03*
D42*
X414320Y223820D01*
X411520Y223820D01*
X482260Y263460D02*
X495340Y250380D01*
X495340Y222940D01*
X515040Y222940D01*
X518160Y226060D01*
D41*
X518160Y226060D03*
D42*
X226600Y326670D02*
X196470Y356800D01*
X169520Y356800D01*
D41*
X474980Y403860D03*
D45*
X472640Y406200D02*
X472640Y425880D01*
X472640Y406200D02*
X474980Y403860D01*
D41*
X488950Y513080D03*
D42*
X707732Y534120D02*
X707732Y457350D01*
X707112Y456730D01*
X403340Y455180D02*
X383340Y455180D01*
X381320Y457200D01*
X403340Y495180D02*
X411360Y495180D01*
X417830Y501650D01*
X417640Y501840D01*
X417640Y509480D01*
D41*
X452120Y487680D03*
D42*
X459620Y495180D01*
X486940Y495180D01*
D45*
X472640Y444700D02*
X472640Y425880D01*
X472640Y444700D02*
X474980Y447040D01*
X474980Y459740D01*
X467360Y467360D01*
D41*
X467360Y467360D03*
X381000Y487680D03*
D42*
X388500Y495180D02*
X403340Y495180D01*
X388500Y495180D02*
X381000Y487680D01*
D41*
X370840Y434340D03*
D42*
X381320Y444820D02*
X381320Y457200D01*
X381320Y444820D02*
X370840Y434340D01*
X576580Y538480D02*
X576580Y614426D01*
D41*
X576580Y538480D03*
D46*
X505460Y327660D02*
X535940Y297180D01*
X505460Y327660D02*
X505460Y370840D01*
D41*
X505460Y370840D03*
D42*
X543560Y297180D02*
X584200Y337820D01*
X584200Y391160D01*
X599440Y406400D01*
D41*
X599440Y406400D03*
D42*
X226600Y326670D02*
X215900Y337370D01*
X215900Y563880D01*
D41*
X215900Y563880D03*
X116840Y563880D03*
D42*
X139080Y575960D02*
X139080Y610080D01*
X142580Y613580D01*
X128920Y575960D02*
X116840Y563880D01*
X128920Y575960D02*
X139080Y575960D01*
X184900Y602500D02*
X184900Y607955D01*
X184900Y602500D02*
X185420Y601980D01*
X189230Y601980D01*
X189900Y602650D01*
X189900Y607955D01*
X183980Y613580D02*
X171775Y613580D01*
X183980Y613580D02*
X184900Y612660D01*
X184900Y607955D01*
X514630Y538760D02*
X530320Y538760D01*
X514630Y538760D02*
X488950Y513080D01*
X226600Y326670D02*
X226600Y297720D01*
X226060Y297180D01*
X226600Y296640D02*
X226600Y264692D01*
X226600Y296640D02*
X226060Y297180D01*
X535940Y297180D02*
X543560Y297180D01*
X171775Y613580D02*
X142580Y613580D01*
X566166Y624840D02*
X576580Y614426D01*
X905360Y366740D02*
X931440Y340660D01*
X905360Y366740D02*
X905360Y393160D01*
X896360Y402160D01*
X878860Y402160D01*
X867100Y390400D01*
X867100Y369900D01*
X831360Y334160D01*
X819360Y334160D01*
X819110Y334410D01*
X911360Y378740D02*
X931440Y358660D01*
X911360Y396160D02*
X899360Y408160D01*
X875360Y408160D01*
X862100Y394900D01*
X862100Y372900D01*
X830110Y340910D02*
X819110Y340910D01*
X911360Y378740D02*
X911360Y396160D01*
X862100Y372900D02*
X830110Y340910D01*
D41*
X932180Y398780D03*
D42*
X932180Y380400D01*
X931440Y379660D01*
D41*
X955040Y314960D03*
D42*
X950340Y319660D01*
X931440Y319660D01*
D43*
X154940Y154940D02*
X125780Y125780D01*
X154940Y154940D02*
X154940Y187960D01*
X172720Y205740D01*
X220980Y205740D01*
X243920Y228680D01*
D42*
X250220Y228680D01*
X249714Y229186D01*
D43*
X249714Y264692D01*
X125780Y125780D02*
X85480Y125780D01*
D41*
X274320Y215900D03*
D43*
X261540Y228680D02*
X250220Y228680D01*
X261540Y228680D02*
X274320Y215900D01*
D42*
X327260Y156998D02*
X289560Y119298D01*
X289560Y80040D01*
X273680Y64160D01*
D45*
X249714Y264692D02*
X271780Y286758D01*
X271780Y375920D02*
X238760Y408940D01*
X238760Y495300D01*
X312420Y568960D02*
X474980Y568960D01*
X518160Y612140D01*
X271780Y375920D02*
X271780Y286758D01*
X238760Y495300D02*
X312420Y568960D01*
X325120Y581660D01*
X363220Y581660D01*
X403860Y622300D01*
X403860Y683260D01*
X424858Y704258D01*
X443740Y704258D01*
D42*
X518160Y701040D02*
X530860Y701040D01*
X541020Y690880D01*
X541020Y632460D01*
X533400Y624840D01*
X518160Y624840D01*
X518160Y612140D01*
X865360Y254160D02*
X865360Y246160D01*
X891610Y280410D02*
X891610Y301910D01*
X891610Y280410D02*
X865360Y254160D01*
X873110Y366910D02*
X891610Y366910D01*
X873110Y366910D02*
X835360Y329160D01*
X835360Y267160D01*
X817660Y249460D01*
X817660Y195860D01*
X867110Y314910D02*
X891610Y314910D01*
X855360Y303160D02*
X855360Y228160D01*
X862540Y220980D01*
X876300Y220980D01*
X886360Y231040D01*
X886360Y246160D01*
X855360Y303160D02*
X867110Y314910D01*
X906360Y246160D02*
X919260Y233260D01*
X919260Y195860D01*
X180300Y704800D02*
X180300Y729000D01*
X180300Y704800D02*
X180000Y704500D01*
D41*
X189130Y620620D03*
D42*
X194900Y614850D02*
X194900Y607955D01*
X194900Y614850D02*
X189130Y620620D01*
D41*
X196000Y591000D03*
D42*
X203025Y598025D02*
X203025Y608580D01*
X203025Y598025D02*
X196000Y591000D01*
X154900Y705400D02*
X154900Y729000D01*
X154900Y705400D02*
X154000Y704500D01*
X203025Y633580D02*
X213360Y633580D01*
X269240Y689460D01*
X269240Y708660D01*
D41*
X269240Y708660D03*
X186050Y639810D03*
D42*
X194820Y648580D02*
X203025Y648580D01*
X194820Y648580D02*
X186050Y639810D01*
X221200Y698620D02*
X221200Y719100D01*
X231100Y729000D01*
X221200Y698620D02*
X189900Y667320D01*
X189900Y654205D01*
D41*
X147160Y663700D03*
D42*
X157280Y653580D02*
X171775Y653580D01*
X157280Y653580D02*
X147160Y663700D01*
D41*
X309880Y693420D03*
D42*
X309880Y668020D01*
X322746Y655154D02*
X346980Y655154D01*
X322746Y655154D02*
X309880Y668020D01*
D41*
X166160Y670480D03*
D42*
X179900Y656740D02*
X179900Y654205D01*
X179900Y656740D02*
X166160Y670480D01*
X120580Y617760D02*
X120580Y607000D01*
X120580Y617760D02*
X108880Y629460D01*
X120580Y607000D02*
X132160Y618580D01*
X171775Y618580D01*
X125460Y657540D02*
X121540Y661460D01*
X108880Y661460D01*
X119200Y675840D02*
X119200Y683460D01*
X119200Y675840D02*
X119040Y675680D01*
X119040Y671620D01*
X108880Y661460D01*
X143500Y623580D02*
X171775Y623580D01*
X125460Y641620D02*
X125460Y657540D01*
X125460Y641620D02*
X143500Y623580D01*
X203025Y623580D02*
X225940Y623580D01*
X239400Y610120D02*
X247020Y610120D01*
X239400Y610120D02*
X225940Y623580D01*
X909000Y645460D02*
X928360Y645460D01*
X888250Y666210D02*
X888250Y678210D01*
X888250Y666210D02*
X909000Y645460D01*
X907000Y637460D02*
X928360Y637460D01*
X881750Y662710D02*
X881750Y678210D01*
X881750Y662710D02*
X907000Y637460D01*
X859000Y590960D02*
X839000Y570960D01*
X859000Y590960D02*
X893500Y590960D01*
X898500Y595960D01*
X898500Y618460D01*
X871000Y645960D01*
X851000Y645960D01*
X836250Y660710D01*
X836250Y678210D01*
X873000Y585960D02*
X858000Y570960D01*
X873000Y585960D02*
X898500Y585960D01*
X906000Y593460D01*
X906000Y620960D01*
X879050Y647910D01*
X873500Y653460D01*
X853500Y653460D01*
X842750Y664210D01*
X842750Y678210D01*
D41*
X894080Y571500D03*
D42*
X879540Y571500D02*
X879000Y570960D01*
X879540Y571500D02*
X894080Y571500D01*
D41*
X805180Y571500D03*
D42*
X817460Y571500D02*
X818000Y570960D01*
X817460Y571500D02*
X805180Y571500D01*
X803750Y605710D02*
X776250Y605710D01*
X748500Y633460D01*
X748500Y593460D02*
X688780Y593460D01*
X688620Y593300D01*
X731000Y643460D02*
X793500Y643460D01*
X731000Y643460D02*
X723500Y635960D01*
X723500Y623460D01*
X733500Y613460D01*
X748500Y613460D01*
X816750Y620010D02*
X816750Y605710D01*
X816750Y620010D02*
X793500Y643260D01*
X793500Y643460D01*
D41*
X823500Y633220D03*
D42*
X823250Y632970D02*
X823250Y605710D01*
X823250Y632970D02*
X823500Y633220D01*
D41*
X868680Y703580D03*
D42*
X868680Y725100D01*
X875250Y687290D02*
X875250Y678210D01*
X875250Y687290D02*
X878840Y690880D01*
X891540Y690880D01*
X904240Y678180D01*
X904240Y673100D01*
D41*
X904240Y673100D03*
D42*
X868680Y725100D02*
X876040Y732460D01*
X367840Y246340D02*
X367800Y246380D01*
X355600Y246380D01*
X342900Y259080D01*
X342900Y264160D01*
D41*
X342900Y264160D03*
X396240Y398780D03*
X436880Y445770D03*
D42*
X436290Y445180D01*
X403340Y445180D01*
X342900Y332740D02*
X342900Y264160D01*
X342900Y332740D02*
X342900Y345440D01*
X396240Y398780D01*
D41*
X342900Y332740D03*
D42*
X447640Y425880D02*
X447684Y425836D01*
X447684Y415921D01*
X472445Y391160D01*
X525780Y391160D02*
X541020Y406400D01*
D41*
X541020Y406400D03*
D42*
X525780Y391160D02*
X472445Y391160D01*
X437596Y509524D02*
X437596Y521979D01*
X437596Y509524D02*
X437640Y509480D01*
X437596Y521979D02*
X430835Y528740D01*
X380340Y528740D01*
X403340Y475180D02*
X343330Y475180D01*
X320520Y497990D01*
X343510Y470180D02*
X323060Y449730D01*
X320520Y449730D01*
X343510Y470180D02*
X403340Y470180D01*
X486940Y465180D02*
X515260Y465180D01*
X520700Y459740D01*
D41*
X520700Y459740D03*
D42*
X515900Y470180D02*
X486940Y470180D01*
D41*
X530860Y472440D03*
D42*
X518160Y472440D02*
X515900Y470180D01*
X518160Y472440D02*
X530860Y472440D01*
X180960Y144840D02*
X167640Y131520D01*
X167640Y101600D01*
X202440Y66800D01*
X202440Y57460D01*
X180960Y165160D02*
X180960Y170240D01*
X180960Y165160D02*
X154940Y139140D01*
X154940Y79960D02*
X177440Y57460D01*
X154940Y79960D02*
X154940Y139140D01*
X442640Y412070D02*
X442640Y425880D01*
X442640Y412070D02*
X468630Y386080D01*
X546100Y386080D01*
D41*
X546100Y386080D03*
D42*
X842940Y384740D02*
X842940Y371320D01*
X842940Y367740D01*
X829110Y353910D01*
X819110Y353910D01*
X807110Y353910D01*
X781360Y328160D01*
X768360Y328160D01*
X769360Y327160D01*
X769360Y300910D01*
D41*
X842940Y371320D03*
D42*
X842940Y384740D02*
X909100Y450900D01*
X928360Y450900D01*
X912980Y281780D02*
X896360Y265160D01*
X912980Y281780D02*
X912980Y320620D01*
X905690Y327910D01*
X891610Y327910D01*
X896360Y265160D02*
X896360Y198360D01*
X893860Y195860D01*
X860560Y162560D01*
X764540Y162560D01*
X741680Y185420D01*
X741680Y269240D01*
D41*
X741680Y269240D03*
D42*
X868460Y200880D02*
X868460Y195860D01*
X868460Y200880D02*
X845820Y223520D01*
X845820Y245700D01*
X845360Y246160D01*
X832580Y722300D02*
X811410Y722300D01*
X794670Y705560D01*
X905000Y629460D02*
X928360Y629460D01*
X905000Y629460D02*
X873500Y660960D01*
X855750Y668710D02*
X855750Y678210D01*
X855750Y693750D01*
X855750Y668710D02*
X863500Y660960D01*
X873500Y660960D01*
X855750Y693750D02*
X832580Y716920D01*
X832580Y722300D01*
X748500Y653460D02*
X747820Y652780D01*
X728980Y652780D01*
X694900Y618700D01*
X688620Y618700D01*
X829750Y605710D02*
X829750Y593530D01*
X820420Y584200D01*
X779780Y584200D01*
X759460Y604520D01*
X716280Y604520D01*
D41*
X716280Y604520D03*
D42*
X868750Y605710D02*
X868750Y618210D01*
X826040Y660920D01*
X771040Y660920D01*
X737060Y694900D01*
X688620Y694900D01*
X150520Y404440D02*
X150520Y356800D01*
X150520Y404440D02*
X150520Y414680D01*
X162560Y426720D01*
D41*
X162560Y426720D03*
X424180Y482600D03*
D42*
X411840Y465180D02*
X403340Y465180D01*
X424180Y477520D02*
X424180Y482600D01*
X424180Y477520D02*
X411840Y465180D01*
X149020Y402940D02*
X112640Y402940D01*
X149020Y402940D02*
X150520Y404440D01*
D43*
X133140Y257180D02*
X85480Y209520D01*
X85480Y176580D01*
D42*
X268960Y119440D02*
X268960Y87880D01*
X273680Y83160D01*
X398860Y200660D02*
X402020Y203820D01*
X398860Y200660D02*
X383540Y200660D01*
X378460Y195580D01*
X378460Y164326D01*
X409740Y133046D01*
D41*
X378460Y195580D03*
X444500Y185420D03*
D42*
X444500Y111760D01*
D41*
X444500Y111760D03*
D42*
X477180Y239380D02*
X482260Y244460D01*
X477180Y239380D02*
X477180Y223780D01*
X476340Y222940D01*
X482260Y244460D02*
X467360Y259360D01*
X432640Y390320D02*
X432640Y425880D01*
X467360Y332740D02*
X467360Y259360D01*
D41*
X467360Y332740D03*
D42*
X467360Y355600D01*
X432640Y390320D01*
D41*
X459740Y170180D03*
D42*
X459740Y176840D02*
X485840Y202940D01*
X459740Y176840D02*
X459740Y170180D01*
X459740Y157480D01*
X484528Y132692D01*
X493266Y132692D02*
X493520Y132946D01*
X493266Y132692D02*
X484528Y132692D01*
X393590Y224890D02*
X393590Y246340D01*
X393590Y224890D02*
X392520Y223820D01*
X381000Y258930D02*
X381000Y332740D01*
X381000Y349250D01*
X422640Y390890D01*
X422640Y425880D01*
X381000Y258930D02*
X393590Y246340D01*
D41*
X381000Y332740D03*
D42*
X285750Y161630D02*
X268960Y144840D01*
X285750Y161630D02*
X285750Y332740D01*
X393190Y440180D01*
X403340Y440180D01*
D41*
X285750Y332740D03*
X299720Y195580D03*
D42*
X307460Y195580D02*
X318200Y206320D01*
X307460Y195580D02*
X299720Y195580D01*
D41*
X358140Y180340D03*
D42*
X358140Y111760D01*
D41*
X358140Y111760D03*
D42*
X297180Y322580D02*
X307340Y332740D01*
X393700Y419100D01*
X396240Y419100D01*
D41*
X396240Y419100D03*
X426720Y457200D03*
D42*
X297180Y322580D02*
X297180Y266700D01*
X419700Y450180D02*
X426720Y457200D01*
X419700Y450180D02*
X403340Y450180D01*
D41*
X307340Y332740D03*
D42*
X315460Y247000D02*
X308700Y240240D01*
X308700Y226320D01*
X297180Y265280D02*
X297180Y266700D01*
X297180Y265280D02*
X315460Y247000D01*
X486940Y485180D02*
X530900Y485180D01*
X556260Y510540D01*
X556260Y563620D01*
X530320Y589560D01*
X472640Y520900D02*
X472640Y509480D01*
X515900Y564160D02*
X530320Y564160D01*
X515900Y564160D02*
X472640Y520900D01*
D41*
X851360Y321160D03*
D42*
X891610Y321410D01*
D41*
X801360Y395660D03*
D42*
X801360Y380660D01*
X808860Y373160D01*
X809110Y373410D01*
X819110Y373410D01*
X780860Y375160D02*
X768360Y375160D01*
X780860Y375160D02*
X801360Y395660D01*
X891610Y321410D02*
X902870Y321410D01*
X906780Y317500D01*
X906780Y292100D01*
X904240Y289560D01*
D41*
X904240Y289560D03*
D42*
X987030Y122080D02*
X987030Y96680D01*
X987030Y122080D02*
X987030Y147480D01*
X970120Y147480D01*
X955040Y162560D01*
X955040Y229790D01*
X974330Y249080D02*
X987030Y249080D01*
X974330Y249080D02*
X955040Y229790D01*
D41*
X690880Y375920D03*
D42*
X690880Y121920D01*
D41*
X690880Y121920D03*
X427990Y269240D03*
D42*
X449900Y246380D02*
X452480Y243800D01*
X449900Y246380D02*
X439420Y246380D01*
X427990Y257810D01*
X427990Y269240D01*
D41*
X427990Y332740D03*
D42*
X427640Y333090D02*
X427640Y425880D01*
X427640Y333090D02*
X427990Y332740D01*
X427990Y269240D01*
X537180Y243800D02*
X556260Y224720D01*
X556260Y220980D01*
D41*
X556260Y220980D03*
D42*
X492760Y345700D02*
X437640Y400820D01*
X437640Y425880D01*
X492760Y288220D02*
X537180Y243800D01*
X492760Y288220D02*
X492760Y332740D01*
X492760Y345700D01*
D41*
X492760Y332740D03*
D42*
X457370Y604690D02*
X443740Y604690D01*
X457370Y604690D02*
X490220Y637540D01*
X518160Y637540D01*
X566166Y675640D02*
X581660Y675640D01*
X614680Y642620D01*
X614680Y515620D01*
X530860Y431800D01*
X508000Y431800D01*
X499620Y440180D02*
X486940Y440180D01*
X499620Y440180D02*
X508000Y431800D01*
X502240Y445180D02*
X486940Y445180D01*
X502240Y445180D02*
X510540Y436880D01*
X528320Y436880D01*
X607060Y515620D01*
X581660Y662940D02*
X566166Y662940D01*
X581660Y662940D02*
X607060Y637540D01*
X607060Y515620D01*
X504860Y450180D02*
X486940Y450180D01*
X504860Y450180D02*
X513080Y441960D01*
X525780Y441960D01*
X599440Y515620D01*
X599440Y632460D01*
X581660Y650240D01*
X566166Y650240D01*
X566166Y637540D02*
X581660Y637540D01*
X591820Y627380D01*
X591820Y515620D01*
X523240Y447040D01*
X515620Y447040D01*
X507480Y455180D02*
X486940Y455180D01*
X507480Y455180D02*
X515620Y447040D01*
X518160Y650240D02*
X480060Y650240D01*
X459402Y629582D02*
X443740Y629582D01*
X459402Y629582D02*
X480060Y650240D01*
X452206Y662940D02*
X443740Y654474D01*
X452206Y662940D02*
X518160Y662940D01*
X447466Y675640D02*
X443740Y679366D01*
X447466Y675640D02*
X518160Y675640D01*
M02*
