G04 EAGLE Gerber RS-274X export*
G75*
%MOMM*%
%FSLAX34Y34*%
%LPD*%
%INBottom Copper*%
%IPPOS*%
%AMOC8*
5,1,8,0,0,1.08239X$1,22.5*%
G01*
%ADD10R,1.100000X1.400000*%
%ADD11R,1.400000X1.100000*%
%ADD12P,1.924489X8X112.500000*%
%ADD13R,1.500000X1.300000*%
%ADD14C,1.524000*%
%ADD15P,1.924489X8X22.500000*%
%ADD16R,1.300000X1.500000*%
%ADD17C,1.219200*%
%ADD18C,1.485000*%
%ADD19R,1.485000X1.485000*%
%ADD20R,1.200000X1.200000*%
%ADD21C,1.200000*%
%ADD22C,1.500000*%
%ADD23P,1.732040X8X112.500000*%
%ADD24C,1.600200*%
%ADD25R,1.300000X1.200000*%
%ADD26R,1.200000X1.300000*%
%ADD27R,1.000000X1.200000*%
%ADD28P,1.649562X8X22.500000*%
%ADD29C,1.930400*%
%ADD30C,0.705600*%
%ADD31C,0.203200*%
%ADD32C,0.508000*%
%ADD33C,0.406400*%
%ADD34C,0.304800*%
%ADD35C,0.254000*%


D10*
X865560Y379140D03*
X885560Y379140D03*
D11*
X931440Y277160D03*
X931440Y297160D03*
D12*
X792260Y195860D03*
X817660Y195860D03*
X843060Y195860D03*
X868460Y195860D03*
X893860Y195860D03*
X919260Y195860D03*
D13*
X138760Y493680D03*
X138760Y474680D03*
X160950Y493680D03*
X160950Y474680D03*
D14*
X979410Y376080D02*
X994650Y376080D01*
X994650Y350680D02*
X979410Y350680D01*
X979410Y325280D02*
X994650Y325280D01*
X994650Y299880D02*
X979410Y299880D01*
X979410Y274480D02*
X994650Y274480D01*
X994650Y249080D02*
X979410Y249080D01*
X979410Y223680D02*
X994650Y223680D01*
X994650Y198280D02*
X979410Y198280D01*
X979410Y172880D02*
X994650Y172880D01*
X994650Y147480D02*
X979410Y147480D01*
X979410Y122080D02*
X994650Y122080D01*
X994650Y96680D02*
X979410Y96680D01*
X979410Y71280D02*
X994650Y71280D01*
X994650Y45880D02*
X979410Y45880D01*
X979410Y20480D02*
X994650Y20480D01*
X638288Y376334D02*
X623048Y376334D01*
X623048Y350934D02*
X638288Y350934D01*
X638288Y325534D02*
X623048Y325534D01*
X623048Y300134D02*
X638288Y300134D01*
X638288Y274734D02*
X623048Y274734D01*
X623048Y249334D02*
X638288Y249334D01*
X638288Y223934D02*
X623048Y223934D01*
X623048Y198534D02*
X638288Y198534D01*
X638288Y173134D02*
X623048Y173134D01*
X623048Y147734D02*
X638288Y147734D01*
X638288Y122334D02*
X623048Y122334D01*
X623048Y96934D02*
X638288Y96934D01*
X638288Y71534D02*
X623048Y71534D01*
X623048Y46134D02*
X638288Y46134D01*
X638288Y20734D02*
X623048Y20734D01*
D10*
X941320Y570960D03*
X921320Y570960D03*
X753140Y565880D03*
X773140Y565880D03*
D15*
X688620Y720300D03*
X688620Y694900D03*
X688620Y669500D03*
X688620Y644100D03*
X688620Y618700D03*
X688620Y593300D03*
D14*
X451360Y654474D02*
X436120Y654474D01*
X436120Y629582D02*
X451360Y629582D01*
X451360Y604690D02*
X436120Y604690D01*
X436120Y679366D02*
X451360Y679366D01*
X451360Y704258D02*
X436120Y704258D01*
X436120Y729150D02*
X451360Y729150D01*
X354600Y680046D02*
X339360Y680046D01*
X339360Y704938D02*
X354600Y704938D01*
X354600Y729830D02*
X339360Y729830D01*
X339360Y655154D02*
X354600Y655154D01*
X354600Y630262D02*
X339360Y630262D01*
X339360Y605370D02*
X354600Y605370D01*
X485900Y132946D02*
X501140Y132946D01*
X501140Y108054D02*
X485900Y108054D01*
X485900Y83162D02*
X501140Y83162D01*
X501140Y157838D02*
X485900Y157838D01*
X417360Y133046D02*
X402120Y133046D01*
X402120Y108154D02*
X417360Y108154D01*
X417360Y83262D02*
X402120Y83262D01*
X402120Y157938D02*
X417360Y157938D01*
X657328Y449110D02*
X657328Y464350D01*
X682220Y464350D02*
X682220Y449110D01*
X707112Y449110D02*
X707112Y464350D01*
X657948Y526500D02*
X657948Y541740D01*
X682840Y541740D02*
X682840Y526500D01*
X707732Y526500D02*
X707732Y541740D01*
D16*
X380340Y549060D03*
X361340Y549060D03*
D17*
X320520Y449730D03*
X320520Y497990D03*
D16*
X302870Y497650D03*
X283870Y497650D03*
X302870Y450120D03*
X283870Y450120D03*
D13*
X403880Y474370D03*
X403880Y493370D03*
D16*
X495960Y401880D03*
X514960Y401880D03*
D13*
X479620Y489560D03*
X479620Y470560D03*
D16*
X495960Y424280D03*
X514960Y424280D03*
D18*
X47640Y357940D03*
D19*
X47640Y402940D03*
D18*
X112640Y357940D03*
X112640Y402940D03*
D20*
X268960Y119440D03*
D21*
X268960Y144840D03*
X268960Y170240D03*
X180960Y170240D03*
X180960Y144840D03*
X180960Y119440D03*
D16*
X206400Y91160D03*
X225400Y91160D03*
D22*
X227440Y64960D02*
X227440Y49960D01*
X202440Y49960D02*
X202440Y64960D01*
X177440Y64960D02*
X177440Y49960D01*
D14*
X67700Y176580D02*
X52460Y176580D01*
X52460Y151180D02*
X67700Y151180D01*
X67700Y125780D02*
X52460Y125780D01*
D22*
X52460Y283320D02*
X37460Y283320D01*
X37460Y258320D02*
X52460Y258320D01*
D23*
X133140Y282580D03*
D24*
X133140Y257180D03*
D25*
X442710Y132570D03*
X442710Y152890D03*
D26*
X397020Y181580D03*
X417340Y181580D03*
D27*
X443800Y200320D03*
X453300Y220320D03*
X434300Y220320D03*
D25*
X527060Y130340D03*
X527060Y150660D03*
D26*
X480220Y181600D03*
X500540Y181600D03*
D27*
X529200Y187700D03*
X538700Y207700D03*
X519700Y207700D03*
D14*
X334880Y132106D02*
X319640Y132106D01*
X319640Y107214D02*
X334880Y107214D01*
X334880Y82322D02*
X319640Y82322D01*
X319640Y156998D02*
X334880Y156998D01*
D25*
X358560Y133820D03*
X358560Y154140D03*
D26*
X304640Y174840D03*
X324960Y174840D03*
D27*
X359020Y203780D03*
X368520Y223780D03*
X349520Y223780D03*
D14*
X522700Y513360D02*
X537940Y513360D01*
X537940Y538760D02*
X522700Y538760D01*
X522700Y564160D02*
X537940Y564160D01*
X537940Y589560D02*
X522700Y589560D01*
D28*
X294640Y388620D03*
D29*
X198120Y459740D03*
X198120Y485140D03*
X198120Y510540D03*
X198120Y535940D03*
X20320Y561340D03*
X20320Y535940D03*
X20320Y510540D03*
X20320Y485140D03*
X20320Y459740D03*
X20320Y434340D03*
D13*
X490220Y587400D03*
X490220Y606400D03*
D30*
X798820Y325660D03*
X791240Y354190D03*
D31*
X791240Y333240D01*
X798820Y325660D01*
D30*
X911400Y338160D03*
D31*
X888860Y338160D02*
X858860Y308160D01*
X888860Y338160D02*
X911400Y338160D01*
X858860Y308160D02*
X816320Y308160D01*
X798820Y325660D01*
D32*
X132400Y283320D02*
X44960Y283320D01*
D31*
X132400Y283320D02*
X133140Y282580D01*
D32*
X134410Y283850D02*
X163200Y283850D01*
D33*
X134410Y283850D02*
X133140Y282580D01*
D30*
X177800Y269240D03*
D33*
X177800Y226060D02*
X223520Y180340D01*
D30*
X223520Y180340D03*
D33*
X248920Y154940D01*
X248920Y101600D01*
X268198Y82322D01*
X327260Y82322D01*
D31*
X514960Y401880D02*
X514960Y424280D01*
D33*
X283870Y450120D02*
X283870Y497650D01*
X112640Y357940D02*
X47640Y357940D01*
X112640Y357940D02*
X121720Y357940D01*
X134620Y370840D02*
X160020Y370840D01*
X134620Y370840D02*
X121720Y357940D01*
D30*
X160020Y370840D03*
D33*
X273170Y439420D02*
X283870Y450120D01*
D30*
X180340Y439420D03*
D33*
X273170Y439420D01*
D31*
X479620Y470340D02*
X479620Y470560D01*
X479620Y470340D02*
X515620Y434340D01*
X515620Y424940D01*
X514960Y424280D01*
D30*
X454660Y449580D03*
D31*
X475640Y470560D02*
X479620Y470560D01*
X475640Y470560D02*
X454660Y449580D01*
X403880Y493370D02*
X384170Y513080D01*
X372160Y513080D01*
X358800Y499720D01*
X358800Y494640D01*
D33*
X493520Y83162D02*
X586082Y83162D01*
X599854Y96934D02*
X630668Y96934D01*
X599854Y96934D02*
X586082Y83162D01*
X967580Y71280D02*
X987030Y71280D01*
X967580Y71280D02*
X942340Y96520D01*
D30*
X402590Y515620D03*
D31*
X403880Y514330D01*
X403880Y493370D01*
X358800Y494640D02*
X358800Y455320D01*
X353060Y449580D01*
X353060Y421640D01*
D30*
X353060Y421640D03*
D31*
X514960Y401880D02*
X514960Y394360D01*
D34*
X536575Y372745D01*
X569595Y372745D02*
X591820Y350520D01*
X630254Y350520D01*
D31*
X630668Y350934D01*
D34*
X569595Y372745D02*
X536575Y372745D01*
D33*
X631082Y350520D02*
X739140Y350520D01*
X631082Y350520D02*
X630668Y350934D01*
D31*
X738726Y350934D02*
X739140Y350520D01*
D30*
X739140Y350520D03*
D31*
X787984Y350934D02*
X791240Y354190D01*
X787984Y350934D02*
X738726Y350934D01*
D30*
X815340Y647700D03*
D31*
X805180Y647700D01*
X777240Y675640D01*
D30*
X777240Y675640D03*
X822960Y698500D03*
D31*
X800100Y698500D01*
X777240Y675640D01*
X975520Y376080D02*
X987030Y376080D01*
X975520Y376080D02*
X937260Y337820D01*
X911740Y337820D01*
X911400Y338160D01*
D30*
X259080Y731520D03*
D33*
X180340Y439420D02*
X149860Y439420D01*
X133350Y439420D01*
X283870Y515430D02*
X306590Y538150D01*
X283870Y515430D02*
X283870Y497650D01*
D34*
X271780Y509740D01*
X271780Y553720D01*
D30*
X271780Y553720D03*
X340360Y538480D03*
D33*
X340030Y538150D02*
X306590Y538150D01*
D31*
X340030Y538150D02*
X340360Y538480D01*
D33*
X327260Y82322D02*
X408800Y82322D01*
D31*
X409740Y83262D01*
D33*
X493420Y83262D01*
D31*
X493520Y83162D01*
D34*
X346980Y729830D02*
X260770Y729830D01*
X259080Y731520D01*
D30*
X551180Y728980D03*
D34*
X443910Y728980D01*
X443740Y729150D01*
X347660Y729150D01*
X346980Y729830D01*
D30*
X358800Y494640D03*
D34*
X361340Y549060D02*
X350940Y549060D01*
X340360Y538480D01*
D33*
X62230Y510540D02*
X20320Y510540D01*
X62230Y510540D02*
X133350Y439420D01*
D30*
X202680Y700920D03*
D31*
X233280Y731520D01*
X259080Y731520D01*
X180340Y455290D02*
X180340Y439420D01*
D30*
X149860Y439420D03*
D33*
X177800Y269240D02*
X177800Y226060D01*
X177800Y269240D02*
X177800Y269250D01*
D32*
X163200Y283850D01*
D30*
X711200Y96520D03*
D33*
X631082Y96520D02*
X630668Y96934D01*
X631082Y96520D02*
X711200Y96520D01*
X942340Y96520D01*
D30*
X711200Y350520D03*
X134620Y116840D03*
D35*
X100280Y151180D01*
X60080Y151180D01*
D31*
X180340Y455290D02*
X160950Y474680D01*
X138760Y474680D01*
D30*
X226060Y297180D03*
D33*
X314960Y297180D01*
X368300Y297180D01*
X393700Y297180D01*
X452120Y297180D01*
X480060Y297180D01*
X535940Y297180D01*
D30*
X314960Y297180D03*
X368300Y297180D03*
X393700Y297180D03*
X452120Y297180D03*
X535940Y297180D03*
X480060Y297180D03*
X340360Y243840D03*
D31*
X349520Y234680D01*
X349520Y223780D01*
X434300Y220320D02*
X434300Y228640D01*
X426720Y236220D01*
D30*
X426720Y236220D03*
X518160Y226060D03*
D31*
X518160Y209240D01*
X519700Y207700D01*
D34*
X495960Y401880D02*
X495960Y424280D01*
D30*
X474980Y403860D03*
D31*
X476960Y401880D01*
D34*
X495960Y401880D01*
D30*
X488950Y513080D03*
D31*
X444500Y495300D02*
X424810Y495300D01*
X403880Y474370D01*
D30*
X381000Y500380D03*
D31*
X401025Y477225D02*
X403880Y474370D01*
X401025Y474685D02*
X381000Y494710D01*
X381000Y500380D01*
D30*
X370840Y434340D03*
D31*
X401025Y464525D01*
X401025Y474685D01*
X401025Y477225D01*
D30*
X576580Y538480D03*
D31*
X530600Y538480D01*
X530320Y538760D01*
D30*
X505460Y370840D03*
D34*
X495960Y380340D02*
X495960Y401880D01*
X495960Y380340D02*
X505460Y370840D01*
D30*
X599440Y406400D03*
D31*
X684530Y406400D01*
X707390Y429260D01*
X707390Y456452D01*
X707112Y456730D01*
D30*
X219710Y546100D03*
D31*
X212090Y553720D01*
X121920Y553720D01*
X120650Y554990D01*
D30*
X120650Y554990D03*
D31*
X479620Y503750D02*
X488950Y513080D01*
X479620Y503750D02*
X479620Y489560D01*
X101600Y535940D02*
X20320Y535940D01*
X101600Y535940D02*
X120650Y554990D01*
D30*
X457200Y490220D03*
D31*
X457860Y489560D01*
X479620Y489560D01*
D30*
X459740Y467360D03*
D31*
X457200Y469900D01*
X457200Y490220D01*
X449580Y490220D02*
X444500Y495300D01*
X449580Y490220D02*
X457200Y490220D01*
D35*
X490220Y606400D02*
X498500Y606400D01*
X505460Y599440D01*
X505460Y551180D01*
X518160Y538480D01*
X530600Y538480D01*
D30*
X932180Y398780D03*
D31*
X912540Y379140D02*
X885560Y379140D01*
X912540Y379140D02*
X932180Y398780D01*
X931440Y297160D02*
X937240Y297160D01*
X955040Y314960D01*
D30*
X955040Y314960D03*
X274320Y215900D03*
D33*
X304800Y215900D01*
X327260Y193440D01*
D31*
X324960Y174840D02*
X337860Y174840D01*
X358560Y154140D01*
X362358Y157938D01*
X409740Y157938D01*
X437662Y157938D01*
X442710Y152890D01*
X444500Y152890D01*
X447790Y157970D02*
X493388Y157970D01*
X447790Y157970D02*
X442710Y152890D01*
X493388Y157970D02*
X493520Y157838D01*
X495300Y157838D01*
X519882Y157838D01*
X527060Y150660D01*
X500540Y170340D02*
X500540Y181600D01*
X495300Y165100D02*
X495300Y157838D01*
X495300Y165100D02*
X500540Y170340D01*
X444500Y154420D02*
X417340Y181580D01*
X444500Y154420D02*
X444500Y152890D01*
D33*
X327260Y177140D02*
X327260Y193440D01*
D31*
X327260Y177140D02*
X324960Y174840D01*
X324960Y159298D01*
X327260Y156998D01*
X181260Y493680D02*
X160950Y493680D01*
X181260Y493680D02*
X198120Y510540D01*
X138760Y496900D02*
X138760Y493680D01*
X149860Y508000D02*
X170180Y508000D01*
X198120Y535940D01*
X149860Y508000D02*
X138760Y496900D01*
D30*
X261620Y704850D03*
D31*
X346892Y704850D02*
X346980Y704938D01*
X346892Y704850D02*
X261620Y704850D01*
D30*
X261620Y650240D03*
D31*
X262890Y648970D01*
X262890Y605790D01*
X220980Y563880D01*
X168910Y563880D01*
D30*
X111760Y515620D03*
X168910Y563880D03*
D31*
X163830Y523240D02*
X156210Y515620D01*
X111760Y515620D01*
D30*
X163830Y523240D03*
X231770Y641080D03*
D31*
X231770Y603890D01*
X237490Y598170D01*
D30*
X237490Y598170D03*
X237490Y513080D03*
D31*
X209550Y485140D01*
X198120Y485140D01*
D30*
X198120Y675640D03*
D31*
X297180Y675640D01*
D30*
X297180Y675640D03*
X254000Y528320D03*
D31*
X254000Y508000D01*
X205740Y459740D01*
X198120Y459740D01*
D30*
X147160Y689100D03*
X309880Y688340D03*
D31*
X147920Y688340D01*
X147160Y689100D01*
X147160Y680560D01*
X48260Y581660D01*
X48260Y551180D01*
D30*
X48260Y551180D03*
X167430Y666670D03*
D31*
X171500Y662600D02*
X321914Y662600D01*
X339360Y680046D02*
X346980Y680046D01*
X339360Y680046D02*
X321914Y662600D01*
D30*
X76200Y551180D03*
D31*
X171500Y662600D02*
X167430Y666670D01*
X76200Y575440D02*
X76200Y551180D01*
X76200Y575440D02*
X167430Y666670D01*
D30*
X899160Y546100D03*
D31*
X921320Y565880D02*
X921320Y570960D01*
X921320Y565880D02*
X901540Y546100D01*
X899160Y546100D01*
D30*
X800100Y546100D03*
D31*
X792920Y546100D01*
X773140Y565880D01*
X823500Y633220D02*
X853060Y633220D01*
D30*
X823500Y633220D03*
D31*
X853060Y633220D02*
X868680Y648840D01*
X868680Y703580D01*
D30*
X868680Y703580D03*
D31*
X753140Y560800D02*
X780540Y533400D01*
X753140Y560800D02*
X753140Y565880D01*
X780540Y533400D02*
X916940Y533400D01*
X941320Y557780D02*
X941320Y570960D01*
X941320Y557780D02*
X916940Y533400D01*
X823500Y633220D02*
X814400Y633220D01*
D30*
X904240Y673100D03*
D31*
X904240Y685800D01*
X886460Y703580D01*
X868680Y703580D01*
X753140Y571960D02*
X753140Y565880D01*
X753140Y571960D02*
X814400Y633220D01*
X736600Y621520D02*
X688620Y669500D01*
X736600Y621520D02*
X736600Y574040D01*
X744760Y565880D01*
X753140Y565880D01*
D30*
X342900Y264160D03*
D31*
X353060Y254000D01*
X353060Y238760D01*
X368040Y223780D01*
X368520Y223780D01*
D30*
X396240Y398780D03*
X436880Y445770D03*
D31*
X436880Y439420D01*
X396240Y398780D01*
D30*
X342900Y332740D03*
X546100Y408940D03*
D31*
X627380Y490220D01*
X662940Y490220D01*
X682840Y510120D01*
X682840Y534120D01*
D30*
X405435Y549060D03*
D31*
X380340Y549060D01*
X303210Y497990D02*
X302870Y497650D01*
X303210Y497990D02*
X320520Y497990D01*
X320130Y450120D02*
X320520Y449730D01*
X320130Y450120D02*
X302870Y450120D01*
D30*
X520700Y459740D03*
D31*
X520700Y474980D01*
X502920Y492760D01*
X502920Y520700D01*
X451270Y572350D01*
X380000Y572350D01*
X346980Y605370D01*
D30*
X533400Y472440D03*
D31*
X509270Y496570D01*
X509270Y524510D01*
X451778Y582002D01*
X395240Y582002D01*
X346980Y630262D01*
D33*
X225400Y91160D02*
X225400Y59500D01*
D31*
X227440Y57460D01*
D33*
X203200Y87960D02*
X206400Y91160D01*
X203200Y87960D02*
X203200Y58220D01*
X202440Y57460D01*
D30*
X546100Y386080D03*
D31*
X586105Y421640D01*
X668020Y421640D01*
X682220Y435840D01*
X682220Y456730D01*
D30*
X842940Y371320D03*
X741680Y269240D03*
D31*
X636162Y269240D01*
X630668Y274734D01*
X868460Y195860D02*
X868460Y185200D01*
X853440Y170180D01*
X728980Y170180D01*
X675226Y223934D02*
X630668Y223934D01*
X675226Y223934D02*
X728980Y170180D01*
D30*
X716280Y604520D03*
D31*
X716280Y624840D01*
X697020Y644100D01*
X688620Y644100D01*
D33*
X112640Y402940D02*
X47640Y402940D01*
D30*
X137160Y424180D03*
X424180Y482600D03*
D31*
X424180Y467360D01*
X345440Y388620D01*
X294640Y388620D02*
X170180Y388620D01*
X294640Y388620D02*
X345440Y388620D01*
X170180Y388620D02*
X137160Y421640D01*
X137160Y424180D01*
D32*
X132000Y258320D02*
X44960Y258320D01*
D31*
X132000Y258320D02*
X133140Y257180D01*
D30*
X378460Y195580D03*
D31*
X392460Y181580D01*
X397020Y181580D01*
X442710Y132570D02*
X442090Y131950D01*
X418294Y108154D01*
X409740Y108154D01*
X443800Y181040D02*
X443800Y200320D01*
X443800Y181040D02*
X444500Y180340D01*
D30*
X444500Y180340D03*
X444500Y111760D03*
D31*
X444500Y129540D01*
X442090Y131950D01*
D30*
X467360Y332740D03*
D31*
X471160Y181600D02*
X480220Y181600D01*
X471160Y181600D02*
X459740Y170180D01*
D30*
X459740Y170180D03*
D31*
X504774Y108054D02*
X527060Y130340D01*
X504774Y108054D02*
X493520Y108054D01*
X529200Y176920D02*
X529200Y187700D01*
X529200Y176920D02*
X539280Y166840D01*
X539280Y142560D01*
X527060Y130340D01*
D30*
X381000Y332740D03*
X285750Y332740D03*
X299720Y195580D03*
D31*
X304640Y190660D01*
X304640Y174840D01*
X304640Y154726D01*
X327260Y132106D01*
X357480Y132740D02*
X358560Y133820D01*
X357480Y132740D02*
X331954Y107214D01*
X327260Y107214D01*
X359020Y181220D02*
X359020Y203780D01*
X359020Y181220D02*
X358140Y180340D01*
D30*
X358140Y180340D03*
X358140Y111760D03*
D31*
X358140Y132080D01*
X357480Y132740D01*
D30*
X396240Y419100D03*
X426720Y457200D03*
D31*
X426720Y449580D02*
X396240Y419100D01*
X426720Y449580D02*
X426720Y457200D01*
D30*
X307340Y332740D03*
X851360Y321160D03*
D31*
X831040Y321160D01*
X813860Y338340D01*
X813860Y365380D02*
X803900Y375340D01*
X813860Y365380D02*
X813860Y338340D01*
D30*
X791220Y375340D03*
D31*
X865560Y379140D02*
X865560Y358220D01*
X851360Y344020D01*
X851360Y321160D01*
D30*
X899160Y284480D03*
D35*
X906480Y277160D01*
X931440Y277160D01*
D31*
X926360Y272080D01*
X926360Y261920D01*
X900940Y236500D01*
X871000Y236500D01*
X843060Y208560D01*
X843060Y195860D01*
D30*
X675640Y375920D03*
X695960Y121920D03*
D35*
X986870Y121920D01*
D31*
X987030Y122080D01*
D35*
X959520Y249080D02*
X931440Y277160D01*
X959520Y249080D02*
X987030Y249080D01*
D31*
X803900Y375340D02*
X791220Y375340D01*
D35*
X675640Y375920D02*
X675226Y376334D01*
X630668Y376334D01*
D30*
X427990Y269240D03*
D31*
X429260Y267970D01*
X429260Y248920D01*
X453300Y224880D02*
X453300Y220320D01*
X453300Y224880D02*
X429260Y248920D01*
D30*
X427990Y332740D03*
X551180Y223520D03*
D31*
X551180Y220180D01*
X538700Y207700D01*
D30*
X492760Y332740D03*
X421640Y556260D03*
X433070Y544830D03*
X444500Y556260D03*
X490220Y563880D03*
D35*
X490220Y587400D01*
M02*
