G04 EAGLE Gerber RS-274X export*
G75*
%MOMM*%
%FSLAX34Y34*%
%LPD*%
%IN*%
%IPPOS*%
%AMOC8*
5,1,8,0,0,1.08239X$1,22.5*%
G01*
%ADD10C,0.254000*%


D10*
X0Y0D02*
X1016000Y0D01*
X1016000Y762000D01*
X0Y762000D01*
X0Y0D01*
X46355Y728460D02*
X46287Y727423D01*
X46151Y726393D01*
X45949Y725373D01*
X45680Y724369D01*
X45345Y723385D01*
X44948Y722425D01*
X44488Y721493D01*
X43968Y720592D01*
X43391Y719728D01*
X42758Y718904D01*
X42073Y718122D01*
X41338Y717387D01*
X40556Y716702D01*
X39732Y716069D01*
X38868Y715492D01*
X37967Y714972D01*
X37035Y714512D01*
X36075Y714115D01*
X35091Y713780D01*
X34087Y713511D01*
X33067Y713309D01*
X32037Y713173D01*
X31000Y713105D01*
X29960Y713105D01*
X28923Y713173D01*
X27893Y713309D01*
X26873Y713511D01*
X25869Y713780D01*
X24885Y714115D01*
X23925Y714512D01*
X22993Y714972D01*
X22092Y715492D01*
X21228Y716069D01*
X20404Y716702D01*
X19622Y717387D01*
X18887Y718122D01*
X18202Y718904D01*
X17569Y719728D01*
X16992Y720592D01*
X16472Y721493D01*
X16012Y722425D01*
X15615Y723385D01*
X15280Y724369D01*
X15011Y725373D01*
X14809Y726393D01*
X14673Y727423D01*
X14605Y728460D01*
X14605Y729500D01*
X14673Y730537D01*
X14809Y731567D01*
X15011Y732587D01*
X15280Y733591D01*
X15615Y734575D01*
X16012Y735535D01*
X16472Y736467D01*
X16992Y737368D01*
X17569Y738232D01*
X18202Y739056D01*
X18887Y739838D01*
X19622Y740573D01*
X20404Y741258D01*
X21228Y741891D01*
X22092Y742468D01*
X22993Y742988D01*
X23925Y743448D01*
X24885Y743845D01*
X25869Y744180D01*
X26873Y744449D01*
X27893Y744651D01*
X28923Y744787D01*
X29960Y744855D01*
X31000Y744855D01*
X32037Y744787D01*
X33067Y744651D01*
X34087Y744449D01*
X35091Y744180D01*
X36075Y743845D01*
X37035Y743448D01*
X37967Y742988D01*
X38868Y742468D01*
X39732Y741891D01*
X40556Y741258D01*
X41338Y740573D01*
X42073Y739838D01*
X42758Y739056D01*
X43391Y738232D01*
X43968Y737368D01*
X44488Y736467D01*
X44948Y735535D01*
X45345Y734575D01*
X45680Y733591D01*
X45949Y732587D01*
X46151Y731567D01*
X46287Y730537D01*
X46355Y729500D01*
X46355Y728460D01*
X53975Y35040D02*
X53907Y34003D01*
X53771Y32973D01*
X53569Y31953D01*
X53300Y30949D01*
X52965Y29965D01*
X52568Y29005D01*
X52108Y28073D01*
X51588Y27172D01*
X51011Y26308D01*
X50378Y25484D01*
X49693Y24702D01*
X48958Y23967D01*
X48176Y23282D01*
X47352Y22649D01*
X46488Y22072D01*
X45587Y21552D01*
X44655Y21092D01*
X43695Y20695D01*
X42711Y20360D01*
X41707Y20091D01*
X40687Y19889D01*
X39657Y19753D01*
X38620Y19685D01*
X37580Y19685D01*
X36543Y19753D01*
X35513Y19889D01*
X34493Y20091D01*
X33489Y20360D01*
X32505Y20695D01*
X31545Y21092D01*
X30613Y21552D01*
X29712Y22072D01*
X28848Y22649D01*
X28024Y23282D01*
X27242Y23967D01*
X26507Y24702D01*
X25822Y25484D01*
X25189Y26308D01*
X24612Y27172D01*
X24092Y28073D01*
X23632Y29005D01*
X23235Y29965D01*
X22900Y30949D01*
X22631Y31953D01*
X22429Y32973D01*
X22293Y34003D01*
X22225Y35040D01*
X22225Y36080D01*
X22293Y37117D01*
X22429Y38147D01*
X22631Y39167D01*
X22900Y40171D01*
X23235Y41155D01*
X23632Y42115D01*
X24092Y43047D01*
X24612Y43948D01*
X25189Y44812D01*
X25822Y45636D01*
X26507Y46418D01*
X27242Y47153D01*
X28024Y47838D01*
X28848Y48471D01*
X29712Y49048D01*
X30613Y49568D01*
X31545Y50028D01*
X32505Y50425D01*
X33489Y50760D01*
X34493Y51029D01*
X35513Y51231D01*
X36543Y51367D01*
X37580Y51435D01*
X38620Y51435D01*
X39657Y51367D01*
X40687Y51231D01*
X41707Y51029D01*
X42711Y50760D01*
X43695Y50425D01*
X44655Y50028D01*
X45587Y49568D01*
X46488Y49048D01*
X47352Y48471D01*
X48176Y47838D01*
X48958Y47153D01*
X49693Y46418D01*
X50378Y45636D01*
X51011Y44812D01*
X51588Y43948D01*
X52108Y43047D01*
X52568Y42115D01*
X52965Y41155D01*
X53300Y40171D01*
X53569Y39167D01*
X53771Y38147D01*
X53907Y37117D01*
X53975Y36080D01*
X53975Y35040D01*
X927735Y42660D02*
X927667Y41623D01*
X927531Y40593D01*
X927329Y39573D01*
X927060Y38569D01*
X926725Y37585D01*
X926328Y36625D01*
X925868Y35693D01*
X925348Y34792D01*
X924771Y33928D01*
X924138Y33104D01*
X923453Y32322D01*
X922718Y31587D01*
X921936Y30902D01*
X921112Y30269D01*
X920248Y29692D01*
X919347Y29172D01*
X918415Y28712D01*
X917455Y28315D01*
X916471Y27980D01*
X915467Y27711D01*
X914447Y27509D01*
X913417Y27373D01*
X912380Y27305D01*
X911340Y27305D01*
X910303Y27373D01*
X909273Y27509D01*
X908253Y27711D01*
X907249Y27980D01*
X906265Y28315D01*
X905305Y28712D01*
X904373Y29172D01*
X903472Y29692D01*
X902608Y30269D01*
X901784Y30902D01*
X901002Y31587D01*
X900267Y32322D01*
X899582Y33104D01*
X898949Y33928D01*
X898372Y34792D01*
X897852Y35693D01*
X897392Y36625D01*
X896995Y37585D01*
X896660Y38569D01*
X896391Y39573D01*
X896189Y40593D01*
X896053Y41623D01*
X895985Y42660D01*
X895985Y43700D01*
X896053Y44737D01*
X896189Y45767D01*
X896391Y46787D01*
X896660Y47791D01*
X896995Y48775D01*
X897392Y49735D01*
X897852Y50667D01*
X898372Y51568D01*
X898949Y52432D01*
X899582Y53256D01*
X900267Y54038D01*
X901002Y54773D01*
X901784Y55458D01*
X902608Y56091D01*
X903472Y56668D01*
X904373Y57188D01*
X905305Y57648D01*
X906265Y58045D01*
X907249Y58380D01*
X908253Y58649D01*
X909273Y58851D01*
X910303Y58987D01*
X911340Y59055D01*
X912380Y59055D01*
X913417Y58987D01*
X914447Y58851D01*
X915467Y58649D01*
X916471Y58380D01*
X917455Y58045D01*
X918415Y57648D01*
X919347Y57188D01*
X920248Y56668D01*
X921112Y56091D01*
X921936Y55458D01*
X922718Y54773D01*
X923453Y54038D01*
X924138Y53256D01*
X924771Y52432D01*
X925348Y51568D01*
X925868Y50667D01*
X926328Y49735D01*
X926725Y48775D01*
X927060Y47791D01*
X927329Y46787D01*
X927531Y45767D01*
X927667Y44737D01*
X927735Y43700D01*
X927735Y42660D01*
X996315Y731000D02*
X996247Y729963D01*
X996111Y728933D01*
X995909Y727913D01*
X995640Y726909D01*
X995305Y725925D01*
X994908Y724965D01*
X994448Y724033D01*
X993928Y723132D01*
X993351Y722268D01*
X992718Y721444D01*
X992033Y720662D01*
X991298Y719927D01*
X990516Y719242D01*
X989692Y718609D01*
X988828Y718032D01*
X987927Y717512D01*
X986995Y717052D01*
X986035Y716655D01*
X985051Y716320D01*
X984047Y716051D01*
X983027Y715849D01*
X981997Y715713D01*
X980960Y715645D01*
X979920Y715645D01*
X978883Y715713D01*
X977853Y715849D01*
X976833Y716051D01*
X975829Y716320D01*
X974845Y716655D01*
X973885Y717052D01*
X972953Y717512D01*
X972052Y718032D01*
X971188Y718609D01*
X970364Y719242D01*
X969582Y719927D01*
X968847Y720662D01*
X968162Y721444D01*
X967529Y722268D01*
X966952Y723132D01*
X966432Y724033D01*
X965972Y724965D01*
X965575Y725925D01*
X965240Y726909D01*
X964971Y727913D01*
X964769Y728933D01*
X964633Y729963D01*
X964565Y731000D01*
X964565Y732040D01*
X964633Y733077D01*
X964769Y734107D01*
X964971Y735127D01*
X965240Y736131D01*
X965575Y737115D01*
X965972Y738075D01*
X966432Y739007D01*
X966952Y739908D01*
X967529Y740772D01*
X968162Y741596D01*
X968847Y742378D01*
X969582Y743113D01*
X970364Y743798D01*
X971188Y744431D01*
X972052Y745008D01*
X972953Y745528D01*
X973885Y745988D01*
X974845Y746385D01*
X975829Y746720D01*
X976833Y746989D01*
X977853Y747191D01*
X978883Y747327D01*
X979920Y747395D01*
X980960Y747395D01*
X981997Y747327D01*
X983027Y747191D01*
X984047Y746989D01*
X985051Y746720D01*
X986035Y746385D01*
X986995Y745988D01*
X987927Y745528D01*
X988828Y745008D01*
X989692Y744431D01*
X990516Y743798D01*
X991298Y743113D01*
X992033Y742378D01*
X992718Y741596D01*
X993351Y740772D01*
X993928Y739908D01*
X994448Y739007D01*
X994908Y738075D01*
X995305Y737115D01*
X995640Y736131D01*
X995909Y735127D01*
X996111Y734107D01*
X996247Y733077D01*
X996315Y732040D01*
X996315Y731000D01*
X554355Y342380D02*
X554287Y341343D01*
X554151Y340313D01*
X553949Y339293D01*
X553680Y338289D01*
X553345Y337305D01*
X552948Y336345D01*
X552488Y335413D01*
X551968Y334512D01*
X551391Y333648D01*
X550758Y332824D01*
X550073Y332042D01*
X549338Y331307D01*
X548556Y330622D01*
X547732Y329989D01*
X546868Y329412D01*
X545967Y328892D01*
X545035Y328432D01*
X544075Y328035D01*
X543091Y327700D01*
X542087Y327431D01*
X541067Y327229D01*
X540037Y327093D01*
X539000Y327025D01*
X537960Y327025D01*
X536923Y327093D01*
X535893Y327229D01*
X534873Y327431D01*
X533869Y327700D01*
X532885Y328035D01*
X531925Y328432D01*
X530993Y328892D01*
X530092Y329412D01*
X529228Y329989D01*
X528404Y330622D01*
X527622Y331307D01*
X526887Y332042D01*
X526202Y332824D01*
X525569Y333648D01*
X524992Y334512D01*
X524472Y335413D01*
X524012Y336345D01*
X523615Y337305D01*
X523280Y338289D01*
X523011Y339293D01*
X522809Y340313D01*
X522673Y341343D01*
X522605Y342380D01*
X522605Y343420D01*
X522673Y344457D01*
X522809Y345487D01*
X523011Y346507D01*
X523280Y347511D01*
X523615Y348495D01*
X524012Y349455D01*
X524472Y350387D01*
X524992Y351288D01*
X525569Y352152D01*
X526202Y352976D01*
X526887Y353758D01*
X527622Y354493D01*
X528404Y355178D01*
X529228Y355811D01*
X530092Y356388D01*
X530993Y356908D01*
X531925Y357368D01*
X532885Y357765D01*
X533869Y358100D01*
X534873Y358369D01*
X535893Y358571D01*
X536923Y358707D01*
X537960Y358775D01*
X539000Y358775D01*
X540037Y358707D01*
X541067Y358571D01*
X542087Y358369D01*
X543091Y358100D01*
X544075Y357765D01*
X545035Y357368D01*
X545967Y356908D01*
X546868Y356388D01*
X547732Y355811D01*
X548556Y355178D01*
X549338Y354493D01*
X550073Y353758D01*
X550758Y352976D01*
X551391Y352152D01*
X551968Y351288D01*
X552488Y350387D01*
X552948Y349455D01*
X553345Y348495D01*
X553680Y347511D01*
X553949Y346507D01*
X554151Y345487D01*
X554287Y344457D01*
X554355Y343420D01*
X554355Y342380D01*
X959281Y449900D02*
X959839Y449837D01*
X960386Y449712D01*
X960916Y449527D01*
X961422Y449283D01*
X961898Y448984D01*
X962337Y448634D01*
X962734Y448237D01*
X963084Y447798D01*
X963383Y447322D01*
X963627Y446816D01*
X963812Y446286D01*
X963937Y445739D01*
X964000Y445181D01*
X964000Y444619D01*
X963937Y444061D01*
X963812Y443514D01*
X963627Y442984D01*
X963383Y442478D01*
X963084Y442002D01*
X962734Y441563D01*
X962337Y441166D01*
X961898Y440816D01*
X961422Y440517D01*
X960916Y440273D01*
X960386Y440088D01*
X959839Y439963D01*
X959281Y439900D01*
X958719Y439900D01*
X958161Y439963D01*
X957614Y440088D01*
X957084Y440273D01*
X956578Y440517D01*
X956102Y440816D01*
X955663Y441166D01*
X955266Y441563D01*
X954916Y442002D01*
X954617Y442478D01*
X954373Y442984D01*
X954188Y443514D01*
X954063Y444061D01*
X954000Y444619D01*
X954000Y445181D01*
X954063Y445739D01*
X954188Y446286D01*
X954373Y446816D01*
X954617Y447322D01*
X954916Y447798D01*
X955266Y448237D01*
X955663Y448634D01*
X956102Y448984D01*
X956578Y449283D01*
X957084Y449527D01*
X957614Y449712D01*
X958161Y449837D01*
X958719Y449900D01*
X959281Y449900D01*
X959281Y493900D02*
X959839Y493837D01*
X960386Y493712D01*
X960916Y493527D01*
X961422Y493283D01*
X961898Y492984D01*
X962337Y492634D01*
X962734Y492237D01*
X963084Y491798D01*
X963383Y491322D01*
X963627Y490816D01*
X963812Y490286D01*
X963937Y489739D01*
X964000Y489181D01*
X964000Y488619D01*
X963937Y488061D01*
X963812Y487514D01*
X963627Y486984D01*
X963383Y486478D01*
X963084Y486002D01*
X962734Y485563D01*
X962337Y485166D01*
X961898Y484816D01*
X961422Y484517D01*
X960916Y484273D01*
X960386Y484088D01*
X959839Y483963D01*
X959281Y483900D01*
X958719Y483900D01*
X958161Y483963D01*
X957614Y484088D01*
X957084Y484273D01*
X956578Y484517D01*
X956102Y484816D01*
X955663Y485166D01*
X955266Y485563D01*
X954916Y486002D01*
X954617Y486478D01*
X954373Y486984D01*
X954188Y487514D01*
X954063Y488061D01*
X954000Y488619D01*
X954000Y489181D01*
X954063Y489739D01*
X954188Y490286D01*
X954373Y490816D01*
X954617Y491322D01*
X954916Y491798D01*
X955266Y492237D01*
X955663Y492634D01*
X956102Y492984D01*
X956578Y493283D01*
X957084Y493527D01*
X957614Y493712D01*
X958161Y493837D01*
X958719Y493900D01*
X959281Y493900D01*
X959281Y628460D02*
X959839Y628397D01*
X960386Y628272D01*
X960916Y628087D01*
X961422Y627843D01*
X961898Y627544D01*
X962337Y627194D01*
X962734Y626797D01*
X963084Y626358D01*
X963383Y625882D01*
X963627Y625376D01*
X963812Y624846D01*
X963937Y624299D01*
X964000Y623741D01*
X964000Y623179D01*
X963937Y622621D01*
X963812Y622074D01*
X963627Y621544D01*
X963383Y621038D01*
X963084Y620562D01*
X962734Y620123D01*
X962337Y619726D01*
X961898Y619376D01*
X961422Y619077D01*
X960916Y618833D01*
X960386Y618648D01*
X959839Y618523D01*
X959281Y618460D01*
X958719Y618460D01*
X958161Y618523D01*
X957614Y618648D01*
X957084Y618833D01*
X956578Y619077D01*
X956102Y619376D01*
X955663Y619726D01*
X955266Y620123D01*
X954916Y620562D01*
X954617Y621038D01*
X954373Y621544D01*
X954188Y622074D01*
X954063Y622621D01*
X954000Y623179D01*
X954000Y623741D01*
X954063Y624299D01*
X954188Y624846D01*
X954373Y625376D01*
X954617Y625882D01*
X954916Y626358D01*
X955266Y626797D01*
X955663Y627194D01*
X956102Y627544D01*
X956578Y627843D01*
X957084Y628087D01*
X957614Y628272D01*
X958161Y628397D01*
X958719Y628460D01*
X959281Y628460D01*
X959281Y672460D02*
X959839Y672397D01*
X960386Y672272D01*
X960916Y672087D01*
X961422Y671843D01*
X961898Y671544D01*
X962337Y671194D01*
X962734Y670797D01*
X963084Y670358D01*
X963383Y669882D01*
X963627Y669376D01*
X963812Y668846D01*
X963937Y668299D01*
X964000Y667741D01*
X964000Y667179D01*
X963937Y666621D01*
X963812Y666074D01*
X963627Y665544D01*
X963383Y665038D01*
X963084Y664562D01*
X962734Y664123D01*
X962337Y663726D01*
X961898Y663376D01*
X961422Y663077D01*
X960916Y662833D01*
X960386Y662648D01*
X959839Y662523D01*
X959281Y662460D01*
X958719Y662460D01*
X958161Y662523D01*
X957614Y662648D01*
X957084Y662833D01*
X956578Y663077D01*
X956102Y663376D01*
X955663Y663726D01*
X955266Y664123D01*
X954916Y664562D01*
X954617Y665038D01*
X954373Y665544D01*
X954188Y666074D01*
X954063Y666621D01*
X954000Y667179D01*
X954000Y667741D01*
X954063Y668299D01*
X954188Y668846D01*
X954373Y669376D01*
X954617Y669882D01*
X954916Y670358D01*
X955266Y670797D01*
X955663Y671194D01*
X956102Y671544D01*
X956578Y671843D01*
X957084Y672087D01*
X957614Y672272D01*
X958161Y672397D01*
X958719Y672460D01*
X959281Y672460D01*
M02*
