G04 EAGLE Gerber RS-274X export*
G75*
%MOMM*%
%FSLAX34Y34*%
%LPD*%
%INSilkscreen Top*%
%IPPOS*%
%AMOC8*
5,1,8,0,0,1.08239X$1,22.5*%
G01*
%ADD10C,0.228600*%
%ADD11C,0.127000*%
%ADD12C,0.203200*%
%ADD13C,0.884400*%
%ADD14C,0.076200*%
%ADD15R,0.150000X0.300000*%
%ADD16R,0.300000X0.300000*%
%ADD17C,0.101600*%
%ADD18R,0.650000X1.400000*%
%ADD19C,0.350000*%
%ADD20C,0.304800*%
%ADD21C,0.025400*%
%ADD22C,0.152400*%
%ADD23R,0.300000X0.150000*%
%ADD24R,1.400000X0.650000*%
%ADD25C,0.254000*%
%ADD26C,0.200000*%
%ADD27C,0.406400*%
%ADD28C,0.220000*%
%ADD29C,0.508000*%
%ADD30R,1.270000X1.905000*%
%ADD31R,0.762000X1.778000*%
%ADD32R,1.270000X0.762000*%
%ADD33C,0.000000*%


D10*
X747988Y516763D02*
X741553Y516763D01*
X741553Y531241D01*
X747988Y531241D01*
X746379Y524806D02*
X741553Y524806D01*
X757066Y516763D02*
X760283Y516763D01*
X757066Y516763D02*
X756954Y516765D01*
X756842Y516771D01*
X756730Y516781D01*
X756618Y516794D01*
X756507Y516812D01*
X756397Y516833D01*
X756288Y516859D01*
X756179Y516888D01*
X756072Y516920D01*
X755966Y516957D01*
X755861Y516997D01*
X755758Y517041D01*
X755656Y517089D01*
X755556Y517140D01*
X755458Y517194D01*
X755361Y517252D01*
X755267Y517313D01*
X755175Y517377D01*
X755085Y517445D01*
X754998Y517516D01*
X754913Y517589D01*
X754831Y517666D01*
X754752Y517745D01*
X754675Y517827D01*
X754602Y517912D01*
X754531Y517999D01*
X754463Y518089D01*
X754399Y518181D01*
X754338Y518275D01*
X754280Y518372D01*
X754226Y518470D01*
X754175Y518570D01*
X754127Y518672D01*
X754083Y518775D01*
X754043Y518880D01*
X754006Y518986D01*
X753974Y519093D01*
X753945Y519202D01*
X753919Y519311D01*
X753898Y519421D01*
X753880Y519532D01*
X753867Y519644D01*
X753857Y519756D01*
X753851Y519868D01*
X753849Y519980D01*
X753848Y519980D02*
X753848Y528024D01*
X753849Y528024D02*
X753851Y528136D01*
X753857Y528248D01*
X753867Y528360D01*
X753880Y528472D01*
X753898Y528583D01*
X753919Y528693D01*
X753945Y528802D01*
X753974Y528911D01*
X754006Y529018D01*
X754043Y529124D01*
X754083Y529229D01*
X754127Y529332D01*
X754175Y529434D01*
X754226Y529534D01*
X754280Y529632D01*
X754338Y529729D01*
X754399Y529823D01*
X754463Y529915D01*
X754531Y530005D01*
X754602Y530092D01*
X754675Y530177D01*
X754752Y530259D01*
X754831Y530338D01*
X754913Y530415D01*
X754998Y530488D01*
X755085Y530559D01*
X755175Y530627D01*
X755267Y530691D01*
X755361Y530752D01*
X755457Y530810D01*
X755556Y530864D01*
X755656Y530915D01*
X755758Y530963D01*
X755861Y531007D01*
X755966Y531047D01*
X756072Y531084D01*
X756179Y531116D01*
X756288Y531145D01*
X756397Y531171D01*
X756507Y531192D01*
X756618Y531210D01*
X756730Y531223D01*
X756842Y531233D01*
X756954Y531239D01*
X757066Y531241D01*
X760283Y531241D01*
X766825Y516763D02*
X773259Y516763D01*
X766825Y516763D02*
X766825Y531241D01*
X773259Y531241D01*
X771651Y524806D02*
X766825Y524806D01*
X779174Y519980D02*
X782391Y531241D01*
X779174Y519980D02*
X787217Y519980D01*
X784804Y516763D02*
X784804Y523198D01*
X794040Y529632D02*
X794040Y531241D01*
X802083Y531241D01*
X798061Y516763D01*
X808905Y529632D02*
X808905Y531241D01*
X816949Y531241D01*
X812927Y516763D01*
X837825Y524806D02*
X840238Y524806D01*
X840238Y516763D01*
X835412Y516763D01*
X835300Y516765D01*
X835188Y516771D01*
X835076Y516781D01*
X834964Y516794D01*
X834853Y516812D01*
X834743Y516833D01*
X834634Y516859D01*
X834525Y516888D01*
X834418Y516920D01*
X834312Y516957D01*
X834207Y516997D01*
X834104Y517041D01*
X834002Y517089D01*
X833902Y517140D01*
X833804Y517194D01*
X833707Y517252D01*
X833613Y517313D01*
X833521Y517377D01*
X833431Y517445D01*
X833344Y517516D01*
X833259Y517589D01*
X833177Y517666D01*
X833098Y517745D01*
X833021Y517827D01*
X832948Y517912D01*
X832877Y517999D01*
X832809Y518089D01*
X832745Y518181D01*
X832684Y518275D01*
X832626Y518372D01*
X832572Y518470D01*
X832521Y518570D01*
X832473Y518672D01*
X832429Y518775D01*
X832389Y518880D01*
X832352Y518986D01*
X832320Y519093D01*
X832291Y519202D01*
X832265Y519311D01*
X832244Y519421D01*
X832226Y519532D01*
X832213Y519644D01*
X832203Y519756D01*
X832197Y519868D01*
X832195Y519980D01*
X832195Y528024D01*
X832197Y528136D01*
X832203Y528248D01*
X832213Y528360D01*
X832226Y528472D01*
X832244Y528583D01*
X832265Y528693D01*
X832291Y528802D01*
X832320Y528911D01*
X832352Y529018D01*
X832389Y529124D01*
X832429Y529229D01*
X832473Y529332D01*
X832521Y529434D01*
X832572Y529534D01*
X832626Y529632D01*
X832684Y529729D01*
X832745Y529823D01*
X832809Y529915D01*
X832877Y530005D01*
X832948Y530092D01*
X833021Y530177D01*
X833098Y530259D01*
X833177Y530338D01*
X833259Y530415D01*
X833344Y530488D01*
X833431Y530559D01*
X833521Y530627D01*
X833613Y530691D01*
X833707Y530752D01*
X833803Y530810D01*
X833902Y530864D01*
X834002Y530915D01*
X834104Y530963D01*
X834207Y531007D01*
X834312Y531047D01*
X834418Y531084D01*
X834525Y531116D01*
X834634Y531145D01*
X834743Y531171D01*
X834853Y531192D01*
X834964Y531210D01*
X835076Y531223D01*
X835188Y531233D01*
X835300Y531239D01*
X835412Y531241D01*
X840238Y531241D01*
X847978Y526415D02*
X847978Y516763D01*
X847978Y526415D02*
X852804Y526415D01*
X852804Y524806D01*
X857776Y523198D02*
X857776Y519980D01*
X857776Y523198D02*
X857778Y523310D01*
X857784Y523422D01*
X857794Y523534D01*
X857807Y523646D01*
X857825Y523757D01*
X857846Y523867D01*
X857872Y523976D01*
X857901Y524085D01*
X857933Y524192D01*
X857970Y524298D01*
X858010Y524403D01*
X858054Y524506D01*
X858102Y524608D01*
X858153Y524708D01*
X858207Y524807D01*
X858265Y524903D01*
X858326Y524997D01*
X858390Y525089D01*
X858458Y525179D01*
X858529Y525266D01*
X858602Y525351D01*
X858679Y525433D01*
X858758Y525512D01*
X858840Y525589D01*
X858925Y525662D01*
X859012Y525733D01*
X859102Y525801D01*
X859194Y525865D01*
X859288Y525926D01*
X859385Y525984D01*
X859483Y526038D01*
X859583Y526089D01*
X859685Y526137D01*
X859788Y526181D01*
X859893Y526221D01*
X859999Y526258D01*
X860106Y526290D01*
X860215Y526319D01*
X860324Y526345D01*
X860434Y526366D01*
X860545Y526384D01*
X860657Y526397D01*
X860769Y526407D01*
X860881Y526413D01*
X860993Y526415D01*
X861105Y526413D01*
X861217Y526407D01*
X861329Y526397D01*
X861441Y526384D01*
X861552Y526366D01*
X861662Y526345D01*
X861771Y526319D01*
X861880Y526290D01*
X861987Y526258D01*
X862093Y526221D01*
X862198Y526181D01*
X862301Y526137D01*
X862403Y526089D01*
X862503Y526038D01*
X862602Y525984D01*
X862698Y525926D01*
X862792Y525865D01*
X862884Y525801D01*
X862974Y525733D01*
X863061Y525662D01*
X863146Y525589D01*
X863228Y525512D01*
X863307Y525433D01*
X863384Y525351D01*
X863457Y525266D01*
X863528Y525179D01*
X863596Y525089D01*
X863660Y524997D01*
X863721Y524903D01*
X863779Y524807D01*
X863833Y524708D01*
X863884Y524608D01*
X863932Y524506D01*
X863976Y524403D01*
X864016Y524298D01*
X864053Y524192D01*
X864085Y524085D01*
X864114Y523976D01*
X864140Y523867D01*
X864161Y523757D01*
X864179Y523646D01*
X864192Y523534D01*
X864202Y523422D01*
X864208Y523310D01*
X864210Y523198D01*
X864210Y519980D01*
X864208Y519868D01*
X864202Y519756D01*
X864192Y519644D01*
X864179Y519532D01*
X864161Y519421D01*
X864140Y519311D01*
X864114Y519202D01*
X864085Y519093D01*
X864053Y518986D01*
X864016Y518880D01*
X863976Y518775D01*
X863932Y518672D01*
X863884Y518570D01*
X863833Y518470D01*
X863779Y518371D01*
X863721Y518275D01*
X863660Y518181D01*
X863596Y518089D01*
X863528Y517999D01*
X863457Y517912D01*
X863384Y517827D01*
X863307Y517745D01*
X863228Y517666D01*
X863146Y517589D01*
X863061Y517516D01*
X862974Y517445D01*
X862884Y517377D01*
X862792Y517313D01*
X862698Y517252D01*
X862602Y517194D01*
X862503Y517140D01*
X862403Y517089D01*
X862301Y517041D01*
X862198Y516997D01*
X862093Y516957D01*
X861987Y516920D01*
X861880Y516888D01*
X861771Y516859D01*
X861662Y516833D01*
X861552Y516812D01*
X861441Y516794D01*
X861329Y516781D01*
X861217Y516771D01*
X861105Y516765D01*
X860993Y516763D01*
X860881Y516765D01*
X860769Y516771D01*
X860657Y516781D01*
X860545Y516794D01*
X860434Y516812D01*
X860324Y516833D01*
X860215Y516859D01*
X860106Y516888D01*
X859999Y516920D01*
X859893Y516957D01*
X859788Y516997D01*
X859685Y517041D01*
X859583Y517089D01*
X859483Y517140D01*
X859385Y517194D01*
X859288Y517252D01*
X859194Y517313D01*
X859102Y517377D01*
X859012Y517445D01*
X858925Y517516D01*
X858840Y517589D01*
X858758Y517666D01*
X858679Y517745D01*
X858602Y517827D01*
X858529Y517912D01*
X858458Y517999D01*
X858390Y518089D01*
X858326Y518181D01*
X858265Y518275D01*
X858207Y518372D01*
X858153Y518470D01*
X858102Y518570D01*
X858054Y518672D01*
X858010Y518775D01*
X857970Y518880D01*
X857933Y518986D01*
X857901Y519093D01*
X857872Y519202D01*
X857846Y519311D01*
X857825Y519421D01*
X857807Y519532D01*
X857794Y519644D01*
X857784Y519756D01*
X857778Y519868D01*
X857776Y519980D01*
X871155Y519176D02*
X871155Y526415D01*
X871155Y519176D02*
X871157Y519079D01*
X871163Y518982D01*
X871173Y518885D01*
X871186Y518789D01*
X871204Y518693D01*
X871225Y518599D01*
X871250Y518505D01*
X871279Y518412D01*
X871312Y518320D01*
X871348Y518230D01*
X871388Y518142D01*
X871431Y518055D01*
X871478Y517970D01*
X871529Y517886D01*
X871582Y517805D01*
X871639Y517726D01*
X871699Y517650D01*
X871762Y517576D01*
X871828Y517504D01*
X871896Y517436D01*
X871968Y517370D01*
X872042Y517307D01*
X872118Y517247D01*
X872197Y517190D01*
X872278Y517137D01*
X872362Y517086D01*
X872447Y517039D01*
X872534Y516996D01*
X872622Y516956D01*
X872712Y516920D01*
X872804Y516887D01*
X872897Y516858D01*
X872991Y516833D01*
X873085Y516812D01*
X873181Y516794D01*
X873277Y516781D01*
X873374Y516771D01*
X873471Y516765D01*
X873568Y516763D01*
X877590Y516763D01*
X877590Y526415D01*
X885128Y526415D02*
X885128Y511937D01*
X885128Y526415D02*
X889149Y526415D01*
X889246Y526413D01*
X889343Y526407D01*
X889440Y526397D01*
X889536Y526384D01*
X889632Y526366D01*
X889726Y526345D01*
X889820Y526320D01*
X889913Y526291D01*
X890005Y526258D01*
X890095Y526222D01*
X890183Y526182D01*
X890270Y526139D01*
X890356Y526092D01*
X890439Y526041D01*
X890520Y525988D01*
X890599Y525931D01*
X890675Y525871D01*
X890749Y525808D01*
X890821Y525742D01*
X890889Y525674D01*
X890955Y525602D01*
X891018Y525528D01*
X891078Y525452D01*
X891135Y525373D01*
X891188Y525292D01*
X891239Y525209D01*
X891286Y525123D01*
X891329Y525036D01*
X891369Y524948D01*
X891405Y524858D01*
X891438Y524766D01*
X891467Y524673D01*
X891492Y524579D01*
X891513Y524485D01*
X891531Y524389D01*
X891544Y524293D01*
X891554Y524196D01*
X891560Y524099D01*
X891562Y524002D01*
X891562Y519176D01*
X891560Y519079D01*
X891554Y518982D01*
X891544Y518885D01*
X891531Y518789D01*
X891513Y518693D01*
X891492Y518599D01*
X891467Y518505D01*
X891438Y518412D01*
X891405Y518320D01*
X891369Y518230D01*
X891329Y518142D01*
X891286Y518055D01*
X891239Y517970D01*
X891188Y517886D01*
X891135Y517805D01*
X891078Y517726D01*
X891018Y517650D01*
X890955Y517576D01*
X890889Y517504D01*
X890821Y517436D01*
X890749Y517370D01*
X890675Y517307D01*
X890599Y517247D01*
X890520Y517190D01*
X890439Y517137D01*
X890356Y517086D01*
X890270Y517039D01*
X890183Y516996D01*
X890095Y516956D01*
X890005Y516920D01*
X889913Y516887D01*
X889820Y516858D01*
X889726Y516833D01*
X889632Y516812D01*
X889536Y516794D01*
X889440Y516781D01*
X889343Y516771D01*
X889246Y516765D01*
X889149Y516763D01*
X885128Y516763D01*
X909246Y523198D02*
X914072Y523198D01*
X909246Y523198D02*
X909134Y523200D01*
X909022Y523206D01*
X908910Y523216D01*
X908798Y523229D01*
X908687Y523247D01*
X908577Y523268D01*
X908468Y523294D01*
X908359Y523323D01*
X908252Y523355D01*
X908146Y523392D01*
X908041Y523432D01*
X907938Y523476D01*
X907836Y523524D01*
X907736Y523575D01*
X907637Y523629D01*
X907541Y523687D01*
X907447Y523748D01*
X907355Y523812D01*
X907265Y523880D01*
X907178Y523951D01*
X907093Y524024D01*
X907011Y524101D01*
X906932Y524180D01*
X906855Y524262D01*
X906782Y524347D01*
X906711Y524434D01*
X906643Y524524D01*
X906579Y524616D01*
X906518Y524710D01*
X906460Y524807D01*
X906406Y524905D01*
X906355Y525005D01*
X906307Y525107D01*
X906263Y525210D01*
X906223Y525315D01*
X906186Y525421D01*
X906154Y525528D01*
X906125Y525637D01*
X906099Y525746D01*
X906078Y525856D01*
X906060Y525967D01*
X906047Y526079D01*
X906037Y526191D01*
X906031Y526303D01*
X906029Y526415D01*
X906028Y526415D02*
X906028Y527219D01*
X906030Y527344D01*
X906036Y527469D01*
X906045Y527594D01*
X906059Y527718D01*
X906077Y527842D01*
X906098Y527965D01*
X906123Y528088D01*
X906152Y528210D01*
X906185Y528330D01*
X906221Y528450D01*
X906261Y528568D01*
X906305Y528686D01*
X906352Y528801D01*
X906403Y528916D01*
X906458Y529028D01*
X906516Y529139D01*
X906577Y529248D01*
X906642Y529355D01*
X906710Y529460D01*
X906781Y529563D01*
X906856Y529663D01*
X906934Y529761D01*
X907014Y529857D01*
X907098Y529950D01*
X907184Y530041D01*
X907273Y530129D01*
X907365Y530214D01*
X907459Y530296D01*
X907556Y530375D01*
X907656Y530451D01*
X907757Y530524D01*
X907861Y530593D01*
X907967Y530660D01*
X908075Y530723D01*
X908185Y530783D01*
X908297Y530839D01*
X908410Y530892D01*
X908525Y530941D01*
X908642Y530986D01*
X908760Y531028D01*
X908879Y531067D01*
X908999Y531101D01*
X909120Y531132D01*
X909242Y531159D01*
X909365Y531182D01*
X909489Y531202D01*
X909613Y531217D01*
X909738Y531229D01*
X909862Y531237D01*
X909987Y531241D01*
X910113Y531241D01*
X910238Y531237D01*
X910362Y531229D01*
X910487Y531217D01*
X910611Y531202D01*
X910735Y531182D01*
X910858Y531159D01*
X910980Y531132D01*
X911101Y531101D01*
X911221Y531067D01*
X911340Y531028D01*
X911458Y530986D01*
X911575Y530941D01*
X911690Y530892D01*
X911803Y530839D01*
X911915Y530783D01*
X912025Y530723D01*
X912133Y530660D01*
X912239Y530593D01*
X912343Y530524D01*
X912444Y530451D01*
X912544Y530375D01*
X912641Y530296D01*
X912735Y530214D01*
X912827Y530129D01*
X912916Y530041D01*
X913002Y529950D01*
X913086Y529857D01*
X913166Y529761D01*
X913244Y529663D01*
X913319Y529563D01*
X913390Y529460D01*
X913458Y529355D01*
X913523Y529248D01*
X913584Y529139D01*
X913642Y529028D01*
X913697Y528916D01*
X913748Y528801D01*
X913795Y528686D01*
X913839Y528568D01*
X913879Y528450D01*
X913915Y528330D01*
X913948Y528210D01*
X913977Y528088D01*
X914002Y527965D01*
X914023Y527842D01*
X914041Y527718D01*
X914055Y527594D01*
X914064Y527469D01*
X914070Y527344D01*
X914072Y527219D01*
X914072Y523198D01*
X914070Y523040D01*
X914064Y522882D01*
X914055Y522725D01*
X914041Y522567D01*
X914024Y522410D01*
X914002Y522254D01*
X913977Y522098D01*
X913948Y521943D01*
X913916Y521788D01*
X913879Y521634D01*
X913839Y521482D01*
X913795Y521330D01*
X913747Y521179D01*
X913696Y521030D01*
X913641Y520882D01*
X913582Y520735D01*
X913520Y520590D01*
X913454Y520447D01*
X913385Y520305D01*
X913312Y520165D01*
X913236Y520026D01*
X913156Y519890D01*
X913074Y519755D01*
X912988Y519623D01*
X912898Y519493D01*
X912806Y519365D01*
X912710Y519239D01*
X912611Y519116D01*
X912510Y518995D01*
X912405Y518877D01*
X912298Y518761D01*
X912187Y518648D01*
X912074Y518537D01*
X911958Y518430D01*
X911840Y518325D01*
X911719Y518224D01*
X911596Y518125D01*
X911470Y518029D01*
X911342Y517937D01*
X911212Y517848D01*
X911080Y517761D01*
X910945Y517679D01*
X910809Y517599D01*
X910670Y517523D01*
X910530Y517450D01*
X910388Y517381D01*
X910245Y517315D01*
X910100Y517253D01*
X909953Y517194D01*
X909805Y517139D01*
X909656Y517088D01*
X909505Y517040D01*
X909353Y516996D01*
X909201Y516956D01*
X909047Y516919D01*
X908892Y516887D01*
X908737Y516858D01*
X908581Y516833D01*
X908425Y516811D01*
X908268Y516794D01*
X908110Y516780D01*
X907953Y516771D01*
X907795Y516765D01*
X907637Y516763D01*
X741553Y508381D02*
X741553Y493903D01*
X741553Y508381D02*
X745575Y508381D01*
X745699Y508379D01*
X745823Y508373D01*
X745946Y508364D01*
X746069Y508351D01*
X746192Y508333D01*
X746314Y508313D01*
X746435Y508288D01*
X746556Y508260D01*
X746676Y508227D01*
X746794Y508192D01*
X746912Y508152D01*
X747028Y508109D01*
X747143Y508063D01*
X747256Y508013D01*
X747368Y507959D01*
X747478Y507902D01*
X747586Y507842D01*
X747692Y507779D01*
X747797Y507712D01*
X747899Y507642D01*
X747999Y507569D01*
X748096Y507492D01*
X748192Y507413D01*
X748285Y507331D01*
X748375Y507246D01*
X748462Y507159D01*
X748547Y507069D01*
X748629Y506976D01*
X748708Y506880D01*
X748785Y506783D01*
X748858Y506683D01*
X748928Y506581D01*
X748995Y506476D01*
X749058Y506370D01*
X749118Y506262D01*
X749175Y506152D01*
X749229Y506040D01*
X749279Y505927D01*
X749325Y505812D01*
X749368Y505696D01*
X749408Y505578D01*
X749443Y505460D01*
X749476Y505340D01*
X749504Y505219D01*
X749529Y505098D01*
X749549Y504976D01*
X749567Y504853D01*
X749580Y504730D01*
X749589Y504607D01*
X749595Y504483D01*
X749597Y504359D01*
X749596Y504359D02*
X749596Y497925D01*
X749597Y497925D02*
X749595Y497799D01*
X749589Y497672D01*
X749579Y497546D01*
X749565Y497421D01*
X749547Y497296D01*
X749526Y497171D01*
X749500Y497048D01*
X749471Y496925D01*
X749437Y496803D01*
X749400Y496682D01*
X749359Y496563D01*
X749315Y496444D01*
X749266Y496328D01*
X749214Y496213D01*
X749159Y496099D01*
X749100Y495987D01*
X749037Y495878D01*
X748971Y495770D01*
X748902Y495664D01*
X748829Y495561D01*
X748753Y495460D01*
X748674Y495361D01*
X748592Y495265D01*
X748507Y495172D01*
X748419Y495081D01*
X748328Y494993D01*
X748235Y494908D01*
X748139Y494826D01*
X748040Y494747D01*
X747939Y494671D01*
X747836Y494598D01*
X747730Y494529D01*
X747622Y494463D01*
X747513Y494401D01*
X747401Y494341D01*
X747288Y494286D01*
X747172Y494234D01*
X747056Y494185D01*
X746937Y494141D01*
X746818Y494100D01*
X746697Y494063D01*
X746575Y494029D01*
X746452Y494000D01*
X746329Y493974D01*
X746204Y493953D01*
X746079Y493935D01*
X745954Y493921D01*
X745828Y493911D01*
X745701Y493905D01*
X745575Y493903D01*
X741553Y493903D01*
X761338Y508382D02*
X761456Y508380D01*
X761575Y508374D01*
X761693Y508365D01*
X761811Y508351D01*
X761928Y508334D01*
X762044Y508312D01*
X762160Y508287D01*
X762275Y508259D01*
X762389Y508226D01*
X762502Y508190D01*
X762613Y508150D01*
X762723Y508106D01*
X762832Y508059D01*
X762939Y508009D01*
X763044Y507955D01*
X763148Y507897D01*
X763250Y507836D01*
X763349Y507772D01*
X763447Y507705D01*
X763542Y507634D01*
X763635Y507560D01*
X763725Y507484D01*
X763813Y507404D01*
X763898Y507322D01*
X763980Y507237D01*
X764060Y507149D01*
X764136Y507059D01*
X764210Y506966D01*
X764281Y506871D01*
X764348Y506773D01*
X764412Y506674D01*
X764473Y506572D01*
X764531Y506468D01*
X764585Y506363D01*
X764635Y506256D01*
X764682Y506147D01*
X764726Y506037D01*
X764766Y505926D01*
X764802Y505813D01*
X764835Y505699D01*
X764863Y505584D01*
X764888Y505468D01*
X764910Y505352D01*
X764927Y505235D01*
X764941Y505117D01*
X764950Y504999D01*
X764956Y504880D01*
X764958Y504762D01*
X761338Y508381D02*
X761205Y508379D01*
X761072Y508373D01*
X760940Y508364D01*
X760808Y508351D01*
X760676Y508334D01*
X760544Y508313D01*
X760414Y508288D01*
X760284Y508260D01*
X760155Y508228D01*
X760027Y508192D01*
X759900Y508153D01*
X759774Y508110D01*
X759650Y508064D01*
X759527Y508014D01*
X759405Y507960D01*
X759285Y507903D01*
X759166Y507843D01*
X759050Y507779D01*
X758935Y507712D01*
X758822Y507642D01*
X758712Y507568D01*
X758603Y507492D01*
X758497Y507412D01*
X758393Y507329D01*
X758291Y507244D01*
X758192Y507155D01*
X758095Y507064D01*
X758001Y506970D01*
X757910Y506873D01*
X757822Y506774D01*
X757736Y506672D01*
X757654Y506568D01*
X757574Y506461D01*
X757498Y506353D01*
X757424Y506242D01*
X757354Y506129D01*
X757287Y506014D01*
X757224Y505898D01*
X757163Y505779D01*
X757107Y505659D01*
X757053Y505537D01*
X757003Y505414D01*
X756957Y505290D01*
X756914Y505164D01*
X763751Y501947D02*
X763838Y502031D01*
X763921Y502119D01*
X764002Y502209D01*
X764080Y502302D01*
X764156Y502397D01*
X764228Y502494D01*
X764297Y502593D01*
X764363Y502695D01*
X764426Y502798D01*
X764485Y502904D01*
X764541Y503011D01*
X764594Y503120D01*
X764644Y503230D01*
X764690Y503342D01*
X764732Y503456D01*
X764771Y503571D01*
X764806Y503686D01*
X764838Y503803D01*
X764866Y503921D01*
X764890Y504040D01*
X764911Y504159D01*
X764928Y504279D01*
X764941Y504399D01*
X764950Y504520D01*
X764956Y504641D01*
X764958Y504762D01*
X763751Y501946D02*
X756914Y493903D01*
X764958Y493903D01*
X772276Y497925D02*
X772276Y508381D01*
X772275Y497925D02*
X772277Y497800D01*
X772283Y497675D01*
X772292Y497550D01*
X772306Y497426D01*
X772324Y497302D01*
X772345Y497179D01*
X772370Y497056D01*
X772399Y496934D01*
X772432Y496814D01*
X772468Y496694D01*
X772508Y496576D01*
X772552Y496458D01*
X772599Y496343D01*
X772650Y496228D01*
X772705Y496116D01*
X772763Y496005D01*
X772824Y495896D01*
X772889Y495789D01*
X772957Y495684D01*
X773028Y495581D01*
X773103Y495481D01*
X773181Y495383D01*
X773261Y495287D01*
X773345Y495194D01*
X773431Y495103D01*
X773520Y495015D01*
X773612Y494930D01*
X773706Y494848D01*
X773803Y494769D01*
X773903Y494693D01*
X774004Y494620D01*
X774108Y494551D01*
X774214Y494484D01*
X774322Y494421D01*
X774432Y494361D01*
X774544Y494305D01*
X774657Y494252D01*
X774772Y494203D01*
X774889Y494158D01*
X775007Y494116D01*
X775126Y494077D01*
X775246Y494043D01*
X775367Y494012D01*
X775489Y493985D01*
X775612Y493962D01*
X775736Y493942D01*
X775860Y493927D01*
X775985Y493915D01*
X776109Y493907D01*
X776234Y493903D01*
X776360Y493903D01*
X776485Y493907D01*
X776609Y493915D01*
X776734Y493927D01*
X776858Y493942D01*
X776982Y493962D01*
X777105Y493985D01*
X777227Y494012D01*
X777348Y494043D01*
X777468Y494077D01*
X777587Y494116D01*
X777705Y494158D01*
X777822Y494203D01*
X777937Y494252D01*
X778050Y494305D01*
X778162Y494361D01*
X778272Y494421D01*
X778380Y494484D01*
X778486Y494551D01*
X778590Y494620D01*
X778691Y494693D01*
X778791Y494769D01*
X778888Y494848D01*
X778982Y494930D01*
X779074Y495015D01*
X779163Y495103D01*
X779249Y495194D01*
X779333Y495287D01*
X779413Y495383D01*
X779491Y495481D01*
X779566Y495581D01*
X779637Y495684D01*
X779705Y495789D01*
X779770Y495896D01*
X779831Y496005D01*
X779889Y496116D01*
X779944Y496228D01*
X779995Y496343D01*
X780042Y496458D01*
X780086Y496576D01*
X780126Y496694D01*
X780162Y496814D01*
X780195Y496934D01*
X780224Y497056D01*
X780249Y497179D01*
X780270Y497302D01*
X780288Y497426D01*
X780302Y497550D01*
X780311Y497675D01*
X780317Y497800D01*
X780319Y497925D01*
X780319Y508381D01*
X796343Y508381D02*
X796343Y493903D01*
X796343Y508381D02*
X800365Y508381D01*
X800490Y508379D01*
X800615Y508373D01*
X800740Y508364D01*
X800864Y508350D01*
X800988Y508332D01*
X801111Y508311D01*
X801234Y508286D01*
X801356Y508257D01*
X801476Y508224D01*
X801596Y508188D01*
X801714Y508148D01*
X801832Y508104D01*
X801947Y508057D01*
X802062Y508006D01*
X802174Y507951D01*
X802285Y507893D01*
X802394Y507832D01*
X802501Y507767D01*
X802606Y507699D01*
X802709Y507628D01*
X802809Y507553D01*
X802907Y507475D01*
X803003Y507395D01*
X803096Y507311D01*
X803187Y507225D01*
X803275Y507136D01*
X803360Y507044D01*
X803442Y506950D01*
X803521Y506853D01*
X803597Y506753D01*
X803670Y506652D01*
X803739Y506548D01*
X803806Y506442D01*
X803869Y506334D01*
X803929Y506224D01*
X803985Y506112D01*
X804038Y505999D01*
X804087Y505884D01*
X804132Y505767D01*
X804174Y505649D01*
X804213Y505530D01*
X804247Y505410D01*
X804278Y505289D01*
X804305Y505167D01*
X804328Y505044D01*
X804348Y504920D01*
X804363Y504796D01*
X804375Y504671D01*
X804383Y504547D01*
X804387Y504422D01*
X804387Y504296D01*
X804383Y504171D01*
X804375Y504047D01*
X804363Y503922D01*
X804348Y503798D01*
X804328Y503674D01*
X804305Y503551D01*
X804278Y503429D01*
X804247Y503308D01*
X804213Y503188D01*
X804174Y503069D01*
X804132Y502951D01*
X804087Y502834D01*
X804038Y502719D01*
X803985Y502606D01*
X803929Y502494D01*
X803869Y502384D01*
X803806Y502276D01*
X803739Y502170D01*
X803670Y502066D01*
X803597Y501965D01*
X803521Y501865D01*
X803442Y501768D01*
X803360Y501674D01*
X803275Y501582D01*
X803187Y501493D01*
X803096Y501407D01*
X803003Y501323D01*
X802907Y501243D01*
X802809Y501165D01*
X802709Y501090D01*
X802606Y501019D01*
X802501Y500951D01*
X802394Y500886D01*
X802285Y500825D01*
X802174Y500767D01*
X802062Y500712D01*
X801947Y500661D01*
X801832Y500614D01*
X801714Y500570D01*
X801596Y500530D01*
X801476Y500494D01*
X801356Y500461D01*
X801234Y500432D01*
X801111Y500407D01*
X800988Y500386D01*
X800864Y500368D01*
X800740Y500354D01*
X800615Y500345D01*
X800490Y500339D01*
X800365Y500337D01*
X800365Y500338D02*
X796343Y500338D01*
X813595Y493903D02*
X816812Y493903D01*
X813595Y493903D02*
X813483Y493905D01*
X813371Y493911D01*
X813259Y493921D01*
X813147Y493934D01*
X813036Y493952D01*
X812926Y493973D01*
X812817Y493999D01*
X812708Y494028D01*
X812601Y494060D01*
X812495Y494097D01*
X812390Y494137D01*
X812287Y494181D01*
X812185Y494229D01*
X812085Y494280D01*
X811987Y494334D01*
X811890Y494392D01*
X811796Y494453D01*
X811704Y494517D01*
X811614Y494585D01*
X811527Y494656D01*
X811442Y494729D01*
X811360Y494806D01*
X811281Y494885D01*
X811204Y494967D01*
X811131Y495052D01*
X811060Y495139D01*
X810992Y495229D01*
X810928Y495321D01*
X810867Y495415D01*
X810809Y495512D01*
X810755Y495610D01*
X810704Y495710D01*
X810656Y495812D01*
X810612Y495915D01*
X810572Y496020D01*
X810535Y496126D01*
X810503Y496233D01*
X810474Y496342D01*
X810448Y496451D01*
X810427Y496561D01*
X810409Y496672D01*
X810396Y496784D01*
X810386Y496896D01*
X810380Y497008D01*
X810378Y497120D01*
X810377Y497120D02*
X810377Y505164D01*
X810378Y505164D02*
X810380Y505276D01*
X810386Y505388D01*
X810396Y505500D01*
X810409Y505612D01*
X810427Y505723D01*
X810448Y505833D01*
X810474Y505942D01*
X810503Y506051D01*
X810535Y506158D01*
X810572Y506264D01*
X810612Y506369D01*
X810656Y506472D01*
X810704Y506574D01*
X810755Y506674D01*
X810809Y506772D01*
X810867Y506869D01*
X810928Y506963D01*
X810992Y507055D01*
X811060Y507145D01*
X811131Y507232D01*
X811204Y507317D01*
X811281Y507399D01*
X811360Y507478D01*
X811442Y507555D01*
X811527Y507628D01*
X811614Y507699D01*
X811704Y507767D01*
X811796Y507831D01*
X811890Y507892D01*
X811986Y507950D01*
X812085Y508004D01*
X812185Y508055D01*
X812287Y508103D01*
X812390Y508147D01*
X812495Y508187D01*
X812601Y508224D01*
X812708Y508256D01*
X812817Y508285D01*
X812926Y508311D01*
X813036Y508332D01*
X813147Y508350D01*
X813259Y508363D01*
X813371Y508373D01*
X813483Y508379D01*
X813595Y508381D01*
X816812Y508381D01*
X823597Y501946D02*
X827619Y501946D01*
X827619Y501947D02*
X827744Y501945D01*
X827869Y501939D01*
X827994Y501930D01*
X828118Y501916D01*
X828242Y501898D01*
X828365Y501877D01*
X828488Y501852D01*
X828610Y501823D01*
X828730Y501790D01*
X828850Y501754D01*
X828968Y501714D01*
X829086Y501670D01*
X829201Y501623D01*
X829316Y501572D01*
X829428Y501517D01*
X829539Y501459D01*
X829648Y501398D01*
X829755Y501333D01*
X829860Y501265D01*
X829963Y501194D01*
X830063Y501119D01*
X830161Y501041D01*
X830257Y500961D01*
X830350Y500877D01*
X830441Y500791D01*
X830529Y500702D01*
X830614Y500610D01*
X830696Y500516D01*
X830775Y500419D01*
X830851Y500319D01*
X830924Y500218D01*
X830993Y500114D01*
X831060Y500008D01*
X831123Y499900D01*
X831183Y499790D01*
X831239Y499678D01*
X831292Y499565D01*
X831341Y499450D01*
X831386Y499333D01*
X831428Y499215D01*
X831467Y499096D01*
X831501Y498976D01*
X831532Y498855D01*
X831559Y498733D01*
X831582Y498610D01*
X831602Y498486D01*
X831617Y498362D01*
X831629Y498237D01*
X831637Y498113D01*
X831641Y497988D01*
X831641Y497862D01*
X831637Y497737D01*
X831629Y497613D01*
X831617Y497488D01*
X831602Y497364D01*
X831582Y497240D01*
X831559Y497117D01*
X831532Y496995D01*
X831501Y496874D01*
X831467Y496754D01*
X831428Y496635D01*
X831386Y496517D01*
X831341Y496400D01*
X831292Y496285D01*
X831239Y496172D01*
X831183Y496060D01*
X831123Y495950D01*
X831060Y495842D01*
X830993Y495736D01*
X830924Y495632D01*
X830851Y495531D01*
X830775Y495431D01*
X830696Y495334D01*
X830614Y495240D01*
X830529Y495148D01*
X830441Y495059D01*
X830350Y494973D01*
X830257Y494889D01*
X830161Y494809D01*
X830063Y494731D01*
X829963Y494656D01*
X829860Y494585D01*
X829755Y494517D01*
X829648Y494452D01*
X829539Y494391D01*
X829428Y494333D01*
X829316Y494278D01*
X829201Y494227D01*
X829086Y494180D01*
X828968Y494136D01*
X828850Y494096D01*
X828730Y494060D01*
X828610Y494027D01*
X828488Y493998D01*
X828365Y493973D01*
X828242Y493952D01*
X828118Y493934D01*
X827994Y493920D01*
X827869Y493911D01*
X827744Y493905D01*
X827619Y493903D01*
X823597Y493903D01*
X823597Y508381D01*
X827619Y508381D01*
X827731Y508379D01*
X827843Y508373D01*
X827955Y508363D01*
X828067Y508350D01*
X828178Y508332D01*
X828288Y508311D01*
X828397Y508285D01*
X828506Y508256D01*
X828613Y508224D01*
X828719Y508187D01*
X828824Y508147D01*
X828927Y508103D01*
X829029Y508055D01*
X829129Y508004D01*
X829228Y507950D01*
X829324Y507892D01*
X829418Y507831D01*
X829510Y507767D01*
X829600Y507699D01*
X829687Y507628D01*
X829772Y507555D01*
X829854Y507478D01*
X829933Y507399D01*
X830010Y507317D01*
X830083Y507232D01*
X830154Y507145D01*
X830222Y507055D01*
X830286Y506963D01*
X830347Y506869D01*
X830405Y506772D01*
X830459Y506674D01*
X830510Y506574D01*
X830558Y506472D01*
X830602Y506369D01*
X830642Y506264D01*
X830679Y506158D01*
X830711Y506051D01*
X830740Y505942D01*
X830766Y505833D01*
X830787Y505723D01*
X830805Y505612D01*
X830818Y505500D01*
X830828Y505388D01*
X830834Y505276D01*
X830836Y505164D01*
X830834Y505052D01*
X830828Y504940D01*
X830818Y504828D01*
X830805Y504716D01*
X830787Y504605D01*
X830766Y504495D01*
X830740Y504386D01*
X830711Y504277D01*
X830679Y504170D01*
X830642Y504064D01*
X830602Y503959D01*
X830558Y503856D01*
X830510Y503754D01*
X830459Y503654D01*
X830405Y503555D01*
X830347Y503459D01*
X830286Y503365D01*
X830222Y503273D01*
X830154Y503183D01*
X830083Y503096D01*
X830010Y503011D01*
X829933Y502929D01*
X829854Y502850D01*
X829772Y502773D01*
X829687Y502700D01*
X829600Y502629D01*
X829510Y502561D01*
X829418Y502497D01*
X829324Y502436D01*
X829228Y502378D01*
X829129Y502324D01*
X829029Y502273D01*
X828927Y502225D01*
X828824Y502181D01*
X828719Y502141D01*
X828613Y502104D01*
X828506Y502072D01*
X828397Y502043D01*
X828288Y502017D01*
X828178Y501996D01*
X828067Y501978D01*
X827955Y501965D01*
X827843Y501955D01*
X827731Y501949D01*
X827619Y501947D01*
X844931Y503555D02*
X848148Y493903D01*
X851366Y503555D01*
X857506Y505164D02*
X861528Y508381D01*
X861528Y493903D01*
X865549Y493903D02*
X857506Y493903D01*
D11*
X923000Y505900D02*
X923000Y427900D01*
X1015000Y427900D02*
X1015000Y505900D01*
X975000Y427900D02*
X948000Y427900D01*
X948000Y505900D02*
X975000Y505900D01*
X923000Y445900D02*
X923000Y434900D01*
X923000Y487900D02*
X923000Y498900D01*
D12*
X881360Y395160D02*
X881360Y293160D01*
X881360Y395160D02*
X829360Y395160D01*
X829360Y293160D01*
X881360Y293160D01*
D13*
X871610Y302160D03*
D14*
X765324Y312941D02*
X765324Y319206D01*
X762192Y316074D02*
X768457Y316074D01*
X919121Y308796D02*
X925386Y308796D01*
X922254Y311928D02*
X922254Y305663D01*
D15*
X925440Y331660D03*
X937440Y331660D03*
D16*
X931440Y331660D03*
D17*
X943588Y330409D02*
X955272Y330409D01*
X943588Y327164D02*
X943588Y333655D01*
X943588Y344972D02*
X955272Y337183D01*
X955272Y344972D02*
X943588Y337183D01*
D14*
X943759Y388436D02*
X937494Y388436D01*
X940626Y391568D02*
X940626Y385303D01*
D15*
X937440Y367660D03*
X925440Y367660D03*
D16*
X931440Y367660D03*
D17*
X944648Y362855D02*
X956332Y362855D01*
X944648Y362855D02*
X944648Y366101D01*
X944650Y366214D01*
X944656Y366327D01*
X944666Y366440D01*
X944680Y366553D01*
X944697Y366665D01*
X944719Y366776D01*
X944744Y366886D01*
X944774Y366996D01*
X944807Y367104D01*
X944844Y367211D01*
X944884Y367317D01*
X944929Y367421D01*
X944977Y367524D01*
X945028Y367625D01*
X945083Y367724D01*
X945141Y367821D01*
X945203Y367916D01*
X945268Y368009D01*
X945336Y368099D01*
X945407Y368187D01*
X945482Y368273D01*
X945559Y368356D01*
X945639Y368436D01*
X945722Y368513D01*
X945808Y368588D01*
X945896Y368659D01*
X945986Y368727D01*
X946079Y368792D01*
X946174Y368854D01*
X946271Y368912D01*
X946370Y368967D01*
X946471Y369018D01*
X946574Y369066D01*
X946678Y369111D01*
X946784Y369151D01*
X946891Y369188D01*
X946999Y369221D01*
X947109Y369251D01*
X947219Y369276D01*
X947330Y369298D01*
X947442Y369315D01*
X947555Y369329D01*
X947668Y369339D01*
X947781Y369345D01*
X947894Y369347D01*
X948007Y369345D01*
X948120Y369339D01*
X948233Y369329D01*
X948346Y369315D01*
X948458Y369298D01*
X948569Y369276D01*
X948679Y369251D01*
X948789Y369221D01*
X948897Y369188D01*
X949004Y369151D01*
X949110Y369111D01*
X949214Y369066D01*
X949317Y369018D01*
X949418Y368967D01*
X949517Y368912D01*
X949614Y368854D01*
X949709Y368792D01*
X949802Y368727D01*
X949892Y368659D01*
X949980Y368588D01*
X950066Y368513D01*
X950149Y368436D01*
X950229Y368356D01*
X950306Y368273D01*
X950381Y368187D01*
X950452Y368099D01*
X950520Y368009D01*
X950585Y367916D01*
X950647Y367821D01*
X950705Y367724D01*
X950760Y367625D01*
X950811Y367524D01*
X950859Y367421D01*
X950904Y367317D01*
X950944Y367211D01*
X950981Y367104D01*
X951014Y366996D01*
X951044Y366886D01*
X951069Y366776D01*
X951091Y366665D01*
X951108Y366553D01*
X951122Y366440D01*
X951132Y366327D01*
X951138Y366214D01*
X951140Y366101D01*
X951139Y366101D02*
X951139Y362855D01*
X951139Y366750D02*
X956332Y369347D01*
X956332Y373563D02*
X944648Y381352D01*
X944648Y373563D02*
X956332Y381352D01*
D18*
X862674Y246175D03*
X847942Y246175D03*
X889046Y246145D03*
X903778Y246145D03*
D11*
X166400Y603080D02*
X166400Y659080D01*
X208400Y659080D01*
X208400Y603080D01*
X166400Y603080D01*
D19*
X169400Y597080D02*
X169402Y597169D01*
X169408Y597258D01*
X169418Y597347D01*
X169432Y597435D01*
X169449Y597522D01*
X169471Y597608D01*
X169497Y597694D01*
X169526Y597778D01*
X169559Y597861D01*
X169595Y597942D01*
X169636Y598022D01*
X169679Y598099D01*
X169726Y598175D01*
X169777Y598248D01*
X169830Y598319D01*
X169887Y598388D01*
X169947Y598454D01*
X170010Y598518D01*
X170075Y598578D01*
X170143Y598636D01*
X170214Y598690D01*
X170287Y598741D01*
X170362Y598789D01*
X170439Y598834D01*
X170518Y598875D01*
X170599Y598912D01*
X170681Y598946D01*
X170765Y598977D01*
X170850Y599003D01*
X170936Y599026D01*
X171023Y599044D01*
X171111Y599059D01*
X171200Y599070D01*
X171289Y599077D01*
X171378Y599080D01*
X171467Y599079D01*
X171556Y599074D01*
X171644Y599065D01*
X171733Y599052D01*
X171820Y599035D01*
X171907Y599015D01*
X171993Y598990D01*
X172077Y598962D01*
X172160Y598930D01*
X172242Y598894D01*
X172322Y598855D01*
X172400Y598812D01*
X172476Y598766D01*
X172550Y598716D01*
X172622Y598663D01*
X172691Y598607D01*
X172758Y598548D01*
X172822Y598486D01*
X172883Y598422D01*
X172942Y598354D01*
X172997Y598284D01*
X173049Y598212D01*
X173098Y598137D01*
X173143Y598061D01*
X173185Y597982D01*
X173223Y597902D01*
X173258Y597820D01*
X173289Y597736D01*
X173317Y597651D01*
X173340Y597565D01*
X173360Y597478D01*
X173376Y597391D01*
X173388Y597302D01*
X173396Y597214D01*
X173400Y597125D01*
X173400Y597035D01*
X173396Y596946D01*
X173388Y596858D01*
X173376Y596769D01*
X173360Y596682D01*
X173340Y596595D01*
X173317Y596509D01*
X173289Y596424D01*
X173258Y596340D01*
X173223Y596258D01*
X173185Y596178D01*
X173143Y596099D01*
X173098Y596023D01*
X173049Y595948D01*
X172997Y595876D01*
X172942Y595806D01*
X172883Y595738D01*
X172822Y595674D01*
X172758Y595612D01*
X172691Y595553D01*
X172622Y595497D01*
X172550Y595444D01*
X172476Y595394D01*
X172400Y595348D01*
X172322Y595305D01*
X172242Y595266D01*
X172160Y595230D01*
X172077Y595198D01*
X171993Y595170D01*
X171907Y595145D01*
X171820Y595125D01*
X171733Y595108D01*
X171644Y595095D01*
X171556Y595086D01*
X171467Y595081D01*
X171378Y595080D01*
X171289Y595083D01*
X171200Y595090D01*
X171111Y595101D01*
X171023Y595116D01*
X170936Y595134D01*
X170850Y595157D01*
X170765Y595183D01*
X170681Y595214D01*
X170599Y595248D01*
X170518Y595285D01*
X170439Y595326D01*
X170362Y595371D01*
X170287Y595419D01*
X170214Y595470D01*
X170143Y595524D01*
X170075Y595582D01*
X170010Y595642D01*
X169947Y595706D01*
X169887Y595772D01*
X169830Y595841D01*
X169777Y595912D01*
X169726Y595985D01*
X169679Y596061D01*
X169636Y596138D01*
X169595Y596218D01*
X169559Y596299D01*
X169526Y596382D01*
X169497Y596466D01*
X169471Y596552D01*
X169449Y596638D01*
X169432Y596725D01*
X169418Y596813D01*
X169408Y596902D01*
X169402Y596991D01*
X169400Y597080D01*
D20*
X159080Y695000D02*
X148920Y695000D01*
X174920Y695000D02*
X185080Y695000D01*
X230700Y693540D02*
X230700Y703700D01*
D12*
X122380Y625460D02*
X118380Y625460D01*
X122380Y625460D02*
X122380Y665460D01*
X118380Y665460D01*
X99380Y665460D02*
X63380Y665460D01*
X63380Y625460D02*
X99380Y625460D01*
X44380Y625460D02*
X40380Y625460D01*
X40380Y665460D01*
X44380Y665460D01*
D20*
X44365Y645206D02*
X44367Y645319D01*
X44373Y645433D01*
X44383Y645546D01*
X44397Y645658D01*
X44415Y645771D01*
X44436Y645882D01*
X44462Y645992D01*
X44492Y646102D01*
X44525Y646210D01*
X44562Y646318D01*
X44603Y646424D01*
X44648Y646528D01*
X44696Y646631D01*
X44748Y646732D01*
X44803Y646831D01*
X44862Y646928D01*
X44924Y647023D01*
X44989Y647115D01*
X45058Y647206D01*
X45130Y647294D01*
X45204Y647379D01*
X45282Y647462D01*
X45363Y647542D01*
X45446Y647619D01*
X45532Y647693D01*
X45621Y647764D01*
X45711Y647832D01*
X45805Y647896D01*
X45900Y647957D01*
X45998Y648015D01*
X46097Y648070D01*
X46199Y648121D01*
X46302Y648168D01*
X46407Y648212D01*
X46513Y648252D01*
X46621Y648288D01*
X46729Y648320D01*
X46839Y648349D01*
X46950Y648373D01*
X47061Y648394D01*
X47174Y648411D01*
X47286Y648424D01*
X47400Y648433D01*
X47513Y648438D01*
X47626Y648439D01*
X47740Y648436D01*
X47853Y648429D01*
X47966Y648418D01*
X48079Y648403D01*
X48190Y648384D01*
X48302Y648362D01*
X48412Y648335D01*
X48521Y648304D01*
X48629Y648270D01*
X48736Y648232D01*
X48842Y648190D01*
X48946Y648145D01*
X49048Y648096D01*
X49149Y648043D01*
X49247Y647987D01*
X49344Y647927D01*
X49438Y647864D01*
X49530Y647798D01*
X49620Y647729D01*
X49707Y647656D01*
X49792Y647581D01*
X49874Y647502D01*
X49953Y647421D01*
X50029Y647337D01*
X50103Y647250D01*
X50173Y647161D01*
X50240Y647069D01*
X50304Y646976D01*
X50364Y646879D01*
X50421Y646781D01*
X50475Y646681D01*
X50525Y646579D01*
X50571Y646476D01*
X50614Y646371D01*
X50653Y646264D01*
X50688Y646156D01*
X50720Y646047D01*
X50747Y645937D01*
X50771Y645826D01*
X50791Y645715D01*
X50807Y645602D01*
X50819Y645489D01*
X50827Y645376D01*
X50831Y645263D01*
X50831Y645149D01*
X50827Y645036D01*
X50819Y644923D01*
X50807Y644810D01*
X50791Y644697D01*
X50771Y644586D01*
X50747Y644475D01*
X50720Y644365D01*
X50688Y644256D01*
X50653Y644148D01*
X50614Y644041D01*
X50571Y643936D01*
X50525Y643833D01*
X50475Y643731D01*
X50421Y643631D01*
X50364Y643533D01*
X50304Y643436D01*
X50240Y643343D01*
X50173Y643251D01*
X50103Y643162D01*
X50029Y643075D01*
X49953Y642991D01*
X49874Y642910D01*
X49792Y642831D01*
X49707Y642756D01*
X49620Y642683D01*
X49530Y642614D01*
X49438Y642548D01*
X49344Y642485D01*
X49247Y642425D01*
X49149Y642369D01*
X49048Y642316D01*
X48946Y642267D01*
X48842Y642222D01*
X48736Y642180D01*
X48629Y642142D01*
X48521Y642108D01*
X48412Y642077D01*
X48302Y642050D01*
X48190Y642028D01*
X48079Y642009D01*
X47966Y641994D01*
X47853Y641983D01*
X47740Y641976D01*
X47626Y641973D01*
X47513Y641974D01*
X47400Y641979D01*
X47286Y641988D01*
X47174Y642001D01*
X47061Y642018D01*
X46950Y642039D01*
X46839Y642063D01*
X46729Y642092D01*
X46621Y642124D01*
X46513Y642160D01*
X46407Y642200D01*
X46302Y642244D01*
X46199Y642291D01*
X46097Y642342D01*
X45998Y642397D01*
X45900Y642455D01*
X45805Y642516D01*
X45711Y642580D01*
X45621Y642648D01*
X45532Y642719D01*
X45446Y642793D01*
X45363Y642870D01*
X45282Y642950D01*
X45204Y643033D01*
X45130Y643118D01*
X45058Y643206D01*
X44989Y643297D01*
X44924Y643389D01*
X44862Y643484D01*
X44803Y643581D01*
X44748Y643680D01*
X44696Y643781D01*
X44648Y643884D01*
X44603Y643988D01*
X44562Y644094D01*
X44525Y644202D01*
X44492Y644310D01*
X44462Y644420D01*
X44436Y644530D01*
X44415Y644641D01*
X44397Y644754D01*
X44383Y644866D01*
X44373Y644979D01*
X44367Y645093D01*
X44365Y645206D01*
X111080Y612080D02*
X111080Y601920D01*
X109700Y678380D02*
X109700Y688540D01*
X241940Y619620D02*
X252100Y619620D01*
X144160Y565460D02*
X134000Y565460D01*
D21*
X607300Y391320D02*
X607300Y5875D01*
X1010144Y5875D01*
X1010144Y391320D01*
X607300Y391320D01*
D22*
X999730Y77630D02*
X999730Y64930D01*
X993380Y58580D01*
X980680Y58580D01*
X974330Y64930D01*
X993380Y58580D02*
X999730Y52230D01*
X999730Y39530D01*
X993380Y33180D01*
X980680Y33180D01*
X974330Y39530D01*
X974330Y52230D01*
X980680Y58580D01*
X999730Y103030D02*
X993380Y109380D01*
X999730Y103030D02*
X999730Y90330D01*
X993380Y83980D01*
X980680Y83980D01*
X974330Y90330D01*
X974330Y103030D01*
X980680Y109380D01*
X993380Y83980D02*
X999730Y77630D01*
X980680Y83980D02*
X974330Y77630D01*
X974330Y64930D01*
X999730Y141130D02*
X999730Y153830D01*
X999730Y141130D02*
X993380Y134780D01*
X980680Y134780D01*
X974330Y141130D01*
X993380Y134780D02*
X999730Y128430D01*
X999730Y115730D01*
X993380Y109380D01*
X980680Y109380D01*
X974330Y115730D01*
X974330Y128430D01*
X980680Y134780D01*
X999730Y179230D02*
X993380Y185580D01*
X999730Y179230D02*
X999730Y166530D01*
X993380Y160180D01*
X980680Y160180D01*
X974330Y166530D01*
X974330Y179230D01*
X980680Y185580D01*
X993380Y160180D02*
X999730Y153830D01*
X980680Y160180D02*
X974330Y153830D01*
X974330Y141130D01*
X999730Y217330D02*
X999730Y230030D01*
X999730Y217330D02*
X993380Y210980D01*
X980680Y210980D01*
X974330Y217330D01*
X993380Y210980D02*
X999730Y204630D01*
X999730Y191930D01*
X993380Y185580D01*
X980680Y185580D01*
X974330Y191930D01*
X974330Y204630D01*
X980680Y210980D01*
X999730Y255430D02*
X993380Y261780D01*
X999730Y255430D02*
X999730Y242730D01*
X993380Y236380D01*
X980680Y236380D01*
X974330Y242730D01*
X974330Y255430D01*
X980680Y261780D01*
X993380Y236380D02*
X999730Y230030D01*
X980680Y236380D02*
X974330Y230030D01*
X974330Y217330D01*
X999730Y293530D02*
X999730Y306230D01*
X999730Y293530D02*
X993380Y287180D01*
X980680Y287180D01*
X974330Y293530D01*
X993380Y287180D02*
X999730Y280830D01*
X999730Y268130D01*
X993380Y261780D01*
X980680Y261780D01*
X974330Y268130D01*
X974330Y280830D01*
X980680Y287180D01*
X999730Y331630D02*
X993380Y337980D01*
X999730Y331630D02*
X999730Y318930D01*
X993380Y312580D01*
X980680Y312580D01*
X974330Y318930D01*
X974330Y331630D01*
X980680Y337980D01*
X993380Y312580D02*
X999730Y306230D01*
X980680Y312580D02*
X974330Y306230D01*
X974330Y293530D01*
X999730Y369730D02*
X999730Y382430D01*
X999730Y369730D02*
X993380Y363380D01*
X980680Y363380D01*
X974330Y369730D01*
X993380Y363380D02*
X999730Y357030D01*
X999730Y344330D01*
X993380Y337980D01*
X980680Y337980D01*
X974330Y344330D01*
X974330Y357030D01*
X980680Y363380D01*
X980680Y388780D02*
X993380Y388780D01*
X999730Y382430D01*
X980680Y388780D02*
X974330Y382430D01*
X974330Y369730D01*
X993380Y33180D02*
X999730Y26830D01*
X999730Y14130D01*
X993380Y7780D01*
X980680Y7780D01*
X974330Y14130D01*
X974330Y26830D01*
X980680Y33180D01*
X643368Y65184D02*
X643368Y77884D01*
X643368Y65184D02*
X637018Y58834D01*
X624318Y58834D01*
X617968Y65184D01*
X637018Y58834D02*
X643368Y52484D01*
X643368Y39784D01*
X637018Y33434D01*
X624318Y33434D01*
X617968Y39784D01*
X617968Y52484D01*
X624318Y58834D01*
X643368Y103284D02*
X637018Y109634D01*
X643368Y103284D02*
X643368Y90584D01*
X637018Y84234D01*
X624318Y84234D01*
X617968Y90584D01*
X617968Y103284D01*
X624318Y109634D01*
X637018Y84234D02*
X643368Y77884D01*
X624318Y84234D02*
X617968Y77884D01*
X617968Y65184D01*
X643368Y141384D02*
X643368Y154084D01*
X643368Y141384D02*
X637018Y135034D01*
X624318Y135034D01*
X617968Y141384D01*
X637018Y135034D02*
X643368Y128684D01*
X643368Y115984D01*
X637018Y109634D01*
X624318Y109634D01*
X617968Y115984D01*
X617968Y128684D01*
X624318Y135034D01*
X643368Y179484D02*
X637018Y185834D01*
X643368Y179484D02*
X643368Y166784D01*
X637018Y160434D01*
X624318Y160434D01*
X617968Y166784D01*
X617968Y179484D01*
X624318Y185834D01*
X637018Y160434D02*
X643368Y154084D01*
X624318Y160434D02*
X617968Y154084D01*
X617968Y141384D01*
X643368Y217584D02*
X643368Y230284D01*
X643368Y217584D02*
X637018Y211234D01*
X624318Y211234D01*
X617968Y217584D01*
X637018Y211234D02*
X643368Y204884D01*
X643368Y192184D01*
X637018Y185834D01*
X624318Y185834D01*
X617968Y192184D01*
X617968Y204884D01*
X624318Y211234D01*
X643368Y255684D02*
X637018Y262034D01*
X643368Y255684D02*
X643368Y242984D01*
X637018Y236634D01*
X624318Y236634D01*
X617968Y242984D01*
X617968Y255684D01*
X624318Y262034D01*
X637018Y236634D02*
X643368Y230284D01*
X624318Y236634D02*
X617968Y230284D01*
X617968Y217584D01*
X643368Y293784D02*
X643368Y306484D01*
X643368Y293784D02*
X637018Y287434D01*
X624318Y287434D01*
X617968Y293784D01*
X637018Y287434D02*
X643368Y281084D01*
X643368Y268384D01*
X637018Y262034D01*
X624318Y262034D01*
X617968Y268384D01*
X617968Y281084D01*
X624318Y287434D01*
X643368Y331884D02*
X637018Y338234D01*
X643368Y331884D02*
X643368Y319184D01*
X637018Y312834D01*
X624318Y312834D01*
X617968Y319184D01*
X617968Y331884D01*
X624318Y338234D01*
X637018Y312834D02*
X643368Y306484D01*
X624318Y312834D02*
X617968Y306484D01*
X617968Y293784D01*
X643368Y369984D02*
X643368Y382684D01*
X643368Y369984D02*
X637018Y363634D01*
X624318Y363634D01*
X617968Y369984D01*
X637018Y363634D02*
X643368Y357284D01*
X643368Y344584D01*
X637018Y338234D01*
X624318Y338234D01*
X617968Y344584D01*
X617968Y357284D01*
X624318Y363634D01*
X624318Y389034D02*
X637018Y389034D01*
X643368Y382684D01*
X624318Y389034D02*
X617968Y382684D01*
X617968Y369984D01*
X637018Y33434D02*
X643368Y27084D01*
X643368Y14384D01*
X637018Y8034D01*
X624318Y8034D01*
X617968Y14384D01*
X617968Y27084D01*
X624318Y33434D01*
D11*
X923000Y606460D02*
X923000Y684460D01*
X1015000Y684460D02*
X1015000Y606460D01*
X975000Y606460D02*
X948000Y606460D01*
X948000Y684460D02*
X975000Y684460D01*
X923000Y624460D02*
X923000Y613460D01*
X923000Y666460D02*
X923000Y677460D01*
D12*
X897000Y615960D02*
X795000Y615960D01*
X897000Y615960D02*
X897000Y667960D01*
X795000Y667960D01*
X795000Y615960D01*
D13*
X804000Y625710D03*
D14*
X806701Y709596D02*
X812966Y709596D01*
X809834Y712728D02*
X809834Y706463D01*
X809224Y583279D02*
X809224Y577014D01*
X806092Y580146D02*
X812357Y580146D01*
D23*
X830000Y576960D03*
X830000Y564960D03*
D16*
X830000Y570960D03*
D17*
X814474Y557752D02*
X814474Y546068D01*
X811228Y557752D02*
X817719Y557752D01*
X829036Y557752D02*
X821247Y546068D01*
X829036Y546068D02*
X821247Y557752D01*
X833326Y555156D02*
X836572Y557752D01*
X836572Y546068D01*
X839817Y546068D02*
X833326Y546068D01*
D14*
X889864Y558641D02*
X889864Y564906D01*
X886732Y561774D02*
X892997Y561774D01*
D23*
X867000Y564960D03*
X867000Y576960D03*
D16*
X867000Y570960D03*
D17*
X856495Y557752D02*
X856495Y546068D01*
X856495Y557752D02*
X859740Y557752D01*
X859853Y557750D01*
X859966Y557744D01*
X860079Y557734D01*
X860192Y557720D01*
X860304Y557703D01*
X860415Y557681D01*
X860525Y557656D01*
X860635Y557626D01*
X860743Y557593D01*
X860850Y557556D01*
X860956Y557516D01*
X861060Y557471D01*
X861163Y557423D01*
X861264Y557372D01*
X861363Y557317D01*
X861460Y557259D01*
X861555Y557197D01*
X861648Y557132D01*
X861738Y557064D01*
X861826Y556993D01*
X861912Y556918D01*
X861995Y556841D01*
X862075Y556761D01*
X862152Y556678D01*
X862227Y556592D01*
X862298Y556504D01*
X862366Y556414D01*
X862431Y556321D01*
X862493Y556226D01*
X862551Y556129D01*
X862606Y556030D01*
X862657Y555929D01*
X862705Y555826D01*
X862750Y555722D01*
X862790Y555616D01*
X862827Y555509D01*
X862860Y555401D01*
X862890Y555291D01*
X862915Y555181D01*
X862937Y555070D01*
X862954Y554958D01*
X862968Y554845D01*
X862978Y554732D01*
X862984Y554619D01*
X862986Y554506D01*
X862984Y554393D01*
X862978Y554280D01*
X862968Y554167D01*
X862954Y554054D01*
X862937Y553942D01*
X862915Y553831D01*
X862890Y553721D01*
X862860Y553611D01*
X862827Y553503D01*
X862790Y553396D01*
X862750Y553290D01*
X862705Y553186D01*
X862657Y553083D01*
X862606Y552982D01*
X862551Y552883D01*
X862493Y552786D01*
X862431Y552691D01*
X862366Y552598D01*
X862298Y552508D01*
X862227Y552420D01*
X862152Y552334D01*
X862075Y552251D01*
X861995Y552171D01*
X861912Y552094D01*
X861826Y552019D01*
X861738Y551948D01*
X861648Y551880D01*
X861555Y551815D01*
X861460Y551753D01*
X861363Y551695D01*
X861264Y551640D01*
X861163Y551589D01*
X861060Y551541D01*
X860956Y551496D01*
X860850Y551456D01*
X860743Y551419D01*
X860635Y551386D01*
X860525Y551356D01*
X860415Y551331D01*
X860304Y551309D01*
X860192Y551292D01*
X860079Y551278D01*
X859966Y551268D01*
X859853Y551262D01*
X859740Y551260D01*
X859740Y551261D02*
X856495Y551261D01*
X860389Y551261D02*
X862986Y546068D01*
X867202Y546068D02*
X874991Y557752D01*
X867202Y557752D02*
X874991Y546068D01*
X879281Y555156D02*
X882526Y557752D01*
X882526Y546068D01*
X879281Y546068D02*
X885772Y546068D01*
D24*
X748515Y636146D03*
X748515Y650878D03*
X748485Y610774D03*
X748485Y596042D03*
D25*
X467315Y753920D02*
X409815Y753920D01*
X409815Y579920D01*
X467315Y579920D01*
X467315Y753920D01*
X466740Y604690D02*
X461740Y604690D01*
X461740Y729150D02*
X466740Y729150D01*
X380905Y580600D02*
X323405Y580600D01*
X380905Y580600D02*
X380905Y754600D01*
X323405Y754600D01*
X323405Y580600D01*
X323980Y729830D02*
X328980Y729830D01*
X328980Y605370D02*
X323980Y605370D01*
X459595Y182500D02*
X517095Y182500D01*
X459595Y182500D02*
X459595Y58500D01*
X517095Y58500D01*
X517095Y182500D01*
X516520Y83162D02*
X511520Y83162D01*
X511520Y157838D02*
X516520Y157838D01*
X433315Y182600D02*
X375815Y182600D01*
X375815Y58600D01*
X433315Y58600D01*
X433315Y182600D01*
X432740Y83262D02*
X427740Y83262D01*
X427740Y157938D02*
X432740Y157938D01*
X632720Y422805D02*
X632720Y480305D01*
X632720Y422805D02*
X731720Y422805D01*
X731720Y480305D01*
X632720Y480305D01*
X707112Y479730D02*
X707112Y474730D01*
X657328Y474730D02*
X657328Y479730D01*
X633340Y500195D02*
X633340Y557695D01*
X633340Y500195D02*
X732340Y500195D01*
X732340Y557695D01*
X633340Y557695D01*
X707732Y557120D02*
X707732Y552120D01*
X657948Y552120D02*
X657948Y557120D01*
D11*
X414440Y503680D02*
X409140Y503680D01*
X481140Y503680D02*
X481140Y498380D01*
X481140Y431680D02*
X475840Y431680D01*
X414440Y431680D02*
X409140Y431680D01*
X481140Y431680D02*
X481140Y436980D01*
X481140Y503680D02*
X475840Y503680D01*
X409140Y503680D02*
X409140Y498380D01*
X409140Y436980D02*
X409140Y431680D01*
D26*
X388140Y499680D02*
X388142Y499743D01*
X388148Y499805D01*
X388158Y499867D01*
X388171Y499929D01*
X388189Y499989D01*
X388210Y500048D01*
X388235Y500106D01*
X388264Y500162D01*
X388296Y500216D01*
X388331Y500268D01*
X388369Y500317D01*
X388411Y500365D01*
X388455Y500409D01*
X388503Y500451D01*
X388552Y500489D01*
X388604Y500524D01*
X388658Y500556D01*
X388714Y500585D01*
X388772Y500610D01*
X388831Y500631D01*
X388891Y500649D01*
X388953Y500662D01*
X389015Y500672D01*
X389077Y500678D01*
X389140Y500680D01*
X389203Y500678D01*
X389265Y500672D01*
X389327Y500662D01*
X389389Y500649D01*
X389449Y500631D01*
X389508Y500610D01*
X389566Y500585D01*
X389622Y500556D01*
X389676Y500524D01*
X389728Y500489D01*
X389777Y500451D01*
X389825Y500409D01*
X389869Y500365D01*
X389911Y500317D01*
X389949Y500268D01*
X389984Y500216D01*
X390016Y500162D01*
X390045Y500106D01*
X390070Y500048D01*
X390091Y499989D01*
X390109Y499929D01*
X390122Y499867D01*
X390132Y499805D01*
X390138Y499743D01*
X390140Y499680D01*
X390138Y499617D01*
X390132Y499555D01*
X390122Y499493D01*
X390109Y499431D01*
X390091Y499371D01*
X390070Y499312D01*
X390045Y499254D01*
X390016Y499198D01*
X389984Y499144D01*
X389949Y499092D01*
X389911Y499043D01*
X389869Y498995D01*
X389825Y498951D01*
X389777Y498909D01*
X389728Y498871D01*
X389676Y498836D01*
X389622Y498804D01*
X389566Y498775D01*
X389508Y498750D01*
X389449Y498729D01*
X389389Y498711D01*
X389327Y498698D01*
X389265Y498688D01*
X389203Y498682D01*
X389140Y498680D01*
X389077Y498682D01*
X389015Y498688D01*
X388953Y498698D01*
X388891Y498711D01*
X388831Y498729D01*
X388772Y498750D01*
X388714Y498775D01*
X388658Y498804D01*
X388604Y498836D01*
X388552Y498871D01*
X388503Y498909D01*
X388455Y498951D01*
X388411Y498995D01*
X388369Y499043D01*
X388331Y499092D01*
X388296Y499144D01*
X388264Y499198D01*
X388235Y499254D01*
X388210Y499312D01*
X388189Y499371D01*
X388171Y499431D01*
X388158Y499493D01*
X388148Y499555D01*
X388142Y499617D01*
X388140Y499680D01*
D27*
X342110Y504340D02*
X342110Y443380D01*
X298930Y443380D02*
X298930Y504340D01*
D22*
X337030Y504340D02*
X337030Y443380D01*
X304010Y443380D02*
X304010Y504340D01*
X312900Y476400D02*
X312900Y471320D01*
X312900Y476400D02*
X328140Y476400D01*
X328140Y471320D01*
X312900Y471320D01*
X312900Y480210D02*
X320520Y480210D01*
X328140Y480210D01*
X320520Y467510D02*
X312900Y467510D01*
X320520Y467510D02*
X328140Y467510D01*
X320520Y480210D02*
X320520Y486560D01*
X320520Y467510D02*
X320520Y461160D01*
D27*
X298930Y443380D02*
X298936Y442854D01*
X298956Y442329D01*
X298988Y441804D01*
X299032Y441280D01*
X299090Y440758D01*
X299160Y440236D01*
X299243Y439717D01*
X299338Y439200D01*
X299447Y438686D01*
X299567Y438174D01*
X299700Y437665D01*
X299845Y437160D01*
X300003Y436658D01*
X300173Y436161D01*
X300355Y435667D01*
X300548Y435179D01*
X300754Y434695D01*
X300971Y434216D01*
X301200Y433743D01*
X301441Y433275D01*
X301692Y432813D01*
X301955Y432358D01*
X302229Y431909D01*
X302514Y431467D01*
X302809Y431032D01*
X303115Y430605D01*
X303432Y430185D01*
X303758Y429773D01*
X304094Y429368D01*
X304440Y428973D01*
X304796Y428585D01*
X305161Y428207D01*
X305535Y427837D01*
X305918Y427477D01*
X306309Y427126D01*
X306709Y426785D01*
X307118Y426454D01*
X307534Y426132D01*
X307958Y425821D01*
X308389Y425520D01*
X308827Y425230D01*
X309273Y424951D01*
X309725Y424683D01*
X310184Y424425D01*
X310648Y424179D01*
X311119Y423944D01*
X311595Y423721D01*
X312076Y423510D01*
X312562Y423310D01*
X313053Y423122D01*
X313549Y422946D01*
X314049Y422783D01*
X314552Y422631D01*
X315059Y422492D01*
X315569Y422365D01*
X316083Y422251D01*
X316598Y422149D01*
X317117Y422060D01*
X317637Y421983D01*
X318159Y421920D01*
X318682Y421868D01*
X319206Y421830D01*
X319731Y421804D01*
X320257Y421792D01*
X320783Y421792D01*
X321309Y421804D01*
X321834Y421830D01*
X322358Y421868D01*
X322881Y421920D01*
X323403Y421983D01*
X323923Y422060D01*
X324442Y422149D01*
X324957Y422251D01*
X325471Y422365D01*
X325981Y422492D01*
X326488Y422631D01*
X326991Y422783D01*
X327491Y422946D01*
X327987Y423122D01*
X328478Y423310D01*
X328964Y423510D01*
X329445Y423721D01*
X329921Y423944D01*
X330392Y424179D01*
X330856Y424425D01*
X331315Y424683D01*
X331767Y424951D01*
X332213Y425230D01*
X332651Y425520D01*
X333082Y425821D01*
X333506Y426132D01*
X333922Y426454D01*
X334331Y426785D01*
X334731Y427126D01*
X335122Y427477D01*
X335505Y427837D01*
X335879Y428207D01*
X336244Y428585D01*
X336600Y428973D01*
X336946Y429368D01*
X337282Y429773D01*
X337608Y430185D01*
X337925Y430605D01*
X338231Y431032D01*
X338526Y431467D01*
X338811Y431909D01*
X339085Y432358D01*
X339348Y432813D01*
X339599Y433275D01*
X339840Y433743D01*
X340069Y434216D01*
X340286Y434695D01*
X340492Y435179D01*
X340685Y435667D01*
X340867Y436161D01*
X341037Y436658D01*
X341195Y437160D01*
X341340Y437665D01*
X341473Y438174D01*
X341593Y438686D01*
X341702Y439200D01*
X341797Y439717D01*
X341880Y440236D01*
X341950Y440758D01*
X342008Y441280D01*
X342052Y441804D01*
X342084Y442329D01*
X342104Y442854D01*
X342110Y443380D01*
X342110Y504340D02*
X342104Y504866D01*
X342084Y505391D01*
X342052Y505916D01*
X342008Y506440D01*
X341950Y506962D01*
X341880Y507484D01*
X341797Y508003D01*
X341702Y508520D01*
X341593Y509034D01*
X341473Y509546D01*
X341340Y510055D01*
X341195Y510560D01*
X341037Y511062D01*
X340867Y511559D01*
X340685Y512053D01*
X340492Y512541D01*
X340286Y513025D01*
X340069Y513504D01*
X339840Y513977D01*
X339599Y514445D01*
X339348Y514907D01*
X339085Y515362D01*
X338811Y515811D01*
X338526Y516253D01*
X338231Y516688D01*
X337925Y517115D01*
X337608Y517535D01*
X337282Y517947D01*
X336946Y518352D01*
X336600Y518747D01*
X336244Y519135D01*
X335879Y519513D01*
X335505Y519883D01*
X335122Y520243D01*
X334731Y520594D01*
X334331Y520935D01*
X333922Y521266D01*
X333506Y521588D01*
X333082Y521899D01*
X332651Y522200D01*
X332213Y522490D01*
X331767Y522769D01*
X331315Y523037D01*
X330856Y523295D01*
X330392Y523541D01*
X329921Y523776D01*
X329445Y523999D01*
X328964Y524210D01*
X328478Y524410D01*
X327987Y524598D01*
X327491Y524774D01*
X326991Y524937D01*
X326488Y525089D01*
X325981Y525228D01*
X325471Y525355D01*
X324957Y525469D01*
X324442Y525571D01*
X323923Y525660D01*
X323403Y525737D01*
X322881Y525800D01*
X322358Y525852D01*
X321834Y525890D01*
X321309Y525916D01*
X320783Y525928D01*
X320257Y525928D01*
X319731Y525916D01*
X319206Y525890D01*
X318682Y525852D01*
X318159Y525800D01*
X317637Y525737D01*
X317117Y525660D01*
X316598Y525571D01*
X316083Y525469D01*
X315569Y525355D01*
X315059Y525228D01*
X314552Y525089D01*
X314049Y524937D01*
X313549Y524774D01*
X313053Y524598D01*
X312562Y524410D01*
X312076Y524210D01*
X311595Y523999D01*
X311119Y523776D01*
X310648Y523541D01*
X310184Y523295D01*
X309725Y523037D01*
X309273Y522769D01*
X308827Y522490D01*
X308389Y522200D01*
X307958Y521899D01*
X307534Y521588D01*
X307118Y521266D01*
X306709Y520935D01*
X306309Y520594D01*
X305918Y520243D01*
X305535Y519883D01*
X305161Y519513D01*
X304796Y519135D01*
X304440Y518747D01*
X304094Y518352D01*
X303758Y517947D01*
X303432Y517535D01*
X303115Y517115D01*
X302809Y516688D01*
X302514Y516253D01*
X302229Y515811D01*
X301955Y515362D01*
X301692Y514907D01*
X301441Y514445D01*
X301200Y513977D01*
X300971Y513504D01*
X300754Y513025D01*
X300548Y512541D01*
X300355Y512053D01*
X300173Y511559D01*
X300003Y511062D01*
X299845Y510560D01*
X299700Y510055D01*
X299567Y509546D01*
X299447Y509034D01*
X299338Y508520D01*
X299243Y508003D01*
X299160Y507484D01*
X299090Y506962D01*
X299032Y506440D01*
X298988Y505916D01*
X298956Y505391D01*
X298936Y504866D01*
X298930Y504340D01*
D22*
X304010Y443380D02*
X304015Y442978D01*
X304030Y442576D01*
X304054Y442175D01*
X304088Y441774D01*
X304132Y441375D01*
X304186Y440976D01*
X304249Y440579D01*
X304322Y440184D01*
X304405Y439790D01*
X304497Y439399D01*
X304599Y439010D01*
X304710Y438623D01*
X304831Y438240D01*
X304960Y437859D01*
X305099Y437482D01*
X305248Y437108D01*
X305405Y436738D01*
X305571Y436372D01*
X305746Y436010D01*
X305930Y435653D01*
X306122Y435300D01*
X306323Y434952D01*
X306533Y434608D01*
X306751Y434270D01*
X306977Y433938D01*
X307211Y433611D01*
X307452Y433290D01*
X307702Y432974D01*
X307959Y432665D01*
X308224Y432363D01*
X308496Y432066D01*
X308775Y431777D01*
X309061Y431494D01*
X309354Y431219D01*
X309653Y430951D01*
X309959Y430690D01*
X310271Y430436D01*
X310589Y430190D01*
X310914Y429953D01*
X311243Y429723D01*
X311579Y429501D01*
X311919Y429287D01*
X312265Y429082D01*
X312616Y428885D01*
X312971Y428697D01*
X313331Y428517D01*
X313695Y428347D01*
X314063Y428185D01*
X314435Y428032D01*
X314810Y427889D01*
X315189Y427754D01*
X315571Y427629D01*
X315956Y427513D01*
X316344Y427407D01*
X316734Y427310D01*
X317127Y427222D01*
X317521Y427145D01*
X317917Y427076D01*
X318315Y427018D01*
X318714Y426969D01*
X319114Y426930D01*
X319515Y426901D01*
X319917Y426881D01*
X320319Y426871D01*
X320721Y426871D01*
X321123Y426881D01*
X321525Y426901D01*
X321926Y426930D01*
X322326Y426969D01*
X322725Y427018D01*
X323123Y427076D01*
X323519Y427145D01*
X323913Y427222D01*
X324306Y427310D01*
X324696Y427407D01*
X325084Y427513D01*
X325469Y427629D01*
X325851Y427754D01*
X326230Y427889D01*
X326605Y428032D01*
X326977Y428185D01*
X327345Y428347D01*
X327709Y428517D01*
X328069Y428697D01*
X328424Y428885D01*
X328775Y429082D01*
X329121Y429287D01*
X329461Y429501D01*
X329797Y429723D01*
X330126Y429953D01*
X330451Y430190D01*
X330769Y430436D01*
X331081Y430690D01*
X331387Y430951D01*
X331686Y431219D01*
X331979Y431494D01*
X332265Y431777D01*
X332544Y432066D01*
X332816Y432363D01*
X333081Y432665D01*
X333338Y432974D01*
X333588Y433290D01*
X333829Y433611D01*
X334063Y433938D01*
X334289Y434270D01*
X334507Y434608D01*
X334717Y434952D01*
X334918Y435300D01*
X335110Y435653D01*
X335294Y436010D01*
X335469Y436372D01*
X335635Y436738D01*
X335792Y437108D01*
X335941Y437482D01*
X336080Y437859D01*
X336209Y438240D01*
X336330Y438623D01*
X336441Y439010D01*
X336543Y439399D01*
X336635Y439790D01*
X336718Y440184D01*
X336791Y440579D01*
X336854Y440976D01*
X336908Y441375D01*
X336952Y441774D01*
X336986Y442175D01*
X337010Y442576D01*
X337025Y442978D01*
X337030Y443380D01*
X337030Y504340D02*
X337025Y504742D01*
X337010Y505144D01*
X336986Y505545D01*
X336952Y505946D01*
X336908Y506345D01*
X336854Y506744D01*
X336791Y507141D01*
X336718Y507536D01*
X336635Y507930D01*
X336543Y508321D01*
X336441Y508710D01*
X336330Y509097D01*
X336209Y509480D01*
X336080Y509861D01*
X335941Y510238D01*
X335792Y510612D01*
X335635Y510982D01*
X335469Y511348D01*
X335294Y511710D01*
X335110Y512067D01*
X334918Y512420D01*
X334717Y512768D01*
X334507Y513112D01*
X334289Y513450D01*
X334063Y513782D01*
X333829Y514109D01*
X333588Y514430D01*
X333338Y514746D01*
X333081Y515055D01*
X332816Y515357D01*
X332544Y515654D01*
X332265Y515943D01*
X331979Y516226D01*
X331686Y516501D01*
X331387Y516769D01*
X331081Y517030D01*
X330769Y517284D01*
X330451Y517530D01*
X330126Y517767D01*
X329797Y517997D01*
X329461Y518219D01*
X329121Y518433D01*
X328775Y518638D01*
X328424Y518835D01*
X328069Y519023D01*
X327709Y519203D01*
X327345Y519373D01*
X326977Y519535D01*
X326605Y519688D01*
X326230Y519831D01*
X325851Y519966D01*
X325469Y520091D01*
X325084Y520207D01*
X324696Y520313D01*
X324306Y520410D01*
X323913Y520498D01*
X323519Y520575D01*
X323123Y520644D01*
X322725Y520702D01*
X322326Y520751D01*
X321926Y520790D01*
X321525Y520819D01*
X321123Y520839D01*
X320721Y520849D01*
X320319Y520849D01*
X319917Y520839D01*
X319515Y520819D01*
X319114Y520790D01*
X318714Y520751D01*
X318315Y520702D01*
X317917Y520644D01*
X317521Y520575D01*
X317127Y520498D01*
X316734Y520410D01*
X316344Y520313D01*
X315956Y520207D01*
X315571Y520091D01*
X315189Y519966D01*
X314810Y519831D01*
X314435Y519688D01*
X314063Y519535D01*
X313695Y519373D01*
X313331Y519203D01*
X312971Y519023D01*
X312616Y518835D01*
X312265Y518638D01*
X311919Y518433D01*
X311579Y518219D01*
X311243Y517997D01*
X310914Y517767D01*
X310589Y517530D01*
X310271Y517284D01*
X309959Y517030D01*
X309653Y516769D01*
X309354Y516501D01*
X309061Y516226D01*
X308775Y515943D01*
X308496Y515654D01*
X308224Y515357D01*
X307959Y515055D01*
X307702Y514746D01*
X307452Y514430D01*
X307211Y514109D01*
X306977Y513782D01*
X306751Y513450D01*
X306533Y513112D01*
X306323Y512768D01*
X306122Y512420D01*
X305930Y512067D01*
X305746Y511710D01*
X305571Y511348D01*
X305405Y510982D01*
X305248Y510612D01*
X305099Y510238D01*
X304960Y509861D01*
X304831Y509480D01*
X304710Y509097D01*
X304599Y508710D01*
X304497Y508321D01*
X304405Y507930D01*
X304322Y507536D01*
X304249Y507141D01*
X304186Y506744D01*
X304132Y506345D01*
X304088Y505946D01*
X304054Y505545D01*
X304030Y505144D01*
X304015Y504742D01*
X304010Y504340D01*
D11*
X103140Y410390D02*
X58140Y410390D01*
X110140Y391940D02*
X110140Y368940D01*
X103140Y350490D02*
X57140Y350490D01*
X50190Y368940D02*
X50190Y391940D01*
X62590Y380440D02*
X62595Y380871D01*
X62611Y381301D01*
X62638Y381731D01*
X62675Y382160D01*
X62722Y382588D01*
X62780Y383015D01*
X62848Y383440D01*
X62927Y383864D01*
X63016Y384285D01*
X63116Y384704D01*
X63226Y385121D01*
X63346Y385534D01*
X63476Y385945D01*
X63616Y386352D01*
X63766Y386756D01*
X63926Y387156D01*
X64096Y387552D01*
X64275Y387944D01*
X64464Y388331D01*
X64662Y388713D01*
X64870Y389090D01*
X65087Y389463D01*
X65313Y389829D01*
X65548Y390190D01*
X65791Y390545D01*
X66044Y390895D01*
X66305Y391237D01*
X66574Y391574D01*
X66851Y391903D01*
X67136Y392226D01*
X67429Y392541D01*
X67730Y392850D01*
X68039Y393151D01*
X68354Y393444D01*
X68677Y393729D01*
X69006Y394006D01*
X69343Y394275D01*
X69685Y394536D01*
X70035Y394789D01*
X70390Y395032D01*
X70751Y395267D01*
X71117Y395493D01*
X71490Y395710D01*
X71867Y395918D01*
X72249Y396116D01*
X72636Y396305D01*
X73028Y396484D01*
X73424Y396654D01*
X73824Y396814D01*
X74228Y396964D01*
X74635Y397104D01*
X75046Y397234D01*
X75459Y397354D01*
X75876Y397464D01*
X76295Y397564D01*
X76716Y397653D01*
X77140Y397732D01*
X77565Y397800D01*
X77992Y397858D01*
X78420Y397905D01*
X78849Y397942D01*
X79279Y397969D01*
X79709Y397985D01*
X80140Y397990D01*
X80571Y397985D01*
X81001Y397969D01*
X81431Y397942D01*
X81860Y397905D01*
X82288Y397858D01*
X82715Y397800D01*
X83140Y397732D01*
X83564Y397653D01*
X83985Y397564D01*
X84404Y397464D01*
X84821Y397354D01*
X85234Y397234D01*
X85645Y397104D01*
X86052Y396964D01*
X86456Y396814D01*
X86856Y396654D01*
X87252Y396484D01*
X87644Y396305D01*
X88031Y396116D01*
X88413Y395918D01*
X88790Y395710D01*
X89163Y395493D01*
X89529Y395267D01*
X89890Y395032D01*
X90245Y394789D01*
X90595Y394536D01*
X90937Y394275D01*
X91274Y394006D01*
X91603Y393729D01*
X91926Y393444D01*
X92241Y393151D01*
X92550Y392850D01*
X92851Y392541D01*
X93144Y392226D01*
X93429Y391903D01*
X93706Y391574D01*
X93975Y391237D01*
X94236Y390895D01*
X94489Y390545D01*
X94732Y390190D01*
X94967Y389829D01*
X95193Y389463D01*
X95410Y389090D01*
X95618Y388713D01*
X95816Y388331D01*
X96005Y387944D01*
X96184Y387552D01*
X96354Y387156D01*
X96514Y386756D01*
X96664Y386352D01*
X96804Y385945D01*
X96934Y385534D01*
X97054Y385121D01*
X97164Y384704D01*
X97264Y384285D01*
X97353Y383864D01*
X97432Y383440D01*
X97500Y383015D01*
X97558Y382588D01*
X97605Y382160D01*
X97642Y381731D01*
X97669Y381301D01*
X97685Y380871D01*
X97690Y380440D01*
X97685Y380009D01*
X97669Y379579D01*
X97642Y379149D01*
X97605Y378720D01*
X97558Y378292D01*
X97500Y377865D01*
X97432Y377440D01*
X97353Y377016D01*
X97264Y376595D01*
X97164Y376176D01*
X97054Y375759D01*
X96934Y375346D01*
X96804Y374935D01*
X96664Y374528D01*
X96514Y374124D01*
X96354Y373724D01*
X96184Y373328D01*
X96005Y372936D01*
X95816Y372549D01*
X95618Y372167D01*
X95410Y371790D01*
X95193Y371417D01*
X94967Y371051D01*
X94732Y370690D01*
X94489Y370335D01*
X94236Y369985D01*
X93975Y369643D01*
X93706Y369306D01*
X93429Y368977D01*
X93144Y368654D01*
X92851Y368339D01*
X92550Y368030D01*
X92241Y367729D01*
X91926Y367436D01*
X91603Y367151D01*
X91274Y366874D01*
X90937Y366605D01*
X90595Y366344D01*
X90245Y366091D01*
X89890Y365848D01*
X89529Y365613D01*
X89163Y365387D01*
X88790Y365170D01*
X88413Y364962D01*
X88031Y364764D01*
X87644Y364575D01*
X87252Y364396D01*
X86856Y364226D01*
X86456Y364066D01*
X86052Y363916D01*
X85645Y363776D01*
X85234Y363646D01*
X84821Y363526D01*
X84404Y363416D01*
X83985Y363316D01*
X83564Y363227D01*
X83140Y363148D01*
X82715Y363080D01*
X82288Y363022D01*
X81860Y362975D01*
X81431Y362938D01*
X81001Y362911D01*
X80571Y362895D01*
X80140Y362890D01*
X79709Y362895D01*
X79279Y362911D01*
X78849Y362938D01*
X78420Y362975D01*
X77992Y363022D01*
X77565Y363080D01*
X77140Y363148D01*
X76716Y363227D01*
X76295Y363316D01*
X75876Y363416D01*
X75459Y363526D01*
X75046Y363646D01*
X74635Y363776D01*
X74228Y363916D01*
X73824Y364066D01*
X73424Y364226D01*
X73028Y364396D01*
X72636Y364575D01*
X72249Y364764D01*
X71867Y364962D01*
X71490Y365170D01*
X71117Y365387D01*
X70751Y365613D01*
X70390Y365848D01*
X70035Y366091D01*
X69685Y366344D01*
X69343Y366605D01*
X69006Y366874D01*
X68677Y367151D01*
X68354Y367436D01*
X68039Y367729D01*
X67730Y368030D01*
X67429Y368339D01*
X67136Y368654D01*
X66851Y368977D01*
X66574Y369306D01*
X66305Y369643D01*
X66044Y369985D01*
X65791Y370335D01*
X65548Y370690D01*
X65313Y371051D01*
X65087Y371417D01*
X64870Y371790D01*
X64662Y372167D01*
X64464Y372549D01*
X64275Y372936D01*
X64096Y373328D01*
X63926Y373724D01*
X63766Y374124D01*
X63616Y374528D01*
X63476Y374935D01*
X63346Y375346D01*
X63226Y375759D01*
X63116Y376176D01*
X63016Y376595D01*
X62927Y377016D01*
X62848Y377440D01*
X62780Y377865D01*
X62722Y378292D01*
X62675Y378720D01*
X62638Y379149D01*
X62611Y379579D01*
X62595Y380009D01*
X62590Y380440D01*
D26*
X34690Y402940D02*
X34692Y403003D01*
X34698Y403065D01*
X34708Y403127D01*
X34721Y403189D01*
X34739Y403249D01*
X34760Y403308D01*
X34785Y403366D01*
X34814Y403422D01*
X34846Y403476D01*
X34881Y403528D01*
X34919Y403577D01*
X34961Y403625D01*
X35005Y403669D01*
X35053Y403711D01*
X35102Y403749D01*
X35154Y403784D01*
X35208Y403816D01*
X35264Y403845D01*
X35322Y403870D01*
X35381Y403891D01*
X35441Y403909D01*
X35503Y403922D01*
X35565Y403932D01*
X35627Y403938D01*
X35690Y403940D01*
X35753Y403938D01*
X35815Y403932D01*
X35877Y403922D01*
X35939Y403909D01*
X35999Y403891D01*
X36058Y403870D01*
X36116Y403845D01*
X36172Y403816D01*
X36226Y403784D01*
X36278Y403749D01*
X36327Y403711D01*
X36375Y403669D01*
X36419Y403625D01*
X36461Y403577D01*
X36499Y403528D01*
X36534Y403476D01*
X36566Y403422D01*
X36595Y403366D01*
X36620Y403308D01*
X36641Y403249D01*
X36659Y403189D01*
X36672Y403127D01*
X36682Y403065D01*
X36688Y403003D01*
X36690Y402940D01*
X36688Y402877D01*
X36682Y402815D01*
X36672Y402753D01*
X36659Y402691D01*
X36641Y402631D01*
X36620Y402572D01*
X36595Y402514D01*
X36566Y402458D01*
X36534Y402404D01*
X36499Y402352D01*
X36461Y402303D01*
X36419Y402255D01*
X36375Y402211D01*
X36327Y402169D01*
X36278Y402131D01*
X36226Y402096D01*
X36172Y402064D01*
X36116Y402035D01*
X36058Y402010D01*
X35999Y401989D01*
X35939Y401971D01*
X35877Y401958D01*
X35815Y401948D01*
X35753Y401942D01*
X35690Y401940D01*
X35627Y401942D01*
X35565Y401948D01*
X35503Y401958D01*
X35441Y401971D01*
X35381Y401989D01*
X35322Y402010D01*
X35264Y402035D01*
X35208Y402064D01*
X35154Y402096D01*
X35102Y402131D01*
X35053Y402169D01*
X35005Y402211D01*
X34961Y402255D01*
X34919Y402303D01*
X34881Y402352D01*
X34846Y402404D01*
X34814Y402458D01*
X34785Y402514D01*
X34760Y402572D01*
X34739Y402631D01*
X34721Y402691D01*
X34708Y402753D01*
X34698Y402815D01*
X34692Y402877D01*
X34690Y402940D01*
D14*
X36871Y415260D02*
X36871Y422508D01*
X38884Y422508D01*
X38884Y422507D02*
X38973Y422505D01*
X39062Y422499D01*
X39150Y422489D01*
X39238Y422476D01*
X39326Y422458D01*
X39412Y422436D01*
X39498Y422411D01*
X39582Y422382D01*
X39665Y422349D01*
X39746Y422313D01*
X39826Y422273D01*
X39903Y422230D01*
X39979Y422183D01*
X40053Y422133D01*
X40124Y422080D01*
X40193Y422023D01*
X40259Y421964D01*
X40323Y421902D01*
X40384Y421837D01*
X40442Y421769D01*
X40497Y421699D01*
X40548Y421626D01*
X40597Y421551D01*
X40642Y421475D01*
X40684Y421396D01*
X40722Y421315D01*
X40756Y421233D01*
X40787Y421150D01*
X40814Y421065D01*
X40838Y420979D01*
X40857Y420892D01*
X40873Y420805D01*
X40885Y420716D01*
X40893Y420628D01*
X40897Y420539D01*
X40897Y420449D01*
X40893Y420360D01*
X40885Y420272D01*
X40873Y420183D01*
X40857Y420096D01*
X40838Y420009D01*
X40814Y419923D01*
X40787Y419838D01*
X40756Y419755D01*
X40722Y419673D01*
X40684Y419592D01*
X40642Y419513D01*
X40597Y419437D01*
X40548Y419362D01*
X40497Y419289D01*
X40442Y419219D01*
X40384Y419151D01*
X40323Y419086D01*
X40259Y419024D01*
X40193Y418965D01*
X40124Y418908D01*
X40053Y418855D01*
X39979Y418805D01*
X39903Y418758D01*
X39826Y418715D01*
X39746Y418675D01*
X39665Y418639D01*
X39582Y418606D01*
X39498Y418577D01*
X39412Y418552D01*
X39326Y418530D01*
X39238Y418512D01*
X39150Y418499D01*
X39062Y418489D01*
X38973Y418483D01*
X38884Y418481D01*
X36871Y418481D01*
X39287Y418481D02*
X40897Y415260D01*
X44284Y415260D02*
X47505Y415260D01*
X44284Y415260D02*
X44284Y422508D01*
X47505Y422508D01*
X46700Y419287D02*
X44284Y419287D01*
X52451Y415260D02*
X52530Y415262D01*
X52609Y415268D01*
X52687Y415277D01*
X52765Y415291D01*
X52842Y415308D01*
X52919Y415329D01*
X52994Y415354D01*
X53068Y415383D01*
X53140Y415415D01*
X53210Y415450D01*
X53279Y415489D01*
X53346Y415532D01*
X53411Y415577D01*
X53473Y415626D01*
X53533Y415677D01*
X53590Y415732D01*
X53645Y415789D01*
X53696Y415849D01*
X53745Y415911D01*
X53791Y415976D01*
X53833Y416043D01*
X53872Y416112D01*
X53907Y416182D01*
X53939Y416255D01*
X53968Y416328D01*
X53993Y416403D01*
X54014Y416480D01*
X54031Y416557D01*
X54045Y416635D01*
X54054Y416713D01*
X54060Y416792D01*
X54062Y416871D01*
X52451Y415260D02*
X52339Y415262D01*
X52227Y415267D01*
X52116Y415277D01*
X52005Y415289D01*
X51894Y415306D01*
X51784Y415326D01*
X51674Y415350D01*
X51566Y415377D01*
X51458Y415408D01*
X51352Y415442D01*
X51247Y415480D01*
X51143Y415522D01*
X51040Y415566D01*
X50939Y415615D01*
X50839Y415666D01*
X50742Y415721D01*
X50646Y415778D01*
X50552Y415839D01*
X50460Y415903D01*
X50371Y415970D01*
X50283Y416040D01*
X50198Y416113D01*
X50115Y416188D01*
X50035Y416267D01*
X50236Y420897D02*
X50238Y420976D01*
X50244Y421055D01*
X50253Y421133D01*
X50267Y421211D01*
X50284Y421288D01*
X50305Y421365D01*
X50330Y421440D01*
X50359Y421514D01*
X50391Y421586D01*
X50426Y421656D01*
X50465Y421725D01*
X50508Y421792D01*
X50553Y421857D01*
X50602Y421919D01*
X50653Y421979D01*
X50708Y422036D01*
X50765Y422091D01*
X50825Y422142D01*
X50887Y422191D01*
X50952Y422236D01*
X51019Y422279D01*
X51088Y422318D01*
X51158Y422353D01*
X51230Y422385D01*
X51304Y422414D01*
X51379Y422439D01*
X51456Y422460D01*
X51533Y422477D01*
X51611Y422491D01*
X51689Y422500D01*
X51768Y422506D01*
X51847Y422508D01*
X51955Y422506D01*
X52063Y422500D01*
X52170Y422491D01*
X52277Y422477D01*
X52384Y422460D01*
X52490Y422439D01*
X52595Y422414D01*
X52699Y422385D01*
X52802Y422353D01*
X52904Y422317D01*
X53004Y422277D01*
X53103Y422234D01*
X53201Y422188D01*
X53296Y422138D01*
X53390Y422084D01*
X53482Y422027D01*
X53572Y421967D01*
X53659Y421904D01*
X51041Y419488D02*
X50976Y419528D01*
X50912Y419572D01*
X50851Y419619D01*
X50792Y419668D01*
X50735Y419721D01*
X50681Y419776D01*
X50629Y419833D01*
X50580Y419893D01*
X50534Y419955D01*
X50491Y420019D01*
X50452Y420085D01*
X50415Y420153D01*
X50381Y420223D01*
X50351Y420294D01*
X50324Y420366D01*
X50301Y420440D01*
X50281Y420515D01*
X50265Y420590D01*
X50252Y420666D01*
X50243Y420743D01*
X50238Y420820D01*
X50236Y420897D01*
X53257Y418280D02*
X53322Y418240D01*
X53386Y418196D01*
X53447Y418149D01*
X53506Y418100D01*
X53563Y418047D01*
X53617Y417992D01*
X53669Y417935D01*
X53718Y417875D01*
X53764Y417813D01*
X53807Y417749D01*
X53846Y417683D01*
X53883Y417615D01*
X53917Y417545D01*
X53947Y417474D01*
X53974Y417402D01*
X53997Y417328D01*
X54017Y417253D01*
X54033Y417178D01*
X54046Y417102D01*
X54055Y417025D01*
X54060Y416948D01*
X54062Y416871D01*
X53256Y418280D02*
X51042Y419488D01*
X57259Y415260D02*
X60480Y415260D01*
X57259Y415260D02*
X57259Y422508D01*
X60480Y422508D01*
X59675Y419287D02*
X57259Y419287D01*
X64783Y422508D02*
X64783Y415260D01*
X62770Y422508D02*
X66796Y422508D01*
D11*
X229960Y105840D02*
X259960Y105840D01*
X229960Y105840D02*
X219960Y105840D01*
X189960Y105840D01*
X189960Y183840D02*
X259960Y183840D01*
X229960Y105840D02*
X229958Y105980D01*
X229952Y106120D01*
X229942Y106260D01*
X229929Y106400D01*
X229911Y106539D01*
X229889Y106678D01*
X229864Y106815D01*
X229835Y106953D01*
X229802Y107089D01*
X229765Y107224D01*
X229724Y107358D01*
X229679Y107491D01*
X229631Y107623D01*
X229579Y107753D01*
X229524Y107882D01*
X229465Y108009D01*
X229402Y108135D01*
X229336Y108259D01*
X229267Y108380D01*
X229194Y108500D01*
X229117Y108618D01*
X229038Y108733D01*
X228955Y108847D01*
X228869Y108957D01*
X228780Y109066D01*
X228688Y109172D01*
X228593Y109275D01*
X228496Y109376D01*
X228395Y109473D01*
X228292Y109568D01*
X228186Y109660D01*
X228077Y109749D01*
X227967Y109835D01*
X227853Y109918D01*
X227738Y109997D01*
X227620Y110074D01*
X227500Y110147D01*
X227379Y110216D01*
X227255Y110282D01*
X227129Y110345D01*
X227002Y110404D01*
X226873Y110459D01*
X226743Y110511D01*
X226611Y110559D01*
X226478Y110604D01*
X226344Y110645D01*
X226209Y110682D01*
X226073Y110715D01*
X225935Y110744D01*
X225798Y110769D01*
X225659Y110791D01*
X225520Y110809D01*
X225380Y110822D01*
X225240Y110832D01*
X225100Y110838D01*
X224960Y110840D01*
X224820Y110838D01*
X224680Y110832D01*
X224540Y110822D01*
X224400Y110809D01*
X224261Y110791D01*
X224122Y110769D01*
X223985Y110744D01*
X223847Y110715D01*
X223711Y110682D01*
X223576Y110645D01*
X223442Y110604D01*
X223309Y110559D01*
X223177Y110511D01*
X223047Y110459D01*
X222918Y110404D01*
X222791Y110345D01*
X222665Y110282D01*
X222541Y110216D01*
X222420Y110147D01*
X222300Y110074D01*
X222182Y109997D01*
X222067Y109918D01*
X221953Y109835D01*
X221843Y109749D01*
X221734Y109660D01*
X221628Y109568D01*
X221525Y109473D01*
X221424Y109376D01*
X221327Y109275D01*
X221232Y109172D01*
X221140Y109066D01*
X221051Y108957D01*
X220965Y108847D01*
X220882Y108733D01*
X220803Y108618D01*
X220726Y108500D01*
X220653Y108380D01*
X220584Y108259D01*
X220518Y108135D01*
X220455Y108009D01*
X220396Y107882D01*
X220341Y107753D01*
X220289Y107623D01*
X220241Y107491D01*
X220196Y107358D01*
X220155Y107224D01*
X220118Y107089D01*
X220085Y106953D01*
X220056Y106815D01*
X220031Y106678D01*
X220009Y106539D01*
X219991Y106400D01*
X219978Y106260D01*
X219968Y106120D01*
X219962Y105980D01*
X219960Y105840D01*
D28*
X271960Y108840D02*
X271962Y108903D01*
X271968Y108965D01*
X271978Y109027D01*
X271991Y109089D01*
X272009Y109149D01*
X272030Y109208D01*
X272055Y109266D01*
X272084Y109322D01*
X272116Y109376D01*
X272151Y109428D01*
X272189Y109477D01*
X272231Y109525D01*
X272275Y109569D01*
X272323Y109611D01*
X272372Y109649D01*
X272424Y109684D01*
X272478Y109716D01*
X272534Y109745D01*
X272592Y109770D01*
X272651Y109791D01*
X272711Y109809D01*
X272773Y109822D01*
X272835Y109832D01*
X272897Y109838D01*
X272960Y109840D01*
X273023Y109838D01*
X273085Y109832D01*
X273147Y109822D01*
X273209Y109809D01*
X273269Y109791D01*
X273328Y109770D01*
X273386Y109745D01*
X273442Y109716D01*
X273496Y109684D01*
X273548Y109649D01*
X273597Y109611D01*
X273645Y109569D01*
X273689Y109525D01*
X273731Y109477D01*
X273769Y109428D01*
X273804Y109376D01*
X273836Y109322D01*
X273865Y109266D01*
X273890Y109208D01*
X273911Y109149D01*
X273929Y109089D01*
X273942Y109027D01*
X273952Y108965D01*
X273958Y108903D01*
X273960Y108840D01*
X273958Y108777D01*
X273952Y108715D01*
X273942Y108653D01*
X273929Y108591D01*
X273911Y108531D01*
X273890Y108472D01*
X273865Y108414D01*
X273836Y108358D01*
X273804Y108304D01*
X273769Y108252D01*
X273731Y108203D01*
X273689Y108155D01*
X273645Y108111D01*
X273597Y108069D01*
X273548Y108031D01*
X273496Y107996D01*
X273442Y107964D01*
X273386Y107935D01*
X273328Y107910D01*
X273269Y107889D01*
X273209Y107871D01*
X273147Y107858D01*
X273085Y107848D01*
X273023Y107842D01*
X272960Y107840D01*
X272897Y107842D01*
X272835Y107848D01*
X272773Y107858D01*
X272711Y107871D01*
X272651Y107889D01*
X272592Y107910D01*
X272534Y107935D01*
X272478Y107964D01*
X272424Y107996D01*
X272372Y108031D01*
X272323Y108069D01*
X272275Y108111D01*
X272231Y108155D01*
X272189Y108203D01*
X272151Y108252D01*
X272116Y108304D01*
X272084Y108358D01*
X272055Y108414D01*
X272030Y108472D01*
X272009Y108531D01*
X271991Y108591D01*
X271978Y108653D01*
X271968Y108715D01*
X271962Y108777D01*
X271960Y108840D01*
D11*
X259960Y105840D02*
X259960Y183840D01*
X189960Y183840D02*
X189960Y105840D01*
X152940Y91460D02*
X251940Y91460D01*
X152940Y91460D02*
X152940Y33960D01*
X177440Y33960D01*
X227440Y33960D01*
X251940Y33960D01*
X251940Y51960D01*
X251940Y91460D01*
X227440Y38460D02*
X227440Y33960D01*
X177440Y33960D02*
X177440Y38460D01*
X246940Y51960D02*
X251940Y51960D01*
X158440Y51960D02*
X153440Y51960D01*
D29*
X53476Y197408D03*
D30*
X112150Y194995D03*
D31*
X114690Y176580D03*
D32*
X112150Y163880D03*
D31*
X114690Y151180D03*
D32*
X112150Y138480D03*
D31*
X114690Y125780D03*
D30*
X112150Y107365D03*
D11*
X141360Y207060D02*
X44840Y207060D01*
X44840Y95300D01*
X141360Y95300D01*
X141360Y207060D01*
X37093Y179501D02*
X25663Y179501D01*
X37093Y178231D02*
X37093Y180771D01*
X25663Y180771D02*
X25663Y178231D01*
X37093Y187973D02*
X37093Y190513D01*
X37093Y187973D02*
X37091Y187873D01*
X37085Y187774D01*
X37075Y187674D01*
X37062Y187576D01*
X37044Y187477D01*
X37023Y187380D01*
X36998Y187284D01*
X36969Y187188D01*
X36936Y187094D01*
X36900Y187001D01*
X36860Y186910D01*
X36816Y186820D01*
X36769Y186732D01*
X36719Y186646D01*
X36665Y186562D01*
X36608Y186480D01*
X36548Y186401D01*
X36484Y186323D01*
X36418Y186249D01*
X36349Y186177D01*
X36277Y186108D01*
X36203Y186042D01*
X36125Y185978D01*
X36046Y185918D01*
X35964Y185861D01*
X35880Y185807D01*
X35794Y185757D01*
X35706Y185710D01*
X35616Y185666D01*
X35525Y185626D01*
X35432Y185590D01*
X35338Y185557D01*
X35242Y185528D01*
X35146Y185503D01*
X35049Y185482D01*
X34950Y185464D01*
X34852Y185451D01*
X34752Y185441D01*
X34653Y185435D01*
X34553Y185433D01*
X28203Y185433D01*
X28103Y185435D01*
X28004Y185441D01*
X27904Y185451D01*
X27806Y185464D01*
X27707Y185482D01*
X27610Y185503D01*
X27514Y185528D01*
X27418Y185557D01*
X27324Y185590D01*
X27231Y185626D01*
X27140Y185666D01*
X27050Y185710D01*
X26962Y185757D01*
X26876Y185807D01*
X26792Y185861D01*
X26710Y185918D01*
X26631Y185978D01*
X26553Y186042D01*
X26479Y186108D01*
X26407Y186177D01*
X26338Y186249D01*
X26272Y186323D01*
X26208Y186401D01*
X26148Y186480D01*
X26091Y186562D01*
X26037Y186646D01*
X25987Y186732D01*
X25940Y186820D01*
X25896Y186910D01*
X25856Y187001D01*
X25820Y187094D01*
X25787Y187188D01*
X25758Y187284D01*
X25733Y187380D01*
X25712Y187477D01*
X25694Y187576D01*
X25681Y187674D01*
X25671Y187774D01*
X25665Y187873D01*
X25663Y187973D01*
X25663Y190513D01*
X37093Y194995D02*
X37093Y198170D01*
X37091Y198281D01*
X37085Y198391D01*
X37076Y198502D01*
X37062Y198612D01*
X37045Y198721D01*
X37024Y198830D01*
X36999Y198938D01*
X36970Y199045D01*
X36938Y199151D01*
X36902Y199256D01*
X36862Y199359D01*
X36819Y199461D01*
X36772Y199562D01*
X36721Y199661D01*
X36668Y199758D01*
X36611Y199852D01*
X36550Y199945D01*
X36487Y200036D01*
X36420Y200125D01*
X36350Y200211D01*
X36277Y200294D01*
X36202Y200376D01*
X36124Y200454D01*
X36042Y200529D01*
X35959Y200602D01*
X35873Y200672D01*
X35784Y200739D01*
X35693Y200802D01*
X35600Y200863D01*
X35506Y200920D01*
X35409Y200973D01*
X35310Y201024D01*
X35209Y201071D01*
X35107Y201114D01*
X35004Y201154D01*
X34899Y201190D01*
X34793Y201222D01*
X34686Y201251D01*
X34578Y201276D01*
X34469Y201297D01*
X34360Y201314D01*
X34250Y201328D01*
X34139Y201337D01*
X34029Y201343D01*
X33918Y201345D01*
X33807Y201343D01*
X33697Y201337D01*
X33586Y201328D01*
X33476Y201314D01*
X33367Y201297D01*
X33258Y201276D01*
X33150Y201251D01*
X33043Y201222D01*
X32937Y201190D01*
X32832Y201154D01*
X32729Y201114D01*
X32627Y201071D01*
X32526Y201024D01*
X32427Y200973D01*
X32330Y200920D01*
X32236Y200863D01*
X32143Y200802D01*
X32052Y200739D01*
X31963Y200672D01*
X31877Y200602D01*
X31794Y200529D01*
X31712Y200454D01*
X31634Y200376D01*
X31559Y200294D01*
X31486Y200211D01*
X31416Y200125D01*
X31349Y200036D01*
X31286Y199945D01*
X31225Y199852D01*
X31168Y199758D01*
X31115Y199661D01*
X31064Y199562D01*
X31017Y199461D01*
X30974Y199359D01*
X30934Y199256D01*
X30898Y199151D01*
X30866Y199045D01*
X30837Y198938D01*
X30812Y198830D01*
X30791Y198721D01*
X30774Y198612D01*
X30760Y198502D01*
X30751Y198391D01*
X30745Y198281D01*
X30743Y198170D01*
X25663Y198805D02*
X25663Y194995D01*
X25663Y198805D02*
X25665Y198905D01*
X25671Y199004D01*
X25681Y199104D01*
X25694Y199202D01*
X25712Y199301D01*
X25733Y199398D01*
X25758Y199494D01*
X25787Y199590D01*
X25820Y199684D01*
X25856Y199777D01*
X25896Y199868D01*
X25940Y199958D01*
X25987Y200046D01*
X26037Y200132D01*
X26091Y200216D01*
X26148Y200298D01*
X26208Y200377D01*
X26272Y200455D01*
X26338Y200529D01*
X26407Y200601D01*
X26479Y200670D01*
X26553Y200736D01*
X26631Y200800D01*
X26710Y200860D01*
X26792Y200917D01*
X26876Y200971D01*
X26962Y201021D01*
X27050Y201068D01*
X27140Y201112D01*
X27231Y201152D01*
X27324Y201188D01*
X27418Y201221D01*
X27514Y201250D01*
X27610Y201275D01*
X27707Y201296D01*
X27806Y201314D01*
X27904Y201327D01*
X28004Y201337D01*
X28103Y201343D01*
X28203Y201345D01*
X28303Y201343D01*
X28402Y201337D01*
X28502Y201327D01*
X28600Y201314D01*
X28699Y201296D01*
X28796Y201275D01*
X28892Y201250D01*
X28988Y201221D01*
X29082Y201188D01*
X29175Y201152D01*
X29266Y201112D01*
X29356Y201068D01*
X29444Y201021D01*
X29530Y200971D01*
X29614Y200917D01*
X29696Y200860D01*
X29775Y200800D01*
X29853Y200736D01*
X29927Y200670D01*
X29999Y200601D01*
X30068Y200529D01*
X30134Y200455D01*
X30198Y200377D01*
X30258Y200298D01*
X30315Y200216D01*
X30369Y200132D01*
X30419Y200046D01*
X30466Y199958D01*
X30510Y199868D01*
X30550Y199777D01*
X30586Y199684D01*
X30619Y199590D01*
X30648Y199494D01*
X30673Y199398D01*
X30694Y199301D01*
X30712Y199202D01*
X30725Y199104D01*
X30735Y199004D01*
X30741Y198905D01*
X30743Y198805D01*
X30743Y196265D01*
D12*
X259366Y277900D02*
X259366Y313460D01*
X259366Y277900D02*
X193834Y277900D01*
X193834Y313460D01*
X259366Y313460D01*
D17*
X239327Y252886D02*
X237345Y252886D01*
X239327Y252886D02*
X239415Y252888D01*
X239502Y252894D01*
X239589Y252903D01*
X239676Y252917D01*
X239762Y252934D01*
X239847Y252955D01*
X239931Y252980D01*
X240014Y253009D01*
X240096Y253041D01*
X240176Y253077D01*
X240254Y253116D01*
X240331Y253159D01*
X240405Y253205D01*
X240478Y253254D01*
X240548Y253307D01*
X240616Y253362D01*
X240681Y253421D01*
X240744Y253482D01*
X240804Y253546D01*
X240861Y253613D01*
X240915Y253682D01*
X240966Y253753D01*
X241013Y253827D01*
X241058Y253902D01*
X241099Y253980D01*
X241136Y254059D01*
X241170Y254140D01*
X241201Y254222D01*
X241228Y254306D01*
X241251Y254390D01*
X241270Y254476D01*
X241285Y254562D01*
X241297Y254649D01*
X241305Y254737D01*
X241309Y254824D01*
X241309Y254912D01*
X241305Y254999D01*
X241297Y255087D01*
X241285Y255174D01*
X241270Y255260D01*
X241251Y255346D01*
X241228Y255430D01*
X241201Y255514D01*
X241170Y255596D01*
X241136Y255677D01*
X241099Y255756D01*
X241058Y255834D01*
X241013Y255909D01*
X240966Y255983D01*
X240915Y256054D01*
X240861Y256123D01*
X240804Y256190D01*
X240744Y256254D01*
X240681Y256315D01*
X240616Y256374D01*
X240548Y256429D01*
X240478Y256482D01*
X240405Y256531D01*
X240331Y256577D01*
X240254Y256620D01*
X240176Y256659D01*
X240096Y256695D01*
X240014Y256727D01*
X239931Y256756D01*
X239847Y256781D01*
X239762Y256802D01*
X239676Y256819D01*
X239589Y256833D01*
X239502Y256842D01*
X239415Y256848D01*
X239327Y256850D01*
X239723Y260021D02*
X237345Y260021D01*
X239723Y260021D02*
X239801Y260019D01*
X239878Y260013D01*
X239956Y260004D01*
X240032Y259991D01*
X240108Y259973D01*
X240183Y259953D01*
X240257Y259928D01*
X240330Y259900D01*
X240401Y259869D01*
X240471Y259834D01*
X240538Y259795D01*
X240604Y259754D01*
X240668Y259709D01*
X240729Y259661D01*
X240788Y259610D01*
X240844Y259556D01*
X240898Y259500D01*
X240949Y259441D01*
X240997Y259380D01*
X241042Y259316D01*
X241083Y259250D01*
X241122Y259183D01*
X241157Y259113D01*
X241188Y259042D01*
X241216Y258969D01*
X241241Y258895D01*
X241261Y258820D01*
X241279Y258744D01*
X241292Y258668D01*
X241301Y258590D01*
X241307Y258513D01*
X241309Y258435D01*
X241307Y258357D01*
X241301Y258280D01*
X241292Y258202D01*
X241279Y258126D01*
X241261Y258050D01*
X241241Y257975D01*
X241216Y257901D01*
X241188Y257828D01*
X241157Y257757D01*
X241122Y257687D01*
X241083Y257620D01*
X241042Y257554D01*
X240997Y257490D01*
X240949Y257429D01*
X240898Y257370D01*
X240844Y257314D01*
X240788Y257260D01*
X240729Y257209D01*
X240668Y257161D01*
X240604Y257116D01*
X240538Y257075D01*
X240471Y257036D01*
X240401Y257001D01*
X240330Y256970D01*
X240257Y256942D01*
X240183Y256917D01*
X240108Y256897D01*
X240032Y256879D01*
X239956Y256866D01*
X239878Y256857D01*
X239801Y256851D01*
X239723Y256849D01*
X239723Y256850D02*
X238138Y256850D01*
X246180Y323200D02*
X247762Y328738D01*
X246180Y323200D02*
X250136Y323200D01*
X248949Y324782D02*
X248949Y321617D01*
X194478Y260034D02*
X192497Y258449D01*
X194478Y260034D02*
X194478Y252902D01*
X192497Y252902D02*
X196459Y252902D01*
X216371Y260014D02*
X216453Y260012D01*
X216535Y260006D01*
X216617Y259997D01*
X216698Y259984D01*
X216778Y259967D01*
X216858Y259946D01*
X216936Y259922D01*
X217014Y259894D01*
X217090Y259862D01*
X217164Y259827D01*
X217237Y259789D01*
X217308Y259748D01*
X217376Y259703D01*
X217443Y259655D01*
X217508Y259604D01*
X217570Y259550D01*
X217629Y259493D01*
X217686Y259434D01*
X217740Y259372D01*
X217791Y259307D01*
X217839Y259240D01*
X217884Y259172D01*
X217925Y259101D01*
X217963Y259028D01*
X217998Y258954D01*
X218030Y258878D01*
X218058Y258800D01*
X218082Y258722D01*
X218103Y258642D01*
X218120Y258562D01*
X218133Y258481D01*
X218142Y258399D01*
X218148Y258317D01*
X218150Y258235D01*
X216371Y260013D02*
X216278Y260011D01*
X216186Y260005D01*
X216094Y259996D01*
X216002Y259983D01*
X215911Y259966D01*
X215820Y259946D01*
X215731Y259921D01*
X215642Y259894D01*
X215555Y259862D01*
X215469Y259828D01*
X215385Y259789D01*
X215302Y259748D01*
X215221Y259703D01*
X215142Y259654D01*
X215065Y259603D01*
X214990Y259548D01*
X214917Y259491D01*
X214847Y259430D01*
X214779Y259367D01*
X214714Y259301D01*
X214651Y259233D01*
X214592Y259162D01*
X214535Y259088D01*
X214481Y259013D01*
X214431Y258935D01*
X214384Y258856D01*
X214339Y258774D01*
X214299Y258691D01*
X214261Y258606D01*
X214228Y258520D01*
X214197Y258432D01*
X217557Y256852D02*
X217618Y256913D01*
X217676Y256976D01*
X217731Y257042D01*
X217784Y257110D01*
X217833Y257181D01*
X217878Y257253D01*
X217921Y257328D01*
X217960Y257404D01*
X217996Y257483D01*
X218028Y257562D01*
X218056Y257643D01*
X218081Y257726D01*
X218102Y257809D01*
X218119Y257893D01*
X218133Y257978D01*
X218142Y258063D01*
X218148Y258149D01*
X218150Y258235D01*
X217557Y256851D02*
X214197Y252899D01*
X218150Y252899D01*
D11*
X188500Y263930D02*
X188502Y264001D01*
X188508Y264072D01*
X188518Y264143D01*
X188532Y264213D01*
X188550Y264282D01*
X188571Y264349D01*
X188597Y264416D01*
X188626Y264481D01*
X188658Y264544D01*
X188695Y264606D01*
X188734Y264665D01*
X188777Y264722D01*
X188823Y264776D01*
X188872Y264828D01*
X188924Y264877D01*
X188978Y264923D01*
X189035Y264966D01*
X189094Y265005D01*
X189156Y265042D01*
X189219Y265074D01*
X189284Y265103D01*
X189351Y265129D01*
X189418Y265150D01*
X189487Y265168D01*
X189557Y265182D01*
X189628Y265192D01*
X189699Y265198D01*
X189770Y265200D01*
X189841Y265198D01*
X189912Y265192D01*
X189983Y265182D01*
X190053Y265168D01*
X190122Y265150D01*
X190189Y265129D01*
X190256Y265103D01*
X190321Y265074D01*
X190384Y265042D01*
X190446Y265005D01*
X190505Y264966D01*
X190562Y264923D01*
X190616Y264877D01*
X190668Y264828D01*
X190717Y264776D01*
X190763Y264722D01*
X190806Y264665D01*
X190845Y264606D01*
X190882Y264544D01*
X190914Y264481D01*
X190943Y264416D01*
X190969Y264349D01*
X190990Y264282D01*
X191008Y264213D01*
X191022Y264143D01*
X191032Y264072D01*
X191038Y264001D01*
X191040Y263930D01*
X191038Y263859D01*
X191032Y263788D01*
X191022Y263717D01*
X191008Y263647D01*
X190990Y263578D01*
X190969Y263511D01*
X190943Y263444D01*
X190914Y263379D01*
X190882Y263316D01*
X190845Y263254D01*
X190806Y263195D01*
X190763Y263138D01*
X190717Y263084D01*
X190668Y263032D01*
X190616Y262983D01*
X190562Y262937D01*
X190505Y262894D01*
X190446Y262855D01*
X190384Y262818D01*
X190321Y262786D01*
X190256Y262757D01*
X190189Y262731D01*
X190122Y262710D01*
X190053Y262692D01*
X189983Y262678D01*
X189912Y262668D01*
X189841Y262662D01*
X189770Y262660D01*
X189699Y262662D01*
X189628Y262668D01*
X189557Y262678D01*
X189487Y262692D01*
X189418Y262710D01*
X189351Y262731D01*
X189284Y262757D01*
X189219Y262786D01*
X189156Y262818D01*
X189094Y262855D01*
X189035Y262894D01*
X188978Y262937D01*
X188924Y262983D01*
X188872Y263032D01*
X188823Y263084D01*
X188777Y263138D01*
X188734Y263195D01*
X188695Y263254D01*
X188658Y263316D01*
X188626Y263379D01*
X188597Y263444D01*
X188571Y263511D01*
X188550Y263578D01*
X188532Y263647D01*
X188518Y263717D01*
X188508Y263788D01*
X188502Y263859D01*
X188500Y263930D01*
D22*
X133140Y247020D02*
X133140Y239400D01*
X136950Y243210D02*
X129330Y243210D01*
X98850Y269880D02*
X98860Y270722D01*
X98891Y271563D01*
X98943Y272403D01*
X99015Y273241D01*
X99108Y274077D01*
X99221Y274911D01*
X99355Y275742D01*
X99509Y276570D01*
X99683Y277393D01*
X99878Y278212D01*
X100092Y279026D01*
X100327Y279834D01*
X100581Y280636D01*
X100854Y281432D01*
X101148Y282221D01*
X101460Y283002D01*
X101792Y283776D01*
X102142Y284541D01*
X102511Y285297D01*
X102899Y286044D01*
X103305Y286781D01*
X103728Y287509D01*
X104170Y288225D01*
X104629Y288931D01*
X105105Y289624D01*
X105598Y290307D01*
X106108Y290976D01*
X106633Y291633D01*
X107175Y292277D01*
X107733Y292908D01*
X108306Y293524D01*
X108893Y294127D01*
X109496Y294714D01*
X110112Y295287D01*
X110743Y295845D01*
X111387Y296387D01*
X112044Y296912D01*
X112713Y297422D01*
X113396Y297915D01*
X114089Y298391D01*
X114795Y298850D01*
X115511Y299292D01*
X116239Y299715D01*
X116976Y300121D01*
X117723Y300509D01*
X118479Y300878D01*
X119244Y301228D01*
X120018Y301560D01*
X120799Y301872D01*
X121588Y302166D01*
X122384Y302439D01*
X123186Y302693D01*
X123994Y302928D01*
X124808Y303142D01*
X125627Y303337D01*
X126450Y303511D01*
X127278Y303665D01*
X128109Y303799D01*
X128943Y303912D01*
X129779Y304005D01*
X130617Y304077D01*
X131457Y304129D01*
X132298Y304160D01*
X133140Y304170D01*
X133982Y304160D01*
X134823Y304129D01*
X135663Y304077D01*
X136501Y304005D01*
X137337Y303912D01*
X138171Y303799D01*
X139002Y303665D01*
X139830Y303511D01*
X140653Y303337D01*
X141472Y303142D01*
X142286Y302928D01*
X143094Y302693D01*
X143896Y302439D01*
X144692Y302166D01*
X145481Y301872D01*
X146262Y301560D01*
X147036Y301228D01*
X147801Y300878D01*
X148557Y300509D01*
X149304Y300121D01*
X150041Y299715D01*
X150769Y299292D01*
X151485Y298850D01*
X152191Y298391D01*
X152884Y297915D01*
X153567Y297422D01*
X154236Y296912D01*
X154893Y296387D01*
X155537Y295845D01*
X156168Y295287D01*
X156784Y294714D01*
X157387Y294127D01*
X157974Y293524D01*
X158547Y292908D01*
X159105Y292277D01*
X159647Y291633D01*
X160172Y290976D01*
X160682Y290307D01*
X161175Y289624D01*
X161651Y288931D01*
X162110Y288225D01*
X162552Y287509D01*
X162975Y286781D01*
X163381Y286044D01*
X163769Y285297D01*
X164138Y284541D01*
X164488Y283776D01*
X164820Y283002D01*
X165132Y282221D01*
X165426Y281432D01*
X165699Y280636D01*
X165953Y279834D01*
X166188Y279026D01*
X166402Y278212D01*
X166597Y277393D01*
X166771Y276570D01*
X166925Y275742D01*
X167059Y274911D01*
X167172Y274077D01*
X167265Y273241D01*
X167337Y272403D01*
X167389Y271563D01*
X167420Y270722D01*
X167430Y269880D01*
X167420Y269038D01*
X167389Y268197D01*
X167337Y267357D01*
X167265Y266519D01*
X167172Y265683D01*
X167059Y264849D01*
X166925Y264018D01*
X166771Y263190D01*
X166597Y262367D01*
X166402Y261548D01*
X166188Y260734D01*
X165953Y259926D01*
X165699Y259124D01*
X165426Y258328D01*
X165132Y257539D01*
X164820Y256758D01*
X164488Y255984D01*
X164138Y255219D01*
X163769Y254463D01*
X163381Y253716D01*
X162975Y252979D01*
X162552Y252251D01*
X162110Y251535D01*
X161651Y250829D01*
X161175Y250136D01*
X160682Y249453D01*
X160172Y248784D01*
X159647Y248127D01*
X159105Y247483D01*
X158547Y246852D01*
X157974Y246236D01*
X157387Y245633D01*
X156784Y245046D01*
X156168Y244473D01*
X155537Y243915D01*
X154893Y243373D01*
X154236Y242848D01*
X153567Y242338D01*
X152884Y241845D01*
X152191Y241369D01*
X151485Y240910D01*
X150769Y240468D01*
X150041Y240045D01*
X149304Y239639D01*
X148557Y239251D01*
X147801Y238882D01*
X147036Y238532D01*
X146262Y238200D01*
X145481Y237888D01*
X144692Y237594D01*
X143896Y237321D01*
X143094Y237067D01*
X142286Y236832D01*
X141472Y236618D01*
X140653Y236423D01*
X139830Y236249D01*
X139002Y236095D01*
X138171Y235961D01*
X137337Y235848D01*
X136501Y235755D01*
X135663Y235683D01*
X134823Y235631D01*
X133982Y235600D01*
X133140Y235590D01*
X132298Y235600D01*
X131457Y235631D01*
X130617Y235683D01*
X129779Y235755D01*
X128943Y235848D01*
X128109Y235961D01*
X127278Y236095D01*
X126450Y236249D01*
X125627Y236423D01*
X124808Y236618D01*
X123994Y236832D01*
X123186Y237067D01*
X122384Y237321D01*
X121588Y237594D01*
X120799Y237888D01*
X120018Y238200D01*
X119244Y238532D01*
X118479Y238882D01*
X117723Y239251D01*
X116976Y239639D01*
X116239Y240045D01*
X115511Y240468D01*
X114795Y240910D01*
X114089Y241369D01*
X113396Y241845D01*
X112713Y242338D01*
X112044Y242848D01*
X111387Y243373D01*
X110743Y243915D01*
X110112Y244473D01*
X109496Y245046D01*
X108893Y245633D01*
X108306Y246236D01*
X107733Y246852D01*
X107175Y247483D01*
X106633Y248127D01*
X106108Y248784D01*
X105598Y249453D01*
X105105Y250136D01*
X104629Y250829D01*
X104170Y251535D01*
X103728Y252251D01*
X103305Y252979D01*
X102899Y253716D01*
X102511Y254463D01*
X102142Y255219D01*
X101792Y255984D01*
X101460Y256758D01*
X101148Y257539D01*
X100854Y258328D01*
X100581Y259124D01*
X100327Y259926D01*
X100092Y260734D01*
X99878Y261548D01*
X99683Y262367D01*
X99509Y263190D01*
X99355Y264018D01*
X99221Y264849D01*
X99108Y265683D01*
X99015Y266519D01*
X98943Y267357D01*
X98891Y268197D01*
X98860Y269038D01*
X98850Y269880D01*
D12*
X418744Y220344D02*
X418744Y207216D01*
X409156Y207216D01*
X385296Y207216D02*
X385296Y220344D01*
X385296Y207216D02*
X394884Y207216D01*
X399796Y220424D02*
X404384Y220424D01*
D20*
X398670Y255840D02*
X388510Y255840D01*
X447400Y253300D02*
X457560Y253300D01*
D12*
X502564Y219464D02*
X502564Y206336D01*
X492976Y206336D01*
X469116Y206336D02*
X469116Y219464D01*
X469116Y206336D02*
X478704Y206336D01*
X483616Y219544D02*
X488204Y219544D01*
D20*
X487340Y253960D02*
X477180Y253960D01*
X532100Y253300D02*
X542260Y253300D01*
D25*
X350835Y181660D02*
X293335Y181660D01*
X293335Y57660D01*
X350835Y57660D01*
X350835Y181660D01*
X350260Y82322D02*
X345260Y82322D01*
X345260Y156998D02*
X350260Y156998D01*
D12*
X334924Y209716D02*
X334924Y222844D01*
X334924Y209716D02*
X325336Y209716D01*
X301476Y209716D02*
X301476Y222844D01*
X301476Y209716D02*
X311064Y209716D01*
X315976Y222924D02*
X320564Y222924D01*
D20*
X320540Y256500D02*
X310380Y256500D01*
X362760Y255840D02*
X372920Y255840D01*
D22*
X530606Y706628D02*
X553720Y706628D01*
X538988Y619252D02*
X530606Y619252D01*
X538988Y619252D02*
X545084Y619252D01*
X553720Y619252D01*
D33*
X545084Y619252D02*
X545082Y619361D01*
X545076Y619469D01*
X545067Y619578D01*
X545053Y619686D01*
X545036Y619793D01*
X545014Y619900D01*
X544989Y620006D01*
X544961Y620111D01*
X544928Y620215D01*
X544892Y620317D01*
X544852Y620418D01*
X544809Y620518D01*
X544762Y620616D01*
X544711Y620713D01*
X544657Y620807D01*
X544600Y620900D01*
X544540Y620990D01*
X544476Y621079D01*
X544409Y621165D01*
X544340Y621248D01*
X544267Y621329D01*
X544191Y621407D01*
X544113Y621483D01*
X544032Y621556D01*
X543949Y621625D01*
X543863Y621692D01*
X543774Y621756D01*
X543684Y621816D01*
X543591Y621873D01*
X543497Y621927D01*
X543400Y621978D01*
X543302Y622025D01*
X543202Y622068D01*
X543101Y622108D01*
X542999Y622144D01*
X542895Y622177D01*
X542790Y622205D01*
X542684Y622230D01*
X542577Y622252D01*
X542470Y622269D01*
X542362Y622283D01*
X542253Y622292D01*
X542145Y622298D01*
X542036Y622300D01*
X541927Y622298D01*
X541819Y622292D01*
X541710Y622283D01*
X541602Y622269D01*
X541495Y622252D01*
X541388Y622230D01*
X541282Y622205D01*
X541177Y622177D01*
X541073Y622144D01*
X540971Y622108D01*
X540870Y622068D01*
X540770Y622025D01*
X540672Y621978D01*
X540575Y621927D01*
X540481Y621873D01*
X540388Y621816D01*
X540298Y621756D01*
X540209Y621692D01*
X540123Y621625D01*
X540040Y621556D01*
X539959Y621483D01*
X539881Y621407D01*
X539805Y621329D01*
X539732Y621248D01*
X539663Y621165D01*
X539596Y621079D01*
X539532Y620990D01*
X539472Y620900D01*
X539415Y620807D01*
X539361Y620713D01*
X539310Y620616D01*
X539263Y620518D01*
X539220Y620418D01*
X539180Y620317D01*
X539144Y620215D01*
X539111Y620111D01*
X539083Y620006D01*
X539058Y619900D01*
X539036Y619793D01*
X539019Y619686D01*
X539005Y619578D01*
X538996Y619469D01*
X538990Y619361D01*
X538988Y619252D01*
M02*
