G04 EAGLE Gerber RS-274X export*
G75*
%MOMM*%
%FSLAX34Y34*%
%LPD*%
%INSilkscreen Bottom*%
%IPPOS*%
%AMOC8*
5,1,8,0,0,1.08239X$1,22.5*%
G01*
%ADD10R,0.650000X1.400000*%
%ADD11C,0.050800*%
%ADD12R,1.400000X0.650000*%
%ADD13C,0.304800*%
%ADD14C,0.127000*%
%ADD15C,0.203200*%
%ADD16C,0.152400*%
%ADD17C,0.076200*%


D10*
X882874Y379125D03*
X868142Y379125D03*
D11*
X876785Y397400D02*
X875543Y401746D01*
X876785Y397400D02*
X873680Y397400D01*
X874612Y398642D02*
X874612Y396158D01*
X871298Y401125D02*
X871298Y401746D01*
X868194Y401746D01*
X869746Y396158D01*
D12*
X931455Y294474D03*
X931455Y279742D03*
D11*
X914422Y281036D02*
X910076Y279794D01*
X910076Y282898D01*
X911318Y281967D02*
X908834Y281967D01*
X913801Y285280D02*
X914422Y285280D01*
X914422Y288385D01*
X908834Y286833D01*
D13*
X143840Y484180D02*
X133680Y484180D01*
D11*
X128346Y462732D02*
X127556Y461744D01*
X128346Y462732D02*
X124790Y462732D01*
X124790Y463719D02*
X124790Y461744D01*
X126568Y465402D02*
X126670Y465404D01*
X126772Y465409D01*
X126874Y465418D01*
X126976Y465430D01*
X127077Y465446D01*
X127177Y465466D01*
X127277Y465489D01*
X127375Y465515D01*
X127473Y465545D01*
X127570Y465579D01*
X127665Y465615D01*
X127759Y465655D01*
X127852Y465698D01*
X127902Y465717D01*
X127950Y465739D01*
X127997Y465766D01*
X128041Y465795D01*
X128083Y465828D01*
X128123Y465863D01*
X128160Y465902D01*
X128194Y465943D01*
X128225Y465986D01*
X128253Y466032D01*
X128277Y466079D01*
X128298Y466128D01*
X128315Y466179D01*
X128329Y466230D01*
X128338Y466283D01*
X128344Y466336D01*
X128346Y466389D01*
X128344Y466442D01*
X128338Y466495D01*
X128329Y466548D01*
X128315Y466599D01*
X128298Y466650D01*
X128277Y466699D01*
X128253Y466746D01*
X128225Y466792D01*
X128194Y466835D01*
X128160Y466876D01*
X128123Y466915D01*
X128083Y466950D01*
X128041Y466983D01*
X127997Y467013D01*
X127950Y467039D01*
X127902Y467061D01*
X127852Y467080D01*
X127852Y467081D02*
X127759Y467124D01*
X127665Y467164D01*
X127570Y467200D01*
X127473Y467234D01*
X127375Y467264D01*
X127277Y467290D01*
X127177Y467313D01*
X127077Y467333D01*
X126976Y467349D01*
X126874Y467361D01*
X126772Y467370D01*
X126670Y467375D01*
X126568Y467377D01*
X126568Y465401D02*
X126466Y465403D01*
X126364Y465408D01*
X126262Y465417D01*
X126160Y465429D01*
X126059Y465445D01*
X125959Y465465D01*
X125859Y465488D01*
X125760Y465514D01*
X125663Y465544D01*
X125566Y465578D01*
X125471Y465614D01*
X125376Y465654D01*
X125284Y465697D01*
X125284Y465698D02*
X125234Y465717D01*
X125186Y465739D01*
X125139Y465766D01*
X125095Y465795D01*
X125053Y465828D01*
X125013Y465863D01*
X124976Y465902D01*
X124942Y465943D01*
X124911Y465986D01*
X124883Y466032D01*
X124859Y466079D01*
X124838Y466128D01*
X124821Y466179D01*
X124807Y466230D01*
X124798Y466283D01*
X124792Y466336D01*
X124790Y466389D01*
X125284Y467081D02*
X125376Y467124D01*
X125471Y467164D01*
X125566Y467200D01*
X125663Y467234D01*
X125760Y467264D01*
X125859Y467290D01*
X125959Y467313D01*
X126059Y467333D01*
X126160Y467349D01*
X126262Y467361D01*
X126364Y467370D01*
X126466Y467375D01*
X126568Y467377D01*
X125284Y467080D02*
X125234Y467061D01*
X125186Y467039D01*
X125139Y467012D01*
X125095Y466983D01*
X125053Y466950D01*
X125013Y466915D01*
X124976Y466876D01*
X124942Y466835D01*
X124911Y466792D01*
X124883Y466746D01*
X124859Y466699D01*
X124838Y466650D01*
X124821Y466599D01*
X124807Y466548D01*
X124798Y466495D01*
X124792Y466442D01*
X124790Y466389D01*
X125580Y465599D02*
X127556Y467180D01*
X128346Y469250D02*
X124790Y469250D01*
X126173Y469250D02*
X128346Y471226D01*
X126963Y470041D02*
X124790Y471226D01*
D13*
X155870Y484180D02*
X166030Y484180D01*
D11*
X150536Y462732D02*
X149746Y461744D01*
X150536Y462732D02*
X146980Y462732D01*
X146980Y463719D02*
X146980Y461744D01*
X148758Y465402D02*
X148860Y465404D01*
X148962Y465409D01*
X149064Y465418D01*
X149166Y465430D01*
X149267Y465446D01*
X149367Y465466D01*
X149467Y465489D01*
X149565Y465515D01*
X149663Y465545D01*
X149760Y465579D01*
X149855Y465615D01*
X149949Y465655D01*
X150042Y465698D01*
X150092Y465717D01*
X150140Y465739D01*
X150187Y465766D01*
X150231Y465795D01*
X150273Y465828D01*
X150313Y465863D01*
X150350Y465902D01*
X150384Y465943D01*
X150415Y465986D01*
X150443Y466032D01*
X150467Y466079D01*
X150488Y466128D01*
X150505Y466179D01*
X150519Y466230D01*
X150528Y466283D01*
X150534Y466336D01*
X150536Y466389D01*
X150534Y466442D01*
X150528Y466495D01*
X150519Y466548D01*
X150505Y466599D01*
X150488Y466650D01*
X150467Y466699D01*
X150443Y466746D01*
X150415Y466792D01*
X150384Y466835D01*
X150350Y466876D01*
X150313Y466915D01*
X150273Y466950D01*
X150231Y466983D01*
X150187Y467013D01*
X150140Y467039D01*
X150092Y467061D01*
X150042Y467080D01*
X150042Y467081D02*
X149949Y467124D01*
X149855Y467164D01*
X149760Y467200D01*
X149663Y467234D01*
X149565Y467264D01*
X149467Y467290D01*
X149367Y467313D01*
X149267Y467333D01*
X149166Y467349D01*
X149064Y467361D01*
X148962Y467370D01*
X148860Y467375D01*
X148758Y467377D01*
X148758Y465401D02*
X148656Y465403D01*
X148554Y465408D01*
X148452Y465417D01*
X148350Y465429D01*
X148249Y465445D01*
X148149Y465465D01*
X148049Y465488D01*
X147950Y465514D01*
X147853Y465544D01*
X147756Y465578D01*
X147661Y465614D01*
X147566Y465654D01*
X147474Y465697D01*
X147474Y465698D02*
X147424Y465717D01*
X147376Y465739D01*
X147329Y465766D01*
X147285Y465795D01*
X147243Y465828D01*
X147203Y465863D01*
X147166Y465902D01*
X147132Y465943D01*
X147101Y465986D01*
X147073Y466032D01*
X147049Y466079D01*
X147028Y466128D01*
X147011Y466179D01*
X146997Y466230D01*
X146988Y466283D01*
X146982Y466336D01*
X146980Y466389D01*
X147474Y467081D02*
X147566Y467124D01*
X147661Y467164D01*
X147756Y467200D01*
X147853Y467234D01*
X147950Y467264D01*
X148049Y467290D01*
X148149Y467313D01*
X148249Y467333D01*
X148350Y467349D01*
X148452Y467361D01*
X148554Y467370D01*
X148656Y467375D01*
X148758Y467377D01*
X147474Y467080D02*
X147424Y467061D01*
X147376Y467039D01*
X147329Y467012D01*
X147285Y466983D01*
X147243Y466950D01*
X147203Y466915D01*
X147166Y466876D01*
X147132Y466835D01*
X147101Y466792D01*
X147073Y466746D01*
X147049Y466699D01*
X147028Y466650D01*
X147011Y466599D01*
X146997Y466548D01*
X146988Y466495D01*
X146982Y466442D01*
X146980Y466389D01*
X147770Y465599D02*
X149746Y467180D01*
X150536Y469250D02*
X146980Y469250D01*
X148363Y469250D02*
X150536Y471226D01*
X149153Y470041D02*
X146980Y471226D01*
D10*
X924006Y570975D03*
X938738Y570975D03*
D11*
X950144Y559022D02*
X951386Y554676D01*
X948282Y554676D01*
X949213Y555918D02*
X949213Y553434D01*
X945900Y558401D02*
X945900Y559022D01*
X942795Y559022D01*
X944347Y553434D01*
D10*
X770454Y565865D03*
X755722Y565865D03*
D11*
X757803Y552446D02*
X759045Y548100D01*
X755940Y548100D01*
X756872Y549342D02*
X756872Y546858D01*
X753558Y551825D02*
X753558Y552446D01*
X750454Y552446D01*
X752006Y546858D01*
X407027Y545864D02*
X405475Y547106D01*
X405475Y541518D01*
X407027Y541518D02*
X403923Y541518D01*
X401541Y544312D02*
X401539Y544443D01*
X401534Y544573D01*
X401524Y544703D01*
X401511Y544833D01*
X401495Y544963D01*
X401475Y545092D01*
X401451Y545220D01*
X401423Y545347D01*
X401392Y545474D01*
X401357Y545600D01*
X401319Y545725D01*
X401277Y545849D01*
X401232Y545971D01*
X401183Y546092D01*
X401131Y546212D01*
X401075Y546330D01*
X401052Y546390D01*
X401026Y546450D01*
X400997Y546507D01*
X400964Y546563D01*
X400928Y546617D01*
X400890Y546669D01*
X400848Y546719D01*
X400804Y546766D01*
X400757Y546811D01*
X400707Y546853D01*
X400656Y546892D01*
X400602Y546928D01*
X400546Y546961D01*
X400489Y546991D01*
X400430Y547018D01*
X400369Y547041D01*
X400308Y547061D01*
X400245Y547077D01*
X400181Y547090D01*
X400117Y547099D01*
X400053Y547104D01*
X399988Y547106D01*
X399923Y547104D01*
X399859Y547099D01*
X399795Y547090D01*
X399731Y547077D01*
X399668Y547061D01*
X399607Y547041D01*
X399546Y547018D01*
X399487Y546991D01*
X399430Y546961D01*
X399374Y546928D01*
X399320Y546892D01*
X399269Y546853D01*
X399219Y546811D01*
X399172Y546766D01*
X399128Y546719D01*
X399086Y546669D01*
X399048Y546617D01*
X399012Y546563D01*
X398979Y546507D01*
X398950Y546450D01*
X398924Y546390D01*
X398901Y546330D01*
X398902Y546330D02*
X398846Y546212D01*
X398794Y546092D01*
X398745Y545971D01*
X398700Y545849D01*
X398658Y545725D01*
X398620Y545600D01*
X398585Y545474D01*
X398554Y545348D01*
X398526Y545220D01*
X398502Y545092D01*
X398482Y544963D01*
X398466Y544833D01*
X398453Y544703D01*
X398443Y544573D01*
X398438Y544443D01*
X398436Y544312D01*
X401540Y544312D02*
X401538Y544181D01*
X401533Y544051D01*
X401523Y543921D01*
X401510Y543791D01*
X401494Y543661D01*
X401474Y543533D01*
X401450Y543404D01*
X401422Y543277D01*
X401391Y543150D01*
X401356Y543024D01*
X401318Y542899D01*
X401276Y542776D01*
X401231Y542653D01*
X401182Y542532D01*
X401130Y542412D01*
X401074Y542294D01*
X401075Y542294D02*
X401052Y542234D01*
X401026Y542174D01*
X400997Y542117D01*
X400964Y542061D01*
X400928Y542007D01*
X400890Y541955D01*
X400848Y541905D01*
X400804Y541858D01*
X400757Y541813D01*
X400707Y541771D01*
X400656Y541732D01*
X400602Y541696D01*
X400546Y541663D01*
X400489Y541633D01*
X400430Y541606D01*
X400369Y541583D01*
X400308Y541563D01*
X400245Y541547D01*
X400181Y541534D01*
X400117Y541525D01*
X400053Y541520D01*
X399988Y541518D01*
X398902Y542294D02*
X398846Y542412D01*
X398794Y542532D01*
X398745Y542653D01*
X398700Y542775D01*
X398658Y542899D01*
X398620Y543024D01*
X398585Y543150D01*
X398554Y543276D01*
X398526Y543404D01*
X398502Y543532D01*
X398482Y543661D01*
X398466Y543791D01*
X398453Y543921D01*
X398443Y544051D01*
X398438Y544181D01*
X398436Y544312D01*
X398901Y542294D02*
X398924Y542234D01*
X398950Y542174D01*
X398979Y542117D01*
X399012Y542061D01*
X399048Y542007D01*
X399086Y541955D01*
X399128Y541905D01*
X399172Y541858D01*
X399219Y541813D01*
X399269Y541771D01*
X399320Y541732D01*
X399374Y541696D01*
X399430Y541663D01*
X399487Y541633D01*
X399546Y541606D01*
X399607Y541583D01*
X399668Y541563D01*
X399731Y541547D01*
X399795Y541534D01*
X399859Y541525D01*
X399923Y541520D01*
X399988Y541518D01*
X401230Y542760D02*
X398747Y545864D01*
X395788Y547106D02*
X395788Y541518D01*
X395788Y543691D02*
X392684Y547106D01*
X394547Y544933D02*
X392684Y541518D01*
X293116Y480124D02*
X291564Y480124D01*
X291487Y480126D01*
X291409Y480132D01*
X291333Y480141D01*
X291256Y480155D01*
X291181Y480172D01*
X291107Y480193D01*
X291033Y480218D01*
X290961Y480246D01*
X290891Y480278D01*
X290822Y480313D01*
X290755Y480352D01*
X290690Y480394D01*
X290627Y480439D01*
X290566Y480487D01*
X290508Y480538D01*
X290453Y480592D01*
X290400Y480649D01*
X290351Y480708D01*
X290304Y480770D01*
X290260Y480834D01*
X290220Y480900D01*
X290183Y480968D01*
X290149Y481038D01*
X290119Y481109D01*
X290093Y481182D01*
X290070Y481256D01*
X290051Y481331D01*
X290036Y481406D01*
X290024Y481483D01*
X290016Y481560D01*
X290012Y481637D01*
X290012Y481715D01*
X290016Y481792D01*
X290024Y481869D01*
X290036Y481946D01*
X290051Y482021D01*
X290070Y482096D01*
X290093Y482170D01*
X290119Y482243D01*
X290149Y482314D01*
X290183Y482384D01*
X290220Y482452D01*
X290260Y482518D01*
X290304Y482582D01*
X290351Y482644D01*
X290400Y482703D01*
X290453Y482760D01*
X290508Y482814D01*
X290566Y482865D01*
X290627Y482913D01*
X290690Y482958D01*
X290755Y483000D01*
X290822Y483039D01*
X290891Y483074D01*
X290961Y483106D01*
X291033Y483134D01*
X291107Y483159D01*
X291181Y483180D01*
X291256Y483197D01*
X291333Y483211D01*
X291409Y483220D01*
X291487Y483226D01*
X291564Y483228D01*
X291253Y485712D02*
X293116Y485712D01*
X291253Y485712D02*
X291183Y485710D01*
X291114Y485704D01*
X291045Y485694D01*
X290977Y485681D01*
X290909Y485663D01*
X290843Y485642D01*
X290778Y485617D01*
X290714Y485589D01*
X290652Y485557D01*
X290592Y485522D01*
X290534Y485483D01*
X290479Y485441D01*
X290425Y485396D01*
X290375Y485348D01*
X290327Y485298D01*
X290282Y485244D01*
X290240Y485189D01*
X290201Y485131D01*
X290166Y485071D01*
X290134Y485009D01*
X290106Y484945D01*
X290081Y484880D01*
X290060Y484814D01*
X290042Y484746D01*
X290029Y484678D01*
X290019Y484609D01*
X290013Y484540D01*
X290011Y484470D01*
X290013Y484400D01*
X290019Y484331D01*
X290029Y484262D01*
X290042Y484194D01*
X290060Y484126D01*
X290081Y484060D01*
X290106Y483995D01*
X290134Y483931D01*
X290166Y483869D01*
X290201Y483809D01*
X290240Y483751D01*
X290282Y483696D01*
X290327Y483642D01*
X290375Y483592D01*
X290425Y483544D01*
X290479Y483499D01*
X290534Y483457D01*
X290592Y483418D01*
X290652Y483383D01*
X290714Y483351D01*
X290778Y483323D01*
X290843Y483298D01*
X290909Y483277D01*
X290977Y483259D01*
X291045Y483246D01*
X291114Y483236D01*
X291183Y483230D01*
X291253Y483228D01*
X292495Y483228D01*
X287630Y482918D02*
X287628Y483049D01*
X287623Y483179D01*
X287613Y483309D01*
X287600Y483439D01*
X287584Y483569D01*
X287564Y483698D01*
X287540Y483826D01*
X287512Y483953D01*
X287481Y484080D01*
X287446Y484206D01*
X287408Y484331D01*
X287366Y484455D01*
X287321Y484577D01*
X287272Y484698D01*
X287220Y484818D01*
X287164Y484936D01*
X287141Y484996D01*
X287115Y485056D01*
X287086Y485113D01*
X287053Y485169D01*
X287017Y485223D01*
X286979Y485275D01*
X286937Y485325D01*
X286893Y485372D01*
X286846Y485417D01*
X286796Y485459D01*
X286745Y485498D01*
X286691Y485534D01*
X286635Y485567D01*
X286578Y485597D01*
X286519Y485624D01*
X286458Y485647D01*
X286397Y485667D01*
X286334Y485683D01*
X286270Y485696D01*
X286206Y485705D01*
X286142Y485710D01*
X286077Y485712D01*
X286012Y485710D01*
X285948Y485705D01*
X285884Y485696D01*
X285820Y485683D01*
X285757Y485667D01*
X285696Y485647D01*
X285635Y485624D01*
X285576Y485597D01*
X285519Y485567D01*
X285463Y485534D01*
X285409Y485498D01*
X285358Y485459D01*
X285308Y485417D01*
X285261Y485372D01*
X285217Y485325D01*
X285175Y485275D01*
X285137Y485223D01*
X285101Y485169D01*
X285068Y485113D01*
X285039Y485056D01*
X285013Y484996D01*
X284990Y484936D01*
X284991Y484936D02*
X284935Y484818D01*
X284883Y484698D01*
X284834Y484577D01*
X284789Y484455D01*
X284747Y484331D01*
X284709Y484206D01*
X284674Y484080D01*
X284643Y483954D01*
X284615Y483826D01*
X284591Y483698D01*
X284571Y483569D01*
X284555Y483439D01*
X284542Y483309D01*
X284532Y483179D01*
X284527Y483049D01*
X284525Y482918D01*
X287629Y482918D02*
X287627Y482787D01*
X287622Y482657D01*
X287612Y482527D01*
X287599Y482397D01*
X287583Y482267D01*
X287563Y482139D01*
X287539Y482010D01*
X287511Y481883D01*
X287480Y481756D01*
X287445Y481630D01*
X287407Y481505D01*
X287365Y481382D01*
X287320Y481259D01*
X287271Y481138D01*
X287219Y481018D01*
X287163Y480900D01*
X287164Y480900D02*
X287141Y480840D01*
X287115Y480780D01*
X287086Y480723D01*
X287053Y480667D01*
X287017Y480613D01*
X286979Y480561D01*
X286937Y480511D01*
X286893Y480464D01*
X286846Y480419D01*
X286796Y480377D01*
X286745Y480338D01*
X286691Y480302D01*
X286635Y480269D01*
X286578Y480239D01*
X286519Y480212D01*
X286458Y480189D01*
X286397Y480169D01*
X286334Y480153D01*
X286270Y480140D01*
X286206Y480131D01*
X286142Y480126D01*
X286077Y480124D01*
X284991Y480900D02*
X284935Y481018D01*
X284883Y481138D01*
X284834Y481259D01*
X284789Y481381D01*
X284747Y481505D01*
X284709Y481630D01*
X284674Y481756D01*
X284643Y481882D01*
X284615Y482010D01*
X284591Y482138D01*
X284571Y482267D01*
X284555Y482397D01*
X284542Y482527D01*
X284532Y482657D01*
X284527Y482787D01*
X284525Y482918D01*
X284990Y480900D02*
X285013Y480840D01*
X285039Y480780D01*
X285068Y480723D01*
X285101Y480667D01*
X285137Y480613D01*
X285175Y480561D01*
X285217Y480511D01*
X285261Y480464D01*
X285308Y480419D01*
X285358Y480377D01*
X285409Y480338D01*
X285463Y480302D01*
X285519Y480269D01*
X285576Y480239D01*
X285635Y480212D01*
X285696Y480189D01*
X285757Y480169D01*
X285820Y480153D01*
X285884Y480140D01*
X285948Y480131D01*
X286012Y480126D01*
X286077Y480124D01*
X287319Y481366D02*
X284836Y484470D01*
X281987Y483849D02*
X281987Y478261D01*
X281987Y483849D02*
X280435Y483849D01*
X280377Y483847D01*
X280318Y483842D01*
X280261Y483833D01*
X280203Y483820D01*
X280147Y483803D01*
X280092Y483784D01*
X280039Y483760D01*
X279986Y483734D01*
X279936Y483704D01*
X279888Y483671D01*
X279842Y483635D01*
X279798Y483597D01*
X279756Y483555D01*
X279718Y483511D01*
X279682Y483465D01*
X279649Y483417D01*
X279619Y483367D01*
X279593Y483314D01*
X279569Y483261D01*
X279550Y483206D01*
X279533Y483150D01*
X279520Y483092D01*
X279511Y483035D01*
X279506Y482976D01*
X279504Y482918D01*
X279503Y482918D02*
X279503Y481055D01*
X279504Y481055D02*
X279506Y480997D01*
X279511Y480938D01*
X279520Y480881D01*
X279533Y480823D01*
X279550Y480767D01*
X279569Y480712D01*
X279593Y480659D01*
X279619Y480606D01*
X279649Y480556D01*
X279682Y480508D01*
X279718Y480462D01*
X279756Y480418D01*
X279798Y480376D01*
X279842Y480338D01*
X279888Y480302D01*
X279936Y480269D01*
X279986Y480239D01*
X280039Y480213D01*
X280092Y480189D01*
X280147Y480170D01*
X280203Y480153D01*
X280261Y480140D01*
X280318Y480131D01*
X280377Y480126D01*
X280435Y480124D01*
X281987Y480124D01*
X277012Y480124D02*
X277012Y485712D01*
X274528Y485712D01*
X274528Y483228D02*
X277012Y483228D01*
X291564Y432594D02*
X293116Y432594D01*
X291564Y432594D02*
X291487Y432596D01*
X291409Y432602D01*
X291333Y432611D01*
X291256Y432625D01*
X291181Y432642D01*
X291107Y432663D01*
X291033Y432688D01*
X290961Y432716D01*
X290891Y432748D01*
X290822Y432783D01*
X290755Y432822D01*
X290690Y432864D01*
X290627Y432909D01*
X290566Y432957D01*
X290508Y433008D01*
X290453Y433062D01*
X290400Y433119D01*
X290351Y433178D01*
X290304Y433240D01*
X290260Y433304D01*
X290220Y433370D01*
X290183Y433438D01*
X290149Y433508D01*
X290119Y433579D01*
X290093Y433652D01*
X290070Y433726D01*
X290051Y433801D01*
X290036Y433876D01*
X290024Y433953D01*
X290016Y434030D01*
X290012Y434107D01*
X290012Y434185D01*
X290016Y434262D01*
X290024Y434339D01*
X290036Y434416D01*
X290051Y434491D01*
X290070Y434566D01*
X290093Y434640D01*
X290119Y434713D01*
X290149Y434784D01*
X290183Y434854D01*
X290220Y434922D01*
X290260Y434988D01*
X290304Y435052D01*
X290351Y435114D01*
X290400Y435173D01*
X290453Y435230D01*
X290508Y435284D01*
X290566Y435335D01*
X290627Y435383D01*
X290690Y435428D01*
X290755Y435470D01*
X290822Y435509D01*
X290891Y435544D01*
X290961Y435576D01*
X291033Y435604D01*
X291107Y435629D01*
X291181Y435650D01*
X291256Y435667D01*
X291333Y435681D01*
X291409Y435690D01*
X291487Y435696D01*
X291564Y435698D01*
X291253Y438182D02*
X293116Y438182D01*
X291253Y438182D02*
X291183Y438180D01*
X291114Y438174D01*
X291045Y438164D01*
X290977Y438151D01*
X290909Y438133D01*
X290843Y438112D01*
X290778Y438087D01*
X290714Y438059D01*
X290652Y438027D01*
X290592Y437992D01*
X290534Y437953D01*
X290479Y437911D01*
X290425Y437866D01*
X290375Y437818D01*
X290327Y437768D01*
X290282Y437714D01*
X290240Y437659D01*
X290201Y437601D01*
X290166Y437541D01*
X290134Y437479D01*
X290106Y437415D01*
X290081Y437350D01*
X290060Y437284D01*
X290042Y437216D01*
X290029Y437148D01*
X290019Y437079D01*
X290013Y437010D01*
X290011Y436940D01*
X290013Y436870D01*
X290019Y436801D01*
X290029Y436732D01*
X290042Y436664D01*
X290060Y436596D01*
X290081Y436530D01*
X290106Y436465D01*
X290134Y436401D01*
X290166Y436339D01*
X290201Y436279D01*
X290240Y436221D01*
X290282Y436166D01*
X290327Y436112D01*
X290375Y436062D01*
X290425Y436014D01*
X290479Y435969D01*
X290534Y435927D01*
X290592Y435888D01*
X290652Y435853D01*
X290714Y435821D01*
X290778Y435793D01*
X290843Y435768D01*
X290909Y435747D01*
X290977Y435729D01*
X291045Y435716D01*
X291114Y435706D01*
X291183Y435700D01*
X291253Y435698D01*
X292495Y435698D01*
X287630Y435388D02*
X287628Y435519D01*
X287623Y435649D01*
X287613Y435779D01*
X287600Y435909D01*
X287584Y436039D01*
X287564Y436168D01*
X287540Y436296D01*
X287512Y436423D01*
X287481Y436550D01*
X287446Y436676D01*
X287408Y436801D01*
X287366Y436925D01*
X287321Y437047D01*
X287272Y437168D01*
X287220Y437288D01*
X287164Y437406D01*
X287141Y437466D01*
X287115Y437526D01*
X287086Y437583D01*
X287053Y437639D01*
X287017Y437693D01*
X286979Y437745D01*
X286937Y437795D01*
X286893Y437842D01*
X286846Y437887D01*
X286796Y437929D01*
X286745Y437968D01*
X286691Y438004D01*
X286635Y438037D01*
X286578Y438067D01*
X286519Y438094D01*
X286458Y438117D01*
X286397Y438137D01*
X286334Y438153D01*
X286270Y438166D01*
X286206Y438175D01*
X286142Y438180D01*
X286077Y438182D01*
X286012Y438180D01*
X285948Y438175D01*
X285884Y438166D01*
X285820Y438153D01*
X285757Y438137D01*
X285696Y438117D01*
X285635Y438094D01*
X285576Y438067D01*
X285519Y438037D01*
X285463Y438004D01*
X285409Y437968D01*
X285358Y437929D01*
X285308Y437887D01*
X285261Y437842D01*
X285217Y437795D01*
X285175Y437745D01*
X285137Y437693D01*
X285101Y437639D01*
X285068Y437583D01*
X285039Y437526D01*
X285013Y437466D01*
X284990Y437406D01*
X284991Y437406D02*
X284935Y437288D01*
X284883Y437168D01*
X284834Y437047D01*
X284789Y436925D01*
X284747Y436801D01*
X284709Y436676D01*
X284674Y436550D01*
X284643Y436424D01*
X284615Y436296D01*
X284591Y436168D01*
X284571Y436039D01*
X284555Y435909D01*
X284542Y435779D01*
X284532Y435649D01*
X284527Y435519D01*
X284525Y435388D01*
X287629Y435388D02*
X287627Y435257D01*
X287622Y435127D01*
X287612Y434997D01*
X287599Y434867D01*
X287583Y434737D01*
X287563Y434609D01*
X287539Y434480D01*
X287511Y434353D01*
X287480Y434226D01*
X287445Y434100D01*
X287407Y433975D01*
X287365Y433852D01*
X287320Y433729D01*
X287271Y433608D01*
X287219Y433488D01*
X287163Y433370D01*
X287164Y433370D02*
X287141Y433310D01*
X287115Y433250D01*
X287086Y433193D01*
X287053Y433137D01*
X287017Y433083D01*
X286979Y433031D01*
X286937Y432981D01*
X286893Y432934D01*
X286846Y432889D01*
X286796Y432847D01*
X286745Y432808D01*
X286691Y432772D01*
X286635Y432739D01*
X286578Y432709D01*
X286519Y432682D01*
X286458Y432659D01*
X286397Y432639D01*
X286334Y432623D01*
X286270Y432610D01*
X286206Y432601D01*
X286142Y432596D01*
X286077Y432594D01*
X284991Y433370D02*
X284935Y433488D01*
X284883Y433608D01*
X284834Y433729D01*
X284789Y433851D01*
X284747Y433975D01*
X284709Y434100D01*
X284674Y434226D01*
X284643Y434352D01*
X284615Y434480D01*
X284591Y434608D01*
X284571Y434737D01*
X284555Y434867D01*
X284542Y434997D01*
X284532Y435127D01*
X284527Y435257D01*
X284525Y435388D01*
X284990Y433370D02*
X285013Y433310D01*
X285039Y433250D01*
X285068Y433193D01*
X285101Y433137D01*
X285137Y433083D01*
X285175Y433031D01*
X285217Y432981D01*
X285261Y432934D01*
X285308Y432889D01*
X285358Y432847D01*
X285409Y432808D01*
X285463Y432772D01*
X285519Y432739D01*
X285576Y432709D01*
X285635Y432682D01*
X285696Y432659D01*
X285757Y432639D01*
X285820Y432623D01*
X285884Y432610D01*
X285948Y432601D01*
X286012Y432596D01*
X286077Y432594D01*
X287319Y433836D02*
X284836Y436940D01*
X281987Y436319D02*
X281987Y430731D01*
X281987Y436319D02*
X280435Y436319D01*
X280377Y436317D01*
X280318Y436312D01*
X280261Y436303D01*
X280203Y436290D01*
X280147Y436273D01*
X280092Y436254D01*
X280039Y436230D01*
X279986Y436204D01*
X279936Y436174D01*
X279888Y436141D01*
X279842Y436105D01*
X279798Y436067D01*
X279756Y436025D01*
X279718Y435981D01*
X279682Y435935D01*
X279649Y435887D01*
X279619Y435837D01*
X279593Y435784D01*
X279569Y435731D01*
X279550Y435676D01*
X279533Y435620D01*
X279520Y435562D01*
X279511Y435505D01*
X279506Y435446D01*
X279504Y435388D01*
X279503Y435388D02*
X279503Y433525D01*
X279504Y433525D02*
X279506Y433467D01*
X279511Y433408D01*
X279520Y433351D01*
X279533Y433293D01*
X279550Y433237D01*
X279569Y433182D01*
X279593Y433129D01*
X279619Y433076D01*
X279649Y433026D01*
X279682Y432978D01*
X279718Y432932D01*
X279756Y432888D01*
X279798Y432846D01*
X279842Y432808D01*
X279888Y432772D01*
X279936Y432739D01*
X279986Y432709D01*
X280039Y432683D01*
X280092Y432659D01*
X280147Y432640D01*
X280203Y432623D01*
X280261Y432610D01*
X280318Y432601D01*
X280377Y432596D01*
X280435Y432594D01*
X281987Y432594D01*
X277012Y432594D02*
X277012Y438182D01*
X274528Y438182D01*
X274528Y435698D02*
X277012Y435698D01*
X393240Y473964D02*
X394482Y475516D01*
X388894Y475516D01*
X388894Y473964D02*
X388894Y477068D01*
X391688Y479450D02*
X391819Y479452D01*
X391949Y479457D01*
X392079Y479467D01*
X392209Y479480D01*
X392339Y479496D01*
X392468Y479516D01*
X392596Y479540D01*
X392723Y479568D01*
X392850Y479599D01*
X392976Y479634D01*
X393101Y479672D01*
X393225Y479714D01*
X393347Y479759D01*
X393468Y479808D01*
X393588Y479860D01*
X393706Y479916D01*
X393766Y479939D01*
X393826Y479965D01*
X393883Y479994D01*
X393939Y480027D01*
X393993Y480063D01*
X394045Y480101D01*
X394095Y480143D01*
X394142Y480187D01*
X394187Y480234D01*
X394229Y480284D01*
X394268Y480335D01*
X394304Y480389D01*
X394337Y480445D01*
X394367Y480502D01*
X394394Y480561D01*
X394417Y480622D01*
X394437Y480683D01*
X394453Y480746D01*
X394466Y480810D01*
X394475Y480874D01*
X394480Y480938D01*
X394482Y481003D01*
X394480Y481068D01*
X394475Y481132D01*
X394466Y481196D01*
X394453Y481260D01*
X394437Y481323D01*
X394417Y481384D01*
X394394Y481445D01*
X394367Y481504D01*
X394337Y481561D01*
X394304Y481617D01*
X394268Y481671D01*
X394229Y481722D01*
X394187Y481772D01*
X394142Y481819D01*
X394095Y481863D01*
X394045Y481905D01*
X393993Y481943D01*
X393939Y481979D01*
X393883Y482012D01*
X393826Y482041D01*
X393766Y482067D01*
X393706Y482090D01*
X393706Y482089D02*
X393588Y482145D01*
X393468Y482197D01*
X393347Y482246D01*
X393225Y482291D01*
X393101Y482333D01*
X392976Y482371D01*
X392850Y482406D01*
X392724Y482437D01*
X392596Y482465D01*
X392468Y482489D01*
X392339Y482509D01*
X392209Y482525D01*
X392079Y482538D01*
X391949Y482548D01*
X391819Y482553D01*
X391688Y482555D01*
X391688Y479451D02*
X391557Y479453D01*
X391427Y479458D01*
X391297Y479468D01*
X391167Y479481D01*
X391037Y479497D01*
X390908Y479517D01*
X390780Y479541D01*
X390653Y479569D01*
X390526Y479600D01*
X390400Y479635D01*
X390275Y479673D01*
X390151Y479715D01*
X390029Y479760D01*
X389908Y479809D01*
X389788Y479861D01*
X389670Y479917D01*
X389670Y479916D02*
X389610Y479939D01*
X389550Y479965D01*
X389493Y479994D01*
X389437Y480027D01*
X389383Y480063D01*
X389331Y480101D01*
X389281Y480143D01*
X389234Y480187D01*
X389189Y480234D01*
X389147Y480284D01*
X389108Y480335D01*
X389072Y480389D01*
X389039Y480445D01*
X389009Y480502D01*
X388982Y480561D01*
X388959Y480622D01*
X388939Y480683D01*
X388923Y480746D01*
X388910Y480810D01*
X388901Y480874D01*
X388896Y480938D01*
X388894Y481003D01*
X389670Y482089D02*
X389788Y482145D01*
X389908Y482197D01*
X390029Y482246D01*
X390151Y482291D01*
X390275Y482333D01*
X390400Y482371D01*
X390526Y482406D01*
X390652Y482437D01*
X390780Y482465D01*
X390908Y482489D01*
X391037Y482509D01*
X391167Y482525D01*
X391297Y482538D01*
X391427Y482548D01*
X391557Y482553D01*
X391688Y482555D01*
X389670Y482090D02*
X389610Y482067D01*
X389550Y482041D01*
X389493Y482012D01*
X389437Y481979D01*
X389383Y481943D01*
X389331Y481905D01*
X389281Y481863D01*
X389234Y481819D01*
X389189Y481772D01*
X389147Y481722D01*
X389108Y481671D01*
X389072Y481617D01*
X389039Y481561D01*
X389009Y481504D01*
X388982Y481445D01*
X388959Y481384D01*
X388939Y481323D01*
X388923Y481260D01*
X388910Y481196D01*
X388901Y481132D01*
X388896Y481068D01*
X388894Y481003D01*
X390136Y479761D02*
X393240Y482244D01*
X392619Y485064D02*
X388894Y485064D01*
X392619Y485064D02*
X392619Y486617D01*
X392617Y486675D01*
X392612Y486734D01*
X392603Y486791D01*
X392590Y486849D01*
X392573Y486905D01*
X392554Y486960D01*
X392530Y487013D01*
X392504Y487066D01*
X392474Y487116D01*
X392441Y487164D01*
X392405Y487210D01*
X392367Y487254D01*
X392325Y487296D01*
X392281Y487334D01*
X392235Y487370D01*
X392187Y487403D01*
X392137Y487433D01*
X392084Y487459D01*
X392031Y487483D01*
X391976Y487502D01*
X391920Y487519D01*
X391862Y487532D01*
X391805Y487541D01*
X391746Y487546D01*
X391688Y487548D01*
X388894Y487548D01*
X388894Y490251D02*
X394482Y490251D01*
X394482Y492735D01*
X391998Y492735D02*
X391998Y490251D01*
X518902Y386188D02*
X518902Y385878D01*
X518902Y386188D02*
X518591Y386188D01*
X518591Y385878D01*
X518902Y385878D01*
X516458Y390224D02*
X514906Y391466D01*
X514906Y385878D01*
X516458Y385878D02*
X513354Y385878D01*
X510845Y386809D02*
X510845Y389603D01*
X510844Y386809D02*
X510842Y386751D01*
X510837Y386692D01*
X510828Y386635D01*
X510815Y386577D01*
X510798Y386521D01*
X510779Y386466D01*
X510755Y386413D01*
X510729Y386360D01*
X510699Y386310D01*
X510666Y386262D01*
X510630Y386216D01*
X510592Y386172D01*
X510550Y386130D01*
X510506Y386092D01*
X510460Y386056D01*
X510412Y386023D01*
X510362Y385993D01*
X510309Y385967D01*
X510256Y385943D01*
X510201Y385924D01*
X510145Y385907D01*
X510087Y385894D01*
X510030Y385885D01*
X509971Y385880D01*
X509913Y385878D01*
X508361Y385878D01*
X508361Y389603D01*
X505658Y391466D02*
X505658Y385878D01*
X505658Y391466D02*
X503174Y391466D01*
X503174Y388982D02*
X505658Y388982D01*
X491868Y476778D02*
X491558Y476778D01*
X491868Y476778D02*
X491868Y477089D01*
X491558Y477089D01*
X491558Y476778D01*
X495904Y479222D02*
X497146Y480774D01*
X491558Y480774D01*
X491558Y479222D02*
X491558Y482326D01*
X492489Y484836D02*
X495283Y484836D01*
X492489Y484836D02*
X492431Y484838D01*
X492372Y484843D01*
X492315Y484852D01*
X492257Y484865D01*
X492201Y484882D01*
X492146Y484901D01*
X492093Y484925D01*
X492040Y484951D01*
X491990Y484981D01*
X491942Y485014D01*
X491896Y485050D01*
X491852Y485088D01*
X491810Y485130D01*
X491772Y485174D01*
X491736Y485220D01*
X491703Y485268D01*
X491673Y485318D01*
X491647Y485371D01*
X491623Y485424D01*
X491604Y485479D01*
X491587Y485535D01*
X491574Y485593D01*
X491565Y485650D01*
X491560Y485709D01*
X491558Y485767D01*
X491558Y487319D01*
X495283Y487319D01*
X497146Y490022D02*
X491558Y490022D01*
X497146Y490022D02*
X497146Y492506D01*
X494662Y492506D02*
X494662Y490022D01*
X517818Y439266D02*
X519059Y434920D01*
X515955Y434920D01*
X516886Y436162D02*
X516886Y433678D01*
X513822Y433678D02*
X513822Y433988D01*
X513511Y433988D01*
X513511Y433678D01*
X513822Y433678D01*
X511378Y438645D02*
X511378Y439266D01*
X508274Y439266D01*
X509826Y433678D01*
X505765Y434609D02*
X505765Y437403D01*
X505764Y434609D02*
X505762Y434551D01*
X505757Y434492D01*
X505748Y434435D01*
X505735Y434377D01*
X505718Y434321D01*
X505699Y434266D01*
X505675Y434213D01*
X505649Y434160D01*
X505619Y434110D01*
X505586Y434062D01*
X505550Y434016D01*
X505512Y433972D01*
X505470Y433930D01*
X505426Y433892D01*
X505380Y433856D01*
X505332Y433823D01*
X505282Y433793D01*
X505229Y433767D01*
X505176Y433743D01*
X505121Y433724D01*
X505065Y433707D01*
X505007Y433694D01*
X504950Y433685D01*
X504891Y433680D01*
X504833Y433678D01*
X503281Y433678D01*
X503281Y437403D01*
X500578Y439266D02*
X500578Y433678D01*
X500578Y439266D02*
X498094Y439266D01*
X498094Y436782D02*
X500578Y436782D01*
X222033Y108686D02*
X221960Y108684D01*
X221887Y108678D01*
X221814Y108669D01*
X221743Y108655D01*
X221671Y108638D01*
X221601Y108618D01*
X221532Y108593D01*
X221465Y108565D01*
X221399Y108534D01*
X221335Y108499D01*
X221272Y108461D01*
X221212Y108419D01*
X221154Y108375D01*
X221098Y108327D01*
X221045Y108277D01*
X220995Y108224D01*
X220947Y108168D01*
X220903Y108110D01*
X220861Y108050D01*
X220823Y107988D01*
X220788Y107923D01*
X220757Y107857D01*
X220729Y107790D01*
X220704Y107721D01*
X220684Y107651D01*
X220667Y107579D01*
X220653Y107508D01*
X220644Y107435D01*
X220638Y107362D01*
X220636Y107289D01*
X222033Y108686D02*
X222117Y108684D01*
X222200Y108678D01*
X222283Y108669D01*
X222365Y108655D01*
X222447Y108638D01*
X222528Y108616D01*
X222608Y108591D01*
X222686Y108563D01*
X222764Y108531D01*
X222839Y108495D01*
X222913Y108456D01*
X222985Y108413D01*
X223055Y108367D01*
X223122Y108318D01*
X223188Y108265D01*
X223250Y108210D01*
X223310Y108152D01*
X223368Y108091D01*
X223422Y108028D01*
X223474Y107962D01*
X223522Y107894D01*
X223567Y107823D01*
X223609Y107751D01*
X223647Y107676D01*
X223682Y107600D01*
X223713Y107523D01*
X223741Y107444D01*
X221103Y106203D02*
X221049Y106256D01*
X220998Y106313D01*
X220950Y106372D01*
X220905Y106433D01*
X220864Y106496D01*
X220825Y106562D01*
X220790Y106629D01*
X220758Y106698D01*
X220730Y106769D01*
X220706Y106840D01*
X220685Y106913D01*
X220668Y106987D01*
X220654Y107062D01*
X220645Y107137D01*
X220639Y107213D01*
X220637Y107289D01*
X221102Y106202D02*
X223741Y103098D01*
X220636Y103098D01*
X217988Y103098D02*
X217988Y108686D01*
X214884Y108686D02*
X217988Y105271D01*
X216747Y106513D02*
X214884Y103098D01*
D14*
X78960Y233820D02*
X78960Y307820D01*
X78960Y233820D02*
X21460Y233820D01*
X21460Y258420D01*
X21460Y283320D01*
X21460Y307820D01*
X39460Y307820D01*
X78960Y307820D01*
X25960Y283320D02*
X21460Y283320D01*
X39460Y302820D02*
X39460Y307820D01*
X39460Y239220D02*
X39460Y234220D01*
X25960Y258420D02*
X21460Y258420D01*
D15*
X437630Y142730D02*
X447790Y142730D01*
D11*
X433820Y128097D02*
X433030Y127109D01*
X433820Y128097D02*
X430264Y128097D01*
X430264Y127109D02*
X430264Y129085D01*
X432042Y130767D02*
X432144Y130769D01*
X432246Y130774D01*
X432348Y130783D01*
X432450Y130795D01*
X432551Y130811D01*
X432651Y130831D01*
X432751Y130854D01*
X432849Y130880D01*
X432947Y130910D01*
X433044Y130944D01*
X433139Y130980D01*
X433233Y131020D01*
X433326Y131063D01*
X433376Y131082D01*
X433424Y131104D01*
X433471Y131131D01*
X433515Y131160D01*
X433557Y131193D01*
X433597Y131228D01*
X433634Y131267D01*
X433668Y131308D01*
X433699Y131351D01*
X433727Y131397D01*
X433751Y131444D01*
X433772Y131493D01*
X433789Y131544D01*
X433803Y131595D01*
X433812Y131648D01*
X433818Y131701D01*
X433820Y131754D01*
X433818Y131807D01*
X433812Y131860D01*
X433803Y131913D01*
X433789Y131964D01*
X433772Y132015D01*
X433751Y132064D01*
X433727Y132111D01*
X433699Y132157D01*
X433668Y132200D01*
X433634Y132241D01*
X433597Y132280D01*
X433557Y132315D01*
X433515Y132348D01*
X433471Y132378D01*
X433424Y132404D01*
X433376Y132426D01*
X433326Y132445D01*
X433326Y132446D02*
X433233Y132489D01*
X433139Y132529D01*
X433044Y132565D01*
X432947Y132599D01*
X432849Y132629D01*
X432751Y132655D01*
X432651Y132678D01*
X432551Y132698D01*
X432450Y132714D01*
X432348Y132726D01*
X432246Y132735D01*
X432144Y132740D01*
X432042Y132742D01*
X432042Y130766D02*
X431940Y130768D01*
X431838Y130773D01*
X431736Y130782D01*
X431634Y130794D01*
X431533Y130810D01*
X431433Y130830D01*
X431333Y130853D01*
X431234Y130879D01*
X431137Y130909D01*
X431040Y130943D01*
X430945Y130979D01*
X430850Y131019D01*
X430758Y131062D01*
X430758Y131063D02*
X430708Y131082D01*
X430660Y131104D01*
X430613Y131131D01*
X430569Y131160D01*
X430527Y131193D01*
X430487Y131228D01*
X430450Y131267D01*
X430416Y131308D01*
X430385Y131351D01*
X430357Y131397D01*
X430333Y131444D01*
X430312Y131493D01*
X430295Y131544D01*
X430281Y131595D01*
X430272Y131648D01*
X430266Y131701D01*
X430264Y131754D01*
X430758Y132446D02*
X430850Y132489D01*
X430945Y132529D01*
X431040Y132565D01*
X431137Y132599D01*
X431234Y132629D01*
X431333Y132655D01*
X431433Y132678D01*
X431533Y132698D01*
X431634Y132714D01*
X431736Y132726D01*
X431838Y132735D01*
X431940Y132740D01*
X432042Y132742D01*
X430758Y132445D02*
X430708Y132426D01*
X430660Y132404D01*
X430613Y132377D01*
X430569Y132348D01*
X430527Y132315D01*
X430487Y132280D01*
X430450Y132241D01*
X430416Y132200D01*
X430385Y132157D01*
X430357Y132111D01*
X430333Y132064D01*
X430312Y132015D01*
X430295Y131964D01*
X430281Y131913D01*
X430272Y131860D01*
X430266Y131807D01*
X430264Y131754D01*
X431054Y130964D02*
X433030Y132545D01*
X433820Y134616D02*
X430264Y134616D01*
X431647Y134616D02*
X433820Y136591D01*
X432437Y135406D02*
X430264Y136591D01*
D15*
X407180Y176500D02*
X407180Y186660D01*
D11*
X401041Y193236D02*
X400053Y194026D01*
X400053Y190470D01*
X399066Y190470D02*
X401041Y190470D01*
X397383Y192248D02*
X397381Y192350D01*
X397376Y192452D01*
X397367Y192554D01*
X397355Y192656D01*
X397339Y192757D01*
X397319Y192857D01*
X397296Y192957D01*
X397270Y193055D01*
X397240Y193153D01*
X397206Y193250D01*
X397170Y193345D01*
X397130Y193439D01*
X397087Y193532D01*
X397068Y193582D01*
X397046Y193630D01*
X397019Y193677D01*
X396990Y193721D01*
X396957Y193763D01*
X396922Y193803D01*
X396883Y193840D01*
X396842Y193874D01*
X396799Y193905D01*
X396753Y193933D01*
X396706Y193957D01*
X396657Y193978D01*
X396606Y193995D01*
X396555Y194009D01*
X396502Y194018D01*
X396449Y194024D01*
X396396Y194026D01*
X396343Y194024D01*
X396290Y194018D01*
X396237Y194009D01*
X396186Y193995D01*
X396135Y193978D01*
X396086Y193957D01*
X396039Y193933D01*
X395993Y193905D01*
X395950Y193874D01*
X395909Y193840D01*
X395870Y193803D01*
X395835Y193763D01*
X395802Y193721D01*
X395773Y193677D01*
X395746Y193630D01*
X395724Y193582D01*
X395705Y193532D01*
X395704Y193532D02*
X395661Y193439D01*
X395621Y193345D01*
X395585Y193250D01*
X395551Y193153D01*
X395521Y193055D01*
X395495Y192957D01*
X395472Y192857D01*
X395452Y192757D01*
X395436Y192656D01*
X395424Y192554D01*
X395415Y192452D01*
X395410Y192350D01*
X395408Y192248D01*
X397384Y192248D02*
X397382Y192146D01*
X397377Y192044D01*
X397368Y191942D01*
X397356Y191840D01*
X397340Y191739D01*
X397320Y191639D01*
X397297Y191539D01*
X397271Y191440D01*
X397241Y191343D01*
X397207Y191246D01*
X397171Y191151D01*
X397131Y191056D01*
X397088Y190964D01*
X397087Y190964D02*
X397068Y190914D01*
X397046Y190866D01*
X397019Y190819D01*
X396990Y190775D01*
X396957Y190733D01*
X396922Y190693D01*
X396883Y190656D01*
X396842Y190622D01*
X396799Y190591D01*
X396753Y190563D01*
X396706Y190539D01*
X396657Y190518D01*
X396606Y190501D01*
X396555Y190487D01*
X396502Y190478D01*
X396449Y190472D01*
X396396Y190470D01*
X395704Y190964D02*
X395661Y191056D01*
X395621Y191151D01*
X395585Y191246D01*
X395551Y191343D01*
X395521Y191440D01*
X395495Y191539D01*
X395472Y191639D01*
X395452Y191739D01*
X395436Y191840D01*
X395424Y191942D01*
X395415Y192044D01*
X395410Y192146D01*
X395408Y192248D01*
X395705Y190964D02*
X395724Y190914D01*
X395746Y190866D01*
X395773Y190819D01*
X395802Y190775D01*
X395835Y190733D01*
X395870Y190693D01*
X395909Y190656D01*
X395950Y190622D01*
X395993Y190591D01*
X396039Y190563D01*
X396086Y190539D01*
X396135Y190518D01*
X396186Y190501D01*
X396237Y190487D01*
X396290Y190478D01*
X396343Y190472D01*
X396396Y190470D01*
X397186Y191260D02*
X395605Y193236D01*
X393535Y194026D02*
X393535Y190470D01*
X393535Y191853D02*
X391559Y194026D01*
X392744Y192643D02*
X391559Y190470D01*
D15*
X427076Y203716D02*
X427076Y216844D01*
X427076Y203716D02*
X436664Y203716D01*
X460524Y203716D02*
X460524Y216844D01*
X460524Y203716D02*
X450936Y203716D01*
X446024Y216924D02*
X441436Y216924D01*
D11*
X434428Y199596D02*
X433441Y199596D01*
X433379Y199594D01*
X433317Y199588D01*
X433256Y199578D01*
X433195Y199565D01*
X433136Y199548D01*
X433077Y199527D01*
X433020Y199502D01*
X432965Y199474D01*
X432912Y199442D01*
X432860Y199407D01*
X432811Y199369D01*
X432765Y199328D01*
X432721Y199284D01*
X432680Y199238D01*
X432642Y199189D01*
X432607Y199137D01*
X432575Y199084D01*
X432547Y199029D01*
X432522Y198972D01*
X432501Y198913D01*
X432484Y198854D01*
X432471Y198793D01*
X432461Y198732D01*
X432455Y198670D01*
X432453Y198608D01*
X432455Y198546D01*
X432461Y198484D01*
X432471Y198423D01*
X432484Y198362D01*
X432501Y198303D01*
X432522Y198244D01*
X432547Y198187D01*
X432575Y198132D01*
X432607Y198079D01*
X432642Y198027D01*
X432680Y197978D01*
X432721Y197932D01*
X432765Y197888D01*
X432811Y197847D01*
X432860Y197809D01*
X432912Y197774D01*
X432965Y197742D01*
X433020Y197714D01*
X433077Y197689D01*
X433136Y197668D01*
X433195Y197651D01*
X433256Y197638D01*
X433317Y197628D01*
X433379Y197622D01*
X433441Y197620D01*
X434428Y197620D01*
X434428Y201176D01*
X433441Y201176D01*
X433386Y201174D01*
X433331Y201168D01*
X433277Y201159D01*
X433223Y201145D01*
X433171Y201128D01*
X433120Y201108D01*
X433070Y201084D01*
X433022Y201056D01*
X432977Y201025D01*
X432933Y200991D01*
X432892Y200954D01*
X432854Y200915D01*
X432818Y200872D01*
X432786Y200828D01*
X432757Y200781D01*
X432731Y200732D01*
X432709Y200682D01*
X432690Y200630D01*
X432674Y200577D01*
X432663Y200523D01*
X432655Y200469D01*
X432651Y200414D01*
X432651Y200358D01*
X432655Y200303D01*
X432663Y200249D01*
X432674Y200195D01*
X432690Y200142D01*
X432709Y200090D01*
X432731Y200040D01*
X432757Y199991D01*
X432786Y199944D01*
X432818Y199900D01*
X432854Y199857D01*
X432892Y199818D01*
X432933Y199781D01*
X432977Y199747D01*
X433022Y199716D01*
X433070Y199688D01*
X433120Y199664D01*
X433171Y199644D01*
X433223Y199627D01*
X433277Y199613D01*
X433331Y199604D01*
X433386Y199598D01*
X433441Y199596D01*
X429899Y197620D02*
X429845Y197622D01*
X429791Y197627D01*
X429738Y197637D01*
X429686Y197649D01*
X429634Y197666D01*
X429584Y197685D01*
X429536Y197709D01*
X429489Y197735D01*
X429443Y197765D01*
X429400Y197797D01*
X429360Y197833D01*
X429322Y197871D01*
X429286Y197911D01*
X429254Y197954D01*
X429224Y198000D01*
X429198Y198047D01*
X429174Y198095D01*
X429155Y198145D01*
X429138Y198197D01*
X429126Y198249D01*
X429116Y198302D01*
X429111Y198356D01*
X429109Y198410D01*
X429899Y197620D02*
X429976Y197622D01*
X430054Y197627D01*
X430131Y197636D01*
X430207Y197649D01*
X430283Y197665D01*
X430358Y197684D01*
X430432Y197707D01*
X430505Y197734D01*
X430577Y197764D01*
X430647Y197797D01*
X430715Y197833D01*
X430782Y197873D01*
X430847Y197915D01*
X430909Y197961D01*
X430970Y198009D01*
X431028Y198060D01*
X431084Y198114D01*
X430985Y200386D02*
X430983Y200440D01*
X430978Y200494D01*
X430968Y200547D01*
X430956Y200599D01*
X430939Y200651D01*
X430920Y200701D01*
X430896Y200749D01*
X430870Y200796D01*
X430840Y200842D01*
X430808Y200885D01*
X430772Y200925D01*
X430734Y200963D01*
X430694Y200999D01*
X430651Y201031D01*
X430605Y201061D01*
X430558Y201087D01*
X430510Y201111D01*
X430460Y201130D01*
X430408Y201147D01*
X430356Y201159D01*
X430303Y201169D01*
X430249Y201174D01*
X430195Y201176D01*
X430122Y201174D01*
X430049Y201169D01*
X429976Y201160D01*
X429903Y201147D01*
X429832Y201131D01*
X429761Y201111D01*
X429692Y201088D01*
X429623Y201061D01*
X429556Y201031D01*
X429491Y200998D01*
X429427Y200962D01*
X429366Y200922D01*
X429306Y200880D01*
X430591Y199694D02*
X430638Y199724D01*
X430682Y199757D01*
X430725Y199793D01*
X430764Y199832D01*
X430801Y199873D01*
X430835Y199917D01*
X430866Y199964D01*
X430894Y200012D01*
X430918Y200062D01*
X430938Y200114D01*
X430955Y200166D01*
X430969Y200220D01*
X430978Y200275D01*
X430984Y200330D01*
X430986Y200386D01*
X429503Y199102D02*
X429456Y199072D01*
X429412Y199039D01*
X429369Y199003D01*
X429330Y198964D01*
X429293Y198922D01*
X429259Y198879D01*
X429228Y198832D01*
X429200Y198784D01*
X429176Y198734D01*
X429156Y198682D01*
X429139Y198629D01*
X429125Y198576D01*
X429116Y198521D01*
X429110Y198466D01*
X429108Y198410D01*
X429504Y199102D02*
X430590Y199694D01*
X426485Y197620D02*
X426431Y197622D01*
X426377Y197627D01*
X426324Y197637D01*
X426272Y197649D01*
X426220Y197666D01*
X426170Y197685D01*
X426122Y197709D01*
X426075Y197735D01*
X426029Y197765D01*
X425986Y197797D01*
X425946Y197833D01*
X425908Y197871D01*
X425872Y197911D01*
X425840Y197954D01*
X425810Y198000D01*
X425784Y198047D01*
X425760Y198095D01*
X425741Y198145D01*
X425724Y198197D01*
X425712Y198249D01*
X425702Y198302D01*
X425697Y198356D01*
X425695Y198410D01*
X426485Y197620D02*
X426562Y197622D01*
X426640Y197627D01*
X426717Y197636D01*
X426793Y197649D01*
X426869Y197665D01*
X426944Y197684D01*
X427018Y197707D01*
X427091Y197734D01*
X427163Y197764D01*
X427233Y197797D01*
X427301Y197833D01*
X427368Y197873D01*
X427433Y197915D01*
X427495Y197961D01*
X427556Y198009D01*
X427614Y198060D01*
X427670Y198114D01*
X427571Y200386D02*
X427569Y200440D01*
X427564Y200494D01*
X427554Y200547D01*
X427542Y200599D01*
X427525Y200651D01*
X427506Y200701D01*
X427482Y200749D01*
X427456Y200796D01*
X427426Y200842D01*
X427394Y200885D01*
X427358Y200925D01*
X427320Y200963D01*
X427280Y200999D01*
X427237Y201031D01*
X427191Y201061D01*
X427144Y201087D01*
X427096Y201111D01*
X427046Y201130D01*
X426994Y201147D01*
X426942Y201159D01*
X426889Y201169D01*
X426835Y201174D01*
X426781Y201176D01*
X426708Y201174D01*
X426635Y201169D01*
X426562Y201160D01*
X426489Y201147D01*
X426418Y201131D01*
X426347Y201111D01*
X426278Y201088D01*
X426209Y201061D01*
X426142Y201031D01*
X426077Y200998D01*
X426013Y200962D01*
X425952Y200922D01*
X425892Y200880D01*
X427177Y199694D02*
X427224Y199724D01*
X427268Y199757D01*
X427311Y199793D01*
X427350Y199832D01*
X427387Y199873D01*
X427421Y199917D01*
X427452Y199964D01*
X427480Y200012D01*
X427504Y200062D01*
X427524Y200114D01*
X427541Y200166D01*
X427555Y200220D01*
X427564Y200275D01*
X427570Y200330D01*
X427572Y200386D01*
X426089Y199102D02*
X426042Y199072D01*
X425998Y199039D01*
X425955Y199003D01*
X425916Y198964D01*
X425879Y198922D01*
X425845Y198879D01*
X425814Y198832D01*
X425786Y198784D01*
X425762Y198734D01*
X425742Y198682D01*
X425725Y198629D01*
X425711Y198576D01*
X425702Y198521D01*
X425696Y198466D01*
X425694Y198410D01*
X426090Y199102D02*
X427177Y199694D01*
X424135Y200386D02*
X423147Y201176D01*
X423147Y197620D01*
X424135Y197620D02*
X422159Y197620D01*
X420477Y197620D02*
X419489Y197620D01*
X419427Y197622D01*
X419365Y197628D01*
X419304Y197638D01*
X419243Y197651D01*
X419184Y197668D01*
X419125Y197689D01*
X419068Y197714D01*
X419013Y197742D01*
X418960Y197774D01*
X418908Y197809D01*
X418859Y197847D01*
X418813Y197888D01*
X418769Y197932D01*
X418728Y197978D01*
X418690Y198027D01*
X418655Y198079D01*
X418623Y198132D01*
X418595Y198187D01*
X418570Y198244D01*
X418549Y198303D01*
X418532Y198362D01*
X418519Y198423D01*
X418509Y198484D01*
X418503Y198546D01*
X418501Y198608D01*
X418503Y198670D01*
X418509Y198732D01*
X418519Y198793D01*
X418532Y198854D01*
X418549Y198913D01*
X418570Y198972D01*
X418595Y199029D01*
X418623Y199084D01*
X418655Y199137D01*
X418690Y199189D01*
X418728Y199238D01*
X418769Y199284D01*
X418813Y199328D01*
X418859Y199369D01*
X418908Y199407D01*
X418960Y199442D01*
X419013Y199474D01*
X419068Y199502D01*
X419125Y199527D01*
X419184Y199548D01*
X419243Y199565D01*
X419304Y199578D01*
X419365Y199588D01*
X419427Y199594D01*
X419489Y199596D01*
X419292Y201176D02*
X420477Y201176D01*
X419292Y201176D02*
X419237Y201174D01*
X419182Y201168D01*
X419128Y201159D01*
X419074Y201145D01*
X419022Y201128D01*
X418971Y201108D01*
X418921Y201084D01*
X418873Y201056D01*
X418828Y201025D01*
X418784Y200991D01*
X418743Y200954D01*
X418705Y200915D01*
X418669Y200872D01*
X418637Y200828D01*
X418608Y200781D01*
X418582Y200732D01*
X418560Y200682D01*
X418541Y200630D01*
X418525Y200577D01*
X418514Y200523D01*
X418506Y200469D01*
X418502Y200414D01*
X418502Y200358D01*
X418506Y200303D01*
X418514Y200249D01*
X418525Y200195D01*
X418541Y200142D01*
X418560Y200090D01*
X418582Y200040D01*
X418608Y199991D01*
X418637Y199944D01*
X418669Y199900D01*
X418705Y199857D01*
X418743Y199818D01*
X418784Y199781D01*
X418828Y199747D01*
X418873Y199716D01*
X418921Y199688D01*
X418971Y199664D01*
X419022Y199644D01*
X419074Y199627D01*
X419128Y199613D01*
X419182Y199604D01*
X419237Y199598D01*
X419292Y199596D01*
X420082Y199596D01*
X416820Y198608D02*
X416818Y198670D01*
X416812Y198732D01*
X416802Y198793D01*
X416789Y198854D01*
X416772Y198913D01*
X416751Y198972D01*
X416726Y199029D01*
X416698Y199084D01*
X416666Y199137D01*
X416631Y199189D01*
X416593Y199238D01*
X416552Y199284D01*
X416508Y199328D01*
X416462Y199369D01*
X416413Y199407D01*
X416361Y199442D01*
X416308Y199474D01*
X416253Y199502D01*
X416196Y199527D01*
X416137Y199548D01*
X416078Y199565D01*
X416017Y199578D01*
X415956Y199588D01*
X415894Y199594D01*
X415832Y199596D01*
X415770Y199594D01*
X415708Y199588D01*
X415647Y199578D01*
X415586Y199565D01*
X415527Y199548D01*
X415468Y199527D01*
X415411Y199502D01*
X415356Y199474D01*
X415303Y199442D01*
X415251Y199407D01*
X415202Y199369D01*
X415156Y199328D01*
X415112Y199284D01*
X415071Y199238D01*
X415033Y199189D01*
X414998Y199137D01*
X414966Y199084D01*
X414938Y199029D01*
X414913Y198972D01*
X414892Y198913D01*
X414875Y198854D01*
X414862Y198793D01*
X414852Y198732D01*
X414846Y198670D01*
X414844Y198608D01*
X414846Y198546D01*
X414852Y198484D01*
X414862Y198423D01*
X414875Y198362D01*
X414892Y198303D01*
X414913Y198244D01*
X414938Y198187D01*
X414966Y198132D01*
X414998Y198079D01*
X415033Y198027D01*
X415071Y197978D01*
X415112Y197932D01*
X415156Y197888D01*
X415202Y197847D01*
X415251Y197809D01*
X415303Y197774D01*
X415356Y197742D01*
X415411Y197714D01*
X415468Y197689D01*
X415527Y197668D01*
X415586Y197651D01*
X415647Y197638D01*
X415708Y197628D01*
X415770Y197622D01*
X415832Y197620D01*
X415894Y197622D01*
X415956Y197628D01*
X416017Y197638D01*
X416078Y197651D01*
X416137Y197668D01*
X416196Y197689D01*
X416253Y197714D01*
X416308Y197742D01*
X416361Y197774D01*
X416413Y197809D01*
X416462Y197847D01*
X416508Y197888D01*
X416552Y197932D01*
X416593Y197978D01*
X416631Y198027D01*
X416666Y198079D01*
X416698Y198132D01*
X416726Y198187D01*
X416751Y198244D01*
X416772Y198303D01*
X416789Y198362D01*
X416802Y198423D01*
X416812Y198484D01*
X416818Y198546D01*
X416820Y198608D01*
X416622Y200386D02*
X416620Y200441D01*
X416614Y200496D01*
X416605Y200550D01*
X416591Y200604D01*
X416574Y200656D01*
X416554Y200707D01*
X416530Y200757D01*
X416502Y200805D01*
X416471Y200850D01*
X416437Y200894D01*
X416400Y200935D01*
X416361Y200973D01*
X416318Y201009D01*
X416274Y201041D01*
X416227Y201070D01*
X416178Y201096D01*
X416128Y201118D01*
X416076Y201137D01*
X416023Y201153D01*
X415969Y201164D01*
X415915Y201172D01*
X415860Y201176D01*
X415804Y201176D01*
X415749Y201172D01*
X415695Y201164D01*
X415641Y201153D01*
X415588Y201137D01*
X415536Y201118D01*
X415486Y201096D01*
X415437Y201070D01*
X415390Y201041D01*
X415346Y201009D01*
X415303Y200973D01*
X415264Y200935D01*
X415227Y200894D01*
X415193Y200850D01*
X415162Y200805D01*
X415134Y200757D01*
X415110Y200707D01*
X415090Y200656D01*
X415073Y200604D01*
X415059Y200550D01*
X415050Y200496D01*
X415044Y200441D01*
X415042Y200386D01*
X415044Y200331D01*
X415050Y200276D01*
X415059Y200222D01*
X415073Y200168D01*
X415090Y200116D01*
X415110Y200065D01*
X415134Y200015D01*
X415162Y199967D01*
X415193Y199922D01*
X415227Y199878D01*
X415264Y199837D01*
X415303Y199799D01*
X415346Y199763D01*
X415390Y199731D01*
X415437Y199702D01*
X415486Y199676D01*
X415536Y199654D01*
X415588Y199635D01*
X415641Y199619D01*
X415695Y199608D01*
X415749Y199600D01*
X415804Y199596D01*
X415860Y199596D01*
X415915Y199600D01*
X415969Y199608D01*
X416023Y199619D01*
X416076Y199635D01*
X416128Y199654D01*
X416178Y199676D01*
X416227Y199702D01*
X416274Y199731D01*
X416318Y199763D01*
X416361Y199799D01*
X416400Y199837D01*
X416437Y199878D01*
X416471Y199922D01*
X416502Y199967D01*
X416530Y200015D01*
X416554Y200065D01*
X416574Y200116D01*
X416591Y200168D01*
X416605Y200222D01*
X416614Y200276D01*
X416620Y200331D01*
X416622Y200386D01*
D15*
X521980Y140500D02*
X532140Y140500D01*
D11*
X518170Y125867D02*
X517380Y124879D01*
X518170Y125867D02*
X514614Y125867D01*
X514614Y124879D02*
X514614Y126855D01*
X516392Y128537D02*
X516494Y128539D01*
X516596Y128544D01*
X516698Y128553D01*
X516800Y128565D01*
X516901Y128581D01*
X517001Y128601D01*
X517101Y128624D01*
X517199Y128650D01*
X517297Y128680D01*
X517394Y128714D01*
X517489Y128750D01*
X517583Y128790D01*
X517676Y128833D01*
X517726Y128852D01*
X517774Y128874D01*
X517821Y128901D01*
X517865Y128930D01*
X517907Y128963D01*
X517947Y128998D01*
X517984Y129037D01*
X518018Y129078D01*
X518049Y129121D01*
X518077Y129167D01*
X518101Y129214D01*
X518122Y129263D01*
X518139Y129314D01*
X518153Y129365D01*
X518162Y129418D01*
X518168Y129471D01*
X518170Y129524D01*
X518168Y129577D01*
X518162Y129630D01*
X518153Y129683D01*
X518139Y129734D01*
X518122Y129785D01*
X518101Y129834D01*
X518077Y129881D01*
X518049Y129927D01*
X518018Y129970D01*
X517984Y130011D01*
X517947Y130050D01*
X517907Y130085D01*
X517865Y130118D01*
X517821Y130148D01*
X517774Y130174D01*
X517726Y130196D01*
X517676Y130215D01*
X517676Y130216D02*
X517583Y130259D01*
X517489Y130299D01*
X517394Y130335D01*
X517297Y130369D01*
X517199Y130399D01*
X517101Y130425D01*
X517001Y130448D01*
X516901Y130468D01*
X516800Y130484D01*
X516698Y130496D01*
X516596Y130505D01*
X516494Y130510D01*
X516392Y130512D01*
X516392Y128536D02*
X516290Y128538D01*
X516188Y128543D01*
X516086Y128552D01*
X515984Y128564D01*
X515883Y128580D01*
X515783Y128600D01*
X515683Y128623D01*
X515584Y128649D01*
X515487Y128679D01*
X515390Y128713D01*
X515295Y128749D01*
X515200Y128789D01*
X515108Y128832D01*
X515108Y128833D02*
X515058Y128852D01*
X515010Y128874D01*
X514963Y128901D01*
X514919Y128930D01*
X514877Y128963D01*
X514837Y128998D01*
X514800Y129037D01*
X514766Y129078D01*
X514735Y129121D01*
X514707Y129167D01*
X514683Y129214D01*
X514662Y129263D01*
X514645Y129314D01*
X514631Y129365D01*
X514622Y129418D01*
X514616Y129471D01*
X514614Y129524D01*
X515108Y130216D02*
X515200Y130259D01*
X515295Y130299D01*
X515390Y130335D01*
X515487Y130369D01*
X515584Y130399D01*
X515683Y130425D01*
X515783Y130448D01*
X515883Y130468D01*
X515984Y130484D01*
X516086Y130496D01*
X516188Y130505D01*
X516290Y130510D01*
X516392Y130512D01*
X515108Y130215D02*
X515058Y130196D01*
X515010Y130174D01*
X514963Y130147D01*
X514919Y130118D01*
X514877Y130085D01*
X514837Y130050D01*
X514800Y130011D01*
X514766Y129970D01*
X514735Y129927D01*
X514707Y129881D01*
X514683Y129834D01*
X514662Y129785D01*
X514645Y129734D01*
X514631Y129683D01*
X514622Y129630D01*
X514616Y129577D01*
X514614Y129524D01*
X515404Y128734D02*
X517380Y130315D01*
X518170Y132386D02*
X514614Y132386D01*
X515997Y132386D02*
X518170Y134361D01*
X516787Y133176D02*
X514614Y134361D01*
D15*
X490380Y176520D02*
X490380Y186680D01*
D11*
X484241Y193256D02*
X483253Y194046D01*
X483253Y190490D01*
X482266Y190490D02*
X484241Y190490D01*
X480583Y192268D02*
X480581Y192370D01*
X480576Y192472D01*
X480567Y192574D01*
X480555Y192676D01*
X480539Y192777D01*
X480519Y192877D01*
X480496Y192977D01*
X480470Y193075D01*
X480440Y193173D01*
X480406Y193270D01*
X480370Y193365D01*
X480330Y193459D01*
X480287Y193552D01*
X480268Y193602D01*
X480246Y193650D01*
X480219Y193697D01*
X480190Y193741D01*
X480157Y193783D01*
X480122Y193823D01*
X480083Y193860D01*
X480042Y193894D01*
X479999Y193925D01*
X479953Y193953D01*
X479906Y193977D01*
X479857Y193998D01*
X479806Y194015D01*
X479755Y194029D01*
X479702Y194038D01*
X479649Y194044D01*
X479596Y194046D01*
X479543Y194044D01*
X479490Y194038D01*
X479437Y194029D01*
X479386Y194015D01*
X479335Y193998D01*
X479286Y193977D01*
X479239Y193953D01*
X479193Y193925D01*
X479150Y193894D01*
X479109Y193860D01*
X479070Y193823D01*
X479035Y193783D01*
X479002Y193741D01*
X478973Y193697D01*
X478946Y193650D01*
X478924Y193602D01*
X478905Y193552D01*
X478904Y193552D02*
X478861Y193459D01*
X478821Y193365D01*
X478785Y193270D01*
X478751Y193173D01*
X478721Y193075D01*
X478695Y192977D01*
X478672Y192877D01*
X478652Y192777D01*
X478636Y192676D01*
X478624Y192574D01*
X478615Y192472D01*
X478610Y192370D01*
X478608Y192268D01*
X480584Y192268D02*
X480582Y192166D01*
X480577Y192064D01*
X480568Y191962D01*
X480556Y191860D01*
X480540Y191759D01*
X480520Y191659D01*
X480497Y191559D01*
X480471Y191460D01*
X480441Y191363D01*
X480407Y191266D01*
X480371Y191171D01*
X480331Y191076D01*
X480288Y190984D01*
X480287Y190984D02*
X480268Y190934D01*
X480246Y190886D01*
X480219Y190839D01*
X480190Y190795D01*
X480157Y190753D01*
X480122Y190713D01*
X480083Y190676D01*
X480042Y190642D01*
X479999Y190611D01*
X479953Y190583D01*
X479906Y190559D01*
X479857Y190538D01*
X479806Y190521D01*
X479755Y190507D01*
X479702Y190498D01*
X479649Y190492D01*
X479596Y190490D01*
X478904Y190984D02*
X478861Y191076D01*
X478821Y191171D01*
X478785Y191266D01*
X478751Y191363D01*
X478721Y191460D01*
X478695Y191559D01*
X478672Y191659D01*
X478652Y191759D01*
X478636Y191860D01*
X478624Y191962D01*
X478615Y192064D01*
X478610Y192166D01*
X478608Y192268D01*
X478905Y190984D02*
X478924Y190934D01*
X478946Y190886D01*
X478973Y190839D01*
X479002Y190795D01*
X479035Y190753D01*
X479070Y190713D01*
X479109Y190676D01*
X479150Y190642D01*
X479193Y190611D01*
X479239Y190583D01*
X479286Y190559D01*
X479335Y190538D01*
X479386Y190521D01*
X479437Y190507D01*
X479490Y190498D01*
X479543Y190492D01*
X479596Y190490D01*
X480386Y191280D02*
X478805Y193256D01*
X476735Y194046D02*
X476735Y190490D01*
X476735Y191873D02*
X474759Y194046D01*
X475944Y192663D02*
X474759Y190490D01*
D15*
X512476Y191096D02*
X512476Y204224D01*
X512476Y191096D02*
X522064Y191096D01*
X545924Y191096D02*
X545924Y204224D01*
X545924Y191096D02*
X536336Y191096D01*
X531424Y204304D02*
X526836Y204304D01*
D11*
X567101Y202216D02*
X568088Y202216D01*
X567101Y202216D02*
X567039Y202214D01*
X566977Y202208D01*
X566916Y202198D01*
X566855Y202185D01*
X566796Y202168D01*
X566737Y202147D01*
X566680Y202122D01*
X566625Y202094D01*
X566572Y202062D01*
X566520Y202027D01*
X566471Y201989D01*
X566425Y201948D01*
X566381Y201904D01*
X566340Y201858D01*
X566302Y201809D01*
X566267Y201757D01*
X566235Y201704D01*
X566207Y201649D01*
X566182Y201592D01*
X566161Y201533D01*
X566144Y201474D01*
X566131Y201413D01*
X566121Y201352D01*
X566115Y201290D01*
X566113Y201228D01*
X566115Y201166D01*
X566121Y201104D01*
X566131Y201043D01*
X566144Y200982D01*
X566161Y200923D01*
X566182Y200864D01*
X566207Y200807D01*
X566235Y200752D01*
X566267Y200699D01*
X566302Y200647D01*
X566340Y200598D01*
X566381Y200552D01*
X566425Y200508D01*
X566471Y200467D01*
X566520Y200429D01*
X566572Y200394D01*
X566625Y200362D01*
X566680Y200334D01*
X566737Y200309D01*
X566796Y200288D01*
X566855Y200271D01*
X566916Y200258D01*
X566977Y200248D01*
X567039Y200242D01*
X567101Y200240D01*
X568088Y200240D01*
X568088Y203796D01*
X567101Y203796D01*
X567046Y203794D01*
X566991Y203788D01*
X566937Y203779D01*
X566883Y203765D01*
X566831Y203748D01*
X566780Y203728D01*
X566730Y203704D01*
X566682Y203676D01*
X566637Y203645D01*
X566593Y203611D01*
X566552Y203574D01*
X566514Y203535D01*
X566478Y203492D01*
X566446Y203448D01*
X566417Y203401D01*
X566391Y203352D01*
X566369Y203302D01*
X566350Y203250D01*
X566334Y203197D01*
X566323Y203143D01*
X566315Y203089D01*
X566311Y203034D01*
X566311Y202978D01*
X566315Y202923D01*
X566323Y202869D01*
X566334Y202815D01*
X566350Y202762D01*
X566369Y202710D01*
X566391Y202660D01*
X566417Y202611D01*
X566446Y202564D01*
X566478Y202520D01*
X566514Y202477D01*
X566552Y202438D01*
X566593Y202401D01*
X566637Y202367D01*
X566682Y202336D01*
X566730Y202308D01*
X566780Y202284D01*
X566831Y202264D01*
X566883Y202247D01*
X566937Y202233D01*
X566991Y202224D01*
X567046Y202218D01*
X567101Y202216D01*
X563559Y200240D02*
X563505Y200242D01*
X563451Y200247D01*
X563398Y200257D01*
X563346Y200269D01*
X563294Y200286D01*
X563244Y200305D01*
X563196Y200329D01*
X563149Y200355D01*
X563103Y200385D01*
X563060Y200417D01*
X563020Y200453D01*
X562982Y200491D01*
X562946Y200531D01*
X562914Y200574D01*
X562884Y200620D01*
X562858Y200667D01*
X562834Y200715D01*
X562815Y200765D01*
X562798Y200817D01*
X562786Y200869D01*
X562776Y200922D01*
X562771Y200976D01*
X562769Y201030D01*
X563559Y200240D02*
X563636Y200242D01*
X563714Y200247D01*
X563791Y200256D01*
X563867Y200269D01*
X563943Y200285D01*
X564018Y200304D01*
X564092Y200327D01*
X564165Y200354D01*
X564237Y200384D01*
X564307Y200417D01*
X564375Y200453D01*
X564442Y200493D01*
X564507Y200535D01*
X564569Y200581D01*
X564630Y200629D01*
X564688Y200680D01*
X564744Y200734D01*
X564645Y203006D02*
X564643Y203060D01*
X564638Y203114D01*
X564628Y203167D01*
X564616Y203219D01*
X564599Y203271D01*
X564580Y203321D01*
X564556Y203369D01*
X564530Y203416D01*
X564500Y203462D01*
X564468Y203505D01*
X564432Y203545D01*
X564394Y203583D01*
X564354Y203619D01*
X564311Y203651D01*
X564265Y203681D01*
X564218Y203707D01*
X564170Y203731D01*
X564120Y203750D01*
X564068Y203767D01*
X564016Y203779D01*
X563963Y203789D01*
X563909Y203794D01*
X563855Y203796D01*
X563782Y203794D01*
X563709Y203789D01*
X563636Y203780D01*
X563563Y203767D01*
X563492Y203751D01*
X563421Y203731D01*
X563352Y203708D01*
X563283Y203681D01*
X563216Y203651D01*
X563151Y203618D01*
X563087Y203582D01*
X563026Y203542D01*
X562966Y203500D01*
X564251Y202314D02*
X564298Y202344D01*
X564342Y202377D01*
X564385Y202413D01*
X564424Y202452D01*
X564461Y202493D01*
X564495Y202537D01*
X564526Y202584D01*
X564554Y202632D01*
X564578Y202682D01*
X564598Y202734D01*
X564615Y202786D01*
X564629Y202840D01*
X564638Y202895D01*
X564644Y202950D01*
X564646Y203006D01*
X563163Y201722D02*
X563116Y201692D01*
X563072Y201659D01*
X563029Y201623D01*
X562990Y201584D01*
X562953Y201542D01*
X562919Y201499D01*
X562888Y201452D01*
X562860Y201404D01*
X562836Y201354D01*
X562816Y201302D01*
X562799Y201249D01*
X562785Y201196D01*
X562776Y201141D01*
X562770Y201086D01*
X562768Y201030D01*
X563164Y201722D02*
X564250Y202314D01*
X560145Y200240D02*
X560091Y200242D01*
X560037Y200247D01*
X559984Y200257D01*
X559932Y200269D01*
X559880Y200286D01*
X559830Y200305D01*
X559782Y200329D01*
X559735Y200355D01*
X559689Y200385D01*
X559646Y200417D01*
X559606Y200453D01*
X559568Y200491D01*
X559532Y200531D01*
X559500Y200574D01*
X559470Y200620D01*
X559444Y200667D01*
X559420Y200715D01*
X559401Y200765D01*
X559384Y200817D01*
X559372Y200869D01*
X559362Y200922D01*
X559357Y200976D01*
X559355Y201030D01*
X560145Y200240D02*
X560222Y200242D01*
X560300Y200247D01*
X560377Y200256D01*
X560453Y200269D01*
X560529Y200285D01*
X560604Y200304D01*
X560678Y200327D01*
X560751Y200354D01*
X560823Y200384D01*
X560893Y200417D01*
X560961Y200453D01*
X561028Y200493D01*
X561093Y200535D01*
X561155Y200581D01*
X561216Y200629D01*
X561274Y200680D01*
X561330Y200734D01*
X561231Y203006D02*
X561229Y203060D01*
X561224Y203114D01*
X561214Y203167D01*
X561202Y203219D01*
X561185Y203271D01*
X561166Y203321D01*
X561142Y203369D01*
X561116Y203416D01*
X561086Y203462D01*
X561054Y203505D01*
X561018Y203545D01*
X560980Y203583D01*
X560940Y203619D01*
X560897Y203651D01*
X560851Y203681D01*
X560804Y203707D01*
X560756Y203731D01*
X560706Y203750D01*
X560654Y203767D01*
X560602Y203779D01*
X560549Y203789D01*
X560495Y203794D01*
X560441Y203796D01*
X560368Y203794D01*
X560295Y203789D01*
X560222Y203780D01*
X560149Y203767D01*
X560078Y203751D01*
X560007Y203731D01*
X559938Y203708D01*
X559869Y203681D01*
X559802Y203651D01*
X559737Y203618D01*
X559673Y203582D01*
X559612Y203542D01*
X559552Y203500D01*
X560837Y202314D02*
X560884Y202344D01*
X560928Y202377D01*
X560971Y202413D01*
X561010Y202452D01*
X561047Y202493D01*
X561081Y202537D01*
X561112Y202584D01*
X561140Y202632D01*
X561164Y202682D01*
X561184Y202734D01*
X561201Y202786D01*
X561215Y202840D01*
X561224Y202895D01*
X561230Y202950D01*
X561232Y203006D01*
X559749Y201722D02*
X559702Y201692D01*
X559658Y201659D01*
X559615Y201623D01*
X559576Y201584D01*
X559539Y201542D01*
X559505Y201499D01*
X559474Y201452D01*
X559446Y201404D01*
X559422Y201354D01*
X559402Y201302D01*
X559385Y201249D01*
X559371Y201196D01*
X559362Y201141D01*
X559356Y201086D01*
X559354Y201030D01*
X559750Y201722D02*
X560837Y202314D01*
X557795Y203006D02*
X556807Y203796D01*
X556807Y200240D01*
X557795Y200240D02*
X555819Y200240D01*
X554137Y200240D02*
X553149Y200240D01*
X553087Y200242D01*
X553025Y200248D01*
X552964Y200258D01*
X552903Y200271D01*
X552844Y200288D01*
X552785Y200309D01*
X552728Y200334D01*
X552673Y200362D01*
X552620Y200394D01*
X552568Y200429D01*
X552519Y200467D01*
X552473Y200508D01*
X552429Y200552D01*
X552388Y200598D01*
X552350Y200647D01*
X552315Y200699D01*
X552283Y200752D01*
X552255Y200807D01*
X552230Y200864D01*
X552209Y200923D01*
X552192Y200982D01*
X552179Y201043D01*
X552169Y201104D01*
X552163Y201166D01*
X552161Y201228D01*
X552163Y201290D01*
X552169Y201352D01*
X552179Y201413D01*
X552192Y201474D01*
X552209Y201533D01*
X552230Y201592D01*
X552255Y201649D01*
X552283Y201704D01*
X552315Y201757D01*
X552350Y201809D01*
X552388Y201858D01*
X552429Y201904D01*
X552473Y201948D01*
X552519Y201989D01*
X552568Y202027D01*
X552620Y202062D01*
X552673Y202094D01*
X552728Y202122D01*
X552785Y202147D01*
X552844Y202168D01*
X552903Y202185D01*
X552964Y202198D01*
X553025Y202208D01*
X553087Y202214D01*
X553149Y202216D01*
X552952Y203796D02*
X554137Y203796D01*
X552952Y203796D02*
X552897Y203794D01*
X552842Y203788D01*
X552788Y203779D01*
X552734Y203765D01*
X552682Y203748D01*
X552631Y203728D01*
X552581Y203704D01*
X552533Y203676D01*
X552488Y203645D01*
X552444Y203611D01*
X552403Y203574D01*
X552365Y203535D01*
X552329Y203492D01*
X552297Y203448D01*
X552268Y203401D01*
X552242Y203352D01*
X552220Y203302D01*
X552201Y203250D01*
X552185Y203197D01*
X552174Y203143D01*
X552166Y203089D01*
X552162Y203034D01*
X552162Y202978D01*
X552166Y202923D01*
X552174Y202869D01*
X552185Y202815D01*
X552201Y202762D01*
X552220Y202710D01*
X552242Y202660D01*
X552268Y202611D01*
X552297Y202564D01*
X552329Y202520D01*
X552365Y202477D01*
X552403Y202438D01*
X552444Y202401D01*
X552488Y202367D01*
X552533Y202336D01*
X552581Y202308D01*
X552631Y202284D01*
X552682Y202264D01*
X552734Y202247D01*
X552788Y202233D01*
X552842Y202224D01*
X552897Y202218D01*
X552952Y202216D01*
X553742Y202216D01*
X550480Y201228D02*
X550478Y201290D01*
X550472Y201352D01*
X550462Y201413D01*
X550449Y201474D01*
X550432Y201533D01*
X550411Y201592D01*
X550386Y201649D01*
X550358Y201704D01*
X550326Y201757D01*
X550291Y201809D01*
X550253Y201858D01*
X550212Y201904D01*
X550168Y201948D01*
X550122Y201989D01*
X550073Y202027D01*
X550021Y202062D01*
X549968Y202094D01*
X549913Y202122D01*
X549856Y202147D01*
X549797Y202168D01*
X549738Y202185D01*
X549677Y202198D01*
X549616Y202208D01*
X549554Y202214D01*
X549492Y202216D01*
X549430Y202214D01*
X549368Y202208D01*
X549307Y202198D01*
X549246Y202185D01*
X549187Y202168D01*
X549128Y202147D01*
X549071Y202122D01*
X549016Y202094D01*
X548963Y202062D01*
X548911Y202027D01*
X548862Y201989D01*
X548816Y201948D01*
X548772Y201904D01*
X548731Y201858D01*
X548693Y201809D01*
X548658Y201757D01*
X548626Y201704D01*
X548598Y201649D01*
X548573Y201592D01*
X548552Y201533D01*
X548535Y201474D01*
X548522Y201413D01*
X548512Y201352D01*
X548506Y201290D01*
X548504Y201228D01*
X548506Y201166D01*
X548512Y201104D01*
X548522Y201043D01*
X548535Y200982D01*
X548552Y200923D01*
X548573Y200864D01*
X548598Y200807D01*
X548626Y200752D01*
X548658Y200699D01*
X548693Y200647D01*
X548731Y200598D01*
X548772Y200552D01*
X548816Y200508D01*
X548862Y200467D01*
X548911Y200429D01*
X548963Y200394D01*
X549016Y200362D01*
X549071Y200334D01*
X549128Y200309D01*
X549187Y200288D01*
X549246Y200271D01*
X549307Y200258D01*
X549368Y200248D01*
X549430Y200242D01*
X549492Y200240D01*
X549554Y200242D01*
X549616Y200248D01*
X549677Y200258D01*
X549738Y200271D01*
X549797Y200288D01*
X549856Y200309D01*
X549913Y200334D01*
X549968Y200362D01*
X550021Y200394D01*
X550073Y200429D01*
X550122Y200467D01*
X550168Y200508D01*
X550212Y200552D01*
X550253Y200598D01*
X550291Y200647D01*
X550326Y200699D01*
X550358Y200752D01*
X550386Y200807D01*
X550411Y200864D01*
X550432Y200923D01*
X550449Y200982D01*
X550462Y201043D01*
X550472Y201104D01*
X550478Y201166D01*
X550480Y201228D01*
X550282Y203006D02*
X550280Y203061D01*
X550274Y203116D01*
X550265Y203170D01*
X550251Y203224D01*
X550234Y203276D01*
X550214Y203327D01*
X550190Y203377D01*
X550162Y203425D01*
X550131Y203470D01*
X550097Y203514D01*
X550060Y203555D01*
X550021Y203593D01*
X549978Y203629D01*
X549934Y203661D01*
X549887Y203690D01*
X549838Y203716D01*
X549788Y203738D01*
X549736Y203757D01*
X549683Y203773D01*
X549629Y203784D01*
X549575Y203792D01*
X549520Y203796D01*
X549464Y203796D01*
X549409Y203792D01*
X549355Y203784D01*
X549301Y203773D01*
X549248Y203757D01*
X549196Y203738D01*
X549146Y203716D01*
X549097Y203690D01*
X549050Y203661D01*
X549006Y203629D01*
X548963Y203593D01*
X548924Y203555D01*
X548887Y203514D01*
X548853Y203470D01*
X548822Y203425D01*
X548794Y203377D01*
X548770Y203327D01*
X548750Y203276D01*
X548733Y203224D01*
X548719Y203170D01*
X548710Y203116D01*
X548704Y203061D01*
X548702Y203006D01*
X548704Y202951D01*
X548710Y202896D01*
X548719Y202842D01*
X548733Y202788D01*
X548750Y202736D01*
X548770Y202685D01*
X548794Y202635D01*
X548822Y202587D01*
X548853Y202542D01*
X548887Y202498D01*
X548924Y202457D01*
X548963Y202419D01*
X549006Y202383D01*
X549050Y202351D01*
X549097Y202322D01*
X549146Y202296D01*
X549196Y202274D01*
X549248Y202255D01*
X549301Y202239D01*
X549355Y202228D01*
X549409Y202220D01*
X549464Y202216D01*
X549520Y202216D01*
X549575Y202220D01*
X549629Y202228D01*
X549683Y202239D01*
X549736Y202255D01*
X549788Y202274D01*
X549838Y202296D01*
X549887Y202322D01*
X549934Y202351D01*
X549978Y202383D01*
X550021Y202419D01*
X550060Y202457D01*
X550097Y202498D01*
X550131Y202542D01*
X550162Y202587D01*
X550190Y202635D01*
X550214Y202685D01*
X550234Y202736D01*
X550251Y202788D01*
X550265Y202842D01*
X550274Y202896D01*
X550280Y202951D01*
X550282Y203006D01*
D15*
X363640Y143980D02*
X353480Y143980D01*
D11*
X349670Y129347D02*
X348880Y128359D01*
X349670Y129347D02*
X346114Y129347D01*
X346114Y128359D02*
X346114Y130335D01*
X347892Y132017D02*
X347994Y132019D01*
X348096Y132024D01*
X348198Y132033D01*
X348300Y132045D01*
X348401Y132061D01*
X348501Y132081D01*
X348601Y132104D01*
X348699Y132130D01*
X348797Y132160D01*
X348894Y132194D01*
X348989Y132230D01*
X349083Y132270D01*
X349176Y132313D01*
X349226Y132332D01*
X349274Y132354D01*
X349321Y132381D01*
X349365Y132410D01*
X349407Y132443D01*
X349447Y132478D01*
X349484Y132517D01*
X349518Y132558D01*
X349549Y132601D01*
X349577Y132647D01*
X349601Y132694D01*
X349622Y132743D01*
X349639Y132794D01*
X349653Y132845D01*
X349662Y132898D01*
X349668Y132951D01*
X349670Y133004D01*
X349668Y133057D01*
X349662Y133110D01*
X349653Y133163D01*
X349639Y133214D01*
X349622Y133265D01*
X349601Y133314D01*
X349577Y133361D01*
X349549Y133407D01*
X349518Y133450D01*
X349484Y133491D01*
X349447Y133530D01*
X349407Y133565D01*
X349365Y133598D01*
X349321Y133628D01*
X349274Y133654D01*
X349226Y133676D01*
X349176Y133695D01*
X349176Y133696D02*
X349083Y133739D01*
X348989Y133779D01*
X348894Y133815D01*
X348797Y133849D01*
X348699Y133879D01*
X348601Y133905D01*
X348501Y133928D01*
X348401Y133948D01*
X348300Y133964D01*
X348198Y133976D01*
X348096Y133985D01*
X347994Y133990D01*
X347892Y133992D01*
X347892Y132016D02*
X347790Y132018D01*
X347688Y132023D01*
X347586Y132032D01*
X347484Y132044D01*
X347383Y132060D01*
X347283Y132080D01*
X347183Y132103D01*
X347084Y132129D01*
X346987Y132159D01*
X346890Y132193D01*
X346795Y132229D01*
X346700Y132269D01*
X346608Y132312D01*
X346608Y132313D02*
X346558Y132332D01*
X346510Y132354D01*
X346463Y132381D01*
X346419Y132410D01*
X346377Y132443D01*
X346337Y132478D01*
X346300Y132517D01*
X346266Y132558D01*
X346235Y132601D01*
X346207Y132647D01*
X346183Y132694D01*
X346162Y132743D01*
X346145Y132794D01*
X346131Y132845D01*
X346122Y132898D01*
X346116Y132951D01*
X346114Y133004D01*
X346608Y133696D02*
X346700Y133739D01*
X346795Y133779D01*
X346890Y133815D01*
X346987Y133849D01*
X347084Y133879D01*
X347183Y133905D01*
X347283Y133928D01*
X347383Y133948D01*
X347484Y133964D01*
X347586Y133976D01*
X347688Y133985D01*
X347790Y133990D01*
X347892Y133992D01*
X346608Y133695D02*
X346558Y133676D01*
X346510Y133654D01*
X346463Y133627D01*
X346419Y133598D01*
X346377Y133565D01*
X346337Y133530D01*
X346300Y133491D01*
X346266Y133450D01*
X346235Y133407D01*
X346207Y133361D01*
X346183Y133314D01*
X346162Y133265D01*
X346145Y133214D01*
X346131Y133163D01*
X346122Y133110D01*
X346116Y133057D01*
X346114Y133004D01*
X346904Y132214D02*
X348880Y133795D01*
X349670Y135866D02*
X346114Y135866D01*
X347497Y135866D02*
X349670Y137841D01*
X348287Y136656D02*
X346114Y137841D01*
D15*
X314800Y169760D02*
X314800Y179920D01*
D11*
X308661Y186496D02*
X307673Y187286D01*
X307673Y183730D01*
X306686Y183730D02*
X308661Y183730D01*
X305003Y185508D02*
X305001Y185610D01*
X304996Y185712D01*
X304987Y185814D01*
X304975Y185916D01*
X304959Y186017D01*
X304939Y186117D01*
X304916Y186217D01*
X304890Y186315D01*
X304860Y186413D01*
X304826Y186510D01*
X304790Y186605D01*
X304750Y186699D01*
X304707Y186792D01*
X304688Y186842D01*
X304666Y186890D01*
X304639Y186937D01*
X304610Y186981D01*
X304577Y187023D01*
X304542Y187063D01*
X304503Y187100D01*
X304462Y187134D01*
X304419Y187165D01*
X304373Y187193D01*
X304326Y187217D01*
X304277Y187238D01*
X304226Y187255D01*
X304175Y187269D01*
X304122Y187278D01*
X304069Y187284D01*
X304016Y187286D01*
X303963Y187284D01*
X303910Y187278D01*
X303857Y187269D01*
X303806Y187255D01*
X303755Y187238D01*
X303706Y187217D01*
X303659Y187193D01*
X303613Y187165D01*
X303570Y187134D01*
X303529Y187100D01*
X303490Y187063D01*
X303455Y187023D01*
X303422Y186981D01*
X303393Y186937D01*
X303366Y186890D01*
X303344Y186842D01*
X303325Y186792D01*
X303324Y186792D02*
X303281Y186699D01*
X303241Y186605D01*
X303205Y186510D01*
X303171Y186413D01*
X303141Y186315D01*
X303115Y186217D01*
X303092Y186117D01*
X303072Y186017D01*
X303056Y185916D01*
X303044Y185814D01*
X303035Y185712D01*
X303030Y185610D01*
X303028Y185508D01*
X305004Y185508D02*
X305002Y185406D01*
X304997Y185304D01*
X304988Y185202D01*
X304976Y185100D01*
X304960Y184999D01*
X304940Y184899D01*
X304917Y184799D01*
X304891Y184700D01*
X304861Y184603D01*
X304827Y184506D01*
X304791Y184411D01*
X304751Y184316D01*
X304708Y184224D01*
X304707Y184224D02*
X304688Y184174D01*
X304666Y184126D01*
X304639Y184079D01*
X304610Y184035D01*
X304577Y183993D01*
X304542Y183953D01*
X304503Y183916D01*
X304462Y183882D01*
X304419Y183851D01*
X304373Y183823D01*
X304326Y183799D01*
X304277Y183778D01*
X304226Y183761D01*
X304175Y183747D01*
X304122Y183738D01*
X304069Y183732D01*
X304016Y183730D01*
X303324Y184224D02*
X303281Y184316D01*
X303241Y184411D01*
X303205Y184506D01*
X303171Y184603D01*
X303141Y184700D01*
X303115Y184799D01*
X303092Y184899D01*
X303072Y184999D01*
X303056Y185100D01*
X303044Y185202D01*
X303035Y185304D01*
X303030Y185406D01*
X303028Y185508D01*
X303325Y184224D02*
X303344Y184174D01*
X303366Y184126D01*
X303393Y184079D01*
X303422Y184035D01*
X303455Y183993D01*
X303490Y183953D01*
X303529Y183916D01*
X303570Y183882D01*
X303613Y183851D01*
X303659Y183823D01*
X303706Y183799D01*
X303755Y183778D01*
X303806Y183761D01*
X303857Y183747D01*
X303910Y183738D01*
X303963Y183732D01*
X304016Y183730D01*
X304806Y184520D02*
X303225Y186496D01*
X301155Y187286D02*
X301155Y183730D01*
X301155Y185113D02*
X299179Y187286D01*
X300364Y185903D02*
X299179Y183730D01*
D15*
X342296Y207176D02*
X342296Y220304D01*
X342296Y207176D02*
X351884Y207176D01*
X375744Y207176D02*
X375744Y220304D01*
X375744Y207176D02*
X366156Y207176D01*
X361244Y220384D02*
X356656Y220384D01*
D11*
X352188Y203056D02*
X351201Y203056D01*
X351139Y203054D01*
X351077Y203048D01*
X351016Y203038D01*
X350955Y203025D01*
X350896Y203008D01*
X350837Y202987D01*
X350780Y202962D01*
X350725Y202934D01*
X350672Y202902D01*
X350620Y202867D01*
X350571Y202829D01*
X350525Y202788D01*
X350481Y202744D01*
X350440Y202698D01*
X350402Y202649D01*
X350367Y202597D01*
X350335Y202544D01*
X350307Y202489D01*
X350282Y202432D01*
X350261Y202373D01*
X350244Y202314D01*
X350231Y202253D01*
X350221Y202192D01*
X350215Y202130D01*
X350213Y202068D01*
X350215Y202006D01*
X350221Y201944D01*
X350231Y201883D01*
X350244Y201822D01*
X350261Y201763D01*
X350282Y201704D01*
X350307Y201647D01*
X350335Y201592D01*
X350367Y201539D01*
X350402Y201487D01*
X350440Y201438D01*
X350481Y201392D01*
X350525Y201348D01*
X350571Y201307D01*
X350620Y201269D01*
X350672Y201234D01*
X350725Y201202D01*
X350780Y201174D01*
X350837Y201149D01*
X350896Y201128D01*
X350955Y201111D01*
X351016Y201098D01*
X351077Y201088D01*
X351139Y201082D01*
X351201Y201080D01*
X352188Y201080D01*
X352188Y204636D01*
X351201Y204636D01*
X351146Y204634D01*
X351091Y204628D01*
X351037Y204619D01*
X350983Y204605D01*
X350931Y204588D01*
X350880Y204568D01*
X350830Y204544D01*
X350782Y204516D01*
X350737Y204485D01*
X350693Y204451D01*
X350652Y204414D01*
X350614Y204375D01*
X350578Y204332D01*
X350546Y204288D01*
X350517Y204241D01*
X350491Y204192D01*
X350469Y204142D01*
X350450Y204090D01*
X350434Y204037D01*
X350423Y203983D01*
X350415Y203929D01*
X350411Y203874D01*
X350411Y203818D01*
X350415Y203763D01*
X350423Y203709D01*
X350434Y203655D01*
X350450Y203602D01*
X350469Y203550D01*
X350491Y203500D01*
X350517Y203451D01*
X350546Y203404D01*
X350578Y203360D01*
X350614Y203317D01*
X350652Y203278D01*
X350693Y203241D01*
X350737Y203207D01*
X350782Y203176D01*
X350830Y203148D01*
X350880Y203124D01*
X350931Y203104D01*
X350983Y203087D01*
X351037Y203073D01*
X351091Y203064D01*
X351146Y203058D01*
X351201Y203056D01*
X347659Y201080D02*
X347605Y201082D01*
X347551Y201087D01*
X347498Y201097D01*
X347446Y201109D01*
X347394Y201126D01*
X347344Y201145D01*
X347296Y201169D01*
X347249Y201195D01*
X347203Y201225D01*
X347160Y201257D01*
X347120Y201293D01*
X347082Y201331D01*
X347046Y201371D01*
X347014Y201414D01*
X346984Y201460D01*
X346958Y201507D01*
X346934Y201555D01*
X346915Y201605D01*
X346898Y201657D01*
X346886Y201709D01*
X346876Y201762D01*
X346871Y201816D01*
X346869Y201870D01*
X347659Y201080D02*
X347736Y201082D01*
X347814Y201087D01*
X347891Y201096D01*
X347967Y201109D01*
X348043Y201125D01*
X348118Y201144D01*
X348192Y201167D01*
X348265Y201194D01*
X348337Y201224D01*
X348407Y201257D01*
X348475Y201293D01*
X348542Y201333D01*
X348607Y201375D01*
X348669Y201421D01*
X348730Y201469D01*
X348788Y201520D01*
X348844Y201574D01*
X348745Y203846D02*
X348743Y203900D01*
X348738Y203954D01*
X348728Y204007D01*
X348716Y204059D01*
X348699Y204111D01*
X348680Y204161D01*
X348656Y204209D01*
X348630Y204256D01*
X348600Y204302D01*
X348568Y204345D01*
X348532Y204385D01*
X348494Y204423D01*
X348454Y204459D01*
X348411Y204491D01*
X348365Y204521D01*
X348318Y204547D01*
X348270Y204571D01*
X348220Y204590D01*
X348168Y204607D01*
X348116Y204619D01*
X348063Y204629D01*
X348009Y204634D01*
X347955Y204636D01*
X347882Y204634D01*
X347809Y204629D01*
X347736Y204620D01*
X347663Y204607D01*
X347592Y204591D01*
X347521Y204571D01*
X347452Y204548D01*
X347383Y204521D01*
X347316Y204491D01*
X347251Y204458D01*
X347187Y204422D01*
X347126Y204382D01*
X347066Y204340D01*
X348351Y203154D02*
X348398Y203184D01*
X348442Y203217D01*
X348485Y203253D01*
X348524Y203292D01*
X348561Y203333D01*
X348595Y203377D01*
X348626Y203424D01*
X348654Y203472D01*
X348678Y203522D01*
X348698Y203574D01*
X348715Y203626D01*
X348729Y203680D01*
X348738Y203735D01*
X348744Y203790D01*
X348746Y203846D01*
X347263Y202562D02*
X347216Y202532D01*
X347172Y202499D01*
X347129Y202463D01*
X347090Y202424D01*
X347053Y202382D01*
X347019Y202339D01*
X346988Y202292D01*
X346960Y202244D01*
X346936Y202194D01*
X346916Y202142D01*
X346899Y202089D01*
X346885Y202036D01*
X346876Y201981D01*
X346870Y201926D01*
X346868Y201870D01*
X347264Y202562D02*
X348350Y203154D01*
X344245Y201080D02*
X344191Y201082D01*
X344137Y201087D01*
X344084Y201097D01*
X344032Y201109D01*
X343980Y201126D01*
X343930Y201145D01*
X343882Y201169D01*
X343835Y201195D01*
X343789Y201225D01*
X343746Y201257D01*
X343706Y201293D01*
X343668Y201331D01*
X343632Y201371D01*
X343600Y201414D01*
X343570Y201460D01*
X343544Y201507D01*
X343520Y201555D01*
X343501Y201605D01*
X343484Y201657D01*
X343472Y201709D01*
X343462Y201762D01*
X343457Y201816D01*
X343455Y201870D01*
X344245Y201080D02*
X344322Y201082D01*
X344400Y201087D01*
X344477Y201096D01*
X344553Y201109D01*
X344629Y201125D01*
X344704Y201144D01*
X344778Y201167D01*
X344851Y201194D01*
X344923Y201224D01*
X344993Y201257D01*
X345061Y201293D01*
X345128Y201333D01*
X345193Y201375D01*
X345255Y201421D01*
X345316Y201469D01*
X345374Y201520D01*
X345430Y201574D01*
X345331Y203846D02*
X345329Y203900D01*
X345324Y203954D01*
X345314Y204007D01*
X345302Y204059D01*
X345285Y204111D01*
X345266Y204161D01*
X345242Y204209D01*
X345216Y204256D01*
X345186Y204302D01*
X345154Y204345D01*
X345118Y204385D01*
X345080Y204423D01*
X345040Y204459D01*
X344997Y204491D01*
X344951Y204521D01*
X344904Y204547D01*
X344856Y204571D01*
X344806Y204590D01*
X344754Y204607D01*
X344702Y204619D01*
X344649Y204629D01*
X344595Y204634D01*
X344541Y204636D01*
X344468Y204634D01*
X344395Y204629D01*
X344322Y204620D01*
X344249Y204607D01*
X344178Y204591D01*
X344107Y204571D01*
X344038Y204548D01*
X343969Y204521D01*
X343902Y204491D01*
X343837Y204458D01*
X343773Y204422D01*
X343712Y204382D01*
X343652Y204340D01*
X344937Y203154D02*
X344984Y203184D01*
X345028Y203217D01*
X345071Y203253D01*
X345110Y203292D01*
X345147Y203333D01*
X345181Y203377D01*
X345212Y203424D01*
X345240Y203472D01*
X345264Y203522D01*
X345284Y203574D01*
X345301Y203626D01*
X345315Y203680D01*
X345324Y203735D01*
X345330Y203790D01*
X345332Y203846D01*
X343849Y202562D02*
X343802Y202532D01*
X343758Y202499D01*
X343715Y202463D01*
X343676Y202424D01*
X343639Y202382D01*
X343605Y202339D01*
X343574Y202292D01*
X343546Y202244D01*
X343522Y202194D01*
X343502Y202142D01*
X343485Y202089D01*
X343471Y202036D01*
X343462Y201981D01*
X343456Y201926D01*
X343454Y201870D01*
X343850Y202562D02*
X344937Y203154D01*
X341895Y203846D02*
X340907Y204636D01*
X340907Y201080D01*
X341895Y201080D02*
X339919Y201080D01*
X338237Y201080D02*
X337249Y201080D01*
X337187Y201082D01*
X337125Y201088D01*
X337064Y201098D01*
X337003Y201111D01*
X336944Y201128D01*
X336885Y201149D01*
X336828Y201174D01*
X336773Y201202D01*
X336720Y201234D01*
X336668Y201269D01*
X336619Y201307D01*
X336573Y201348D01*
X336529Y201392D01*
X336488Y201438D01*
X336450Y201487D01*
X336415Y201539D01*
X336383Y201592D01*
X336355Y201647D01*
X336330Y201704D01*
X336309Y201763D01*
X336292Y201822D01*
X336279Y201883D01*
X336269Y201944D01*
X336263Y202006D01*
X336261Y202068D01*
X336263Y202130D01*
X336269Y202192D01*
X336279Y202253D01*
X336292Y202314D01*
X336309Y202373D01*
X336330Y202432D01*
X336355Y202489D01*
X336383Y202544D01*
X336415Y202597D01*
X336450Y202649D01*
X336488Y202698D01*
X336529Y202744D01*
X336573Y202788D01*
X336619Y202829D01*
X336668Y202867D01*
X336720Y202902D01*
X336773Y202934D01*
X336828Y202962D01*
X336885Y202987D01*
X336944Y203008D01*
X337003Y203025D01*
X337064Y203038D01*
X337125Y203048D01*
X337187Y203054D01*
X337249Y203056D01*
X337052Y204636D02*
X338237Y204636D01*
X337052Y204636D02*
X336997Y204634D01*
X336942Y204628D01*
X336888Y204619D01*
X336834Y204605D01*
X336782Y204588D01*
X336731Y204568D01*
X336681Y204544D01*
X336633Y204516D01*
X336588Y204485D01*
X336544Y204451D01*
X336503Y204414D01*
X336465Y204375D01*
X336429Y204332D01*
X336397Y204288D01*
X336368Y204241D01*
X336342Y204192D01*
X336320Y204142D01*
X336301Y204090D01*
X336285Y204037D01*
X336274Y203983D01*
X336266Y203929D01*
X336262Y203874D01*
X336262Y203818D01*
X336266Y203763D01*
X336274Y203709D01*
X336285Y203655D01*
X336301Y203602D01*
X336320Y203550D01*
X336342Y203500D01*
X336368Y203451D01*
X336397Y203404D01*
X336429Y203360D01*
X336465Y203317D01*
X336503Y203278D01*
X336544Y203241D01*
X336588Y203207D01*
X336633Y203176D01*
X336681Y203148D01*
X336731Y203124D01*
X336782Y203104D01*
X336834Y203087D01*
X336888Y203073D01*
X336942Y203064D01*
X336997Y203058D01*
X337052Y203056D01*
X337842Y203056D01*
X334580Y202068D02*
X334578Y202130D01*
X334572Y202192D01*
X334562Y202253D01*
X334549Y202314D01*
X334532Y202373D01*
X334511Y202432D01*
X334486Y202489D01*
X334458Y202544D01*
X334426Y202597D01*
X334391Y202649D01*
X334353Y202698D01*
X334312Y202744D01*
X334268Y202788D01*
X334222Y202829D01*
X334173Y202867D01*
X334121Y202902D01*
X334068Y202934D01*
X334013Y202962D01*
X333956Y202987D01*
X333897Y203008D01*
X333838Y203025D01*
X333777Y203038D01*
X333716Y203048D01*
X333654Y203054D01*
X333592Y203056D01*
X333530Y203054D01*
X333468Y203048D01*
X333407Y203038D01*
X333346Y203025D01*
X333287Y203008D01*
X333228Y202987D01*
X333171Y202962D01*
X333116Y202934D01*
X333063Y202902D01*
X333011Y202867D01*
X332962Y202829D01*
X332916Y202788D01*
X332872Y202744D01*
X332831Y202698D01*
X332793Y202649D01*
X332758Y202597D01*
X332726Y202544D01*
X332698Y202489D01*
X332673Y202432D01*
X332652Y202373D01*
X332635Y202314D01*
X332622Y202253D01*
X332612Y202192D01*
X332606Y202130D01*
X332604Y202068D01*
X332606Y202006D01*
X332612Y201944D01*
X332622Y201883D01*
X332635Y201822D01*
X332652Y201763D01*
X332673Y201704D01*
X332698Y201647D01*
X332726Y201592D01*
X332758Y201539D01*
X332793Y201487D01*
X332831Y201438D01*
X332872Y201392D01*
X332916Y201348D01*
X332962Y201307D01*
X333011Y201269D01*
X333063Y201234D01*
X333116Y201202D01*
X333171Y201174D01*
X333228Y201149D01*
X333287Y201128D01*
X333346Y201111D01*
X333407Y201098D01*
X333468Y201088D01*
X333530Y201082D01*
X333592Y201080D01*
X333654Y201082D01*
X333716Y201088D01*
X333777Y201098D01*
X333838Y201111D01*
X333897Y201128D01*
X333956Y201149D01*
X334013Y201174D01*
X334068Y201202D01*
X334121Y201234D01*
X334173Y201269D01*
X334222Y201307D01*
X334268Y201348D01*
X334312Y201392D01*
X334353Y201438D01*
X334391Y201487D01*
X334426Y201539D01*
X334458Y201592D01*
X334486Y201647D01*
X334511Y201704D01*
X334532Y201763D01*
X334549Y201822D01*
X334562Y201883D01*
X334572Y201944D01*
X334578Y202006D01*
X334580Y202068D01*
X334382Y203846D02*
X334380Y203901D01*
X334374Y203956D01*
X334365Y204010D01*
X334351Y204064D01*
X334334Y204116D01*
X334314Y204167D01*
X334290Y204217D01*
X334262Y204265D01*
X334231Y204310D01*
X334197Y204354D01*
X334160Y204395D01*
X334121Y204433D01*
X334078Y204469D01*
X334034Y204501D01*
X333987Y204530D01*
X333938Y204556D01*
X333888Y204578D01*
X333836Y204597D01*
X333783Y204613D01*
X333729Y204624D01*
X333675Y204632D01*
X333620Y204636D01*
X333564Y204636D01*
X333509Y204632D01*
X333455Y204624D01*
X333401Y204613D01*
X333348Y204597D01*
X333296Y204578D01*
X333246Y204556D01*
X333197Y204530D01*
X333150Y204501D01*
X333106Y204469D01*
X333063Y204433D01*
X333024Y204395D01*
X332987Y204354D01*
X332953Y204310D01*
X332922Y204265D01*
X332894Y204217D01*
X332870Y204167D01*
X332850Y204116D01*
X332833Y204064D01*
X332819Y204010D01*
X332810Y203956D01*
X332804Y203901D01*
X332802Y203846D01*
X332804Y203791D01*
X332810Y203736D01*
X332819Y203682D01*
X332833Y203628D01*
X332850Y203576D01*
X332870Y203525D01*
X332894Y203475D01*
X332922Y203427D01*
X332953Y203382D01*
X332987Y203338D01*
X333024Y203297D01*
X333063Y203259D01*
X333106Y203223D01*
X333150Y203191D01*
X333197Y203162D01*
X333246Y203136D01*
X333296Y203114D01*
X333348Y203095D01*
X333401Y203079D01*
X333455Y203068D01*
X333509Y203060D01*
X333564Y203056D01*
X333620Y203056D01*
X333675Y203060D01*
X333729Y203068D01*
X333783Y203079D01*
X333836Y203095D01*
X333888Y203114D01*
X333938Y203136D01*
X333987Y203162D01*
X334034Y203191D01*
X334078Y203223D01*
X334121Y203259D01*
X334160Y203297D01*
X334197Y203338D01*
X334231Y203382D01*
X334262Y203427D01*
X334290Y203475D01*
X334314Y203525D01*
X334334Y203576D01*
X334351Y203628D01*
X334365Y203682D01*
X334374Y203736D01*
X334380Y203791D01*
X334382Y203846D01*
D16*
X536670Y551460D02*
X543020Y557810D01*
X543020Y570510D01*
X536670Y576860D01*
X523970Y576860D01*
X517620Y570510D01*
X517620Y557810D01*
X523970Y551460D01*
X543020Y519710D02*
X543020Y507010D01*
X543020Y519710D02*
X536670Y526060D01*
X523970Y526060D01*
X517620Y519710D01*
X536670Y526060D02*
X543020Y532410D01*
X543020Y545110D01*
X536670Y551460D01*
X523970Y551460D01*
X517620Y545110D01*
X517620Y532410D01*
X523970Y526060D01*
X523970Y500660D02*
X536670Y500660D01*
X543020Y507010D01*
X523970Y500660D02*
X517620Y507010D01*
X517620Y519710D01*
X543020Y583210D02*
X543020Y595910D01*
X536670Y602260D01*
X523970Y602260D01*
X517620Y595910D01*
X536670Y576860D02*
X543020Y583210D01*
X523970Y576860D02*
X517620Y583210D01*
X517620Y595910D01*
D17*
X480187Y592568D02*
X474458Y590931D01*
X474458Y595023D01*
X476095Y593796D02*
X472821Y593796D01*
X479369Y598246D02*
X480187Y598246D01*
X480187Y602338D01*
X472821Y600292D01*
M02*
