G04 EAGLE Gerber RS-274X export*
G75*
%MOMM*%
%FSLAX34Y34*%
%LPD*%
%INSoldermask Top*%
%IPPOS*%
%AMOC8*
5,1,8,0,0,1.08239X$1,22.5*%
G01*
%ADD10C,3.327400*%
%ADD11R,2.552400X2.152400*%
%ADD12R,2.460400X0.652400*%
%ADD13C,1.152400*%
%ADD14R,1.652400X0.552400*%
%ADD15R,1.652400X2.102400*%
%ADD16R,1.552400X1.252400*%
%ADD17R,1.352400X1.352400*%
%ADD18R,1.252400X1.552400*%
%ADD19P,2.089446X8X112.500000*%
%ADD20R,0.627400X0.402400*%
%ADD21R,0.402400X0.527400*%
%ADD22R,1.452400X1.652400*%
%ADD23R,1.452400X2.052400*%
%ADD24R,1.652400X1.452400*%
%ADD25R,1.652400X1.352400*%
%ADD26C,1.676400*%
%ADD27R,0.552400X1.652400*%
%ADD28R,2.102400X1.652400*%
%ADD29P,2.089446X8X22.500000*%
%ADD30C,0.172959*%
%ADD31C,1.371600*%
%ADD32C,1.637400*%
%ADD33R,1.637400X1.637400*%
%ADD34C,1.352400*%
%ADD35C,1.652400*%
%ADD36R,1.371600X2.387600*%
%ADD37R,3.752400X2.352400*%
%ADD38P,1.896997X8X112.500000*%
%ADD39C,1.752600*%
%ADD40R,1.152400X1.352400*%
%ADD41R,2.209800X0.762000*%
%ADD42P,1.814519X8X22.500000*%
%ADD43C,2.082800*%
%ADD44R,1.352400X1.352400*%
%ADD45C,0.446291*%
%ADD46C,0.858000*%


D10*
X30480Y728980D03*
X38100Y35560D03*
X911860Y43180D03*
X980440Y731520D03*
X538480Y342900D03*
D11*
X934000Y422900D03*
D12*
X928360Y450900D03*
X928360Y458900D03*
X928360Y466900D03*
X928360Y474900D03*
X928360Y482900D03*
D11*
X989000Y422900D03*
X934000Y510900D03*
X989000Y510900D03*
D13*
X959000Y444900D03*
X959000Y488900D03*
D14*
X891610Y301910D03*
X891610Y308410D03*
X891610Y314910D03*
X891610Y321410D03*
X891610Y327910D03*
X891610Y334410D03*
X891610Y340910D03*
X891610Y347410D03*
X891610Y353910D03*
X891610Y360410D03*
X891610Y366910D03*
X891610Y373410D03*
X891610Y379910D03*
X891610Y386410D03*
X819110Y386410D03*
X819110Y379910D03*
X819110Y373410D03*
X819110Y366910D03*
X819110Y360410D03*
X819110Y353910D03*
X819110Y347410D03*
X819110Y340910D03*
X819110Y334410D03*
X819110Y327910D03*
X819110Y321410D03*
X819110Y314910D03*
X819110Y308410D03*
X819110Y301910D03*
D15*
X769360Y300910D03*
X769360Y273410D03*
D16*
X768360Y328160D03*
X768360Y348160D03*
X768360Y375160D03*
X768360Y395160D03*
D17*
X931440Y340660D03*
X931440Y319660D03*
X931440Y358660D03*
X931440Y379660D03*
D18*
X845360Y246160D03*
X865360Y246160D03*
D19*
X792260Y195860D03*
X817660Y195860D03*
X843060Y195860D03*
X868460Y195860D03*
X893860Y195860D03*
X919260Y195860D03*
D18*
X906360Y246160D03*
X886360Y246160D03*
D20*
X171775Y600960D03*
D21*
X179900Y600335D03*
X184900Y600335D03*
X189900Y600335D03*
X194900Y600335D03*
D20*
X203025Y600960D03*
X203025Y605960D03*
X203025Y610960D03*
X203025Y615960D03*
X203025Y620960D03*
X203025Y625960D03*
X203025Y630960D03*
X203025Y635960D03*
X203025Y640960D03*
X203025Y645960D03*
D21*
X194900Y646585D03*
X189900Y646585D03*
X184900Y646585D03*
X179900Y646585D03*
D20*
X171775Y645960D03*
X171775Y640960D03*
X171775Y635960D03*
X171775Y630960D03*
X171775Y625960D03*
X171775Y620960D03*
X171775Y615960D03*
X171775Y610960D03*
X171775Y605960D03*
D22*
X216120Y675760D03*
X235120Y675760D03*
D23*
X124120Y629710D03*
X69120Y629710D03*
X69120Y597710D03*
X124120Y597710D03*
D22*
X85070Y576520D03*
X104070Y576520D03*
X84960Y650440D03*
X103960Y650440D03*
D24*
X259720Y621500D03*
X259720Y602500D03*
D25*
X149240Y562580D03*
X149240Y583580D03*
D26*
X979410Y376080D02*
X994650Y376080D01*
X994650Y350680D02*
X979410Y350680D01*
X979410Y325280D02*
X994650Y325280D01*
X994650Y299880D02*
X979410Y299880D01*
X979410Y274480D02*
X994650Y274480D01*
X994650Y249080D02*
X979410Y249080D01*
X979410Y223680D02*
X994650Y223680D01*
X994650Y198280D02*
X979410Y198280D01*
X979410Y172880D02*
X994650Y172880D01*
X994650Y147480D02*
X979410Y147480D01*
X979410Y122080D02*
X994650Y122080D01*
X994650Y96680D02*
X979410Y96680D01*
X979410Y71280D02*
X994650Y71280D01*
X994650Y45880D02*
X979410Y45880D01*
X979410Y20480D02*
X994650Y20480D01*
X638288Y376334D02*
X623048Y376334D01*
X623048Y350934D02*
X638288Y350934D01*
X638288Y325534D02*
X623048Y325534D01*
X623048Y300134D02*
X638288Y300134D01*
X638288Y274734D02*
X623048Y274734D01*
X623048Y249334D02*
X638288Y249334D01*
X638288Y223934D02*
X623048Y223934D01*
X623048Y198534D02*
X638288Y198534D01*
X638288Y173134D02*
X623048Y173134D01*
X623048Y147734D02*
X638288Y147734D01*
X638288Y122334D02*
X623048Y122334D01*
X623048Y96934D02*
X638288Y96934D01*
X638288Y71534D02*
X623048Y71534D01*
X623048Y46134D02*
X638288Y46134D01*
X638288Y20734D02*
X623048Y20734D01*
D11*
X934000Y601460D03*
D12*
X928360Y629460D03*
X928360Y637460D03*
X928360Y645460D03*
X928360Y653460D03*
X928360Y661460D03*
D11*
X989000Y601460D03*
X934000Y689460D03*
X989000Y689460D03*
D13*
X959000Y623460D03*
X959000Y667460D03*
D27*
X803750Y605710D03*
X810250Y605710D03*
X816750Y605710D03*
X823250Y605710D03*
X829750Y605710D03*
X836250Y605710D03*
X842750Y605710D03*
X849250Y605710D03*
X855750Y605710D03*
X862250Y605710D03*
X868750Y605710D03*
X875250Y605710D03*
X881750Y605710D03*
X888250Y605710D03*
X888250Y678210D03*
X881750Y678210D03*
X875250Y678210D03*
X868750Y678210D03*
X862250Y678210D03*
X855750Y678210D03*
X849250Y678210D03*
X842750Y678210D03*
X836250Y678210D03*
X829750Y678210D03*
X823250Y678210D03*
X816750Y678210D03*
X810250Y678210D03*
X803750Y678210D03*
D28*
X794670Y705560D03*
X767170Y705560D03*
D18*
X832580Y722300D03*
X852580Y722300D03*
X876040Y732460D03*
X896040Y732460D03*
D17*
X839000Y570960D03*
X818000Y570960D03*
X858000Y570960D03*
X879000Y570960D03*
D16*
X748500Y653460D03*
X748500Y633460D03*
D29*
X688620Y720300D03*
X688620Y694900D03*
X688620Y669500D03*
X688620Y644100D03*
X688620Y618700D03*
X688620Y593300D03*
D16*
X748500Y593460D03*
X748500Y613460D03*
D26*
X451360Y654474D02*
X436120Y654474D01*
X436120Y629582D02*
X451360Y629582D01*
X451360Y604690D02*
X436120Y604690D01*
X436120Y679366D02*
X451360Y679366D01*
X451360Y704258D02*
X436120Y704258D01*
X436120Y729150D02*
X451360Y729150D01*
X354600Y680046D02*
X339360Y680046D01*
X339360Y704938D02*
X354600Y704938D01*
X354600Y729830D02*
X339360Y729830D01*
X339360Y655154D02*
X354600Y655154D01*
X354600Y630262D02*
X339360Y630262D01*
X339360Y605370D02*
X354600Y605370D01*
X485900Y132946D02*
X501140Y132946D01*
X501140Y108054D02*
X485900Y108054D01*
X485900Y83162D02*
X501140Y83162D01*
X501140Y157838D02*
X485900Y157838D01*
X417360Y133046D02*
X402120Y133046D01*
X402120Y108154D02*
X417360Y108154D01*
X417360Y83262D02*
X402120Y83262D01*
X402120Y157938D02*
X417360Y157938D01*
X657328Y449110D02*
X657328Y464350D01*
X682220Y464350D02*
X682220Y449110D01*
X707112Y449110D02*
X707112Y464350D01*
X657948Y526500D02*
X657948Y541740D01*
X682840Y541740D02*
X682840Y526500D01*
X707732Y526500D02*
X707732Y541740D01*
D30*
X395643Y496477D02*
X395643Y493883D01*
X395643Y496477D02*
X411037Y496477D01*
X411037Y493883D01*
X395643Y493883D01*
X395643Y495526D02*
X411037Y495526D01*
X395643Y491477D02*
X395643Y488883D01*
X395643Y491477D02*
X411037Y491477D01*
X411037Y488883D01*
X395643Y488883D01*
X395643Y490526D02*
X411037Y490526D01*
X395643Y486477D02*
X395643Y483883D01*
X395643Y486477D02*
X411037Y486477D01*
X411037Y483883D01*
X395643Y483883D01*
X395643Y485526D02*
X411037Y485526D01*
X395643Y481477D02*
X395643Y478883D01*
X395643Y481477D02*
X411037Y481477D01*
X411037Y478883D01*
X395643Y478883D01*
X395643Y480526D02*
X411037Y480526D01*
X395643Y476477D02*
X395643Y473883D01*
X395643Y476477D02*
X411037Y476477D01*
X411037Y473883D01*
X395643Y473883D01*
X395643Y475526D02*
X411037Y475526D01*
X395643Y471477D02*
X395643Y468883D01*
X395643Y471477D02*
X411037Y471477D01*
X411037Y468883D01*
X395643Y468883D01*
X395643Y470526D02*
X411037Y470526D01*
X395643Y466477D02*
X395643Y463883D01*
X395643Y466477D02*
X411037Y466477D01*
X411037Y463883D01*
X395643Y463883D01*
X395643Y465526D02*
X411037Y465526D01*
X395643Y461477D02*
X395643Y458883D01*
X395643Y461477D02*
X411037Y461477D01*
X411037Y458883D01*
X395643Y458883D01*
X395643Y460526D02*
X411037Y460526D01*
X395643Y456477D02*
X395643Y453883D01*
X395643Y456477D02*
X411037Y456477D01*
X411037Y453883D01*
X395643Y453883D01*
X395643Y455526D02*
X411037Y455526D01*
X395643Y451477D02*
X395643Y448883D01*
X395643Y451477D02*
X411037Y451477D01*
X411037Y448883D01*
X395643Y448883D01*
X395643Y450526D02*
X411037Y450526D01*
X395643Y446477D02*
X395643Y443883D01*
X395643Y446477D02*
X411037Y446477D01*
X411037Y443883D01*
X395643Y443883D01*
X395643Y445526D02*
X411037Y445526D01*
X395643Y441477D02*
X395643Y438883D01*
X395643Y441477D02*
X411037Y441477D01*
X411037Y438883D01*
X395643Y438883D01*
X395643Y440526D02*
X411037Y440526D01*
X416343Y433577D02*
X418937Y433577D01*
X418937Y418183D01*
X416343Y418183D01*
X416343Y433577D01*
X416343Y419826D02*
X418937Y419826D01*
X418937Y421469D02*
X416343Y421469D01*
X416343Y423112D02*
X418937Y423112D01*
X418937Y424755D02*
X416343Y424755D01*
X416343Y426398D02*
X418937Y426398D01*
X418937Y428041D02*
X416343Y428041D01*
X416343Y429684D02*
X418937Y429684D01*
X418937Y431327D02*
X416343Y431327D01*
X416343Y432970D02*
X418937Y432970D01*
X421343Y433577D02*
X423937Y433577D01*
X423937Y418183D01*
X421343Y418183D01*
X421343Y433577D01*
X421343Y419826D02*
X423937Y419826D01*
X423937Y421469D02*
X421343Y421469D01*
X421343Y423112D02*
X423937Y423112D01*
X423937Y424755D02*
X421343Y424755D01*
X421343Y426398D02*
X423937Y426398D01*
X423937Y428041D02*
X421343Y428041D01*
X421343Y429684D02*
X423937Y429684D01*
X423937Y431327D02*
X421343Y431327D01*
X421343Y432970D02*
X423937Y432970D01*
X426343Y433577D02*
X428937Y433577D01*
X428937Y418183D01*
X426343Y418183D01*
X426343Y433577D01*
X426343Y419826D02*
X428937Y419826D01*
X428937Y421469D02*
X426343Y421469D01*
X426343Y423112D02*
X428937Y423112D01*
X428937Y424755D02*
X426343Y424755D01*
X426343Y426398D02*
X428937Y426398D01*
X428937Y428041D02*
X426343Y428041D01*
X426343Y429684D02*
X428937Y429684D01*
X428937Y431327D02*
X426343Y431327D01*
X426343Y432970D02*
X428937Y432970D01*
X431343Y433577D02*
X433937Y433577D01*
X433937Y418183D01*
X431343Y418183D01*
X431343Y433577D01*
X431343Y419826D02*
X433937Y419826D01*
X433937Y421469D02*
X431343Y421469D01*
X431343Y423112D02*
X433937Y423112D01*
X433937Y424755D02*
X431343Y424755D01*
X431343Y426398D02*
X433937Y426398D01*
X433937Y428041D02*
X431343Y428041D01*
X431343Y429684D02*
X433937Y429684D01*
X433937Y431327D02*
X431343Y431327D01*
X431343Y432970D02*
X433937Y432970D01*
X436343Y433577D02*
X438937Y433577D01*
X438937Y418183D01*
X436343Y418183D01*
X436343Y433577D01*
X436343Y419826D02*
X438937Y419826D01*
X438937Y421469D02*
X436343Y421469D01*
X436343Y423112D02*
X438937Y423112D01*
X438937Y424755D02*
X436343Y424755D01*
X436343Y426398D02*
X438937Y426398D01*
X438937Y428041D02*
X436343Y428041D01*
X436343Y429684D02*
X438937Y429684D01*
X438937Y431327D02*
X436343Y431327D01*
X436343Y432970D02*
X438937Y432970D01*
X441343Y433577D02*
X443937Y433577D01*
X443937Y418183D01*
X441343Y418183D01*
X441343Y433577D01*
X441343Y419826D02*
X443937Y419826D01*
X443937Y421469D02*
X441343Y421469D01*
X441343Y423112D02*
X443937Y423112D01*
X443937Y424755D02*
X441343Y424755D01*
X441343Y426398D02*
X443937Y426398D01*
X443937Y428041D02*
X441343Y428041D01*
X441343Y429684D02*
X443937Y429684D01*
X443937Y431327D02*
X441343Y431327D01*
X441343Y432970D02*
X443937Y432970D01*
X446343Y433577D02*
X448937Y433577D01*
X448937Y418183D01*
X446343Y418183D01*
X446343Y433577D01*
X446343Y419826D02*
X448937Y419826D01*
X448937Y421469D02*
X446343Y421469D01*
X446343Y423112D02*
X448937Y423112D01*
X448937Y424755D02*
X446343Y424755D01*
X446343Y426398D02*
X448937Y426398D01*
X448937Y428041D02*
X446343Y428041D01*
X446343Y429684D02*
X448937Y429684D01*
X448937Y431327D02*
X446343Y431327D01*
X446343Y432970D02*
X448937Y432970D01*
X451343Y433577D02*
X453937Y433577D01*
X453937Y418183D01*
X451343Y418183D01*
X451343Y433577D01*
X451343Y419826D02*
X453937Y419826D01*
X453937Y421469D02*
X451343Y421469D01*
X451343Y423112D02*
X453937Y423112D01*
X453937Y424755D02*
X451343Y424755D01*
X451343Y426398D02*
X453937Y426398D01*
X453937Y428041D02*
X451343Y428041D01*
X451343Y429684D02*
X453937Y429684D01*
X453937Y431327D02*
X451343Y431327D01*
X451343Y432970D02*
X453937Y432970D01*
X456343Y433577D02*
X458937Y433577D01*
X458937Y418183D01*
X456343Y418183D01*
X456343Y433577D01*
X456343Y419826D02*
X458937Y419826D01*
X458937Y421469D02*
X456343Y421469D01*
X456343Y423112D02*
X458937Y423112D01*
X458937Y424755D02*
X456343Y424755D01*
X456343Y426398D02*
X458937Y426398D01*
X458937Y428041D02*
X456343Y428041D01*
X456343Y429684D02*
X458937Y429684D01*
X458937Y431327D02*
X456343Y431327D01*
X456343Y432970D02*
X458937Y432970D01*
X461343Y433577D02*
X463937Y433577D01*
X463937Y418183D01*
X461343Y418183D01*
X461343Y433577D01*
X461343Y419826D02*
X463937Y419826D01*
X463937Y421469D02*
X461343Y421469D01*
X461343Y423112D02*
X463937Y423112D01*
X463937Y424755D02*
X461343Y424755D01*
X461343Y426398D02*
X463937Y426398D01*
X463937Y428041D02*
X461343Y428041D01*
X461343Y429684D02*
X463937Y429684D01*
X463937Y431327D02*
X461343Y431327D01*
X461343Y432970D02*
X463937Y432970D01*
X466343Y433577D02*
X468937Y433577D01*
X468937Y418183D01*
X466343Y418183D01*
X466343Y433577D01*
X466343Y419826D02*
X468937Y419826D01*
X468937Y421469D02*
X466343Y421469D01*
X466343Y423112D02*
X468937Y423112D01*
X468937Y424755D02*
X466343Y424755D01*
X466343Y426398D02*
X468937Y426398D01*
X468937Y428041D02*
X466343Y428041D01*
X466343Y429684D02*
X468937Y429684D01*
X468937Y431327D02*
X466343Y431327D01*
X466343Y432970D02*
X468937Y432970D01*
X471343Y433577D02*
X473937Y433577D01*
X473937Y418183D01*
X471343Y418183D01*
X471343Y433577D01*
X471343Y419826D02*
X473937Y419826D01*
X473937Y421469D02*
X471343Y421469D01*
X471343Y423112D02*
X473937Y423112D01*
X473937Y424755D02*
X471343Y424755D01*
X471343Y426398D02*
X473937Y426398D01*
X473937Y428041D02*
X471343Y428041D01*
X471343Y429684D02*
X473937Y429684D01*
X473937Y431327D02*
X471343Y431327D01*
X471343Y432970D02*
X473937Y432970D01*
X479243Y438883D02*
X479243Y441477D01*
X494637Y441477D01*
X494637Y438883D01*
X479243Y438883D01*
X479243Y440526D02*
X494637Y440526D01*
X479243Y443883D02*
X479243Y446477D01*
X494637Y446477D01*
X494637Y443883D01*
X479243Y443883D01*
X479243Y445526D02*
X494637Y445526D01*
X479243Y448883D02*
X479243Y451477D01*
X494637Y451477D01*
X494637Y448883D01*
X479243Y448883D01*
X479243Y450526D02*
X494637Y450526D01*
X479243Y453883D02*
X479243Y456477D01*
X494637Y456477D01*
X494637Y453883D01*
X479243Y453883D01*
X479243Y455526D02*
X494637Y455526D01*
X479243Y458883D02*
X479243Y461477D01*
X494637Y461477D01*
X494637Y458883D01*
X479243Y458883D01*
X479243Y460526D02*
X494637Y460526D01*
X479243Y463883D02*
X479243Y466477D01*
X494637Y466477D01*
X494637Y463883D01*
X479243Y463883D01*
X479243Y465526D02*
X494637Y465526D01*
X479243Y468883D02*
X479243Y471477D01*
X494637Y471477D01*
X494637Y468883D01*
X479243Y468883D01*
X479243Y470526D02*
X494637Y470526D01*
X479243Y473883D02*
X479243Y476477D01*
X494637Y476477D01*
X494637Y473883D01*
X479243Y473883D01*
X479243Y475526D02*
X494637Y475526D01*
X479243Y478883D02*
X479243Y481477D01*
X494637Y481477D01*
X494637Y478883D01*
X479243Y478883D01*
X479243Y480526D02*
X494637Y480526D01*
X479243Y483883D02*
X479243Y486477D01*
X494637Y486477D01*
X494637Y483883D01*
X479243Y483883D01*
X479243Y485526D02*
X494637Y485526D01*
X479243Y488883D02*
X479243Y491477D01*
X494637Y491477D01*
X494637Y488883D01*
X479243Y488883D01*
X479243Y490526D02*
X494637Y490526D01*
X479243Y493883D02*
X479243Y496477D01*
X494637Y496477D01*
X494637Y493883D01*
X479243Y493883D01*
X479243Y495526D02*
X494637Y495526D01*
X473937Y517177D02*
X471343Y517177D01*
X473937Y517177D02*
X473937Y501783D01*
X471343Y501783D01*
X471343Y517177D01*
X471343Y503426D02*
X473937Y503426D01*
X473937Y505069D02*
X471343Y505069D01*
X471343Y506712D02*
X473937Y506712D01*
X473937Y508355D02*
X471343Y508355D01*
X471343Y509998D02*
X473937Y509998D01*
X473937Y511641D02*
X471343Y511641D01*
X471343Y513284D02*
X473937Y513284D01*
X473937Y514927D02*
X471343Y514927D01*
X471343Y516570D02*
X473937Y516570D01*
X468937Y517177D02*
X466343Y517177D01*
X468937Y517177D02*
X468937Y501783D01*
X466343Y501783D01*
X466343Y517177D01*
X466343Y503426D02*
X468937Y503426D01*
X468937Y505069D02*
X466343Y505069D01*
X466343Y506712D02*
X468937Y506712D01*
X468937Y508355D02*
X466343Y508355D01*
X466343Y509998D02*
X468937Y509998D01*
X468937Y511641D02*
X466343Y511641D01*
X466343Y513284D02*
X468937Y513284D01*
X468937Y514927D02*
X466343Y514927D01*
X466343Y516570D02*
X468937Y516570D01*
X463937Y517177D02*
X461343Y517177D01*
X463937Y517177D02*
X463937Y501783D01*
X461343Y501783D01*
X461343Y517177D01*
X461343Y503426D02*
X463937Y503426D01*
X463937Y505069D02*
X461343Y505069D01*
X461343Y506712D02*
X463937Y506712D01*
X463937Y508355D02*
X461343Y508355D01*
X461343Y509998D02*
X463937Y509998D01*
X463937Y511641D02*
X461343Y511641D01*
X461343Y513284D02*
X463937Y513284D01*
X463937Y514927D02*
X461343Y514927D01*
X461343Y516570D02*
X463937Y516570D01*
X458937Y517177D02*
X456343Y517177D01*
X458937Y517177D02*
X458937Y501783D01*
X456343Y501783D01*
X456343Y517177D01*
X456343Y503426D02*
X458937Y503426D01*
X458937Y505069D02*
X456343Y505069D01*
X456343Y506712D02*
X458937Y506712D01*
X458937Y508355D02*
X456343Y508355D01*
X456343Y509998D02*
X458937Y509998D01*
X458937Y511641D02*
X456343Y511641D01*
X456343Y513284D02*
X458937Y513284D01*
X458937Y514927D02*
X456343Y514927D01*
X456343Y516570D02*
X458937Y516570D01*
X453937Y517177D02*
X451343Y517177D01*
X453937Y517177D02*
X453937Y501783D01*
X451343Y501783D01*
X451343Y517177D01*
X451343Y503426D02*
X453937Y503426D01*
X453937Y505069D02*
X451343Y505069D01*
X451343Y506712D02*
X453937Y506712D01*
X453937Y508355D02*
X451343Y508355D01*
X451343Y509998D02*
X453937Y509998D01*
X453937Y511641D02*
X451343Y511641D01*
X451343Y513284D02*
X453937Y513284D01*
X453937Y514927D02*
X451343Y514927D01*
X451343Y516570D02*
X453937Y516570D01*
X448937Y517177D02*
X446343Y517177D01*
X448937Y517177D02*
X448937Y501783D01*
X446343Y501783D01*
X446343Y517177D01*
X446343Y503426D02*
X448937Y503426D01*
X448937Y505069D02*
X446343Y505069D01*
X446343Y506712D02*
X448937Y506712D01*
X448937Y508355D02*
X446343Y508355D01*
X446343Y509998D02*
X448937Y509998D01*
X448937Y511641D02*
X446343Y511641D01*
X446343Y513284D02*
X448937Y513284D01*
X448937Y514927D02*
X446343Y514927D01*
X446343Y516570D02*
X448937Y516570D01*
X443937Y517177D02*
X441343Y517177D01*
X443937Y517177D02*
X443937Y501783D01*
X441343Y501783D01*
X441343Y517177D01*
X441343Y503426D02*
X443937Y503426D01*
X443937Y505069D02*
X441343Y505069D01*
X441343Y506712D02*
X443937Y506712D01*
X443937Y508355D02*
X441343Y508355D01*
X441343Y509998D02*
X443937Y509998D01*
X443937Y511641D02*
X441343Y511641D01*
X441343Y513284D02*
X443937Y513284D01*
X443937Y514927D02*
X441343Y514927D01*
X441343Y516570D02*
X443937Y516570D01*
X438937Y517177D02*
X436343Y517177D01*
X438937Y517177D02*
X438937Y501783D01*
X436343Y501783D01*
X436343Y517177D01*
X436343Y503426D02*
X438937Y503426D01*
X438937Y505069D02*
X436343Y505069D01*
X436343Y506712D02*
X438937Y506712D01*
X438937Y508355D02*
X436343Y508355D01*
X436343Y509998D02*
X438937Y509998D01*
X438937Y511641D02*
X436343Y511641D01*
X436343Y513284D02*
X438937Y513284D01*
X438937Y514927D02*
X436343Y514927D01*
X436343Y516570D02*
X438937Y516570D01*
X433937Y517177D02*
X431343Y517177D01*
X433937Y517177D02*
X433937Y501783D01*
X431343Y501783D01*
X431343Y517177D01*
X431343Y503426D02*
X433937Y503426D01*
X433937Y505069D02*
X431343Y505069D01*
X431343Y506712D02*
X433937Y506712D01*
X433937Y508355D02*
X431343Y508355D01*
X431343Y509998D02*
X433937Y509998D01*
X433937Y511641D02*
X431343Y511641D01*
X431343Y513284D02*
X433937Y513284D01*
X433937Y514927D02*
X431343Y514927D01*
X431343Y516570D02*
X433937Y516570D01*
X428937Y517177D02*
X426343Y517177D01*
X428937Y517177D02*
X428937Y501783D01*
X426343Y501783D01*
X426343Y517177D01*
X426343Y503426D02*
X428937Y503426D01*
X428937Y505069D02*
X426343Y505069D01*
X426343Y506712D02*
X428937Y506712D01*
X428937Y508355D02*
X426343Y508355D01*
X426343Y509998D02*
X428937Y509998D01*
X428937Y511641D02*
X426343Y511641D01*
X426343Y513284D02*
X428937Y513284D01*
X428937Y514927D02*
X426343Y514927D01*
X426343Y516570D02*
X428937Y516570D01*
X423937Y517177D02*
X421343Y517177D01*
X423937Y517177D02*
X423937Y501783D01*
X421343Y501783D01*
X421343Y517177D01*
X421343Y503426D02*
X423937Y503426D01*
X423937Y505069D02*
X421343Y505069D01*
X421343Y506712D02*
X423937Y506712D01*
X423937Y508355D02*
X421343Y508355D01*
X421343Y509998D02*
X423937Y509998D01*
X423937Y511641D02*
X421343Y511641D01*
X421343Y513284D02*
X423937Y513284D01*
X423937Y514927D02*
X421343Y514927D01*
X421343Y516570D02*
X423937Y516570D01*
X418937Y517177D02*
X416343Y517177D01*
X418937Y517177D02*
X418937Y501783D01*
X416343Y501783D01*
X416343Y517177D01*
X416343Y503426D02*
X418937Y503426D01*
X418937Y505069D02*
X416343Y505069D01*
X416343Y506712D02*
X418937Y506712D01*
X418937Y508355D02*
X416343Y508355D01*
X416343Y509998D02*
X418937Y509998D01*
X418937Y511641D02*
X416343Y511641D01*
X416343Y513284D02*
X418937Y513284D01*
X418937Y514927D02*
X416343Y514927D01*
X416343Y516570D02*
X418937Y516570D01*
D22*
X150520Y349180D03*
X169520Y349180D03*
X150520Y404440D03*
X169520Y404440D03*
D31*
X320520Y449730D03*
X320520Y497990D03*
D22*
X380340Y543230D03*
X361340Y543230D03*
X378780Y457200D03*
X359780Y457200D03*
X380340Y522140D03*
X361340Y522140D03*
D32*
X47640Y357940D03*
D33*
X47640Y402940D03*
D32*
X112640Y357940D03*
X112640Y402940D03*
D17*
X268960Y119440D03*
D34*
X268960Y144840D03*
X268960Y170240D03*
X180960Y170240D03*
X180960Y144840D03*
X180960Y119440D03*
D24*
X273680Y83160D03*
X273680Y64160D03*
D35*
X227440Y64960D02*
X227440Y49960D01*
X202440Y49960D02*
X202440Y64960D01*
X177440Y64960D02*
X177440Y49960D01*
D26*
X67700Y176580D02*
X52460Y176580D01*
X52460Y151180D02*
X67700Y151180D01*
X67700Y125780D02*
X52460Y125780D01*
D35*
X52460Y283320D02*
X37460Y283320D01*
X37460Y258320D02*
X52460Y258320D01*
D36*
X203486Y264692D03*
X226600Y264692D03*
X249714Y264692D03*
D37*
X226600Y326670D03*
D24*
X250220Y228680D03*
X250220Y209680D03*
D22*
X213440Y226380D03*
X194440Y226380D03*
D38*
X133140Y282580D03*
D39*
X133140Y257180D03*
D40*
X402020Y203820D03*
X392520Y223820D03*
X411520Y223820D03*
D24*
X393590Y246340D03*
X393590Y265340D03*
X452480Y243800D03*
X452480Y262800D03*
D40*
X485840Y202940D03*
X476340Y222940D03*
X495340Y222940D03*
D24*
X482260Y244460D03*
X482260Y263460D03*
X537180Y243800D03*
X537180Y262800D03*
D26*
X334880Y132106D02*
X319640Y132106D01*
X319640Y107214D02*
X334880Y107214D01*
X334880Y82322D02*
X319640Y82322D01*
X319640Y156998D02*
X334880Y156998D01*
D40*
X318200Y206320D03*
X308700Y226320D03*
X327700Y226320D03*
D24*
X315460Y247000D03*
X315460Y266000D03*
X367840Y246340D03*
X367840Y265340D03*
D26*
X522700Y513360D02*
X537940Y513360D01*
X537940Y538760D02*
X522700Y538760D01*
X522700Y564160D02*
X537940Y564160D01*
X537940Y589560D02*
X522700Y589560D01*
D41*
X566166Y624840D03*
X566166Y637540D03*
X566166Y650240D03*
X566166Y662940D03*
X566166Y675640D03*
X566166Y688340D03*
X566166Y701040D03*
X518160Y701040D03*
X518160Y688340D03*
X518160Y675640D03*
X518160Y662940D03*
X518160Y650240D03*
X518160Y637540D03*
X518160Y624840D03*
D42*
X294640Y388620D03*
D43*
X198120Y459740D03*
X198120Y485140D03*
X198120Y510540D03*
X198120Y535940D03*
X20320Y561340D03*
X20320Y535940D03*
X20320Y510540D03*
X20320Y485140D03*
X20320Y459740D03*
X20320Y434340D03*
D24*
X124460Y687680D03*
X124460Y668680D03*
X99060Y695300D03*
X99060Y676300D03*
D44*
G36*
X465015Y548237D02*
X474577Y538675D01*
X465015Y529113D01*
X455453Y538675D01*
X465015Y548237D01*
G37*
G36*
X479865Y563087D02*
X489427Y553525D01*
X479865Y543963D01*
X470303Y553525D01*
X479865Y563087D01*
G37*
D17*
X581660Y276520D03*
X581660Y297520D03*
D24*
X581660Y236880D03*
X581660Y255880D03*
D17*
X86700Y78740D03*
X65700Y78740D03*
D22*
X128880Y78740D03*
X109880Y78740D03*
D45*
X139991Y175884D02*
X146019Y182650D01*
X139991Y175884D02*
X128597Y186036D01*
X134625Y192802D01*
X146019Y182650D01*
X143769Y180124D02*
X135232Y180124D01*
X130474Y184364D02*
X144095Y184364D01*
X139337Y188604D02*
X130885Y188604D01*
X160015Y198358D02*
X166043Y205124D01*
X160015Y198358D02*
X148621Y208510D01*
X154649Y215276D01*
X166043Y205124D01*
X163793Y202598D02*
X155256Y202598D01*
X150498Y206838D02*
X164119Y206838D01*
X159361Y211078D02*
X150909Y211078D01*
D46*
X798820Y325660D03*
X791240Y354190D03*
X911400Y338160D03*
X177800Y269240D03*
X223520Y180340D03*
X160020Y370840D03*
X180340Y439420D03*
X454660Y449580D03*
X402590Y515620D03*
X353060Y421640D03*
X739140Y350520D03*
X815340Y647700D03*
X777240Y675640D03*
X822960Y698500D03*
X259080Y731520D03*
X271780Y553720D03*
X340360Y538480D03*
X551180Y728980D03*
X358800Y494640D03*
X202680Y700920D03*
X149860Y439420D03*
X711200Y96520D03*
X711200Y350520D03*
X134620Y116840D03*
X226060Y297180D03*
X314960Y297180D03*
X368300Y297180D03*
X393700Y297180D03*
X452120Y297180D03*
X535940Y297180D03*
X480060Y297180D03*
X340360Y243840D03*
X426720Y236220D03*
X518160Y226060D03*
X474980Y403860D03*
X488950Y513080D03*
X381000Y500380D03*
X370840Y434340D03*
X576580Y538480D03*
X505460Y370840D03*
X599440Y406400D03*
X219710Y546100D03*
X120650Y554990D03*
X457200Y490220D03*
X459740Y467360D03*
X932180Y398780D03*
X955040Y314960D03*
X274320Y215900D03*
X261620Y704850D03*
X261620Y650240D03*
X111760Y515620D03*
X168910Y563880D03*
X163830Y523240D03*
X231770Y641080D03*
X237490Y598170D03*
X237490Y513080D03*
X198120Y675640D03*
X297180Y675640D03*
X254000Y528320D03*
X147160Y689100D03*
X309880Y688340D03*
X48260Y551180D03*
X167430Y666670D03*
X76200Y551180D03*
X899160Y546100D03*
X800100Y546100D03*
X823500Y633220D03*
X868680Y703580D03*
X904240Y673100D03*
X342900Y264160D03*
X396240Y398780D03*
X436880Y445770D03*
X342900Y332740D03*
X546100Y408940D03*
X405435Y549060D03*
X520700Y459740D03*
X533400Y472440D03*
X546100Y386080D03*
X842940Y371320D03*
X741680Y269240D03*
X716280Y604520D03*
X137160Y424180D03*
X424180Y482600D03*
X378460Y195580D03*
X444500Y180340D03*
X444500Y111760D03*
X467360Y332740D03*
X459740Y170180D03*
X381000Y332740D03*
X285750Y332740D03*
X299720Y195580D03*
X358140Y180340D03*
X358140Y111760D03*
X396240Y419100D03*
X426720Y457200D03*
X307340Y332740D03*
X851360Y321160D03*
X791220Y375340D03*
X899160Y284480D03*
X675640Y375920D03*
X695960Y121920D03*
X427990Y269240D03*
X427990Y332740D03*
X551180Y223520D03*
X492760Y332740D03*
X421640Y556260D03*
X433070Y544830D03*
X444500Y556260D03*
X490220Y563880D03*
M02*
