G04 EAGLE Gerber RS-274X export*
G75*
%MOMM*%
%FSLAX34Y34*%
%LPD*%
%INSolderpaste Bottom*%
%IPPOS*%
%AMOC8*
5,1,8,0,0,1.08239X$1,22.5*%
G01*
%ADD10R,1.100000X1.400000*%
%ADD11R,1.400000X1.100000*%
%ADD12R,1.300000X1.500000*%
%ADD13R,1.500000X1.300000*%
%ADD14R,1.300000X1.200000*%
%ADD15R,1.200000X1.300000*%
%ADD16R,1.000000X1.200000*%


D10*
X865560Y379140D03*
X885560Y379140D03*
D11*
X931440Y277160D03*
X931440Y297160D03*
D10*
X931160Y570960D03*
X911160Y570960D03*
X770920Y570960D03*
X790920Y570960D03*
D12*
X302870Y497650D03*
X283870Y497650D03*
X304140Y450120D03*
X285140Y450120D03*
X380340Y538150D03*
X361340Y538150D03*
D13*
X401340Y474370D03*
X401340Y493370D03*
D12*
X495960Y401880D03*
X514960Y401880D03*
D13*
X487240Y489560D03*
X487240Y470560D03*
D12*
X380340Y517060D03*
X361340Y517060D03*
X495960Y424280D03*
X514960Y424280D03*
X206400Y91160D03*
X225400Y91160D03*
D14*
X442710Y132570D03*
X442710Y152890D03*
D15*
X397020Y181580D03*
X417340Y181580D03*
D16*
X443800Y200320D03*
X453300Y220320D03*
X434300Y220320D03*
D14*
X527060Y130340D03*
X527060Y150660D03*
D15*
X480220Y181600D03*
X500540Y181600D03*
D16*
X529200Y187700D03*
X538700Y207700D03*
X519700Y207700D03*
D14*
X358560Y133820D03*
X358560Y154140D03*
D15*
X304640Y174840D03*
X324960Y174840D03*
D16*
X359020Y203780D03*
X368520Y223780D03*
X349520Y223780D03*
M02*
