M48
;GenerationSoftware,Autodesk,EAGLE,9.2.2*%
;CreationDate,2019-02-18T22:32:21Z*%
FMAT,2
ICI,OFF
METRIC,TZ,000.000
T7C0.350
T6C0.800
T5C0.813
T4C0.990
T3C1.000
T2C1.016
T1C3.175
%
G90
M71
T1
X53848Y34290
X3048Y72898
X3810Y3556
X91186Y4318
X98044Y73152
T2
X40974Y15794
X65733Y45673
X68222Y45673
X70711Y45673
X65795Y53412
X68284Y53412
X70773Y53412
X8548Y17658
X8548Y15118
X8548Y12578
X32726Y13211
X32726Y10721
X32726Y8232
X32726Y15700
X53032Y51336
X53032Y53876
X53032Y56416
X53032Y58956
X81766Y19586
X84306Y19586
X86846Y19586
X89386Y19586
X91926Y19586
X98703Y37608
X98703Y35068
X63067Y37633
X98703Y32528
X98703Y29988
X98703Y27448
X98703Y24908
X98703Y22368
X98703Y19828
X98703Y17288
X98703Y14748
X98703Y12208
X98703Y9668
X98703Y7128
X98703Y4588
X98703Y2048
X63067Y35093
X63067Y32553
X63067Y30013
X63067Y27473
X63067Y24933
X63067Y22393
X63067Y19853
X63067Y17313
X63067Y14773
X63067Y12233
X63067Y9693
X63067Y7153
X63067Y4613
X63067Y2073
X68862Y72030
X68862Y69490
X68862Y66950
X68862Y64410
X68862Y61870
X68862Y59330
X44374Y65447
X44374Y62958
X44374Y60469
X44374Y67937
X44374Y70426
X44374Y72915
X34698Y68005
X34698Y70494
X34698Y72983
X34698Y65515
X34698Y63026
X34698Y60537
X49352Y13295
X49352Y10805
X49352Y8316
X49352Y15784
X40974Y13305
X79226Y19586
X40974Y10815
X40974Y8326
T3
X15490Y72900
X95900Y44490
X95900Y48890
X95900Y62346
X95900Y66746
X22744Y5746
X20244Y5746
X17744Y5746
X18030Y72900
X20570Y72900
X5512Y28332
X5512Y25832
X23110Y72900
T4
X11264Y40294
X4764Y35794
X4764Y40294
X11264Y35794
T5
X13314Y28258
X13314Y25718
X32052Y44973
X32052Y49799
T6
X26896Y11944
X26896Y14484
X26896Y17024
X18096Y17024
X18096Y14484
X18096Y11944
T7
X34036Y24384
X42672Y23622
X51816Y22606
X47498Y40386
X48895Y51308
X45212Y48768
X46736Y46736
X38100Y48768
X37084Y43434
X57658Y53848
X50546Y37084
X59944Y40640
X21590Y56388
X11684Y56388
X93218Y39878
X95504Y31496
X27432Y21590
X18913Y62062
X19600Y59100
X26924Y70866
X18605Y63981
X14716Y66370
X30988Y69342
X16616Y67048
X89408Y57150
X80518Y57150
X82350Y63322
X86868Y70358
X90424Y67310
X34290Y26416
X39624Y39878
X43688Y44577
X82296Y69850
X54102Y40640
X52070Y45974
X53086Y47244
X54610Y38608
X84294Y37132
X74168Y26924
X71628Y60452
X16256Y42672
X42418Y48260
X37846Y19558
X44450Y18542
X44450Y11176
X46736Y33274
X45974Y17018
X38100Y33274
X29972Y19558
X35814Y18034
X35814Y11176
X39624Y41910
X42672Y45720
X30734Y33274
X85136Y32116
X80136Y39566
X90424Y28956
X69088Y37592
X69088Y12192
X42799Y26924
X42799Y33274
X55626Y22098
X49276Y33274
X14208Y64054
X79882Y32566
X79886Y36816
X91140Y33816
X17272Y28956
X22352Y18034
X16764Y37846
X19050Y44958
X46228Y44704
X40259Y51562
X35306Y42164
X73914Y35052
X81534Y64770
X77724Y67564
X34290Y33274
X25908Y73152
X13462Y44958
X20066Y70358
X23622Y52578
X34036Y53848
X55118Y72898
X28575Y33274
X22606Y29718
X31496Y29718
X36830Y29718
X39370Y29718
X53594Y29718
X45212Y29718
X48006Y29718
M30