M48
;GenerationSoftware,Autodesk,EAGLE,9.2.2*%
;CreationDate,2019-02-25T04:15:34Z*%
FMAT,2
ICI,OFF
METRIC,TZ,000.000
T7C0.350
T6C0.800
T5C0.813
T4C0.990
T3C1.000
T2C1.016
T1C3.175
%
G90
M71
T1
X3048Y72898
X91186Y4318
X53848Y34290
X3810Y3556
X98044Y73152
T2
X98703Y7128
X98703Y9668
X98703Y12208
X98703Y14748
X98703Y17288
X98703Y19828
X98703Y22368
X98703Y24908
X98703Y27448
X98703Y32528
X98703Y35068
X98703Y37608
X91926Y19586
X89386Y19586
X86846Y19586
X84306Y19586
X81766Y19586
X79226Y19586
X98703Y29988
X29464Y38862
X53032Y58956
X53032Y56416
X53032Y53876
X63067Y32553
X53032Y51336
X32726Y15700
X32726Y8232
X32726Y10721
X32726Y13211
X6008Y12578
X6008Y15118
X6008Y17658
X70773Y53412
X68284Y53412
X65795Y53412
X70711Y45673
X68222Y45673
X65733Y45673
X40974Y15794
X40974Y8326
X40974Y10815
X40974Y13305
X49352Y15784
X49352Y8316
X49352Y10805
X49352Y13295
X34698Y60537
X34698Y63026
X34698Y65515
X34698Y72983
X34698Y70494
X34698Y68005
X44374Y72915
X44374Y70426
X44374Y67937
X44374Y60469
X44374Y62958
X44374Y65447
X68862Y59330
X68862Y61870
X68862Y64410
X68862Y66950
X68862Y69490
X68862Y72030
X63067Y2073
X63067Y4613
X63067Y7153
X63067Y9693
X63067Y12233
X63067Y14773
X63067Y17313
X63067Y19853
X63067Y22393
X63067Y24933
X63067Y27473
X63067Y30013
X63067Y35093
X63067Y37633
X98703Y2048
X98703Y4588
T3
X2032Y53594
X2032Y51054
X2032Y48514
X2032Y45974
X2032Y43434
X95900Y44490
X95900Y48890
X95900Y62346
X95900Y66746
X22744Y5746
X20244Y5746
X17744Y5746
X4496Y28332
X4496Y25832
X19812Y45974
X19812Y48514
X19812Y51054
X19812Y53594
X2032Y56134
T4
X4764Y35794
X4764Y40294
X11264Y35794
X11264Y40294
T5
X32052Y44973
X32052Y49799
X13314Y28258
X13314Y25718
T6
X26896Y11944
X26896Y14484
X26896Y17024
X18096Y17024
X18096Y14484
X18096Y11944
T7
X25908Y73152
X27178Y55372
X34036Y53848
X55118Y72898
X35880Y49464
X20268Y70092
X14986Y43942
X71120Y9652
X71120Y35052
X13462Y11684
X42672Y45720
X39624Y41910
X35814Y11176
X35814Y18034
X29972Y19558
X28575Y33274
X38100Y33274
X45974Y17018
X46736Y33274
X44450Y18034
X37846Y19558
X42418Y48260
X13716Y42418
X44450Y11176
X71628Y60452
X74168Y26924
X84294Y37132
X54610Y38608
X53340Y47244
X52070Y45974
X40544Y54906
X54610Y40894
X34290Y33274
X43688Y44577
X39624Y39878
X34290Y26416
X90424Y67310
X86868Y70358
X82350Y63322
X80010Y54610
X89916Y54610
X7620Y55118
X16743Y66667
X4826Y55118
X30988Y68834
X14716Y68910
X25400Y52832
X29718Y67564
X19812Y67564
X23749Y51308
X23749Y59817
X23177Y64108
X16383Y52324
X16891Y56388
X11176Y51562
X26162Y65024
X26162Y70485
X27432Y21590
X95504Y31496
X93218Y39878
X45974Y46736
X45720Y49022
X12065Y55499
X21971Y54610
X59944Y40640
X50546Y37084
X57658Y53848
X37084Y43434
X79882Y32566
X79124Y35419
X91140Y33816
X17780Y26924
X22352Y18034
X16002Y37084
X18034Y43942
X45466Y44958
X40259Y51562
X35306Y42164
X73914Y35052
X81534Y64770
X45212Y29718
X49022Y56388
X44450Y55626
X38100Y50038
X48895Y51308
X47498Y40386
X43307Y54483
X42164Y55626
X77724Y67564
X82296Y69850
X51816Y22606
X42672Y23622
X34036Y24384
X48006Y29718
X53594Y29718
X39370Y29718
X36830Y29718
X31496Y29718
X22606Y29718
X49276Y33274
X55118Y22352
X42799Y33274
X42799Y26924
X69596Y12192
X67564Y37592
X89916Y28448
X79122Y37534
X85136Y32116
X30734Y33274
M30